<?xml version="1.0" encoding="utf-8" standalone="no"?>
<!DOCTYPE svg PUBLIC "-//W3C//DTD SVG 1.1//EN"
  "http://www.w3.org/Graphics/SVG/1.1/DTD/svg11.dtd">
<!-- Created with matplotlib (http://matplotlib.org/) -->
<svg height="211pt" version="1.1" viewBox="0 0 323 211" width="323pt" xmlns="http://www.w3.org/2000/svg" xmlns:xlink="http://www.w3.org/1999/xlink">
 <defs>
  <style type="text/css">
*{stroke-linecap:butt;stroke-linejoin:round;stroke-miterlimit:100000;}
  </style>
 </defs>
 <g id="figure_1">
  <g id="patch_1">
   <path d="M 0 211 
L 323 211 
L 323 0 
L 0 0 
z
" style="fill:#ffffff;"/>
  </g>
  <g id="axes_1">
   <g id="patch_2">
    <path d="M 39.865 182.42625 
L 310.04 182.42625 
L 310.04 18.766875 
L 39.865 18.766875 
z
" style="fill:#ffffff;"/>
   </g>
   <g id="line2d_1">
    <path clip-path="url(#p6fdf37c64a)" d="M 154.689375 180.272547 
L 195.215625 180.272547 
L 195.215625 173.895505 
L 154.689375 173.895505 
L 154.689375 180.272547 
" style="fill:none;stroke:#0000ff;stroke-linecap:square;"/>
   </g>
   <g id="line2d_2">
    <path clip-path="url(#p6fdf37c64a)" d="M 174.9525 180.272547 
L 174.9525 182.42625 
" style="fill:none;stroke:#0000ff;stroke-dasharray:6.000000,6.000000;stroke-dashoffset:0.0;"/>
   </g>
   <g id="line2d_3">
    <path clip-path="url(#p6fdf37c64a)" d="M 174.9525 173.895505 
L 174.9525 164.696484 
" style="fill:none;stroke:#0000ff;stroke-dasharray:6.000000,6.000000;stroke-dashoffset:0.0;"/>
   </g>
   <g id="line2d_4">
    <path clip-path="url(#p6fdf37c64a)" d="M 164.820938 182.42625 
L 185.084063 182.42625 
" style="fill:none;stroke:#000000;stroke-linecap:square;"/>
   </g>
   <g id="line2d_5">
    <path clip-path="url(#p6fdf37c64a)" d="M 164.820938 164.696484 
L 185.084063 164.696484 
" style="fill:none;stroke:#000000;stroke-linecap:square;"/>
   </g>
   <g id="line2d_6">
    <path clip-path="url(#p6fdf37c64a)" d="M 154.689375 178.483641 
L 195.215625 178.483641 
" style="fill:none;stroke:#ff0000;stroke-linecap:square;"/>
   </g>
   <g id="line2d_7">
    <defs>
     <path d="M -3 0 
L 3 0 
M 0 3 
L 0 -3 
" id="m75affc888b" style="stroke:#000000;stroke-width:0.5;"/>
    </defs>
    <g clip-path="url(#p6fdf37c64a)">
     <use style="fill:#0000ff;stroke:#000000;stroke-width:0.5;" x="174.9525" xlink:href="#m75affc888b" y="124.780644727"/>
     <use style="fill:#0000ff;stroke:#000000;stroke-width:0.5;" x="174.9525" xlink:href="#m75affc888b" y="141.088619531"/>
     <use style="fill:#0000ff;stroke:#000000;stroke-width:0.5;" x="174.9525" xlink:href="#m75affc888b" y="141.088619531"/>
     <use style="fill:#0000ff;stroke:#000000;stroke-width:0.5;" x="174.9525" xlink:href="#m75affc888b" y="141.088619531"/>
     <use style="fill:#0000ff;stroke:#000000;stroke-width:0.5;" x="174.9525" xlink:href="#m75affc888b" y="141.088619531"/>
     <use style="fill:#0000ff;stroke:#000000;stroke-width:0.5;" x="174.9525" xlink:href="#m75affc888b" y="161.161905577"/>
     <use style="fill:#0000ff;stroke:#000000;stroke-width:0.5;" x="174.9525" xlink:href="#m75affc888b" y="120.365251172"/>
     <use style="fill:#0000ff;stroke:#000000;stroke-width:0.5;" x="174.9525" xlink:href="#m75affc888b" y="120.365251172"/>
     <use style="fill:#0000ff;stroke:#000000;stroke-width:0.5;" x="174.9525" xlink:href="#m75affc888b" y="163.523592187"/>
     <use style="fill:#0000ff;stroke:#000000;stroke-width:0.5;" x="174.9525" xlink:href="#m75affc888b" y="160.918680469"/>
     <use style="fill:#0000ff;stroke:#000000;stroke-width:0.5;" x="174.9525" xlink:href="#m75affc888b" y="114.911084287"/>
     <use style="fill:#0000ff;stroke:#000000;stroke-width:0.5;" x="174.9525" xlink:href="#m75affc888b" y="114.911084287"/>
     <use style="fill:#0000ff;stroke:#000000;stroke-width:0.5;" x="174.9525" xlink:href="#m75affc888b" y="161.616496767"/>
     <use style="fill:#0000ff;stroke:#000000;stroke-width:0.5;" x="174.9525" xlink:href="#m75affc888b" y="161.902900673"/>
     <use style="fill:#0000ff;stroke:#000000;stroke-width:0.5;" x="174.9525" xlink:href="#m75affc888b" y="120.365251172"/>
     <use style="fill:#0000ff;stroke:#000000;stroke-width:0.5;" x="174.9525" xlink:href="#m75affc888b" y="121.9325079"/>
     <use style="fill:#0000ff;stroke:#000000;stroke-width:0.5;" x="174.9525" xlink:href="#m75affc888b" y="157.582975087"/>
     <use style="fill:#0000ff;stroke:#000000;stroke-width:0.5;" x="174.9525" xlink:href="#m75affc888b" y="157.582975087"/>
     <use style="fill:#0000ff;stroke:#000000;stroke-width:0.5;" x="174.9525" xlink:href="#m75affc888b" y="145.430148155"/>
     <use style="fill:#0000ff;stroke:#000000;stroke-width:0.5;" x="174.9525" xlink:href="#m75affc888b" y="137.456281533"/>
     <use style="fill:#0000ff;stroke:#000000;stroke-width:0.5;" x="174.9525" xlink:href="#m75affc888b" y="110.859369141"/>
     <use style="fill:#0000ff;stroke:#000000;stroke-width:0.5;" x="174.9525" xlink:href="#m75affc888b" y="161.616496767"/>
     <use style="fill:#0000ff;stroke:#000000;stroke-width:0.5;" x="174.9525" xlink:href="#m75affc888b" y="145.739273438"/>
     <use style="fill:#0000ff;stroke:#000000;stroke-width:0.5;" x="174.9525" xlink:href="#m75affc888b" y="42.6804555562"/>
     <use style="fill:#0000ff;stroke:#000000;stroke-width:0.5;" x="174.9525" xlink:href="#m75affc888b" y="42.6804555562"/>
     <use style="fill:#0000ff;stroke:#000000;stroke-width:0.5;" x="174.9525" xlink:href="#m75affc888b" y="149.694375"/>
     <use style="fill:#0000ff;stroke:#000000;stroke-width:0.5;" x="174.9525" xlink:href="#m75affc888b" y="149.694375"/>
     <use style="fill:#0000ff;stroke:#000000;stroke-width:0.5;" x="174.9525" xlink:href="#m75affc888b" y="149.694375"/>
     <use style="fill:#0000ff;stroke:#000000;stroke-width:0.5;" x="174.9525" xlink:href="#m75affc888b" y="149.694375"/>
     <use style="fill:#0000ff;stroke:#000000;stroke-width:0.5;" x="174.9525" xlink:href="#m75affc888b" y="160.918680469"/>
     <use style="fill:#0000ff;stroke:#000000;stroke-width:0.5;" x="174.9525" xlink:href="#m75affc888b" y="160.918680469"/>
     <use style="fill:#0000ff;stroke:#000000;stroke-width:0.5;" x="174.9525" xlink:href="#m75affc888b" y="110.859369141"/>
     <use style="fill:#0000ff;stroke:#000000;stroke-width:0.5;" x="174.9525" xlink:href="#m75affc888b" y="158.832023437"/>
     <use style="fill:#0000ff;stroke:#000000;stroke-width:0.5;" x="174.9525" xlink:href="#m75affc888b" y="145.117586025"/>
     <use style="fill:#0000ff;stroke:#000000;stroke-width:0.5;" x="174.9525" xlink:href="#m75affc888b" y="145.117586025"/>
     <use style="fill:#0000ff;stroke:#000000;stroke-width:0.5;" x="174.9525" xlink:href="#m75affc888b" y="141.088619531"/>
     <use style="fill:#0000ff;stroke:#000000;stroke-width:0.5;" x="174.9525" xlink:href="#m75affc888b" y="159.743524327"/>
     <use style="fill:#0000ff;stroke:#000000;stroke-width:0.5;" x="174.9525" xlink:href="#m75affc888b" y="159.743524327"/>
     <use style="fill:#0000ff;stroke:#000000;stroke-width:0.5;" x="174.9525" xlink:href="#m75affc888b" y="159.743524327"/>
     <use style="fill:#0000ff;stroke:#000000;stroke-width:0.5;" x="174.9525" xlink:href="#m75affc888b" y="163.059890625"/>
     <use style="fill:#0000ff;stroke:#000000;stroke-width:0.5;" x="174.9525" xlink:href="#m75affc888b" y="163.059890625"/>
     <use style="fill:#0000ff;stroke:#000000;stroke-width:0.5;" x="174.9525" xlink:href="#m75affc888b" y="162.982616123"/>
     <use style="fill:#0000ff;stroke:#000000;stroke-width:0.5;" x="174.9525" xlink:href="#m75affc888b" y="162.982616123"/>
     <use style="fill:#0000ff;stroke:#000000;stroke-width:0.5;" x="174.9525" xlink:href="#m75affc888b" y="141.088619531"/>
     <use style="fill:#0000ff;stroke:#000000;stroke-width:0.5;" x="174.9525" xlink:href="#m75affc888b" y="160.098119639"/>
     <use style="fill:#0000ff;stroke:#000000;stroke-width:0.5;" x="174.9525" xlink:href="#m75affc888b" y="160.098119639"/>
     <use style="fill:#0000ff;stroke:#000000;stroke-width:0.5;" x="174.9525" xlink:href="#m75affc888b" y="160.098119639"/>
     <use style="fill:#0000ff;stroke:#000000;stroke-width:0.5;" x="174.9525" xlink:href="#m75affc888b" y="153.397168359"/>
     <use style="fill:#0000ff;stroke:#000000;stroke-width:0.5;" x="174.9525" xlink:href="#m75affc888b" y="114.911084287"/>
     <use style="fill:#0000ff;stroke:#000000;stroke-width:0.5;" x="174.9525" xlink:href="#m75affc888b" y="153.397168359"/>
     <use style="fill:#0000ff;stroke:#000000;stroke-width:0.5;" x="174.9525" xlink:href="#m75affc888b" y="159.743524327"/>
     <use style="fill:#0000ff;stroke:#000000;stroke-width:0.5;" x="174.9525" xlink:href="#m75affc888b" y="120.365251172"/>
     <use style="fill:#0000ff;stroke:#000000;stroke-width:0.5;" x="174.9525" xlink:href="#m75affc888b" y="161.077784658"/>
     <use style="fill:#0000ff;stroke:#000000;stroke-width:0.5;" x="174.9525" xlink:href="#m75affc888b" y="121.9325079"/>
     <use style="fill:#0000ff;stroke:#000000;stroke-width:0.5;" x="174.9525" xlink:href="#m75affc888b" y="152.181097373"/>
     <use style="fill:#0000ff;stroke:#000000;stroke-width:0.5;" x="174.9525" xlink:href="#m75affc888b" y="110.688890625"/>
     <use style="fill:#0000ff;stroke:#000000;stroke-width:0.5;" x="174.9525" xlink:href="#m75affc888b" y="110.688890625"/>
     <use style="fill:#0000ff;stroke:#000000;stroke-width:0.5;" x="174.9525" xlink:href="#m75affc888b" y="110.688890625"/>
     <use style="fill:#0000ff;stroke:#000000;stroke-width:0.5;" x="174.9525" xlink:href="#m75affc888b" y="110.688890625"/>
     <use style="fill:#0000ff;stroke:#000000;stroke-width:0.5;" x="174.9525" xlink:href="#m75affc888b" y="110.688890625"/>
     <use style="fill:#0000ff;stroke:#000000;stroke-width:0.5;" x="174.9525" xlink:href="#m75affc888b" y="110.688890625"/>
     <use style="fill:#0000ff;stroke:#000000;stroke-width:0.5;" x="174.9525" xlink:href="#m75affc888b" y="145.971124219"/>
     <use style="fill:#0000ff;stroke:#000000;stroke-width:0.5;" x="174.9525" xlink:href="#m75affc888b" y="145.971124219"/>
     <use style="fill:#0000ff;stroke:#000000;stroke-width:0.5;" x="174.9525" xlink:href="#m75affc888b" y="160.8232125"/>
     <use style="fill:#0000ff;stroke:#000000;stroke-width:0.5;" x="174.9525" xlink:href="#m75affc888b" y="160.8232125"/>
     <use style="fill:#0000ff;stroke:#000000;stroke-width:0.5;" x="174.9525" xlink:href="#m75affc888b" y="124.736320312"/>
     <use style="fill:#0000ff;stroke:#000000;stroke-width:0.5;" x="174.9525" xlink:href="#m75affc888b" y="160.8232125"/>
     <use style="fill:#0000ff;stroke:#000000;stroke-width:0.5;" x="174.9525" xlink:href="#m75affc888b" y="158.121687197"/>
     <use style="fill:#0000ff;stroke:#000000;stroke-width:0.5;" x="174.9525" xlink:href="#m75affc888b" y="158.121687197"/>
     <use style="fill:#0000ff;stroke:#000000;stroke-width:0.5;" x="174.9525" xlink:href="#m75affc888b" y="140.566955273"/>
     <use style="fill:#0000ff;stroke:#000000;stroke-width:0.5;" x="174.9525" xlink:href="#m75affc888b" y="140.566955273"/>
     <use style="fill:#0000ff;stroke:#000000;stroke-width:0.5;" x="174.9525" xlink:href="#m75affc888b" y="160.8232125"/>
     <use style="fill:#0000ff;stroke:#000000;stroke-width:0.5;" x="174.9525" xlink:href="#m75affc888b" y="161.497161806"/>
     <use style="fill:#0000ff;stroke:#000000;stroke-width:0.5;" x="174.9525" xlink:href="#m75affc888b" y="161.497161806"/>
     <use style="fill:#0000ff;stroke:#000000;stroke-width:0.5;" x="174.9525" xlink:href="#m75affc888b" y="159.657139453"/>
     <use style="fill:#0000ff;stroke:#000000;stroke-width:0.5;" x="174.9525" xlink:href="#m75affc888b" y="159.657139453"/>
     <use style="fill:#0000ff;stroke:#000000;stroke-width:0.5;" x="174.9525" xlink:href="#m75affc888b" y="161.497161806"/>
     <use style="fill:#0000ff;stroke:#000000;stroke-width:0.5;" x="174.9525" xlink:href="#m75affc888b" y="159.743524327"/>
     <use style="fill:#0000ff;stroke:#000000;stroke-width:0.5;" x="174.9525" xlink:href="#m75affc888b" y="156.922664062"/>
     <use style="fill:#0000ff;stroke:#000000;stroke-width:0.5;" x="174.9525" xlink:href="#m75affc888b" y="156.922664062"/>
     <use style="fill:#0000ff;stroke:#000000;stroke-width:0.5;" x="174.9525" xlink:href="#m75affc888b" y="161.161905577"/>
     <use style="fill:#0000ff;stroke:#000000;stroke-width:0.5;" x="174.9525" xlink:href="#m75affc888b" y="157.87734375"/>
     <use style="fill:#0000ff;stroke:#000000;stroke-width:0.5;" x="174.9525" xlink:href="#m75affc888b" y="157.87734375"/>
     <use style="fill:#0000ff;stroke:#000000;stroke-width:0.5;" x="174.9525" xlink:href="#m75affc888b" y="160.605"/>
     <use style="fill:#0000ff;stroke:#000000;stroke-width:0.5;" x="174.9525" xlink:href="#m75affc888b" y="124.736320312"/>
     <use style="fill:#0000ff;stroke:#000000;stroke-width:0.5;" x="174.9525" xlink:href="#m75affc888b" y="124.780644727"/>
     <use style="fill:#0000ff;stroke:#000000;stroke-width:0.5;" x="174.9525" xlink:href="#m75affc888b" y="153.397168359"/>
     <use style="fill:#0000ff;stroke:#000000;stroke-width:0.5;" x="174.9525" xlink:href="#m75affc888b" y="42.6804555562"/>
     <use style="fill:#0000ff;stroke:#000000;stroke-width:0.5;" x="174.9525" xlink:href="#m75affc888b" y="161.161905577"/>
     <use style="fill:#0000ff;stroke:#000000;stroke-width:0.5;" x="174.9525" xlink:href="#m75affc888b" y="142.460412412"/>
     <use style="fill:#0000ff;stroke:#000000;stroke-width:0.5;" x="174.9525" xlink:href="#m75affc888b" y="124.780644727"/>
     <use style="fill:#0000ff;stroke:#000000;stroke-width:0.5;" x="174.9525" xlink:href="#m75affc888b" y="158.832023437"/>
     <use style="fill:#0000ff;stroke:#000000;stroke-width:0.5;" x="174.9525" xlink:href="#m75affc888b" y="161.902900673"/>
     <use style="fill:#0000ff;stroke:#000000;stroke-width:0.5;" x="174.9525" xlink:href="#m75affc888b" y="160.012880381"/>
     <use style="fill:#0000ff;stroke:#000000;stroke-width:0.5;" x="174.9525" xlink:href="#m75affc888b" y="160.012880381"/>
     <use style="fill:#0000ff;stroke:#000000;stroke-width:0.5;" x="174.9525" xlink:href="#m75affc888b" y="157.87734375"/>
     <use style="fill:#0000ff;stroke:#000000;stroke-width:0.5;" x="174.9525" xlink:href="#m75affc888b" y="157.87734375"/>
     <use style="fill:#0000ff;stroke:#000000;stroke-width:0.5;" x="174.9525" xlink:href="#m75affc888b" y="157.87734375"/>
     <use style="fill:#0000ff;stroke:#000000;stroke-width:0.5;" x="174.9525" xlink:href="#m75affc888b" y="151.528723828"/>
     <use style="fill:#0000ff;stroke:#000000;stroke-width:0.5;" x="174.9525" xlink:href="#m75affc888b" y="151.528723828"/>
     <use style="fill:#0000ff;stroke:#000000;stroke-width:0.5;" x="174.9525" xlink:href="#m75affc888b" y="151.528723828"/>
     <use style="fill:#0000ff;stroke:#000000;stroke-width:0.5;" x="174.9525" xlink:href="#m75affc888b" y="152.722073438"/>
     <use style="fill:#0000ff;stroke:#000000;stroke-width:0.5;" x="174.9525" xlink:href="#m75affc888b" y="156.922664062"/>
     <use style="fill:#0000ff;stroke:#000000;stroke-width:0.5;" x="174.9525" xlink:href="#m75affc888b" y="164.260059375"/>
     <use style="fill:#0000ff;stroke:#000000;stroke-width:0.5;" x="174.9525" xlink:href="#m75affc888b" y="164.260059375"/>
     <use style="fill:#0000ff;stroke:#000000;stroke-width:0.5;" x="174.9525" xlink:href="#m75affc888b" y="152.722073438"/>
     <use style="fill:#0000ff;stroke:#000000;stroke-width:0.5;" x="174.9525" xlink:href="#m75affc888b" y="152.722073438"/>
     <use style="fill:#0000ff;stroke:#000000;stroke-width:0.5;" x="174.9525" xlink:href="#m75affc888b" y="156.922664062"/>
     <use style="fill:#0000ff;stroke:#000000;stroke-width:0.5;" x="174.9525" xlink:href="#m75affc888b" y="159.743524327"/>
     <use style="fill:#0000ff;stroke:#000000;stroke-width:0.5;" x="174.9525" xlink:href="#m75affc888b" y="145.430148155"/>
     <use style="fill:#0000ff;stroke:#000000;stroke-width:0.5;" x="174.9525" xlink:href="#m75affc888b" y="120.365251172"/>
     <use style="fill:#0000ff;stroke:#000000;stroke-width:0.5;" x="174.9525" xlink:href="#m75affc888b" y="124.780644727"/>
     <use style="fill:#0000ff;stroke:#000000;stroke-width:0.5;" x="174.9525" xlink:href="#m75affc888b" y="160.8232125"/>
     <use style="fill:#0000ff;stroke:#000000;stroke-width:0.5;" x="174.9525" xlink:href="#m75affc888b" y="158.832023437"/>
     <use style="fill:#0000ff;stroke:#000000;stroke-width:0.5;" x="174.9525" xlink:href="#m75affc888b" y="110.859369141"/>
     <use style="fill:#0000ff;stroke:#000000;stroke-width:0.5;" x="174.9525" xlink:href="#m75affc888b" y="110.859369141"/>
     <use style="fill:#0000ff;stroke:#000000;stroke-width:0.5;" x="174.9525" xlink:href="#m75affc888b" y="110.859369141"/>
     <use style="fill:#0000ff;stroke:#000000;stroke-width:0.5;" x="174.9525" xlink:href="#m75affc888b" y="110.859369141"/>
     <use style="fill:#0000ff;stroke:#000000;stroke-width:0.5;" x="174.9525" xlink:href="#m75affc888b" y="110.859369141"/>
     <use style="fill:#0000ff;stroke:#000000;stroke-width:0.5;" x="174.9525" xlink:href="#m75affc888b" y="163.523592187"/>
     <use style="fill:#0000ff;stroke:#000000;stroke-width:0.5;" x="174.9525" xlink:href="#m75affc888b" y="140.566955273"/>
     <use style="fill:#0000ff;stroke:#000000;stroke-width:0.5;" x="174.9525" xlink:href="#m75affc888b" y="159.986722158"/>
     <use style="fill:#0000ff;stroke:#000000;stroke-width:0.5;" x="174.9525" xlink:href="#m75affc888b" y="159.986722158"/>
     <use style="fill:#0000ff;stroke:#000000;stroke-width:0.5;" x="174.9525" xlink:href="#m75affc888b" y="145.739273438"/>
     <use style="fill:#0000ff;stroke:#000000;stroke-width:0.5;" x="174.9525" xlink:href="#m75affc888b" y="145.739273438"/>
     <use style="fill:#0000ff;stroke:#000000;stroke-width:0.5;" x="174.9525" xlink:href="#m75affc888b" y="145.739273438"/>
     <use style="fill:#0000ff;stroke:#000000;stroke-width:0.5;" x="174.9525" xlink:href="#m75affc888b" y="142.460412412"/>
     <use style="fill:#0000ff;stroke:#000000;stroke-width:0.5;" x="174.9525" xlink:href="#m75affc888b" y="142.460412412"/>
     <use style="fill:#0000ff;stroke:#000000;stroke-width:0.5;" x="174.9525" xlink:href="#m75affc888b" y="161.077784658"/>
     <use style="fill:#0000ff;stroke:#000000;stroke-width:0.5;" x="174.9525" xlink:href="#m75affc888b" y="160.605"/>
     <use style="fill:#0000ff;stroke:#000000;stroke-width:0.5;" x="174.9525" xlink:href="#m75affc888b" y="121.9325079"/>
     <use style="fill:#0000ff;stroke:#000000;stroke-width:0.5;" x="174.9525" xlink:href="#m75affc888b" y="121.9325079"/>
     <use style="fill:#0000ff;stroke:#000000;stroke-width:0.5;" x="174.9525" xlink:href="#m75affc888b" y="160.700467969"/>
     <use style="fill:#0000ff;stroke:#000000;stroke-width:0.5;" x="174.9525" xlink:href="#m75affc888b" y="160.700467969"/>
     <use style="fill:#0000ff;stroke:#000000;stroke-width:0.5;" x="174.9525" xlink:href="#m75affc888b" y="160.700467969"/>
     <use style="fill:#0000ff;stroke:#000000;stroke-width:0.5;" x="174.9525" xlink:href="#m75affc888b" y="152.181097373"/>
     <use style="fill:#0000ff;stroke:#000000;stroke-width:0.5;" x="174.9525" xlink:href="#m75affc888b" y="152.181097373"/>
     <use style="fill:#0000ff;stroke:#000000;stroke-width:0.5;" x="174.9525" xlink:href="#m75affc888b" y="152.181097373"/>
     <use style="fill:#0000ff;stroke:#000000;stroke-width:0.5;" x="174.9525" xlink:href="#m75affc888b" y="160.8232125"/>
     <use style="fill:#0000ff;stroke:#000000;stroke-width:0.5;" x="174.9525" xlink:href="#m75affc888b" y="42.6804555562"/>
     <use style="fill:#0000ff;stroke:#000000;stroke-width:0.5;" x="174.9525" xlink:href="#m75affc888b" y="161.900636719"/>
     <use style="fill:#0000ff;stroke:#000000;stroke-width:0.5;" x="174.9525" xlink:href="#m75affc888b" y="161.900636719"/>
     <use style="fill:#0000ff;stroke:#000000;stroke-width:0.5;" x="174.9525" xlink:href="#m75affc888b" y="161.344876758"/>
     <use style="fill:#0000ff;stroke:#000000;stroke-width:0.5;" x="174.9525" xlink:href="#m75affc888b" y="161.344876758"/>
     <use style="fill:#0000ff;stroke:#000000;stroke-width:0.5;" x="174.9525" xlink:href="#m75affc888b" y="145.430148155"/>
     <use style="fill:#0000ff;stroke:#000000;stroke-width:0.5;" x="174.9525" xlink:href="#m75affc888b" y="137.456281533"/>
     <use style="fill:#0000ff;stroke:#000000;stroke-width:0.5;" x="174.9525" xlink:href="#m75affc888b" y="137.456281533"/>
     <use style="fill:#0000ff;stroke:#000000;stroke-width:0.5;" x="174.9525" xlink:href="#m75affc888b" y="137.456281533"/>
     <use style="fill:#0000ff;stroke:#000000;stroke-width:0.5;" x="174.9525" xlink:href="#m75affc888b" y="124.736320312"/>
     <use style="fill:#0000ff;stroke:#000000;stroke-width:0.5;" x="174.9525" xlink:href="#m75affc888b" y="124.736320312"/>
     <use style="fill:#0000ff;stroke:#000000;stroke-width:0.5;" x="174.9525" xlink:href="#m75affc888b" y="124.736320312"/>
     <use style="fill:#0000ff;stroke:#000000;stroke-width:0.5;" x="174.9525" xlink:href="#m75affc888b" y="145.739273438"/>
     <use style="fill:#0000ff;stroke:#000000;stroke-width:0.5;" x="174.9525" xlink:href="#m75affc888b" y="145.430148155"/>
     <use style="fill:#0000ff;stroke:#000000;stroke-width:0.5;" x="174.9525" xlink:href="#m75affc888b" y="162.377976562"/>
     <use style="fill:#0000ff;stroke:#000000;stroke-width:0.5;" x="174.9525" xlink:href="#m75affc888b" y="162.377976562"/>
     <use style="fill:#0000ff;stroke:#000000;stroke-width:0.5;" x="174.9525" xlink:href="#m75affc888b" y="162.377976562"/>
     <use style="fill:#0000ff;stroke:#000000;stroke-width:0.5;" x="174.9525" xlink:href="#m75affc888b" y="162.377976562"/>
     <use style="fill:#0000ff;stroke:#000000;stroke-width:0.5;" x="174.9525" xlink:href="#m75affc888b" y="162.377976562"/>
     <use style="fill:#0000ff;stroke:#000000;stroke-width:0.5;" x="174.9525" xlink:href="#m75affc888b" y="162.377976562"/>
     <use style="fill:#0000ff;stroke:#000000;stroke-width:0.5;" x="174.9525" xlink:href="#m75affc888b" y="162.377976562"/>
     <use style="fill:#0000ff;stroke:#000000;stroke-width:0.5;" x="174.9525" xlink:href="#m75affc888b" y="163.455400781"/>
     <use style="fill:#0000ff;stroke:#000000;stroke-width:0.5;" x="174.9525" xlink:href="#m75affc888b" y="163.455400781"/>
     <use style="fill:#0000ff;stroke:#000000;stroke-width:0.5;" x="174.9525" xlink:href="#m75affc888b" y="163.455400781"/>
     <use style="fill:#0000ff;stroke:#000000;stroke-width:0.5;" x="174.9525" xlink:href="#m75affc888b" y="163.455400781"/>
     <use style="fill:#0000ff;stroke:#000000;stroke-width:0.5;" x="174.9525" xlink:href="#m75affc888b" y="163.455400781"/>
     <use style="fill:#0000ff;stroke:#000000;stroke-width:0.5;" x="174.9525" xlink:href="#m75affc888b" y="163.455400781"/>
     <use style="fill:#0000ff;stroke:#000000;stroke-width:0.5;" x="174.9525" xlink:href="#m75affc888b" y="163.455400781"/>
     <use style="fill:#0000ff;stroke:#000000;stroke-width:0.5;" x="174.9525" xlink:href="#m75affc888b" y="163.455400781"/>
     <use style="fill:#0000ff;stroke:#000000;stroke-width:0.5;" x="174.9525" xlink:href="#m75affc888b" y="163.455400781"/>
     <use style="fill:#0000ff;stroke:#000000;stroke-width:0.5;" x="174.9525" xlink:href="#m75affc888b" y="163.455400781"/>
     <use style="fill:#0000ff;stroke:#000000;stroke-width:0.5;" x="174.9525" xlink:href="#m75affc888b" y="163.455400781"/>
    </g>
   </g>
   <g id="patch_3">
    <path d="M 39.865 182.42625 
L 310.04 182.42625 
" style="fill:none;stroke:#000000;stroke-linecap:square;stroke-linejoin:miter;"/>
   </g>
   <g id="patch_4">
    <path d="M 310.04 182.42625 
L 310.04 18.766875 
" style="fill:none;stroke:#000000;stroke-linecap:square;stroke-linejoin:miter;"/>
   </g>
   <g id="patch_5">
    <path d="M 39.865 182.42625 
L 39.865 18.766875 
" style="fill:none;stroke:#000000;stroke-linecap:square;stroke-linejoin:miter;"/>
   </g>
   <g id="patch_6">
    <path d="M 39.865 18.766875 
L 310.04 18.766875 
" style="fill:none;stroke:#000000;stroke-linecap:square;stroke-linejoin:miter;"/>
   </g>
   <g id="matplotlib.axis_1">
    <g id="xtick_1">
     <g id="line2d_8">
      <defs>
       <path d="M 0 0 
L 0 -4 
" id="mb0af933bdd" style="stroke:#000000;stroke-width:0.5;"/>
      </defs>
      <g>
       <use style="stroke:#000000;stroke-width:0.5;" x="174.9525" xlink:href="#mb0af933bdd" y="182.42625"/>
      </g>
     </g>
     <g id="line2d_9">
      <defs>
       <path d="M 0 0 
L 0 4 
" id="m0c3481c6db" style="stroke:#000000;stroke-width:0.5;"/>
      </defs>
      <g>
       <use style="stroke:#000000;stroke-width:0.5;" x="174.9525" xlink:href="#m0c3481c6db" y="18.766875"/>
      </g>
     </g>
     <g id="text_1">
      <!-- fare -->
      <defs>
       <path d="M 37.109375 75.984375 
L 37.109375 68.5 
L 28.515625 68.5 
Q 23.6875 68.5 21.796875 66.546875 
Q 19.921875 64.59375 19.921875 59.515625 
L 19.921875 54.6875 
L 34.71875 54.6875 
L 34.71875 47.703125 
L 19.921875 47.703125 
L 19.921875 0 
L 10.890625 0 
L 10.890625 47.703125 
L 2.296875 47.703125 
L 2.296875 54.6875 
L 10.890625 54.6875 
L 10.890625 58.5 
Q 10.890625 67.625 15.140625 71.796875 
Q 19.390625 75.984375 28.609375 75.984375 
z
" id="BitstreamVeraSans-Roman-66"/>
       <path d="M 34.28125 27.484375 
Q 23.390625 27.484375 19.1875 25 
Q 14.984375 22.515625 14.984375 16.5 
Q 14.984375 11.71875 18.140625 8.90625 
Q 21.296875 6.109375 26.703125 6.109375 
Q 34.1875 6.109375 38.703125 11.40625 
Q 43.21875 16.703125 43.21875 25.484375 
L 43.21875 27.484375 
z
M 52.203125 31.203125 
L 52.203125 0 
L 43.21875 0 
L 43.21875 8.296875 
Q 40.140625 3.328125 35.546875 0.953125 
Q 30.953125 -1.421875 24.3125 -1.421875 
Q 15.921875 -1.421875 10.953125 3.296875 
Q 6 8.015625 6 15.921875 
Q 6 25.140625 12.171875 29.828125 
Q 18.359375 34.515625 30.609375 34.515625 
L 43.21875 34.515625 
L 43.21875 35.40625 
Q 43.21875 41.609375 39.140625 45 
Q 35.0625 48.390625 27.6875 48.390625 
Q 23 48.390625 18.546875 47.265625 
Q 14.109375 46.140625 10.015625 43.890625 
L 10.015625 52.203125 
Q 14.9375 54.109375 19.578125 55.046875 
Q 24.21875 56 28.609375 56 
Q 40.484375 56 46.34375 49.84375 
Q 52.203125 43.703125 52.203125 31.203125 
" id="BitstreamVeraSans-Roman-61"/>
       <path d="M 56.203125 29.59375 
L 56.203125 25.203125 
L 14.890625 25.203125 
Q 15.484375 15.921875 20.484375 11.0625 
Q 25.484375 6.203125 34.421875 6.203125 
Q 39.59375 6.203125 44.453125 7.46875 
Q 49.3125 8.734375 54.109375 11.28125 
L 54.109375 2.78125 
Q 49.265625 0.734375 44.1875 -0.34375 
Q 39.109375 -1.421875 33.890625 -1.421875 
Q 20.796875 -1.421875 13.15625 6.1875 
Q 5.515625 13.8125 5.515625 26.8125 
Q 5.515625 40.234375 12.765625 48.109375 
Q 20.015625 56 32.328125 56 
Q 43.359375 56 49.78125 48.890625 
Q 56.203125 41.796875 56.203125 29.59375 
M 47.21875 32.234375 
Q 47.125 39.59375 43.09375 43.984375 
Q 39.0625 48.390625 32.421875 48.390625 
Q 24.90625 48.390625 20.390625 44.140625 
Q 15.875 39.890625 15.1875 32.171875 
z
" id="BitstreamVeraSans-Roman-65"/>
       <path d="M 41.109375 46.296875 
Q 39.59375 47.171875 37.8125 47.578125 
Q 36.03125 48 33.890625 48 
Q 26.265625 48 22.1875 43.046875 
Q 18.109375 38.09375 18.109375 28.8125 
L 18.109375 0 
L 9.078125 0 
L 9.078125 54.6875 
L 18.109375 54.6875 
L 18.109375 46.1875 
Q 20.953125 51.171875 25.484375 53.578125 
Q 30.03125 56 36.53125 56 
Q 37.453125 56 38.578125 55.875 
Q 39.703125 55.765625 41.0625 55.515625 
z
" id="BitstreamVeraSans-Roman-72"/>
      </defs>
      <g transform="translate(163.006875 195.544375)scale(0.12 -0.12)">
       <use xlink:href="#BitstreamVeraSans-Roman-66"/>
       <use x="35.205078125" xlink:href="#BitstreamVeraSans-Roman-61"/>
       <use x="96.484375" xlink:href="#BitstreamVeraSans-Roman-72"/>
       <use x="137.56640625" xlink:href="#BitstreamVeraSans-Roman-65"/>
      </g>
     </g>
    </g>
   </g>
   <g id="matplotlib.axis_2">
    <g id="ytick_1">
     <g id="line2d_10">
      <defs>
       <path d="M 0 0 
L 4 0 
" id="m6e32d79b7f" style="stroke:#000000;stroke-width:0.5;"/>
      </defs>
      <g>
       <use style="stroke:#000000;stroke-width:0.5;" x="39.865" xlink:href="#m6e32d79b7f" y="182.42625"/>
      </g>
     </g>
     <g id="line2d_11">
      <defs>
       <path d="M 0 0 
L -4 0 
" id="m674a302e36" style="stroke:#000000;stroke-width:0.5;"/>
      </defs>
      <g>
       <use style="stroke:#000000;stroke-width:0.5;" x="310.04" xlink:href="#m674a302e36" y="182.42625"/>
      </g>
     </g>
     <g id="text_2">
      <!-- 0 -->
      <defs>
       <path d="M 31.78125 66.40625 
Q 24.171875 66.40625 20.328125 58.90625 
Q 16.5 51.421875 16.5 36.375 
Q 16.5 21.390625 20.328125 13.890625 
Q 24.171875 6.390625 31.78125 6.390625 
Q 39.453125 6.390625 43.28125 13.890625 
Q 47.125 21.390625 47.125 36.375 
Q 47.125 51.421875 43.28125 58.90625 
Q 39.453125 66.40625 31.78125 66.40625 
M 31.78125 74.21875 
Q 44.046875 74.21875 50.515625 64.515625 
Q 56.984375 54.828125 56.984375 36.375 
Q 56.984375 17.96875 50.515625 8.265625 
Q 44.046875 -1.421875 31.78125 -1.421875 
Q 19.53125 -1.421875 13.0625 8.265625 
Q 6.59375 17.96875 6.59375 36.375 
Q 6.59375 54.828125 13.0625 64.515625 
Q 19.53125 74.21875 31.78125 74.21875 
" id="BitstreamVeraSans-Roman-30"/>
      </defs>
      <g transform="translate(28.23 185.7375)scale(0.12 -0.12)">
       <use xlink:href="#BitstreamVeraSans-Roman-30"/>
      </g>
     </g>
    </g>
    <g id="ytick_2">
     <g id="line2d_12">
      <g>
       <use style="stroke:#000000;stroke-width:0.5;" x="39.865" xlink:href="#m6e32d79b7f" y="155.1496875"/>
      </g>
     </g>
     <g id="line2d_13">
      <g>
       <use style="stroke:#000000;stroke-width:0.5;" x="310.04" xlink:href="#m674a302e36" y="155.1496875"/>
      </g>
     </g>
     <g id="text_3">
      <!-- 100 -->
      <defs>
       <path d="M 12.40625 8.296875 
L 28.515625 8.296875 
L 28.515625 63.921875 
L 10.984375 60.40625 
L 10.984375 69.390625 
L 28.421875 72.90625 
L 38.28125 72.90625 
L 38.28125 8.296875 
L 54.390625 8.296875 
L 54.390625 0 
L 12.40625 0 
z
" id="BitstreamVeraSans-Roman-31"/>
      </defs>
      <g transform="translate(12.96 158.4609375)scale(0.12 -0.12)">
       <use xlink:href="#BitstreamVeraSans-Roman-31"/>
       <use x="63.623046875" xlink:href="#BitstreamVeraSans-Roman-30"/>
       <use x="127.24609375" xlink:href="#BitstreamVeraSans-Roman-30"/>
      </g>
     </g>
    </g>
    <g id="ytick_3">
     <g id="line2d_14">
      <g>
       <use style="stroke:#000000;stroke-width:0.5;" x="39.865" xlink:href="#m6e32d79b7f" y="127.873125"/>
      </g>
     </g>
     <g id="line2d_15">
      <g>
       <use style="stroke:#000000;stroke-width:0.5;" x="310.04" xlink:href="#m674a302e36" y="127.873125"/>
      </g>
     </g>
     <g id="text_4">
      <!-- 200 -->
      <defs>
       <path d="M 19.1875 8.296875 
L 53.609375 8.296875 
L 53.609375 0 
L 7.328125 0 
L 7.328125 8.296875 
Q 12.9375 14.109375 22.625 23.890625 
Q 32.328125 33.6875 34.8125 36.53125 
Q 39.546875 41.84375 41.421875 45.53125 
Q 43.3125 49.21875 43.3125 52.78125 
Q 43.3125 58.59375 39.234375 62.25 
Q 35.15625 65.921875 28.609375 65.921875 
Q 23.96875 65.921875 18.8125 64.3125 
Q 13.671875 62.703125 7.8125 59.421875 
L 7.8125 69.390625 
Q 13.765625 71.78125 18.9375 73 
Q 24.125 74.21875 28.421875 74.21875 
Q 39.75 74.21875 46.484375 68.546875 
Q 53.21875 62.890625 53.21875 53.421875 
Q 53.21875 48.921875 51.53125 44.890625 
Q 49.859375 40.875 45.40625 35.40625 
Q 44.1875 33.984375 37.640625 27.21875 
Q 31.109375 20.453125 19.1875 8.296875 
" id="BitstreamVeraSans-Roman-32"/>
      </defs>
      <g transform="translate(12.96 131.184375)scale(0.12 -0.12)">
       <use xlink:href="#BitstreamVeraSans-Roman-32"/>
       <use x="63.623046875" xlink:href="#BitstreamVeraSans-Roman-30"/>
       <use x="127.24609375" xlink:href="#BitstreamVeraSans-Roman-30"/>
      </g>
     </g>
    </g>
    <g id="ytick_4">
     <g id="line2d_16">
      <g>
       <use style="stroke:#000000;stroke-width:0.5;" x="39.865" xlink:href="#m6e32d79b7f" y="100.5965625"/>
      </g>
     </g>
     <g id="line2d_17">
      <g>
       <use style="stroke:#000000;stroke-width:0.5;" x="310.04" xlink:href="#m674a302e36" y="100.5965625"/>
      </g>
     </g>
     <g id="text_5">
      <!-- 300 -->
      <defs>
       <path d="M 40.578125 39.3125 
Q 47.65625 37.796875 51.625 33 
Q 55.609375 28.21875 55.609375 21.1875 
Q 55.609375 10.40625 48.1875 4.484375 
Q 40.765625 -1.421875 27.09375 -1.421875 
Q 22.515625 -1.421875 17.65625 -0.515625 
Q 12.796875 0.390625 7.625 2.203125 
L 7.625 11.71875 
Q 11.71875 9.328125 16.59375 8.109375 
Q 21.484375 6.890625 26.8125 6.890625 
Q 36.078125 6.890625 40.9375 10.546875 
Q 45.796875 14.203125 45.796875 21.1875 
Q 45.796875 27.640625 41.28125 31.265625 
Q 36.765625 34.90625 28.71875 34.90625 
L 20.21875 34.90625 
L 20.21875 43.015625 
L 29.109375 43.015625 
Q 36.375 43.015625 40.234375 45.921875 
Q 44.09375 48.828125 44.09375 54.296875 
Q 44.09375 59.90625 40.109375 62.90625 
Q 36.140625 65.921875 28.71875 65.921875 
Q 24.65625 65.921875 20.015625 65.03125 
Q 15.375 64.15625 9.8125 62.3125 
L 9.8125 71.09375 
Q 15.4375 72.65625 20.34375 73.4375 
Q 25.25 74.21875 29.59375 74.21875 
Q 40.828125 74.21875 47.359375 69.109375 
Q 53.90625 64.015625 53.90625 55.328125 
Q 53.90625 49.265625 50.4375 45.09375 
Q 46.96875 40.921875 40.578125 39.3125 
" id="BitstreamVeraSans-Roman-33"/>
      </defs>
      <g transform="translate(12.96 103.9078125)scale(0.12 -0.12)">
       <use xlink:href="#BitstreamVeraSans-Roman-33"/>
       <use x="63.623046875" xlink:href="#BitstreamVeraSans-Roman-30"/>
       <use x="127.24609375" xlink:href="#BitstreamVeraSans-Roman-30"/>
      </g>
     </g>
    </g>
    <g id="ytick_5">
     <g id="line2d_18">
      <g>
       <use style="stroke:#000000;stroke-width:0.5;" x="39.865" xlink:href="#m6e32d79b7f" y="73.32"/>
      </g>
     </g>
     <g id="line2d_19">
      <g>
       <use style="stroke:#000000;stroke-width:0.5;" x="310.04" xlink:href="#m674a302e36" y="73.32"/>
      </g>
     </g>
     <g id="text_6">
      <!-- 400 -->
      <defs>
       <path d="M 37.796875 64.3125 
L 12.890625 25.390625 
L 37.796875 25.390625 
z
M 35.203125 72.90625 
L 47.609375 72.90625 
L 47.609375 25.390625 
L 58.015625 25.390625 
L 58.015625 17.1875 
L 47.609375 17.1875 
L 47.609375 0 
L 37.796875 0 
L 37.796875 17.1875 
L 4.890625 17.1875 
L 4.890625 26.703125 
z
" id="BitstreamVeraSans-Roman-34"/>
      </defs>
      <g transform="translate(12.96 76.63125)scale(0.12 -0.12)">
       <use xlink:href="#BitstreamVeraSans-Roman-34"/>
       <use x="63.623046875" xlink:href="#BitstreamVeraSans-Roman-30"/>
       <use x="127.24609375" xlink:href="#BitstreamVeraSans-Roman-30"/>
      </g>
     </g>
    </g>
    <g id="ytick_6">
     <g id="line2d_20">
      <g>
       <use style="stroke:#000000;stroke-width:0.5;" x="39.865" xlink:href="#m6e32d79b7f" y="46.0434375"/>
      </g>
     </g>
     <g id="line2d_21">
      <g>
       <use style="stroke:#000000;stroke-width:0.5;" x="310.04" xlink:href="#m674a302e36" y="46.0434375"/>
      </g>
     </g>
     <g id="text_7">
      <!-- 500 -->
      <defs>
       <path d="M 10.796875 72.90625 
L 49.515625 72.90625 
L 49.515625 64.59375 
L 19.828125 64.59375 
L 19.828125 46.734375 
Q 21.96875 47.46875 24.109375 47.828125 
Q 26.265625 48.1875 28.421875 48.1875 
Q 40.625 48.1875 47.75 41.5 
Q 54.890625 34.8125 54.890625 23.390625 
Q 54.890625 11.625 47.5625 5.09375 
Q 40.234375 -1.421875 26.90625 -1.421875 
Q 22.3125 -1.421875 17.546875 -0.640625 
Q 12.796875 0.140625 7.71875 1.703125 
L 7.71875 11.625 
Q 12.109375 9.234375 16.796875 8.0625 
Q 21.484375 6.890625 26.703125 6.890625 
Q 35.15625 6.890625 40.078125 11.328125 
Q 45.015625 15.765625 45.015625 23.390625 
Q 45.015625 31 40.078125 35.4375 
Q 35.15625 39.890625 26.703125 39.890625 
Q 22.75 39.890625 18.8125 39.015625 
Q 14.890625 38.140625 10.796875 36.28125 
z
" id="BitstreamVeraSans-Roman-35"/>
      </defs>
      <g transform="translate(12.96 49.3546875)scale(0.12 -0.12)">
       <use xlink:href="#BitstreamVeraSans-Roman-35"/>
       <use x="63.623046875" xlink:href="#BitstreamVeraSans-Roman-30"/>
       <use x="127.24609375" xlink:href="#BitstreamVeraSans-Roman-30"/>
      </g>
     </g>
    </g>
    <g id="ytick_7">
     <g id="line2d_22">
      <g>
       <use style="stroke:#000000;stroke-width:0.5;" x="39.865" xlink:href="#m6e32d79b7f" y="18.766875"/>
      </g>
     </g>
     <g id="line2d_23">
      <g>
       <use style="stroke:#000000;stroke-width:0.5;" x="310.04" xlink:href="#m674a302e36" y="18.766875"/>
      </g>
     </g>
     <g id="text_8">
      <!-- 600 -->
      <defs>
       <path d="M 33.015625 40.375 
Q 26.375 40.375 22.484375 35.828125 
Q 18.609375 31.296875 18.609375 23.390625 
Q 18.609375 15.53125 22.484375 10.953125 
Q 26.375 6.390625 33.015625 6.390625 
Q 39.65625 6.390625 43.53125 10.953125 
Q 47.40625 15.53125 47.40625 23.390625 
Q 47.40625 31.296875 43.53125 35.828125 
Q 39.65625 40.375 33.015625 40.375 
M 52.59375 71.296875 
L 52.59375 62.3125 
Q 48.875 64.0625 45.09375 64.984375 
Q 41.3125 65.921875 37.59375 65.921875 
Q 27.828125 65.921875 22.671875 59.328125 
Q 17.53125 52.734375 16.796875 39.40625 
Q 19.671875 43.65625 24.015625 45.921875 
Q 28.375 48.1875 33.59375 48.1875 
Q 44.578125 48.1875 50.953125 41.515625 
Q 57.328125 34.859375 57.328125 23.390625 
Q 57.328125 12.15625 50.6875 5.359375 
Q 44.046875 -1.421875 33.015625 -1.421875 
Q 20.359375 -1.421875 13.671875 8.265625 
Q 6.984375 17.96875 6.984375 36.375 
Q 6.984375 53.65625 15.1875 63.9375 
Q 23.390625 74.21875 37.203125 74.21875 
Q 40.921875 74.21875 44.703125 73.484375 
Q 48.484375 72.75 52.59375 71.296875 
" id="BitstreamVeraSans-Roman-36"/>
      </defs>
      <g transform="translate(12.96 22.078125)scale(0.12 -0.12)">
       <use xlink:href="#BitstreamVeraSans-Roman-36"/>
       <use x="63.623046875" xlink:href="#BitstreamVeraSans-Roman-30"/>
       <use x="127.24609375" xlink:href="#BitstreamVeraSans-Roman-30"/>
      </g>
     </g>
    </g>
   </g>
  </g>
 </g>
 <defs>
  <clipPath id="p6fdf37c64a">
   <rect height="163.659375" width="270.175" x="39.865" y="18.766875"/>
  </clipPath>
 </defs>
</svg>
