<?xml version="1.0" encoding="utf-8" standalone="no"?>
<!DOCTYPE svg PUBLIC "-//W3C//DTD SVG 1.1//EN"
  "http://www.w3.org/Graphics/SVG/1.1/DTD/svg11.dtd">
<!-- Created with matplotlib (http://matplotlib.org/) -->
<svg height="211pt" version="1.1" viewBox="0 0 320 211" width="320pt" xmlns="http://www.w3.org/2000/svg" xmlns:xlink="http://www.w3.org/1999/xlink">
 <defs>
  <style type="text/css">
*{stroke-linecap:butt;stroke-linejoin:round;stroke-miterlimit:100000;}
  </style>
 </defs>
 <g id="figure_1">
  <g id="patch_1">
   <path d="M 0 211 
L 320 211 
L 320 0 
L 0 0 
z
" style="fill:#ffffff;"/>
  </g>
  <g id="axes_1">
   <g id="patch_2">
    <path d="M 39.865 50.399583 
L 307.04 50.399583 
L 307.04 18.766875 
L 39.865 18.766875 
z
" style="fill:#ffffff;"/>
   </g>
   <g id="line2d_1">
    <path clip-path="url(#ped0102f243)" d="M 153.414375 48.781265 
L 193.490625 48.781265 
L 193.490625 44.723489 
L 153.414375 44.723489 
L 153.414375 48.781265 
" style="fill:none;stroke:#0000ff;stroke-linecap:square;"/>
   </g>
   <g id="line2d_2">
    <path clip-path="url(#ped0102f243)" d="M 173.4525 48.781265 
L 173.4525 50.399583 
" style="fill:none;stroke:#0000ff;stroke-dasharray:6.000000,6.000000;stroke-dashoffset:0.0;"/>
   </g>
   <g id="line2d_3">
    <path clip-path="url(#ped0102f243)" d="M 173.4525 44.723489 
L 173.4525 38.707122 
" style="fill:none;stroke:#0000ff;stroke-dasharray:6.000000,6.000000;stroke-dashoffset:0.0;"/>
   </g>
   <g id="line2d_4">
    <path clip-path="url(#ped0102f243)" d="M 163.433437 50.399583 
L 183.471563 50.399583 
" style="fill:none;stroke:#000000;stroke-linecap:square;"/>
   </g>
   <g id="line2d_5">
    <path clip-path="url(#ped0102f243)" d="M 163.433437 38.707122 
L 183.471563 38.707122 
" style="fill:none;stroke:#000000;stroke-linecap:square;"/>
   </g>
   <g id="line2d_6">
    <path clip-path="url(#ped0102f243)" d="M 153.414375 47.236313 
L 193.490625 47.236313 
" style="fill:none;stroke:#ff0000;stroke-linecap:square;"/>
   </g>
   <g id="line2d_7">
    <defs>
     <path d="M -3 0 
L 3 0 
M 0 3 
L 0 -3 
" id="m12f3275a4b" style="stroke:#000000;stroke-width:0.5;"/>
    </defs>
    <g clip-path="url(#ped0102f243)">
     <use style="fill:#0000ff;stroke:#000000;stroke-width:0.5;" x="173.4525" xlink:href="#m12f3275a4b" y="38.4041967274"/>
     <use style="fill:#0000ff;stroke:#000000;stroke-width:0.5;" x="173.4525" xlink:href="#m12f3275a4b" y="38.4041967274"/>
     <use style="fill:#0000ff;stroke:#000000;stroke-width:0.5;" x="173.4525" xlink:href="#m12f3275a4b" y="37.3499945453"/>
     <use style="fill:#0000ff;stroke:#000000;stroke-width:0.5;" x="173.4525" xlink:href="#m12f3275a4b" y="37.3499945453"/>
     <use style="fill:#0000ff;stroke:#000000;stroke-width:0.5;" x="173.4525" xlink:href="#m12f3275a4b" y="38.4041967274"/>
     <use style="fill:#0000ff;stroke:#000000;stroke-width:0.5;" x="173.4525" xlink:href="#m12f3275a4b" y="36.5668635851"/>
     <use style="fill:#0000ff;stroke:#000000;stroke-width:0.5;" x="173.4525" xlink:href="#m12f3275a4b" y="23.3889830762"/>
     <use style="fill:#0000ff;stroke:#000000;stroke-width:0.5;" x="173.4525" xlink:href="#m12f3275a4b" y="23.3889830762"/>
     <use style="fill:#0000ff;stroke:#000000;stroke-width:0.5;" x="173.4525" xlink:href="#m12f3275a4b" y="36.5668635851"/>
     <use style="fill:#0000ff;stroke:#000000;stroke-width:0.5;" x="173.4525" xlink:href="#m12f3275a4b" y="37.3499945453"/>
     <use style="fill:#0000ff;stroke:#000000;stroke-width:0.5;" x="173.4525" xlink:href="#m12f3275a4b" y="38.4041967274"/>
     <use style="fill:#0000ff;stroke:#000000;stroke-width:0.5;" x="173.4525" xlink:href="#m12f3275a4b" y="36.5339128472"/>
     <use style="fill:#0000ff;stroke:#000000;stroke-width:0.5;" x="173.4525" xlink:href="#m12f3275a4b" y="36.5339128472"/>
     <use style="fill:#0000ff;stroke:#000000;stroke-width:0.5;" x="173.4525" xlink:href="#m12f3275a4b" y="36.5339128472"/>
     <use style="fill:#0000ff;stroke:#000000;stroke-width:0.5;" x="173.4525" xlink:href="#m12f3275a4b" y="36.5339128472"/>
     <use style="fill:#0000ff;stroke:#000000;stroke-width:0.5;" x="173.4525" xlink:href="#m12f3275a4b" y="36.5339128472"/>
     <use style="fill:#0000ff;stroke:#000000;stroke-width:0.5;" x="173.4525" xlink:href="#m12f3275a4b" y="36.5339128472"/>
     <use style="fill:#0000ff;stroke:#000000;stroke-width:0.5;" x="173.4525" xlink:href="#m12f3275a4b" y="23.3889830762"/>
     <use style="fill:#0000ff;stroke:#000000;stroke-width:0.5;" x="173.4525" xlink:href="#m12f3275a4b" y="38.4041967274"/>
     <use style="fill:#0000ff;stroke:#000000;stroke-width:0.5;" x="173.4525" xlink:href="#m12f3275a4b" y="36.5668635851"/>
     <use style="fill:#0000ff;stroke:#000000;stroke-width:0.5;" x="173.4525" xlink:href="#m12f3275a4b" y="36.5668635851"/>
     <use style="fill:#0000ff;stroke:#000000;stroke-width:0.5;" x="173.4525" xlink:href="#m12f3275a4b" y="36.5668635851"/>
     <use style="fill:#0000ff;stroke:#000000;stroke-width:0.5;" x="173.4525" xlink:href="#m12f3275a4b" y="36.5668635851"/>
     <use style="fill:#0000ff;stroke:#000000;stroke-width:0.5;" x="173.4525" xlink:href="#m12f3275a4b" y="36.5668635851"/>
     <use style="fill:#0000ff;stroke:#000000;stroke-width:0.5;" x="173.4525" xlink:href="#m12f3275a4b" y="23.3889830762"/>
    </g>
   </g>
   <g id="patch_3">
    <path d="M 39.865 50.399583 
L 39.865 18.766875 
" style="fill:none;stroke:#000000;stroke-linecap:square;stroke-linejoin:miter;"/>
   </g>
   <g id="patch_4">
    <path d="M 39.865 50.399583 
L 307.04 50.399583 
" style="fill:none;stroke:#000000;stroke-linecap:square;stroke-linejoin:miter;"/>
   </g>
   <g id="patch_5">
    <path d="M 307.04 50.399583 
L 307.04 18.766875 
" style="fill:none;stroke:#000000;stroke-linecap:square;stroke-linejoin:miter;"/>
   </g>
   <g id="patch_6">
    <path d="M 39.865 18.766875 
L 307.04 18.766875 
" style="fill:none;stroke:#000000;stroke-linecap:square;stroke-linejoin:miter;"/>
   </g>
   <g id="matplotlib.axis_1">
    <g id="xtick_1">
     <g id="line2d_8">
      <defs>
       <path d="M 0 0 
L 0 -4 
" id="m342bdcebc7" style="stroke:#000000;stroke-width:0.5;"/>
      </defs>
      <g>
       <use style="stroke:#000000;stroke-width:0.5;" x="173.4525" xlink:href="#m342bdcebc7" y="50.3995833333"/>
      </g>
     </g>
     <g id="line2d_9">
      <defs>
       <path d="M 0 0 
L 0 4 
" id="ma0f77ec2c1" style="stroke:#000000;stroke-width:0.5;"/>
      </defs>
      <g>
       <use style="stroke:#000000;stroke-width:0.5;" x="173.4525" xlink:href="#ma0f77ec2c1" y="18.766875"/>
      </g>
     </g>
     <g id="text_1">
      <!-- fare -->
      <defs>
       <path d="M 34.28125 27.484375 
Q 23.390625 27.484375 19.1875 25 
Q 14.984375 22.515625 14.984375 16.5 
Q 14.984375 11.71875 18.140625 8.90625 
Q 21.296875 6.109375 26.703125 6.109375 
Q 34.1875 6.109375 38.703125 11.40625 
Q 43.21875 16.703125 43.21875 25.484375 
L 43.21875 27.484375 
z
M 52.203125 31.203125 
L 52.203125 0 
L 43.21875 0 
L 43.21875 8.296875 
Q 40.140625 3.328125 35.546875 0.953125 
Q 30.953125 -1.421875 24.3125 -1.421875 
Q 15.921875 -1.421875 10.953125 3.296875 
Q 6 8.015625 6 15.921875 
Q 6 25.140625 12.171875 29.828125 
Q 18.359375 34.515625 30.609375 34.515625 
L 43.21875 34.515625 
L 43.21875 35.40625 
Q 43.21875 41.609375 39.140625 45 
Q 35.0625 48.390625 27.6875 48.390625 
Q 23 48.390625 18.546875 47.265625 
Q 14.109375 46.140625 10.015625 43.890625 
L 10.015625 52.203125 
Q 14.9375 54.109375 19.578125 55.046875 
Q 24.21875 56 28.609375 56 
Q 40.484375 56 46.34375 49.84375 
Q 52.203125 43.703125 52.203125 31.203125 
" id="BitstreamVeraSans-Roman-61"/>
       <path d="M 41.109375 46.296875 
Q 39.59375 47.171875 37.8125 47.578125 
Q 36.03125 48 33.890625 48 
Q 26.265625 48 22.1875 43.046875 
Q 18.109375 38.09375 18.109375 28.8125 
L 18.109375 0 
L 9.078125 0 
L 9.078125 54.6875 
L 18.109375 54.6875 
L 18.109375 46.1875 
Q 20.953125 51.171875 25.484375 53.578125 
Q 30.03125 56 36.53125 56 
Q 37.453125 56 38.578125 55.875 
Q 39.703125 55.765625 41.0625 55.515625 
z
" id="BitstreamVeraSans-Roman-72"/>
       <path d="M 56.203125 29.59375 
L 56.203125 25.203125 
L 14.890625 25.203125 
Q 15.484375 15.921875 20.484375 11.0625 
Q 25.484375 6.203125 34.421875 6.203125 
Q 39.59375 6.203125 44.453125 7.46875 
Q 49.3125 8.734375 54.109375 11.28125 
L 54.109375 2.78125 
Q 49.265625 0.734375 44.1875 -0.34375 
Q 39.109375 -1.421875 33.890625 -1.421875 
Q 20.796875 -1.421875 13.15625 6.1875 
Q 5.515625 13.8125 5.515625 26.8125 
Q 5.515625 40.234375 12.765625 48.109375 
Q 20.015625 56 32.328125 56 
Q 43.359375 56 49.78125 48.890625 
Q 56.203125 41.796875 56.203125 29.59375 
M 47.21875 32.234375 
Q 47.125 39.59375 43.09375 43.984375 
Q 39.0625 48.390625 32.421875 48.390625 
Q 24.90625 48.390625 20.390625 44.140625 
Q 15.875 39.890625 15.1875 32.171875 
z
" id="BitstreamVeraSans-Roman-65"/>
       <path d="M 37.109375 75.984375 
L 37.109375 68.5 
L 28.515625 68.5 
Q 23.6875 68.5 21.796875 66.546875 
Q 19.921875 64.59375 19.921875 59.515625 
L 19.921875 54.6875 
L 34.71875 54.6875 
L 34.71875 47.703125 
L 19.921875 47.703125 
L 19.921875 0 
L 10.890625 0 
L 10.890625 47.703125 
L 2.296875 47.703125 
L 2.296875 54.6875 
L 10.890625 54.6875 
L 10.890625 58.5 
Q 10.890625 67.625 15.140625 71.796875 
Q 19.390625 75.984375 28.609375 75.984375 
z
" id="BitstreamVeraSans-Roman-66"/>
      </defs>
      <g transform="translate(161.506875 63.5177083333)scale(0.12 -0.12)">
       <use xlink:href="#BitstreamVeraSans-Roman-66"/>
       <use x="35.205078125" xlink:href="#BitstreamVeraSans-Roman-61"/>
       <use x="96.484375" xlink:href="#BitstreamVeraSans-Roman-72"/>
       <use x="137.56640625" xlink:href="#BitstreamVeraSans-Roman-65"/>
      </g>
     </g>
    </g>
   </g>
   <g id="matplotlib.axis_2">
    <g id="ytick_1">
     <g id="line2d_10">
      <defs>
       <path d="M 0 0 
L 4 0 
" id="md71faa49e8" style="stroke:#000000;stroke-width:0.5;"/>
      </defs>
      <g>
       <use style="stroke:#000000;stroke-width:0.5;" x="39.865" xlink:href="#md71faa49e8" y="50.3995833333"/>
      </g>
     </g>
     <g id="line2d_11">
      <defs>
       <path d="M 0 0 
L -4 0 
" id="m23b943f3f4" style="stroke:#000000;stroke-width:0.5;"/>
      </defs>
      <g>
       <use style="stroke:#000000;stroke-width:0.5;" x="307.04" xlink:href="#m23b943f3f4" y="50.3995833333"/>
      </g>
     </g>
     <g id="text_2">
      <!-- 0 -->
      <defs>
       <path d="M 31.78125 66.40625 
Q 24.171875 66.40625 20.328125 58.90625 
Q 16.5 51.421875 16.5 36.375 
Q 16.5 21.390625 20.328125 13.890625 
Q 24.171875 6.390625 31.78125 6.390625 
Q 39.453125 6.390625 43.28125 13.890625 
Q 47.125 21.390625 47.125 36.375 
Q 47.125 51.421875 43.28125 58.90625 
Q 39.453125 66.40625 31.78125 66.40625 
M 31.78125 74.21875 
Q 44.046875 74.21875 50.515625 64.515625 
Q 56.984375 54.828125 56.984375 36.375 
Q 56.984375 17.96875 50.515625 8.265625 
Q 44.046875 -1.421875 31.78125 -1.421875 
Q 19.53125 -1.421875 13.0625 8.265625 
Q 6.59375 17.96875 6.59375 36.375 
Q 6.59375 54.828125 13.0625 64.515625 
Q 19.53125 74.21875 31.78125 74.21875 
" id="BitstreamVeraSans-Roman-30"/>
      </defs>
      <g transform="translate(28.23 53.7108333333)scale(0.12 -0.12)">
       <use xlink:href="#BitstreamVeraSans-Roman-30"/>
      </g>
     </g>
    </g>
    <g id="ytick_2">
     <g id="line2d_12">
      <g>
       <use style="stroke:#000000;stroke-width:0.5;" x="39.865" xlink:href="#md71faa49e8" y="45.1274652778"/>
      </g>
     </g>
     <g id="line2d_13">
      <g>
       <use style="stroke:#000000;stroke-width:0.5;" x="307.04" xlink:href="#m23b943f3f4" y="45.1274652778"/>
      </g>
     </g>
     <g id="text_3">
      <!-- 100 -->
      <defs>
       <path d="M 12.40625 8.296875 
L 28.515625 8.296875 
L 28.515625 63.921875 
L 10.984375 60.40625 
L 10.984375 69.390625 
L 28.421875 72.90625 
L 38.28125 72.90625 
L 38.28125 8.296875 
L 54.390625 8.296875 
L 54.390625 0 
L 12.40625 0 
z
" id="BitstreamVeraSans-Roman-31"/>
      </defs>
      <g transform="translate(12.96 48.4387152778)scale(0.12 -0.12)">
       <use xlink:href="#BitstreamVeraSans-Roman-31"/>
       <use x="63.623046875" xlink:href="#BitstreamVeraSans-Roman-30"/>
       <use x="127.24609375" xlink:href="#BitstreamVeraSans-Roman-30"/>
      </g>
     </g>
    </g>
    <g id="ytick_3">
     <g id="line2d_14">
      <g>
       <use style="stroke:#000000;stroke-width:0.5;" x="39.865" xlink:href="#md71faa49e8" y="39.8553472222"/>
      </g>
     </g>
     <g id="line2d_15">
      <g>
       <use style="stroke:#000000;stroke-width:0.5;" x="307.04" xlink:href="#m23b943f3f4" y="39.8553472222"/>
      </g>
     </g>
     <g id="text_4">
      <!-- 200 -->
      <defs>
       <path d="M 19.1875 8.296875 
L 53.609375 8.296875 
L 53.609375 0 
L 7.328125 0 
L 7.328125 8.296875 
Q 12.9375 14.109375 22.625 23.890625 
Q 32.328125 33.6875 34.8125 36.53125 
Q 39.546875 41.84375 41.421875 45.53125 
Q 43.3125 49.21875 43.3125 52.78125 
Q 43.3125 58.59375 39.234375 62.25 
Q 35.15625 65.921875 28.609375 65.921875 
Q 23.96875 65.921875 18.8125 64.3125 
Q 13.671875 62.703125 7.8125 59.421875 
L 7.8125 69.390625 
Q 13.765625 71.78125 18.9375 73 
Q 24.125 74.21875 28.421875 74.21875 
Q 39.75 74.21875 46.484375 68.546875 
Q 53.21875 62.890625 53.21875 53.421875 
Q 53.21875 48.921875 51.53125 44.890625 
Q 49.859375 40.875 45.40625 35.40625 
Q 44.1875 33.984375 37.640625 27.21875 
Q 31.109375 20.453125 19.1875 8.296875 
" id="BitstreamVeraSans-Roman-32"/>
      </defs>
      <g transform="translate(12.96 43.1665972222)scale(0.12 -0.12)">
       <use xlink:href="#BitstreamVeraSans-Roman-32"/>
       <use x="63.623046875" xlink:href="#BitstreamVeraSans-Roman-30"/>
       <use x="127.24609375" xlink:href="#BitstreamVeraSans-Roman-30"/>
      </g>
     </g>
    </g>
    <g id="ytick_4">
     <g id="line2d_16">
      <g>
       <use style="stroke:#000000;stroke-width:0.5;" x="39.865" xlink:href="#md71faa49e8" y="34.5832291667"/>
      </g>
     </g>
     <g id="line2d_17">
      <g>
       <use style="stroke:#000000;stroke-width:0.5;" x="307.04" xlink:href="#m23b943f3f4" y="34.5832291667"/>
      </g>
     </g>
     <g id="text_5">
      <!-- 300 -->
      <defs>
       <path d="M 40.578125 39.3125 
Q 47.65625 37.796875 51.625 33 
Q 55.609375 28.21875 55.609375 21.1875 
Q 55.609375 10.40625 48.1875 4.484375 
Q 40.765625 -1.421875 27.09375 -1.421875 
Q 22.515625 -1.421875 17.65625 -0.515625 
Q 12.796875 0.390625 7.625 2.203125 
L 7.625 11.71875 
Q 11.71875 9.328125 16.59375 8.109375 
Q 21.484375 6.890625 26.8125 6.890625 
Q 36.078125 6.890625 40.9375 10.546875 
Q 45.796875 14.203125 45.796875 21.1875 
Q 45.796875 27.640625 41.28125 31.265625 
Q 36.765625 34.90625 28.71875 34.90625 
L 20.21875 34.90625 
L 20.21875 43.015625 
L 29.109375 43.015625 
Q 36.375 43.015625 40.234375 45.921875 
Q 44.09375 48.828125 44.09375 54.296875 
Q 44.09375 59.90625 40.109375 62.90625 
Q 36.140625 65.921875 28.71875 65.921875 
Q 24.65625 65.921875 20.015625 65.03125 
Q 15.375 64.15625 9.8125 62.3125 
L 9.8125 71.09375 
Q 15.4375 72.65625 20.34375 73.4375 
Q 25.25 74.21875 29.59375 74.21875 
Q 40.828125 74.21875 47.359375 69.109375 
Q 53.90625 64.015625 53.90625 55.328125 
Q 53.90625 49.265625 50.4375 45.09375 
Q 46.96875 40.921875 40.578125 39.3125 
" id="BitstreamVeraSans-Roman-33"/>
      </defs>
      <g transform="translate(12.96 37.8944791667)scale(0.12 -0.12)">
       <use xlink:href="#BitstreamVeraSans-Roman-33"/>
       <use x="63.623046875" xlink:href="#BitstreamVeraSans-Roman-30"/>
       <use x="127.24609375" xlink:href="#BitstreamVeraSans-Roman-30"/>
      </g>
     </g>
    </g>
    <g id="ytick_5">
     <g id="line2d_18">
      <g>
       <use style="stroke:#000000;stroke-width:0.5;" x="39.865" xlink:href="#md71faa49e8" y="29.3111111111"/>
      </g>
     </g>
     <g id="line2d_19">
      <g>
       <use style="stroke:#000000;stroke-width:0.5;" x="307.04" xlink:href="#m23b943f3f4" y="29.3111111111"/>
      </g>
     </g>
     <g id="text_6">
      <!-- 400 -->
      <defs>
       <path d="M 37.796875 64.3125 
L 12.890625 25.390625 
L 37.796875 25.390625 
z
M 35.203125 72.90625 
L 47.609375 72.90625 
L 47.609375 25.390625 
L 58.015625 25.390625 
L 58.015625 17.1875 
L 47.609375 17.1875 
L 47.609375 0 
L 37.796875 0 
L 37.796875 17.1875 
L 4.890625 17.1875 
L 4.890625 26.703125 
z
" id="BitstreamVeraSans-Roman-34"/>
      </defs>
      <g transform="translate(12.96 32.6223611111)scale(0.12 -0.12)">
       <use xlink:href="#BitstreamVeraSans-Roman-34"/>
       <use x="63.623046875" xlink:href="#BitstreamVeraSans-Roman-30"/>
       <use x="127.24609375" xlink:href="#BitstreamVeraSans-Roman-30"/>
      </g>
     </g>
    </g>
    <g id="ytick_6">
     <g id="line2d_20">
      <g>
       <use style="stroke:#000000;stroke-width:0.5;" x="39.865" xlink:href="#md71faa49e8" y="24.0389930556"/>
      </g>
     </g>
     <g id="line2d_21">
      <g>
       <use style="stroke:#000000;stroke-width:0.5;" x="307.04" xlink:href="#m23b943f3f4" y="24.0389930556"/>
      </g>
     </g>
     <g id="text_7">
      <!-- 500 -->
      <defs>
       <path d="M 10.796875 72.90625 
L 49.515625 72.90625 
L 49.515625 64.59375 
L 19.828125 64.59375 
L 19.828125 46.734375 
Q 21.96875 47.46875 24.109375 47.828125 
Q 26.265625 48.1875 28.421875 48.1875 
Q 40.625 48.1875 47.75 41.5 
Q 54.890625 34.8125 54.890625 23.390625 
Q 54.890625 11.625 47.5625 5.09375 
Q 40.234375 -1.421875 26.90625 -1.421875 
Q 22.3125 -1.421875 17.546875 -0.640625 
Q 12.796875 0.140625 7.71875 1.703125 
L 7.71875 11.625 
Q 12.109375 9.234375 16.796875 8.0625 
Q 21.484375 6.890625 26.703125 6.890625 
Q 35.15625 6.890625 40.078125 11.328125 
Q 45.015625 15.765625 45.015625 23.390625 
Q 45.015625 31 40.078125 35.4375 
Q 35.15625 39.890625 26.703125 39.890625 
Q 22.75 39.890625 18.8125 39.015625 
Q 14.890625 38.140625 10.796875 36.28125 
z
" id="BitstreamVeraSans-Roman-35"/>
      </defs>
      <g transform="translate(12.96 27.3502430556)scale(0.12 -0.12)">
       <use xlink:href="#BitstreamVeraSans-Roman-35"/>
       <use x="63.623046875" xlink:href="#BitstreamVeraSans-Roman-30"/>
       <use x="127.24609375" xlink:href="#BitstreamVeraSans-Roman-30"/>
      </g>
     </g>
    </g>
    <g id="ytick_7">
     <g id="line2d_22">
      <g>
       <use style="stroke:#000000;stroke-width:0.5;" x="39.865" xlink:href="#md71faa49e8" y="18.766875"/>
      </g>
     </g>
     <g id="line2d_23">
      <g>
       <use style="stroke:#000000;stroke-width:0.5;" x="307.04" xlink:href="#m23b943f3f4" y="18.766875"/>
      </g>
     </g>
     <g id="text_8">
      <!-- 600 -->
      <defs>
       <path d="M 33.015625 40.375 
Q 26.375 40.375 22.484375 35.828125 
Q 18.609375 31.296875 18.609375 23.390625 
Q 18.609375 15.53125 22.484375 10.953125 
Q 26.375 6.390625 33.015625 6.390625 
Q 39.65625 6.390625 43.53125 10.953125 
Q 47.40625 15.53125 47.40625 23.390625 
Q 47.40625 31.296875 43.53125 35.828125 
Q 39.65625 40.375 33.015625 40.375 
M 52.59375 71.296875 
L 52.59375 62.3125 
Q 48.875 64.0625 45.09375 64.984375 
Q 41.3125 65.921875 37.59375 65.921875 
Q 27.828125 65.921875 22.671875 59.328125 
Q 17.53125 52.734375 16.796875 39.40625 
Q 19.671875 43.65625 24.015625 45.921875 
Q 28.375 48.1875 33.59375 48.1875 
Q 44.578125 48.1875 50.953125 41.515625 
Q 57.328125 34.859375 57.328125 23.390625 
Q 57.328125 12.15625 50.6875 5.359375 
Q 44.046875 -1.421875 33.015625 -1.421875 
Q 20.359375 -1.421875 13.671875 8.265625 
Q 6.984375 17.96875 6.984375 36.375 
Q 6.984375 53.65625 15.1875 63.9375 
Q 23.390625 74.21875 37.203125 74.21875 
Q 40.921875 74.21875 44.703125 73.484375 
Q 48.484375 72.75 52.59375 71.296875 
" id="BitstreamVeraSans-Roman-36"/>
      </defs>
      <g transform="translate(12.96 22.078125)scale(0.12 -0.12)">
       <use xlink:href="#BitstreamVeraSans-Roman-36"/>
       <use x="63.623046875" xlink:href="#BitstreamVeraSans-Roman-30"/>
       <use x="127.24609375" xlink:href="#BitstreamVeraSans-Roman-30"/>
      </g>
     </g>
    </g>
   </g>
  </g>
  <g id="axes_2">
   <g id="patch_7">
    <path d="M 39.865 116.412917 
L 307.04 116.412917 
L 307.04 84.780208 
L 39.865 84.780208 
z
" style="fill:#ffffff;"/>
   </g>
   <g id="line2d_24">
    <path clip-path="url(#p6b74969cd3)" d="M 153.414375 111.272602 
L 193.490625 111.272602 
L 193.490625 106.132286 
L 153.414375 106.132286 
L 153.414375 111.272602 
" style="fill:none;stroke:#0000ff;stroke-linecap:square;"/>
   </g>
   <g id="line2d_25">
    <path clip-path="url(#p6b74969cd3)" d="M 173.4525 111.272602 
L 173.4525 116.412917 
" style="fill:none;stroke:#0000ff;stroke-dasharray:6.000000,6.000000;stroke-dashoffset:0.0;"/>
   </g>
   <g id="line2d_26">
    <path clip-path="url(#p6b74969cd3)" d="M 173.4525 106.132286 
L 173.4525 99.972133 
" style="fill:none;stroke:#0000ff;stroke-dasharray:6.000000,6.000000;stroke-dashoffset:0.0;"/>
   </g>
   <g id="line2d_27">
    <path clip-path="url(#p6b74969cd3)" d="M 163.433437 116.412917 
L 183.471563 116.412917 
" style="fill:none;stroke:#000000;stroke-linecap:square;"/>
   </g>
   <g id="line2d_28">
    <path clip-path="url(#p6b74969cd3)" d="M 163.433437 99.972133 
L 183.471563 99.972133 
" style="fill:none;stroke:#000000;stroke-linecap:square;"/>
   </g>
   <g id="line2d_29">
    <path clip-path="url(#p6b74969cd3)" d="M 153.414375 110.463674 
L 193.490625 110.463674 
" style="fill:none;stroke:#ff0000;stroke-linecap:square;"/>
   </g>
   <g id="line2d_30">
    <g clip-path="url(#p6b74969cd3)">
     <use style="fill:#0000ff;stroke:#000000;stroke-width:0.5;" x="173.4525" xlink:href="#m12f3275a4b" y="87.3503658854"/>
     <use style="fill:#0000ff;stroke:#000000;stroke-width:0.5;" x="173.4525" xlink:href="#m12f3275a4b" y="87.3503658854"/>
     <use style="fill:#0000ff;stroke:#000000;stroke-width:0.5;" x="173.4525" xlink:href="#m12f3275a4b" y="87.3503658854"/>
     <use style="fill:#0000ff;stroke:#000000;stroke-width:0.5;" x="173.4525" xlink:href="#m12f3275a4b" y="90.7113411458"/>
     <use style="fill:#0000ff;stroke:#000000;stroke-width:0.5;" x="173.4525" xlink:href="#m12f3275a4b" y="90.7113411458"/>
     <use style="fill:#0000ff;stroke:#000000;stroke-width:0.5;" x="173.4525" xlink:href="#m12f3275a4b" y="90.7113411458"/>
     <use style="fill:#0000ff;stroke:#000000;stroke-width:0.5;" x="173.4525" xlink:href="#m12f3275a4b" y="90.7113411458"/>
     <use style="fill:#0000ff;stroke:#000000;stroke-width:0.5;" x="173.4525" xlink:href="#m12f3275a4b" y="87.3503658854"/>
     <use style="fill:#0000ff;stroke:#000000;stroke-width:0.5;" x="173.4525" xlink:href="#m12f3275a4b" y="87.3503658854"/>
     <use style="fill:#0000ff;stroke:#000000;stroke-width:0.5;" x="173.4525" xlink:href="#m12f3275a4b" y="87.3503658854"/>
     <use style="fill:#0000ff;stroke:#000000;stroke-width:0.5;" x="173.4525" xlink:href="#m12f3275a4b" y="87.3503658854"/>
     <use style="fill:#0000ff;stroke:#000000;stroke-width:0.5;" x="173.4525" xlink:href="#m12f3275a4b" y="90.7113411458"/>
    </g>
   </g>
   <g id="patch_8">
    <path d="M 39.865 116.412917 
L 39.865 84.780208 
" style="fill:none;stroke:#000000;stroke-linecap:square;stroke-linejoin:miter;"/>
   </g>
   <g id="patch_9">
    <path d="M 39.865 116.412917 
L 307.04 116.412917 
" style="fill:none;stroke:#000000;stroke-linecap:square;stroke-linejoin:miter;"/>
   </g>
   <g id="patch_10">
    <path d="M 307.04 116.412917 
L 307.04 84.780208 
" style="fill:none;stroke:#000000;stroke-linecap:square;stroke-linejoin:miter;"/>
   </g>
   <g id="patch_11">
    <path d="M 39.865 84.780208 
L 307.04 84.780208 
" style="fill:none;stroke:#000000;stroke-linecap:square;stroke-linejoin:miter;"/>
   </g>
   <g id="matplotlib.axis_3">
    <g id="xtick_2">
     <g id="line2d_31">
      <g>
       <use style="stroke:#000000;stroke-width:0.5;" x="173.4525" xlink:href="#m342bdcebc7" y="116.412916667"/>
      </g>
     </g>
     <g id="line2d_32">
      <g>
       <use style="stroke:#000000;stroke-width:0.5;" x="173.4525" xlink:href="#ma0f77ec2c1" y="84.7802083333"/>
      </g>
     </g>
     <g id="text_9">
      <!-- fare -->
      <g transform="translate(161.506875 129.531041667)scale(0.12 -0.12)">
       <use xlink:href="#BitstreamVeraSans-Roman-66"/>
       <use x="35.205078125" xlink:href="#BitstreamVeraSans-Roman-61"/>
       <use x="96.484375" xlink:href="#BitstreamVeraSans-Roman-72"/>
       <use x="137.56640625" xlink:href="#BitstreamVeraSans-Roman-65"/>
      </g>
     </g>
    </g>
   </g>
   <g id="matplotlib.axis_4">
    <g id="ytick_8">
     <g id="line2d_33">
      <g>
       <use style="stroke:#000000;stroke-width:0.5;" x="39.865" xlink:href="#md71faa49e8" y="116.412916667"/>
      </g>
     </g>
     <g id="line2d_34">
      <g>
       <use style="stroke:#000000;stroke-width:0.5;" x="307.04" xlink:href="#m23b943f3f4" y="116.412916667"/>
      </g>
     </g>
     <g id="text_10">
      <!-- 0 -->
      <g transform="translate(28.23 119.724166667)scale(0.12 -0.12)">
       <use xlink:href="#BitstreamVeraSans-Roman-30"/>
      </g>
     </g>
    </g>
    <g id="ytick_9">
     <g id="line2d_35">
      <g>
       <use style="stroke:#000000;stroke-width:0.5;" x="39.865" xlink:href="#md71faa49e8" y="112.458828125"/>
      </g>
     </g>
     <g id="line2d_36">
      <g>
       <use style="stroke:#000000;stroke-width:0.5;" x="307.04" xlink:href="#m23b943f3f4" y="112.458828125"/>
      </g>
     </g>
     <g id="text_11">
      <!-- 10 -->
      <g transform="translate(20.595 115.770078125)scale(0.12 -0.12)">
       <use xlink:href="#BitstreamVeraSans-Roman-31"/>
       <use x="63.623046875" xlink:href="#BitstreamVeraSans-Roman-30"/>
      </g>
     </g>
    </g>
    <g id="ytick_10">
     <g id="line2d_37">
      <g>
       <use style="stroke:#000000;stroke-width:0.5;" x="39.865" xlink:href="#md71faa49e8" y="108.504739583"/>
      </g>
     </g>
     <g id="line2d_38">
      <g>
       <use style="stroke:#000000;stroke-width:0.5;" x="307.04" xlink:href="#m23b943f3f4" y="108.504739583"/>
      </g>
     </g>
     <g id="text_12">
      <!-- 20 -->
      <g transform="translate(20.595 111.815989583)scale(0.12 -0.12)">
       <use xlink:href="#BitstreamVeraSans-Roman-32"/>
       <use x="63.623046875" xlink:href="#BitstreamVeraSans-Roman-30"/>
      </g>
     </g>
    </g>
    <g id="ytick_11">
     <g id="line2d_39">
      <g>
       <use style="stroke:#000000;stroke-width:0.5;" x="39.865" xlink:href="#md71faa49e8" y="104.550651042"/>
      </g>
     </g>
     <g id="line2d_40">
      <g>
       <use style="stroke:#000000;stroke-width:0.5;" x="307.04" xlink:href="#m23b943f3f4" y="104.550651042"/>
      </g>
     </g>
     <g id="text_13">
      <!-- 30 -->
      <g transform="translate(20.595 107.861901042)scale(0.12 -0.12)">
       <use xlink:href="#BitstreamVeraSans-Roman-33"/>
       <use x="63.623046875" xlink:href="#BitstreamVeraSans-Roman-30"/>
      </g>
     </g>
    </g>
    <g id="ytick_12">
     <g id="line2d_41">
      <g>
       <use style="stroke:#000000;stroke-width:0.5;" x="39.865" xlink:href="#md71faa49e8" y="100.5965625"/>
      </g>
     </g>
     <g id="line2d_42">
      <g>
       <use style="stroke:#000000;stroke-width:0.5;" x="307.04" xlink:href="#m23b943f3f4" y="100.5965625"/>
      </g>
     </g>
     <g id="text_14">
      <!-- 40 -->
      <g transform="translate(20.595 103.9078125)scale(0.12 -0.12)">
       <use xlink:href="#BitstreamVeraSans-Roman-34"/>
       <use x="63.623046875" xlink:href="#BitstreamVeraSans-Roman-30"/>
      </g>
     </g>
    </g>
    <g id="ytick_13">
     <g id="line2d_43">
      <g>
       <use style="stroke:#000000;stroke-width:0.5;" x="39.865" xlink:href="#md71faa49e8" y="96.6424739583"/>
      </g>
     </g>
     <g id="line2d_44">
      <g>
       <use style="stroke:#000000;stroke-width:0.5;" x="307.04" xlink:href="#m23b943f3f4" y="96.6424739583"/>
      </g>
     </g>
     <g id="text_15">
      <!-- 50 -->
      <g transform="translate(20.595 99.9537239583)scale(0.12 -0.12)">
       <use xlink:href="#BitstreamVeraSans-Roman-35"/>
       <use x="63.623046875" xlink:href="#BitstreamVeraSans-Roman-30"/>
      </g>
     </g>
    </g>
    <g id="ytick_14">
     <g id="line2d_45">
      <g>
       <use style="stroke:#000000;stroke-width:0.5;" x="39.865" xlink:href="#md71faa49e8" y="92.6883854167"/>
      </g>
     </g>
     <g id="line2d_46">
      <g>
       <use style="stroke:#000000;stroke-width:0.5;" x="307.04" xlink:href="#m23b943f3f4" y="92.6883854167"/>
      </g>
     </g>
     <g id="text_16">
      <!-- 60 -->
      <g transform="translate(20.595 95.9996354167)scale(0.12 -0.12)">
       <use xlink:href="#BitstreamVeraSans-Roman-36"/>
       <use x="63.623046875" xlink:href="#BitstreamVeraSans-Roman-30"/>
      </g>
     </g>
    </g>
    <g id="ytick_15">
     <g id="line2d_47">
      <g>
       <use style="stroke:#000000;stroke-width:0.5;" x="39.865" xlink:href="#md71faa49e8" y="88.734296875"/>
      </g>
     </g>
     <g id="line2d_48">
      <g>
       <use style="stroke:#000000;stroke-width:0.5;" x="307.04" xlink:href="#m23b943f3f4" y="88.734296875"/>
      </g>
     </g>
     <g id="text_17">
      <!-- 70 -->
      <defs>
       <path d="M 8.203125 72.90625 
L 55.078125 72.90625 
L 55.078125 68.703125 
L 28.609375 0 
L 18.3125 0 
L 43.21875 64.59375 
L 8.203125 64.59375 
z
" id="BitstreamVeraSans-Roman-37"/>
      </defs>
      <g transform="translate(20.595 92.045546875)scale(0.12 -0.12)">
       <use xlink:href="#BitstreamVeraSans-Roman-37"/>
       <use x="63.623046875" xlink:href="#BitstreamVeraSans-Roman-30"/>
      </g>
     </g>
    </g>
    <g id="ytick_16">
     <g id="line2d_49">
      <g>
       <use style="stroke:#000000;stroke-width:0.5;" x="39.865" xlink:href="#md71faa49e8" y="84.7802083333"/>
      </g>
     </g>
     <g id="line2d_50">
      <g>
       <use style="stroke:#000000;stroke-width:0.5;" x="307.04" xlink:href="#m23b943f3f4" y="84.7802083333"/>
      </g>
     </g>
     <g id="text_18">
      <!-- 80 -->
      <defs>
       <path d="M 31.78125 34.625 
Q 24.75 34.625 20.71875 30.859375 
Q 16.703125 27.09375 16.703125 20.515625 
Q 16.703125 13.921875 20.71875 10.15625 
Q 24.75 6.390625 31.78125 6.390625 
Q 38.8125 6.390625 42.859375 10.171875 
Q 46.921875 13.96875 46.921875 20.515625 
Q 46.921875 27.09375 42.890625 30.859375 
Q 38.875 34.625 31.78125 34.625 
M 21.921875 38.8125 
Q 15.578125 40.375 12.03125 44.71875 
Q 8.5 49.078125 8.5 55.328125 
Q 8.5 64.0625 14.71875 69.140625 
Q 20.953125 74.21875 31.78125 74.21875 
Q 42.671875 74.21875 48.875 69.140625 
Q 55.078125 64.0625 55.078125 55.328125 
Q 55.078125 49.078125 51.53125 44.71875 
Q 48 40.375 41.703125 38.8125 
Q 48.828125 37.15625 52.796875 32.3125 
Q 56.78125 27.484375 56.78125 20.515625 
Q 56.78125 9.90625 50.3125 4.234375 
Q 43.84375 -1.421875 31.78125 -1.421875 
Q 19.734375 -1.421875 13.25 4.234375 
Q 6.78125 9.90625 6.78125 20.515625 
Q 6.78125 27.484375 10.78125 32.3125 
Q 14.796875 37.15625 21.921875 38.8125 
M 18.3125 54.390625 
Q 18.3125 48.734375 21.84375 45.5625 
Q 25.390625 42.390625 31.78125 42.390625 
Q 38.140625 42.390625 41.71875 45.5625 
Q 45.3125 48.734375 45.3125 54.390625 
Q 45.3125 60.0625 41.71875 63.234375 
Q 38.140625 66.40625 31.78125 66.40625 
Q 25.390625 66.40625 21.84375 63.234375 
Q 18.3125 60.0625 18.3125 54.390625 
" id="BitstreamVeraSans-Roman-38"/>
      </defs>
      <g transform="translate(20.595 88.0914583333)scale(0.12 -0.12)">
       <use xlink:href="#BitstreamVeraSans-Roman-38"/>
       <use x="63.623046875" xlink:href="#BitstreamVeraSans-Roman-30"/>
      </g>
     </g>
    </g>
   </g>
  </g>
  <g id="axes_3">
   <g id="patch_12">
    <path d="M 39.865 182.42625 
L 307.04 182.42625 
L 307.04 150.793542 
L 39.865 150.793542 
z
" style="fill:#ffffff;"/>
   </g>
   <g id="line2d_51">
    <path clip-path="url(#pab5c89ad58)" d="M 153.414375 178.924057 
L 193.490625 178.924057 
L 193.490625 175.536737 
L 153.414375 175.536737 
L 153.414375 178.924057 
" style="fill:none;stroke:#0000ff;stroke-linecap:square;"/>
   </g>
   <g id="line2d_52">
    <path clip-path="url(#pab5c89ad58)" d="M 173.4525 178.924057 
L 173.4525 182.42625 
" style="fill:none;stroke:#0000ff;stroke-dasharray:6.000000,6.000000;stroke-dashoffset:0.0;"/>
   </g>
   <g id="line2d_53">
    <path clip-path="url(#pab5c89ad58)" d="M 173.4525 175.536737 
L 173.4525 170.917954 
" style="fill:none;stroke:#0000ff;stroke-dasharray:6.000000,6.000000;stroke-dashoffset:0.0;"/>
   </g>
   <g id="line2d_54">
    <path clip-path="url(#pab5c89ad58)" d="M 163.433437 182.42625 
L 183.471563 182.42625 
" style="fill:none;stroke:#000000;stroke-linecap:square;"/>
   </g>
   <g id="line2d_55">
    <path clip-path="url(#pab5c89ad58)" d="M 163.433437 170.917954 
L 183.471563 170.917954 
" style="fill:none;stroke:#000000;stroke-linecap:square;"/>
   </g>
   <g id="line2d_56">
    <path clip-path="url(#pab5c89ad58)" d="M 153.414375 178.788489 
L 193.490625 178.788489 
" style="fill:none;stroke:#ff0000;stroke-linecap:square;"/>
   </g>
   <g id="line2d_57">
    <g clip-path="url(#pab5c89ad58)">
     <use style="fill:#0000ff;stroke:#000000;stroke-width:0.5;" x="173.4525" xlink:href="#m12f3275a4b" y="168.293207812"/>
     <use style="fill:#0000ff;stroke:#000000;stroke-width:0.5;" x="173.4525" xlink:href="#m12f3275a4b" y="168.293207812"/>
     <use style="fill:#0000ff;stroke:#000000;stroke-width:0.5;" x="173.4525" xlink:href="#m12f3275a4b" y="168.293207812"/>
     <use style="fill:#0000ff;stroke:#000000;stroke-width:0.5;" x="173.4525" xlink:href="#m12f3275a4b" y="168.293207812"/>
     <use style="fill:#0000ff;stroke:#000000;stroke-width:0.5;" x="173.4525" xlink:href="#m12f3275a4b" y="168.293207812"/>
     <use style="fill:#0000ff;stroke:#000000;stroke-width:0.5;" x="173.4525" xlink:href="#m12f3275a4b" y="168.293207812"/>
     <use style="fill:#0000ff;stroke:#000000;stroke-width:0.5;" x="173.4525" xlink:href="#m12f3275a4b" y="168.293207812"/>
     <use style="fill:#0000ff;stroke:#000000;stroke-width:0.5;" x="173.4525" xlink:href="#m12f3275a4b" y="168.242369531"/>
     <use style="fill:#0000ff;stroke:#000000;stroke-width:0.5;" x="173.4525" xlink:href="#m12f3275a4b" y="168.242369531"/>
     <use style="fill:#0000ff;stroke:#000000;stroke-width:0.5;" x="173.4525" xlink:href="#m12f3275a4b" y="168.242369531"/>
     <use style="fill:#0000ff;stroke:#000000;stroke-width:0.5;" x="173.4525" xlink:href="#m12f3275a4b" y="168.242369531"/>
     <use style="fill:#0000ff;stroke:#000000;stroke-width:0.5;" x="173.4525" xlink:href="#m12f3275a4b" y="168.242369531"/>
     <use style="fill:#0000ff;stroke:#000000;stroke-width:0.5;" x="173.4525" xlink:href="#m12f3275a4b" y="168.242369531"/>
     <use style="fill:#0000ff;stroke:#000000;stroke-width:0.5;" x="173.4525" xlink:href="#m12f3275a4b" y="168.242369531"/>
     <use style="fill:#0000ff;stroke:#000000;stroke-width:0.5;" x="173.4525" xlink:href="#m12f3275a4b" y="156.896033379"/>
     <use style="fill:#0000ff;stroke:#000000;stroke-width:0.5;" x="173.4525" xlink:href="#m12f3275a4b" y="156.896033379"/>
     <use style="fill:#0000ff;stroke:#000000;stroke-width:0.5;" x="173.4525" xlink:href="#m12f3275a4b" y="156.896033379"/>
     <use style="fill:#0000ff;stroke:#000000;stroke-width:0.5;" x="173.4525" xlink:href="#m12f3275a4b" y="166.892330729"/>
     <use style="fill:#0000ff;stroke:#000000;stroke-width:0.5;" x="173.4525" xlink:href="#m12f3275a4b" y="166.892330729"/>
     <use style="fill:#0000ff;stroke:#000000;stroke-width:0.5;" x="173.4525" xlink:href="#m12f3275a4b" y="166.892330729"/>
     <use style="fill:#0000ff;stroke:#000000;stroke-width:0.5;" x="173.4525" xlink:href="#m12f3275a4b" y="166.892330729"/>
     <use style="fill:#0000ff;stroke:#000000;stroke-width:0.5;" x="173.4525" xlink:href="#m12f3275a4b" y="166.892330729"/>
     <use style="fill:#0000ff;stroke:#000000;stroke-width:0.5;" x="173.4525" xlink:href="#m12f3275a4b" y="161.232335417"/>
     <use style="fill:#0000ff;stroke:#000000;stroke-width:0.5;" x="173.4525" xlink:href="#m12f3275a4b" y="161.232335417"/>
     <use style="fill:#0000ff;stroke:#000000;stroke-width:0.5;" x="173.4525" xlink:href="#m12f3275a4b" y="161.232335417"/>
     <use style="fill:#0000ff;stroke:#000000;stroke-width:0.5;" x="173.4525" xlink:href="#m12f3275a4b" y="161.232335417"/>
     <use style="fill:#0000ff;stroke:#000000;stroke-width:0.5;" x="173.4525" xlink:href="#m12f3275a4b" y="161.232335417"/>
     <use style="fill:#0000ff;stroke:#000000;stroke-width:0.5;" x="173.4525" xlink:href="#m12f3275a4b" y="161.232335417"/>
     <use style="fill:#0000ff;stroke:#000000;stroke-width:0.5;" x="173.4525" xlink:href="#m12f3275a4b" y="161.232335417"/>
     <use style="fill:#0000ff;stroke:#000000;stroke-width:0.5;" x="173.4525" xlink:href="#m12f3275a4b" y="161.232335417"/>
     <use style="fill:#0000ff;stroke:#000000;stroke-width:0.5;" x="173.4525" xlink:href="#m12f3275a4b" y="156.896033379"/>
     <use style="fill:#0000ff;stroke:#000000;stroke-width:0.5;" x="173.4525" xlink:href="#m12f3275a4b" y="156.896033379"/>
     <use style="fill:#0000ff;stroke:#000000;stroke-width:0.5;" x="173.4525" xlink:href="#m12f3275a4b" y="156.896033379"/>
     <use style="fill:#0000ff;stroke:#000000;stroke-width:0.5;" x="173.4525" xlink:href="#m12f3275a4b" y="156.896033379"/>
     <use style="fill:#0000ff;stroke:#000000;stroke-width:0.5;" x="173.4525" xlink:href="#m12f3275a4b" y="156.896033379"/>
     <use style="fill:#0000ff;stroke:#000000;stroke-width:0.5;" x="173.4525" xlink:href="#m12f3275a4b" y="164.491634115"/>
     <use style="fill:#0000ff;stroke:#000000;stroke-width:0.5;" x="173.4525" xlink:href="#m12f3275a4b" y="164.491634115"/>
     <use style="fill:#0000ff;stroke:#000000;stroke-width:0.5;" x="173.4525" xlink:href="#m12f3275a4b" y="164.491634115"/>
     <use style="fill:#0000ff;stroke:#000000;stroke-width:0.5;" x="173.4525" xlink:href="#m12f3275a4b" y="164.491634115"/>
     <use style="fill:#0000ff;stroke:#000000;stroke-width:0.5;" x="173.4525" xlink:href="#m12f3275a4b" y="164.491634115"/>
     <use style="fill:#0000ff;stroke:#000000;stroke-width:0.5;" x="173.4525" xlink:href="#m12f3275a4b" y="164.491634115"/>
     <use style="fill:#0000ff;stroke:#000000;stroke-width:0.5;" x="173.4525" xlink:href="#m12f3275a4b" y="169.264783854"/>
     <use style="fill:#0000ff;stroke:#000000;stroke-width:0.5;" x="173.4525" xlink:href="#m12f3275a4b" y="169.264783854"/>
     <use style="fill:#0000ff;stroke:#000000;stroke-width:0.5;" x="173.4525" xlink:href="#m12f3275a4b" y="169.264783854"/>
     <use style="fill:#0000ff;stroke:#000000;stroke-width:0.5;" x="173.4525" xlink:href="#m12f3275a4b" y="169.264783854"/>
     <use style="fill:#0000ff;stroke:#000000;stroke-width:0.5;" x="173.4525" xlink:href="#m12f3275a4b" y="169.264783854"/>
     <use style="fill:#0000ff;stroke:#000000;stroke-width:0.5;" x="173.4525" xlink:href="#m12f3275a4b" y="169.264783854"/>
     <use style="fill:#0000ff;stroke:#000000;stroke-width:0.5;" x="173.4525" xlink:href="#m12f3275a4b" y="164.491634115"/>
     <use style="fill:#0000ff;stroke:#000000;stroke-width:0.5;" x="173.4525" xlink:href="#m12f3275a4b" y="150.996894792"/>
     <use style="fill:#0000ff;stroke:#000000;stroke-width:0.5;" x="173.4525" xlink:href="#m12f3275a4b" y="150.996894792"/>
     <use style="fill:#0000ff;stroke:#000000;stroke-width:0.5;" x="173.4525" xlink:href="#m12f3275a4b" y="150.996894792"/>
     <use style="fill:#0000ff;stroke:#000000;stroke-width:0.5;" x="173.4525" xlink:href="#m12f3275a4b" y="150.996894792"/>
     <use style="fill:#0000ff;stroke:#000000;stroke-width:0.5;" x="173.4525" xlink:href="#m12f3275a4b" y="150.996894792"/>
     <use style="fill:#0000ff;stroke:#000000;stroke-width:0.5;" x="173.4525" xlink:href="#m12f3275a4b" y="150.996894792"/>
     <use style="fill:#0000ff;stroke:#000000;stroke-width:0.5;" x="173.4525" xlink:href="#m12f3275a4b" y="150.996894792"/>
     <use style="fill:#0000ff;stroke:#000000;stroke-width:0.5;" x="173.4525" xlink:href="#m12f3275a4b" y="150.996894792"/>
     <use style="fill:#0000ff;stroke:#000000;stroke-width:0.5;" x="173.4525" xlink:href="#m12f3275a4b" y="150.996894792"/>
     <use style="fill:#0000ff;stroke:#000000;stroke-width:0.5;" x="173.4525" xlink:href="#m12f3275a4b" y="150.996894792"/>
     <use style="fill:#0000ff;stroke:#000000;stroke-width:0.5;" x="173.4525" xlink:href="#m12f3275a4b" y="150.996894792"/>
     <use style="fill:#0000ff;stroke:#000000;stroke-width:0.5;" x="173.4525" xlink:href="#m12f3275a4b" y="169.81835625"/>
     <use style="fill:#0000ff;stroke:#000000;stroke-width:0.5;" x="173.4525" xlink:href="#m12f3275a4b" y="169.81835625"/>
     <use style="fill:#0000ff;stroke:#000000;stroke-width:0.5;" x="173.4525" xlink:href="#m12f3275a4b" y="169.81835625"/>
     <use style="fill:#0000ff;stroke:#000000;stroke-width:0.5;" x="173.4525" xlink:href="#m12f3275a4b" y="169.81835625"/>
     <use style="fill:#0000ff;stroke:#000000;stroke-width:0.5;" x="173.4525" xlink:href="#m12f3275a4b" y="169.81835625"/>
     <use style="fill:#0000ff;stroke:#000000;stroke-width:0.5;" x="173.4525" xlink:href="#m12f3275a4b" y="169.81835625"/>
    </g>
   </g>
   <g id="patch_13">
    <path d="M 39.865 182.42625 
L 39.865 150.793542 
" style="fill:none;stroke:#000000;stroke-linecap:square;stroke-linejoin:miter;"/>
   </g>
   <g id="patch_14">
    <path d="M 39.865 182.42625 
L 307.04 182.42625 
" style="fill:none;stroke:#000000;stroke-linecap:square;stroke-linejoin:miter;"/>
   </g>
   <g id="patch_15">
    <path d="M 307.04 182.42625 
L 307.04 150.793542 
" style="fill:none;stroke:#000000;stroke-linecap:square;stroke-linejoin:miter;"/>
   </g>
   <g id="patch_16">
    <path d="M 39.865 150.793542 
L 307.04 150.793542 
" style="fill:none;stroke:#000000;stroke-linecap:square;stroke-linejoin:miter;"/>
   </g>
   <g id="matplotlib.axis_5">
    <g id="xtick_3">
     <g id="line2d_58">
      <g>
       <use style="stroke:#000000;stroke-width:0.5;" x="173.4525" xlink:href="#m342bdcebc7" y="182.42625"/>
      </g>
     </g>
     <g id="line2d_59">
      <g>
       <use style="stroke:#000000;stroke-width:0.5;" x="173.4525" xlink:href="#ma0f77ec2c1" y="150.793541667"/>
      </g>
     </g>
     <g id="text_19">
      <!-- fare -->
      <g transform="translate(161.506875 195.544375)scale(0.12 -0.12)">
       <use xlink:href="#BitstreamVeraSans-Roman-66"/>
       <use x="35.205078125" xlink:href="#BitstreamVeraSans-Roman-61"/>
       <use x="96.484375" xlink:href="#BitstreamVeraSans-Roman-72"/>
       <use x="137.56640625" xlink:href="#BitstreamVeraSans-Roman-65"/>
      </g>
     </g>
    </g>
   </g>
   <g id="matplotlib.axis_6">
    <g id="ytick_17">
     <g id="line2d_60">
      <g>
       <use style="stroke:#000000;stroke-width:0.5;" x="39.865" xlink:href="#md71faa49e8" y="182.42625"/>
      </g>
     </g>
     <g id="line2d_61">
      <g>
       <use style="stroke:#000000;stroke-width:0.5;" x="307.04" xlink:href="#m23b943f3f4" y="182.42625"/>
      </g>
     </g>
     <g id="text_20">
      <!-- 0 -->
      <g transform="translate(28.23 185.7375)scale(0.12 -0.12)">
       <use xlink:href="#BitstreamVeraSans-Roman-30"/>
      </g>
     </g>
    </g>
    <g id="ytick_18">
     <g id="line2d_62">
      <g>
       <use style="stroke:#000000;stroke-width:0.5;" x="39.865" xlink:href="#md71faa49e8" y="177.907291667"/>
      </g>
     </g>
     <g id="line2d_63">
      <g>
       <use style="stroke:#000000;stroke-width:0.5;" x="307.04" xlink:href="#m23b943f3f4" y="177.907291667"/>
      </g>
     </g>
     <g id="text_21">
      <!-- 10 -->
      <g transform="translate(20.595 181.218541667)scale(0.12 -0.12)">
       <use xlink:href="#BitstreamVeraSans-Roman-31"/>
       <use x="63.623046875" xlink:href="#BitstreamVeraSans-Roman-30"/>
      </g>
     </g>
    </g>
    <g id="ytick_19">
     <g id="line2d_64">
      <g>
       <use style="stroke:#000000;stroke-width:0.5;" x="39.865" xlink:href="#md71faa49e8" y="173.388333333"/>
      </g>
     </g>
     <g id="line2d_65">
      <g>
       <use style="stroke:#000000;stroke-width:0.5;" x="307.04" xlink:href="#m23b943f3f4" y="173.388333333"/>
      </g>
     </g>
     <g id="text_22">
      <!-- 20 -->
      <g transform="translate(20.595 176.699583333)scale(0.12 -0.12)">
       <use xlink:href="#BitstreamVeraSans-Roman-32"/>
       <use x="63.623046875" xlink:href="#BitstreamVeraSans-Roman-30"/>
      </g>
     </g>
    </g>
    <g id="ytick_20">
     <g id="line2d_66">
      <g>
       <use style="stroke:#000000;stroke-width:0.5;" x="39.865" xlink:href="#md71faa49e8" y="168.869375"/>
      </g>
     </g>
     <g id="line2d_67">
      <g>
       <use style="stroke:#000000;stroke-width:0.5;" x="307.04" xlink:href="#m23b943f3f4" y="168.869375"/>
      </g>
     </g>
     <g id="text_23">
      <!-- 30 -->
      <g transform="translate(20.595 172.180625)scale(0.12 -0.12)">
       <use xlink:href="#BitstreamVeraSans-Roman-33"/>
       <use x="63.623046875" xlink:href="#BitstreamVeraSans-Roman-30"/>
      </g>
     </g>
    </g>
    <g id="ytick_21">
     <g id="line2d_68">
      <g>
       <use style="stroke:#000000;stroke-width:0.5;" x="39.865" xlink:href="#md71faa49e8" y="164.350416667"/>
      </g>
     </g>
     <g id="line2d_69">
      <g>
       <use style="stroke:#000000;stroke-width:0.5;" x="307.04" xlink:href="#m23b943f3f4" y="164.350416667"/>
      </g>
     </g>
     <g id="text_24">
      <!-- 40 -->
      <g transform="translate(20.595 167.661666667)scale(0.12 -0.12)">
       <use xlink:href="#BitstreamVeraSans-Roman-34"/>
       <use x="63.623046875" xlink:href="#BitstreamVeraSans-Roman-30"/>
      </g>
     </g>
    </g>
    <g id="ytick_22">
     <g id="line2d_70">
      <g>
       <use style="stroke:#000000;stroke-width:0.5;" x="39.865" xlink:href="#md71faa49e8" y="159.831458333"/>
      </g>
     </g>
     <g id="line2d_71">
      <g>
       <use style="stroke:#000000;stroke-width:0.5;" x="307.04" xlink:href="#m23b943f3f4" y="159.831458333"/>
      </g>
     </g>
     <g id="text_25">
      <!-- 50 -->
      <g transform="translate(20.595 163.142708333)scale(0.12 -0.12)">
       <use xlink:href="#BitstreamVeraSans-Roman-35"/>
       <use x="63.623046875" xlink:href="#BitstreamVeraSans-Roman-30"/>
      </g>
     </g>
    </g>
    <g id="ytick_23">
     <g id="line2d_72">
      <g>
       <use style="stroke:#000000;stroke-width:0.5;" x="39.865" xlink:href="#md71faa49e8" y="155.3125"/>
      </g>
     </g>
     <g id="line2d_73">
      <g>
       <use style="stroke:#000000;stroke-width:0.5;" x="307.04" xlink:href="#m23b943f3f4" y="155.3125"/>
      </g>
     </g>
     <g id="text_26">
      <!-- 60 -->
      <g transform="translate(20.595 158.62375)scale(0.12 -0.12)">
       <use xlink:href="#BitstreamVeraSans-Roman-36"/>
       <use x="63.623046875" xlink:href="#BitstreamVeraSans-Roman-30"/>
      </g>
     </g>
    </g>
    <g id="ytick_24">
     <g id="line2d_74">
      <g>
       <use style="stroke:#000000;stroke-width:0.5;" x="39.865" xlink:href="#md71faa49e8" y="150.793541667"/>
      </g>
     </g>
     <g id="line2d_75">
      <g>
       <use style="stroke:#000000;stroke-width:0.5;" x="307.04" xlink:href="#m23b943f3f4" y="150.793541667"/>
      </g>
     </g>
     <g id="text_27">
      <!-- 70 -->
      <g transform="translate(20.595 154.104791667)scale(0.12 -0.12)">
       <use xlink:href="#BitstreamVeraSans-Roman-37"/>
       <use x="63.623046875" xlink:href="#BitstreamVeraSans-Roman-30"/>
      </g>
     </g>
    </g>
   </g>
  </g>
 </g>
 <defs>
  <clipPath id="ped0102f243">
   <rect height="31.6327083333" width="267.175" x="39.865" y="18.766875"/>
  </clipPath>
  <clipPath id="pab5c89ad58">
   <rect height="31.6327083333" width="267.175" x="39.865" y="150.793541667"/>
  </clipPath>
  <clipPath id="p6b74969cd3">
   <rect height="31.6327083333" width="267.175" x="39.865" y="84.7802083333"/>
  </clipPath>
 </defs>
</svg>
