<?xml version="1.0" encoding="utf-8" standalone="no"?>
<!DOCTYPE svg PUBLIC "-//W3C//DTD SVG 1.1//EN"
  "http://www.w3.org/Graphics/SVG/1.1/DTD/svg11.dtd">
<!-- Created with matplotlib (http://matplotlib.org/) -->
<svg height="211pt" version="1.1" viewBox="0 0 323 211" width="323pt" xmlns="http://www.w3.org/2000/svg" xmlns:xlink="http://www.w3.org/1999/xlink">
 <defs>
  <style type="text/css">
*{stroke-linecap:butt;stroke-linejoin:round;stroke-miterlimit:100000;}
  </style>
 </defs>
 <g id="figure_1">
  <g id="patch_1">
   <path d="M 0 211 
L 323 211 
L 323 0 
L 0 0 
z
" style="fill:#ffffff;"/>
  </g>
  <g id="axes_1">
   <g id="patch_2">
    <path d="M 56.47875 165.8125 
L 310.04 165.8125 
L 310.04 28.90175 
L 56.47875 28.90175 
z
" style="fill:#ffffff;"/>
   </g>
   <g id="line2d_1">
    <path clip-path="url(#p328daecccc)" d="M 56.47875 124.739275 
L 56.820017 132.041182 
L 57.50255 139.799458 
L 58.185084 144.819518 
L 58.526351 145.275888 
L 58.867618 138.43035 
L 59.891418 90.055218 
L 60.573952 67.23676 
L 61.256486 54.458423 
L 61.597752 51.720208 
L 61.939019 52.632947 
L 62.280286 56.740269 
L 62.621553 63.585807 
L 62.96282 74.995036 
L 63.304086 92.337064 
L 63.98662 111.960938 
L 64.327887 120.175583 
L 64.669154 124.282906 
L 65.010421 132.041182 
L 65.692954 139.343088 
L 66.375488 144.819518 
L 66.716755 144.819518 
L 67.058022 137.973981 
L 68.081822 90.511588 
L 68.764356 67.23676 
L 69.446889 54.458423 
L 69.788156 51.720208 
L 70.129423 52.632947 
L 70.47069 56.740269 
L 70.811957 63.585807 
L 71.153223 75.451405 
L 71.835757 103.746293 
L 72.518291 119.719214 
L 72.859558 124.282906 
L 73.200824 131.584813 
L 73.883358 139.343088 
L 74.565892 144.819518 
L 74.907158 145.275888 
L 75.248425 138.43035 
L 76.272226 90.055218 
L 76.954759 66.780391 
L 77.637293 54.002054 
L 77.97856 51.263839 
L 78.319827 52.176578 
L 78.661094 55.827531 
L 79.00236 63.129438 
L 79.343627 75.451405 
L 79.684894 92.793433 
L 80.026161 104.202663 
L 81.391228 131.128443 
L 82.073762 138.886719 
L 82.756295 144.363149 
L 83.097562 144.819518 
L 83.438829 138.43035 
L 84.46263 89.598849 
L 85.145163 65.867653 
L 85.827697 53.545685 
L 86.168964 51.263839 
L 86.51023 51.720208 
L 86.851497 55.827531 
L 87.192764 63.129438 
L 88.557831 111.504569 
L 88.899098 119.262845 
L 89.240365 123.826537 
L 89.581632 131.128443 
L 90.264166 138.886719 
L 90.946699 144.363149 
L 91.287966 144.819518 
L 91.629233 137.973981 
L 92.653033 90.055218 
L 93.335567 65.867653 
L 94.018101 54.002054 
L 94.359367 51.263839 
L 94.700634 52.176578 
L 95.041901 55.827531 
L 95.383168 63.585807 
L 96.748235 111.960938 
L 97.089502 119.719214 
L 97.430769 123.826537 
L 97.772036 131.128443 
L 98.454569 138.886719 
L 99.137103 144.819518 
L 99.47837 144.819518 
L 99.819637 138.43035 
L 100.843437 90.055218 
L 101.525971 66.324022 
L 102.208504 54.002054 
L 102.549771 50.80747 
L 102.891038 51.720208 
L 103.232305 55.827531 
L 103.573572 63.129438 
L 104.938639 111.960938 
L 105.279906 120.175583 
L 105.621173 123.826537 
L 105.962439 131.584813 
L 106.644973 139.343088 
L 107.327507 144.819518 
L 107.668774 144.819518 
L 108.01004 138.43035 
L 109.033841 90.511588 
L 109.716374 66.324022 
L 110.398908 54.002054 
L 110.740175 50.351101 
L 111.081442 51.720208 
L 111.422709 55.827531 
L 111.763975 63.585807 
L 113.129043 112.417307 
L 113.47031 120.175583 
L 113.811576 123.826537 
L 114.152843 131.584813 
L 114.835377 139.343088 
L 115.51791 144.819518 
L 115.859177 144.819518 
L 116.200444 138.886719 
L 117.224245 90.511588 
L 117.906778 66.780391 
L 118.589312 54.002054 
L 118.930579 50.80747 
L 119.271846 52.176578 
L 119.613112 55.827531 
L 119.954379 63.585807 
L 121.319447 112.417307 
L 121.660713 120.175583 
L 122.00198 123.826537 
L 122.343247 131.584813 
L 123.025781 139.343088 
L 123.708314 144.819518 
L 124.049581 144.819518 
L 124.390848 138.886719 
L 125.414648 90.967957 
L 126.097182 66.780391 
L 126.779716 54.002054 
L 127.120983 50.80747 
L 127.462249 52.176578 
L 127.803516 55.827531 
L 128.144783 64.498545 
L 129.168583 105.57177 
L 129.851117 120.631953 
L 130.192384 124.282906 
L 130.533651 132.041182 
L 130.874918 136.604873 
L 131.898718 144.819518 
L 132.239985 144.819518 
L 132.581252 138.886719 
L 133.605052 90.967957 
L 134.287586 66.780391 
L 134.970119 54.458423 
L 135.311386 51.263839 
L 135.652653 52.632947 
L 135.99392 55.827531 
L 136.335187 64.042176 
L 137.358987 105.57177 
L 138.041521 120.631953 
L 138.382788 124.282906 
L 138.724055 132.041182 
L 139.406588 139.343088 
L 140.089122 144.363149 
L 140.430389 144.819518 
L 140.771655 138.886719 
L 141.795456 90.967957 
L 142.47799 66.780391 
L 143.160523 54.458423 
L 143.50179 51.720208 
L 143.843057 53.089316 
L 144.184324 56.2839 
L 144.525591 64.954914 
L 145.549391 106.028139 
L 146.231925 120.175583 
L 146.573191 123.826537 
L 146.914458 131.584813 
L 147.596992 139.343088 
L 148.279526 143.90678 
L 148.620792 144.363149 
L 148.962059 138.886719 
L 149.98586 90.967957 
L 150.668393 67.23676 
L 151.350927 54.458423 
L 151.692194 52.176578 
L 152.033461 53.089316 
L 152.374727 56.2839 
L 152.715994 64.954914 
L 153.739795 105.57177 
L 154.422328 119.719214 
L 154.763595 123.826537 
L 155.104862 131.584813 
L 155.787396 138.886719 
L 156.469929 143.90678 
L 156.811196 144.363149 
L 157.152463 138.886719 
L 158.176263 90.967957 
L 158.858797 67.23676 
L 159.541331 54.458423 
L 159.882598 51.720208 
L 160.223864 52.632947 
L 160.565131 55.827531 
L 160.906398 64.042176 
L 161.930199 104.659032 
L 162.612732 119.262845 
L 162.953999 123.826537 
L 163.295266 131.584813 
L 163.636533 136.148504 
L 164.319066 141.168565 
L 164.660333 143.450411 
L 165.0016 144.363149 
L 165.342867 138.886719 
L 166.707934 78.18962 
L 167.390468 60.391223 
L 167.731735 54.914793 
L 168.073001 52.176578 
L 168.414268 53.089316 
L 168.755535 56.2839 
L 169.096802 64.954914 
L 170.120602 105.115401 
L 170.803136 119.719214 
L 171.144403 124.282906 
L 171.48567 132.041182 
L 171.826936 136.604873 
L 172.50947 141.624934 
L 172.850737 143.90678 
L 173.192004 144.363149 
L 173.533271 139.343088 
L 174.557071 91.880695 
L 175.239605 68.149498 
L 175.922138 55.371162 
L 176.263405 53.089316 
L 176.604672 53.545685 
L 176.945939 56.740269 
L 177.287206 65.867653 
L 178.311006 105.115401 
L 178.99354 120.175583 
L 179.334807 124.282906 
L 179.676073 132.041182 
L 180.01734 136.148504 
L 181.041141 143.90678 
L 181.382407 144.363149 
L 181.723674 139.343088 
L 182.747475 91.880695 
L 183.430008 68.149498 
L 184.112542 55.371162 
L 184.453809 53.089316 
L 184.795076 53.545685 
L 185.136343 56.2839 
L 185.477609 65.411283 
L 186.50141 104.659032 
L 187.183943 119.719214 
L 187.52521 123.826537 
L 187.866477 131.584813 
L 188.549011 138.886719 
L 189.231544 143.90678 
L 189.572811 143.90678 
L 189.914078 138.886719 
L 190.937879 91.424326 
L 191.620412 67.693129 
L 192.302946 54.914793 
L 192.644213 52.632947 
L 192.985479 53.545685 
L 193.326746 56.2839 
L 193.668013 65.411283 
L 194.691814 105.115401 
L 195.374347 119.719214 
L 195.715614 123.826537 
L 196.056881 131.584813 
L 196.739415 138.886719 
L 197.421948 143.450411 
L 197.763215 143.90678 
L 198.104482 138.886719 
L 199.128282 91.424326 
L 199.810816 67.693129 
L 200.49335 54.914793 
L 200.834616 52.632947 
L 201.175883 53.545685 
L 201.51715 56.740269 
L 201.858417 65.867653 
L 202.882217 104.659032 
L 203.564751 119.719214 
L 203.906018 123.826537 
L 204.247285 131.584813 
L 204.929818 138.886719 
L 205.271085 141.624934 
L 205.612352 143.450411 
L 205.953619 143.90678 
L 206.294886 139.343088 
L 207.318686 91.424326 
L 208.00122 67.693129 
L 208.683753 54.914793 
L 209.02502 52.632947 
L 209.366287 53.089316 
L 209.707554 56.2839 
L 210.048821 64.954914 
L 211.072621 104.202663 
L 211.755155 119.262845 
L 212.096422 123.826537 
L 212.437688 131.128443 
L 213.120222 138.886719 
L 213.802756 143.90678 
L 214.144023 144.363149 
L 214.485289 139.343088 
L 215.50909 90.967957 
L 216.191623 67.693129 
L 216.874157 54.458423 
L 217.215424 52.632947 
L 217.556691 53.089316 
L 217.897958 55.827531 
L 218.239224 64.954914 
L 219.263025 104.202663 
L 219.945559 119.262845 
L 220.286825 123.370168 
L 220.628092 131.128443 
L 221.310626 138.886719 
L 221.993159 143.90678 
L 222.334426 144.363149 
L 222.675693 139.799458 
L 223.699494 91.424326 
L 224.382027 68.149498 
L 225.064561 54.914793 
L 225.405828 53.089316 
L 225.747095 53.545685 
L 226.088361 56.2839 
L 226.429628 65.411283 
L 227.112162 95.075279 
L 227.794695 112.417307 
L 228.135962 119.719214 
L 228.477229 123.826537 
L 228.818496 131.584813 
L 229.50103 139.343088 
L 229.842296 142.081303 
L 230.183563 143.90678 
L 230.52483 144.363149 
L 230.866097 140.255827 
L 231.889897 91.424326 
L 232.572431 68.149498 
L 233.254965 55.371162 
L 233.596231 53.545685 
L 233.937498 53.545685 
L 234.278765 57.196638 
L 234.620032 66.780391 
L 235.302566 95.531648 
L 235.985099 112.873677 
L 236.326366 120.175583 
L 236.667633 124.282906 
L 237.0089 132.041182 
L 237.691433 139.799458 
L 238.373967 144.819518 
L 238.715234 145.275888 
L 239.056501 140.712196 
L 240.080301 91.880695 
L 240.762835 68.605868 
L 241.445368 56.2839 
L 241.786635 54.002054 
L 242.127902 54.002054 
L 242.469169 57.653008 
L 242.810436 67.23676 
L 243.492969 96.444387 
L 244.175503 113.786415 
L 244.51677 120.631953 
L 244.858037 125.195644 
L 245.199303 132.497551 
L 245.881837 139.799458 
L 246.564371 145.275888 
L 246.905638 145.732257 
L 247.246904 141.168565 
L 248.270705 91.880695 
L 248.953239 69.518606 
L 249.635772 56.740269 
L 249.977039 54.914793 
L 250.318306 54.914793 
L 250.659573 58.565746 
L 251.00084 67.693129 
L 251.683373 96.900756 
L 252.365907 114.242784 
L 252.707174 121.544691 
L 253.04844 125.195644 
L 253.389707 132.497551 
L 254.072241 140.255827 
L 254.413508 143.450411 
L 254.754775 145.275888 
L 255.096041 146.188626 
L 255.437308 141.624934 
L 256.461109 92.793433 
L 257.143642 69.974975 
L 257.826176 57.196638 
L 258.167443 55.827531 
L 258.50871 56.2839 
L 258.849976 59.934853 
L 259.191243 69.062237 
L 259.873777 97.813494 
L 260.556311 115.611892 
L 260.897577 122.00106 
L 261.238844 125.652013 
L 261.580111 132.95392 
L 262.262645 140.712196 
L 262.603912 143.90678 
L 262.945178 145.732257 
L 263.286445 146.644995 
L 263.627712 142.081303 
L 264.651512 93.249802 
L 265.334046 70.431344 
L 266.01658 58.109377 
L 266.357847 56.2839 
L 266.699113 56.740269 
L 267.04038 60.847592 
L 267.381647 69.974975 
L 268.064181 98.726233 
L 268.746714 115.611892 
L 269.087981 122.913798 
L 269.429248 126.564752 
L 269.770515 133.866658 
L 270.794315 144.363149 
L 271.135582 146.644995 
L 271.476849 147.101364 
L 271.818116 142.994042 
L 272.841916 93.706172 
L 273.52445 70.887713 
L 273.865717 64.042176 
L 274.206984 59.478484 
L 274.54825 57.653008 
L 274.889517 58.109377 
L 275.230784 62.216699 
L 275.572051 71.344083 
L 276.254584 100.09534 
L 276.937118 116.980999 
L 277.278385 123.826537 
L 277.619652 127.47749 
L 277.960919 134.323028 
L 278.643452 141.624934 
L 279.325986 147.101364 
L 279.667253 147.557733 
L 280.00852 143.450411 
L 281.03232 94.162541 
L 281.714854 71.800452 
L 282.05612 64.954914 
L 282.397387 60.391223 
L 282.738654 58.565746 
L 283.079921 59.478484 
L 283.421188 64.042176 
L 283.762455 73.169559 
L 284.444988 101.464448 
L 285.127522 118.350107 
L 285.468789 125.195644 
L 285.810056 128.390228 
L 286.151322 135.235766 
L 287.175123 145.275888 
L 287.51639 147.557733 
L 287.857656 148.470472 
L 288.198923 144.363149 
L 289.222724 95.075279 
L 289.905257 72.71319 
L 290.246524 65.867653 
L 290.587791 61.303961 
L 290.929058 59.478484 
L 291.270325 59.934853 
L 291.611592 64.498545 
L 291.952858 74.082298 
L 292.635392 102.377186 
L 293.317926 119.719214 
L 293.659192 126.108383 
L 294.000459 129.302967 
L 294.341726 136.148504 
L 295.365527 146.188626 
L 295.706793 148.926841 
L 296.04806 148.926841 
L 296.389327 145.275888 
L 297.413128 95.531648 
L 298.095661 72.71319 
L 298.778195 61.76033 
L 299.119462 59.478484 
L 299.460728 60.391223 
L 299.801995 64.954914 
L 300.143262 74.538667 
L 300.825796 103.289924 
L 301.508329 120.631953 
L 301.849596 127.47749 
L 302.190863 130.215705 
L 302.53213 137.061243 
L 303.55593 147.101364 
L 303.897197 149.839579 
L 304.238464 150.295948 
L 304.579731 146.188626 
L 305.603531 96.444387 
L 306.286065 74.082298 
L 306.627332 67.23676 
L 306.968599 62.673068 
L 307.309865 60.391223 
L 307.651132 60.847592 
L 307.992399 65.867653 
L 308.333666 75.451405 
L 309.357466 114.699153 
L 310.04 128.390228 
L 310.04 128.390228 
" style="fill:none;stroke:#ff0000;stroke-linecap:square;"/>
   </g>
   <g id="patch_3">
    <path d="M 56.47875 165.8125 
L 56.47875 28.90175 
" style="fill:none;stroke:#000000;stroke-linecap:square;stroke-linejoin:miter;"/>
   </g>
   <g id="patch_4">
    <path d="M 56.47875 165.8125 
L 310.04 165.8125 
" style="fill:none;stroke:#000000;stroke-linecap:square;stroke-linejoin:miter;"/>
   </g>
   <g id="patch_5">
    <path d="M 310.04 165.8125 
L 310.04 28.90175 
" style="fill:none;stroke:#000000;stroke-linecap:square;stroke-linejoin:miter;"/>
   </g>
   <g id="patch_6">
    <path d="M 56.47875 28.90175 
L 310.04 28.90175 
" style="fill:none;stroke:#000000;stroke-linecap:square;stroke-linejoin:miter;"/>
   </g>
   <g id="matplotlib.axis_1">
    <g id="xtick_1">
     <g id="line2d_2">
      <defs>
       <path d="M 0 0 
L 0 -4 
" id="m2192efdbf3" style="stroke:#000000;stroke-width:0.5;"/>
      </defs>
      <g>
       <use style="stroke:#000000;stroke-width:0.5;" x="56.47875" xlink:href="#m2192efdbf3" y="165.8125"/>
      </g>
     </g>
     <g id="line2d_3">
      <defs>
       <path d="M 0 0 
L 0 4 
" id="m80c98b6615" style="stroke:#000000;stroke-width:0.5;"/>
      </defs>
      <g>
       <use style="stroke:#000000;stroke-width:0.5;" x="56.47875" xlink:href="#m80c98b6615" y="28.90175"/>
      </g>
     </g>
     <g id="text_1">
      <!-- 0 -->
      <defs>
       <path d="M 31.78125 66.40625 
Q 24.171875 66.40625 20.328125 58.90625 
Q 16.5 51.421875 16.5 36.375 
Q 16.5 21.390625 20.328125 13.890625 
Q 24.171875 6.390625 31.78125 6.390625 
Q 39.453125 6.390625 43.28125 13.890625 
Q 47.125 21.390625 47.125 36.375 
Q 47.125 51.421875 43.28125 58.90625 
Q 39.453125 66.40625 31.78125 66.40625 
M 31.78125 74.21875 
Q 44.046875 74.21875 50.515625 64.515625 
Q 56.984375 54.828125 56.984375 36.375 
Q 56.984375 17.96875 50.515625 8.265625 
Q 44.046875 -1.421875 31.78125 -1.421875 
Q 19.53125 -1.421875 13.0625 8.265625 
Q 6.59375 17.96875 6.59375 36.375 
Q 6.59375 54.828125 13.0625 64.515625 
Q 19.53125 74.21875 31.78125 74.21875 
" id="BitstreamVeraSans-Roman-30"/>
      </defs>
      <g transform="translate(52.66125 178.930625)scale(0.12 -0.12)">
       <use xlink:href="#BitstreamVeraSans-Roman-30"/>
      </g>
     </g>
    </g>
    <g id="xtick_2">
     <g id="line2d_4">
      <g>
       <use style="stroke:#000000;stroke-width:0.5;" x="90.6054323688" xlink:href="#m2192efdbf3" y="165.8125"/>
      </g>
     </g>
     <g id="line2d_5">
      <g>
       <use style="stroke:#000000;stroke-width:0.5;" x="90.6054323688" xlink:href="#m80c98b6615" y="28.90175"/>
      </g>
     </g>
     <g id="text_2">
      <!-- 100 -->
      <defs>
       <path d="M 12.40625 8.296875 
L 28.515625 8.296875 
L 28.515625 63.921875 
L 10.984375 60.40625 
L 10.984375 69.390625 
L 28.421875 72.90625 
L 38.28125 72.90625 
L 38.28125 8.296875 
L 54.390625 8.296875 
L 54.390625 0 
L 12.40625 0 
z
" id="BitstreamVeraSans-Roman-31"/>
      </defs>
      <g transform="translate(79.1529323688 178.930625)scale(0.12 -0.12)">
       <use xlink:href="#BitstreamVeraSans-Roman-31"/>
       <use x="63.623046875" xlink:href="#BitstreamVeraSans-Roman-30"/>
       <use x="127.24609375" xlink:href="#BitstreamVeraSans-Roman-30"/>
      </g>
     </g>
    </g>
    <g id="xtick_3">
     <g id="line2d_6">
      <g>
       <use style="stroke:#000000;stroke-width:0.5;" x="124.732114738" xlink:href="#m2192efdbf3" y="165.8125"/>
      </g>
     </g>
     <g id="line2d_7">
      <g>
       <use style="stroke:#000000;stroke-width:0.5;" x="124.732114738" xlink:href="#m80c98b6615" y="28.90175"/>
      </g>
     </g>
     <g id="text_3">
      <!-- 200 -->
      <defs>
       <path d="M 19.1875 8.296875 
L 53.609375 8.296875 
L 53.609375 0 
L 7.328125 0 
L 7.328125 8.296875 
Q 12.9375 14.109375 22.625 23.890625 
Q 32.328125 33.6875 34.8125 36.53125 
Q 39.546875 41.84375 41.421875 45.53125 
Q 43.3125 49.21875 43.3125 52.78125 
Q 43.3125 58.59375 39.234375 62.25 
Q 35.15625 65.921875 28.609375 65.921875 
Q 23.96875 65.921875 18.8125 64.3125 
Q 13.671875 62.703125 7.8125 59.421875 
L 7.8125 69.390625 
Q 13.765625 71.78125 18.9375 73 
Q 24.125 74.21875 28.421875 74.21875 
Q 39.75 74.21875 46.484375 68.546875 
Q 53.21875 62.890625 53.21875 53.421875 
Q 53.21875 48.921875 51.53125 44.890625 
Q 49.859375 40.875 45.40625 35.40625 
Q 44.1875 33.984375 37.640625 27.21875 
Q 31.109375 20.453125 19.1875 8.296875 
" id="BitstreamVeraSans-Roman-32"/>
      </defs>
      <g transform="translate(113.279614738 178.930625)scale(0.12 -0.12)">
       <use xlink:href="#BitstreamVeraSans-Roman-32"/>
       <use x="63.623046875" xlink:href="#BitstreamVeraSans-Roman-30"/>
       <use x="127.24609375" xlink:href="#BitstreamVeraSans-Roman-30"/>
      </g>
     </g>
    </g>
    <g id="xtick_4">
     <g id="line2d_8">
      <g>
       <use style="stroke:#000000;stroke-width:0.5;" x="158.858797106" xlink:href="#m2192efdbf3" y="165.8125"/>
      </g>
     </g>
     <g id="line2d_9">
      <g>
       <use style="stroke:#000000;stroke-width:0.5;" x="158.858797106" xlink:href="#m80c98b6615" y="28.90175"/>
      </g>
     </g>
     <g id="text_4">
      <!-- 300 -->
      <defs>
       <path d="M 40.578125 39.3125 
Q 47.65625 37.796875 51.625 33 
Q 55.609375 28.21875 55.609375 21.1875 
Q 55.609375 10.40625 48.1875 4.484375 
Q 40.765625 -1.421875 27.09375 -1.421875 
Q 22.515625 -1.421875 17.65625 -0.515625 
Q 12.796875 0.390625 7.625 2.203125 
L 7.625 11.71875 
Q 11.71875 9.328125 16.59375 8.109375 
Q 21.484375 6.890625 26.8125 6.890625 
Q 36.078125 6.890625 40.9375 10.546875 
Q 45.796875 14.203125 45.796875 21.1875 
Q 45.796875 27.640625 41.28125 31.265625 
Q 36.765625 34.90625 28.71875 34.90625 
L 20.21875 34.90625 
L 20.21875 43.015625 
L 29.109375 43.015625 
Q 36.375 43.015625 40.234375 45.921875 
Q 44.09375 48.828125 44.09375 54.296875 
Q 44.09375 59.90625 40.109375 62.90625 
Q 36.140625 65.921875 28.71875 65.921875 
Q 24.65625 65.921875 20.015625 65.03125 
Q 15.375 64.15625 9.8125 62.3125 
L 9.8125 71.09375 
Q 15.4375 72.65625 20.34375 73.4375 
Q 25.25 74.21875 29.59375 74.21875 
Q 40.828125 74.21875 47.359375 69.109375 
Q 53.90625 64.015625 53.90625 55.328125 
Q 53.90625 49.265625 50.4375 45.09375 
Q 46.96875 40.921875 40.578125 39.3125 
" id="BitstreamVeraSans-Roman-33"/>
      </defs>
      <g transform="translate(147.406297106 178.930625)scale(0.12 -0.12)">
       <use xlink:href="#BitstreamVeraSans-Roman-33"/>
       <use x="63.623046875" xlink:href="#BitstreamVeraSans-Roman-30"/>
       <use x="127.24609375" xlink:href="#BitstreamVeraSans-Roman-30"/>
      </g>
     </g>
    </g>
    <g id="xtick_5">
     <g id="line2d_10">
      <g>
       <use style="stroke:#000000;stroke-width:0.5;" x="192.985479475" xlink:href="#m2192efdbf3" y="165.8125"/>
      </g>
     </g>
     <g id="line2d_11">
      <g>
       <use style="stroke:#000000;stroke-width:0.5;" x="192.985479475" xlink:href="#m80c98b6615" y="28.90175"/>
      </g>
     </g>
     <g id="text_5">
      <!-- 400 -->
      <defs>
       <path d="M 37.796875 64.3125 
L 12.890625 25.390625 
L 37.796875 25.390625 
z
M 35.203125 72.90625 
L 47.609375 72.90625 
L 47.609375 25.390625 
L 58.015625 25.390625 
L 58.015625 17.1875 
L 47.609375 17.1875 
L 47.609375 0 
L 37.796875 0 
L 37.796875 17.1875 
L 4.890625 17.1875 
L 4.890625 26.703125 
z
" id="BitstreamVeraSans-Roman-34"/>
      </defs>
      <g transform="translate(181.532979475 178.930625)scale(0.12 -0.12)">
       <use xlink:href="#BitstreamVeraSans-Roman-34"/>
       <use x="63.623046875" xlink:href="#BitstreamVeraSans-Roman-30"/>
       <use x="127.24609375" xlink:href="#BitstreamVeraSans-Roman-30"/>
      </g>
     </g>
    </g>
    <g id="xtick_6">
     <g id="line2d_12">
      <g>
       <use style="stroke:#000000;stroke-width:0.5;" x="227.112161844" xlink:href="#m2192efdbf3" y="165.8125"/>
      </g>
     </g>
     <g id="line2d_13">
      <g>
       <use style="stroke:#000000;stroke-width:0.5;" x="227.112161844" xlink:href="#m80c98b6615" y="28.90175"/>
      </g>
     </g>
     <g id="text_6">
      <!-- 500 -->
      <defs>
       <path d="M 10.796875 72.90625 
L 49.515625 72.90625 
L 49.515625 64.59375 
L 19.828125 64.59375 
L 19.828125 46.734375 
Q 21.96875 47.46875 24.109375 47.828125 
Q 26.265625 48.1875 28.421875 48.1875 
Q 40.625 48.1875 47.75 41.5 
Q 54.890625 34.8125 54.890625 23.390625 
Q 54.890625 11.625 47.5625 5.09375 
Q 40.234375 -1.421875 26.90625 -1.421875 
Q 22.3125 -1.421875 17.546875 -0.640625 
Q 12.796875 0.140625 7.71875 1.703125 
L 7.71875 11.625 
Q 12.109375 9.234375 16.796875 8.0625 
Q 21.484375 6.890625 26.703125 6.890625 
Q 35.15625 6.890625 40.078125 11.328125 
Q 45.015625 15.765625 45.015625 23.390625 
Q 45.015625 31 40.078125 35.4375 
Q 35.15625 39.890625 26.703125 39.890625 
Q 22.75 39.890625 18.8125 39.015625 
Q 14.890625 38.140625 10.796875 36.28125 
z
" id="BitstreamVeraSans-Roman-35"/>
      </defs>
      <g transform="translate(215.659661844 178.930625)scale(0.12 -0.12)">
       <use xlink:href="#BitstreamVeraSans-Roman-35"/>
       <use x="63.623046875" xlink:href="#BitstreamVeraSans-Roman-30"/>
       <use x="127.24609375" xlink:href="#BitstreamVeraSans-Roman-30"/>
      </g>
     </g>
    </g>
    <g id="xtick_7">
     <g id="line2d_14">
      <g>
       <use style="stroke:#000000;stroke-width:0.5;" x="261.238844213" xlink:href="#m2192efdbf3" y="165.8125"/>
      </g>
     </g>
     <g id="line2d_15">
      <g>
       <use style="stroke:#000000;stroke-width:0.5;" x="261.238844213" xlink:href="#m80c98b6615" y="28.90175"/>
      </g>
     </g>
     <g id="text_7">
      <!-- 600 -->
      <defs>
       <path d="M 33.015625 40.375 
Q 26.375 40.375 22.484375 35.828125 
Q 18.609375 31.296875 18.609375 23.390625 
Q 18.609375 15.53125 22.484375 10.953125 
Q 26.375 6.390625 33.015625 6.390625 
Q 39.65625 6.390625 43.53125 10.953125 
Q 47.40625 15.53125 47.40625 23.390625 
Q 47.40625 31.296875 43.53125 35.828125 
Q 39.65625 40.375 33.015625 40.375 
M 52.59375 71.296875 
L 52.59375 62.3125 
Q 48.875 64.0625 45.09375 64.984375 
Q 41.3125 65.921875 37.59375 65.921875 
Q 27.828125 65.921875 22.671875 59.328125 
Q 17.53125 52.734375 16.796875 39.40625 
Q 19.671875 43.65625 24.015625 45.921875 
Q 28.375 48.1875 33.59375 48.1875 
Q 44.578125 48.1875 50.953125 41.515625 
Q 57.328125 34.859375 57.328125 23.390625 
Q 57.328125 12.15625 50.6875 5.359375 
Q 44.046875 -1.421875 33.015625 -1.421875 
Q 20.359375 -1.421875 13.671875 8.265625 
Q 6.984375 17.96875 6.984375 36.375 
Q 6.984375 53.65625 15.1875 63.9375 
Q 23.390625 74.21875 37.203125 74.21875 
Q 40.921875 74.21875 44.703125 73.484375 
Q 48.484375 72.75 52.59375 71.296875 
" id="BitstreamVeraSans-Roman-36"/>
      </defs>
      <g transform="translate(249.786344213 178.930625)scale(0.12 -0.12)">
       <use xlink:href="#BitstreamVeraSans-Roman-36"/>
       <use x="63.623046875" xlink:href="#BitstreamVeraSans-Roman-30"/>
       <use x="127.24609375" xlink:href="#BitstreamVeraSans-Roman-30"/>
      </g>
     </g>
    </g>
    <g id="xtick_8">
     <g id="line2d_16">
      <g>
       <use style="stroke:#000000;stroke-width:0.5;" x="295.365526581" xlink:href="#m2192efdbf3" y="165.8125"/>
      </g>
     </g>
     <g id="line2d_17">
      <g>
       <use style="stroke:#000000;stroke-width:0.5;" x="295.365526581" xlink:href="#m80c98b6615" y="28.90175"/>
      </g>
     </g>
     <g id="text_8">
      <!-- 700 -->
      <defs>
       <path d="M 8.203125 72.90625 
L 55.078125 72.90625 
L 55.078125 68.703125 
L 28.609375 0 
L 18.3125 0 
L 43.21875 64.59375 
L 8.203125 64.59375 
z
" id="BitstreamVeraSans-Roman-37"/>
      </defs>
      <g transform="translate(283.913026581 178.930625)scale(0.12 -0.12)">
       <use xlink:href="#BitstreamVeraSans-Roman-37"/>
       <use x="63.623046875" xlink:href="#BitstreamVeraSans-Roman-30"/>
       <use x="127.24609375" xlink:href="#BitstreamVeraSans-Roman-30"/>
      </g>
     </g>
    </g>
    <g id="text_9">
     <!-- Hours since midnight August 1, 2010 -->
     <defs>
      <path d="M 56.203125 29.59375 
L 56.203125 25.203125 
L 14.890625 25.203125 
Q 15.484375 15.921875 20.484375 11.0625 
Q 25.484375 6.203125 34.421875 6.203125 
Q 39.59375 6.203125 44.453125 7.46875 
Q 49.3125 8.734375 54.109375 11.28125 
L 54.109375 2.78125 
Q 49.265625 0.734375 44.1875 -0.34375 
Q 39.109375 -1.421875 33.890625 -1.421875 
Q 20.796875 -1.421875 13.15625 6.1875 
Q 5.515625 13.8125 5.515625 26.8125 
Q 5.515625 40.234375 12.765625 48.109375 
Q 20.015625 56 32.328125 56 
Q 43.359375 56 49.78125 48.890625 
Q 56.203125 41.796875 56.203125 29.59375 
M 47.21875 32.234375 
Q 47.125 39.59375 43.09375 43.984375 
Q 39.0625 48.390625 32.421875 48.390625 
Q 24.90625 48.390625 20.390625 44.140625 
Q 15.875 39.890625 15.1875 32.171875 
z
" id="BitstreamVeraSans-Roman-65"/>
      <path d="M 30.609375 48.390625 
Q 23.390625 48.390625 19.1875 42.75 
Q 14.984375 37.109375 14.984375 27.296875 
Q 14.984375 17.484375 19.15625 11.84375 
Q 23.34375 6.203125 30.609375 6.203125 
Q 37.796875 6.203125 41.984375 11.859375 
Q 46.1875 17.53125 46.1875 27.296875 
Q 46.1875 37.015625 41.984375 42.703125 
Q 37.796875 48.390625 30.609375 48.390625 
M 30.609375 56 
Q 42.328125 56 49.015625 48.375 
Q 55.71875 40.765625 55.71875 27.296875 
Q 55.71875 13.875 49.015625 6.21875 
Q 42.328125 -1.421875 30.609375 -1.421875 
Q 18.84375 -1.421875 12.171875 6.21875 
Q 5.515625 13.875 5.515625 27.296875 
Q 5.515625 40.765625 12.171875 48.375 
Q 18.84375 56 30.609375 56 
" id="BitstreamVeraSans-Roman-6f"/>
      <path d="M 8.5 21.578125 
L 8.5 54.6875 
L 17.484375 54.6875 
L 17.484375 21.921875 
Q 17.484375 14.15625 20.5 10.265625 
Q 23.53125 6.390625 29.59375 6.390625 
Q 36.859375 6.390625 41.078125 11.03125 
Q 45.3125 15.671875 45.3125 23.6875 
L 45.3125 54.6875 
L 54.296875 54.6875 
L 54.296875 0 
L 45.3125 0 
L 45.3125 8.40625 
Q 42.046875 3.421875 37.71875 1 
Q 33.40625 -1.421875 27.6875 -1.421875 
Q 18.265625 -1.421875 13.375 4.4375 
Q 8.5 10.296875 8.5 21.578125 
" id="BitstreamVeraSans-Roman-75"/>
      <path d="M 45.40625 46.390625 
L 45.40625 75.984375 
L 54.390625 75.984375 
L 54.390625 0 
L 45.40625 0 
L 45.40625 8.203125 
Q 42.578125 3.328125 38.25 0.953125 
Q 33.9375 -1.421875 27.875 -1.421875 
Q 17.96875 -1.421875 11.734375 6.484375 
Q 5.515625 14.40625 5.515625 27.296875 
Q 5.515625 40.1875 11.734375 48.09375 
Q 17.96875 56 27.875 56 
Q 33.9375 56 38.25 53.625 
Q 42.578125 51.265625 45.40625 46.390625 
M 14.796875 27.296875 
Q 14.796875 17.390625 18.875 11.75 
Q 22.953125 6.109375 30.078125 6.109375 
Q 37.203125 6.109375 41.296875 11.75 
Q 45.40625 17.390625 45.40625 27.296875 
Q 45.40625 37.203125 41.296875 42.84375 
Q 37.203125 48.484375 30.078125 48.484375 
Q 22.953125 48.484375 18.875 42.84375 
Q 14.796875 37.203125 14.796875 27.296875 
" id="BitstreamVeraSans-Roman-64"/>
      <path d="M 52 44.1875 
Q 55.375 50.25 60.0625 53.125 
Q 64.75 56 71.09375 56 
Q 79.640625 56 84.28125 50.015625 
Q 88.921875 44.046875 88.921875 33.015625 
L 88.921875 0 
L 79.890625 0 
L 79.890625 32.71875 
Q 79.890625 40.578125 77.09375 44.375 
Q 74.3125 48.1875 68.609375 48.1875 
Q 61.625 48.1875 57.5625 43.546875 
Q 53.515625 38.921875 53.515625 30.90625 
L 53.515625 0 
L 44.484375 0 
L 44.484375 32.71875 
Q 44.484375 40.625 41.703125 44.40625 
Q 38.921875 48.1875 33.109375 48.1875 
Q 26.21875 48.1875 22.15625 43.53125 
Q 18.109375 38.875 18.109375 30.90625 
L 18.109375 0 
L 9.078125 0 
L 9.078125 54.6875 
L 18.109375 54.6875 
L 18.109375 46.1875 
Q 21.1875 51.21875 25.484375 53.609375 
Q 29.78125 56 35.6875 56 
Q 41.65625 56 45.828125 52.96875 
Q 50 49.953125 52 44.1875 
" id="BitstreamVeraSans-Roman-6d"/>
      <path d="M 41.109375 46.296875 
Q 39.59375 47.171875 37.8125 47.578125 
Q 36.03125 48 33.890625 48 
Q 26.265625 48 22.1875 43.046875 
Q 18.109375 38.09375 18.109375 28.8125 
L 18.109375 0 
L 9.078125 0 
L 9.078125 54.6875 
L 18.109375 54.6875 
L 18.109375 46.1875 
Q 20.953125 51.171875 25.484375 53.578125 
Q 30.03125 56 36.53125 56 
Q 37.453125 56 38.578125 55.875 
Q 39.703125 55.765625 41.0625 55.515625 
z
" id="BitstreamVeraSans-Roman-72"/>
      <path d="M 44.28125 53.078125 
L 44.28125 44.578125 
Q 40.484375 46.53125 36.375 47.5 
Q 32.28125 48.484375 27.875 48.484375 
Q 21.1875 48.484375 17.84375 46.4375 
Q 14.5 44.390625 14.5 40.28125 
Q 14.5 37.15625 16.890625 35.375 
Q 19.28125 33.59375 26.515625 31.984375 
L 29.59375 31.296875 
Q 39.15625 29.25 43.1875 25.515625 
Q 47.21875 21.78125 47.21875 15.09375 
Q 47.21875 7.46875 41.1875 3.015625 
Q 35.15625 -1.421875 24.609375 -1.421875 
Q 20.21875 -1.421875 15.453125 -0.5625 
Q 10.6875 0.296875 5.421875 2 
L 5.421875 11.28125 
Q 10.40625 8.6875 15.234375 7.390625 
Q 20.0625 6.109375 24.8125 6.109375 
Q 31.15625 6.109375 34.5625 8.28125 
Q 37.984375 10.453125 37.984375 14.40625 
Q 37.984375 18.0625 35.515625 20.015625 
Q 33.0625 21.96875 24.703125 23.78125 
L 21.578125 24.515625 
Q 13.234375 26.265625 9.515625 29.90625 
Q 5.8125 33.546875 5.8125 39.890625 
Q 5.8125 47.609375 11.28125 51.796875 
Q 16.75 56 26.8125 56 
Q 31.78125 56 36.171875 55.265625 
Q 40.578125 54.546875 44.28125 53.078125 
" id="BitstreamVeraSans-Roman-73"/>
      <path d="M 54.890625 33.015625 
L 54.890625 0 
L 45.90625 0 
L 45.90625 32.71875 
Q 45.90625 40.484375 42.875 44.328125 
Q 39.84375 48.1875 33.796875 48.1875 
Q 26.515625 48.1875 22.3125 43.546875 
Q 18.109375 38.921875 18.109375 30.90625 
L 18.109375 0 
L 9.078125 0 
L 9.078125 75.984375 
L 18.109375 75.984375 
L 18.109375 46.1875 
Q 21.34375 51.125 25.703125 53.5625 
Q 30.078125 56 35.796875 56 
Q 45.21875 56 50.046875 50.171875 
Q 54.890625 44.34375 54.890625 33.015625 
" id="BitstreamVeraSans-Roman-68"/>
      <path d="M 9.421875 54.6875 
L 18.40625 54.6875 
L 18.40625 0 
L 9.421875 0 
z
M 9.421875 75.984375 
L 18.40625 75.984375 
L 18.40625 64.59375 
L 9.421875 64.59375 
z
" id="BitstreamVeraSans-Roman-69"/>
      <path d="M 18.3125 70.21875 
L 18.3125 54.6875 
L 36.8125 54.6875 
L 36.8125 47.703125 
L 18.3125 47.703125 
L 18.3125 18.015625 
Q 18.3125 11.328125 20.140625 9.421875 
Q 21.96875 7.515625 27.59375 7.515625 
L 36.8125 7.515625 
L 36.8125 0 
L 27.59375 0 
Q 17.1875 0 13.234375 3.875 
Q 9.28125 7.765625 9.28125 18.015625 
L 9.28125 47.703125 
L 2.6875 47.703125 
L 2.6875 54.6875 
L 9.28125 54.6875 
L 9.28125 70.21875 
z
" id="BitstreamVeraSans-Roman-74"/>
      <path d="M 48.78125 52.59375 
L 48.78125 44.1875 
Q 44.96875 46.296875 41.140625 47.34375 
Q 37.3125 48.390625 33.40625 48.390625 
Q 24.65625 48.390625 19.8125 42.84375 
Q 14.984375 37.3125 14.984375 27.296875 
Q 14.984375 17.28125 19.8125 11.734375 
Q 24.65625 6.203125 33.40625 6.203125 
Q 37.3125 6.203125 41.140625 7.25 
Q 44.96875 8.296875 48.78125 10.40625 
L 48.78125 2.09375 
Q 45.015625 0.34375 40.984375 -0.53125 
Q 36.96875 -1.421875 32.421875 -1.421875 
Q 20.0625 -1.421875 12.78125 6.34375 
Q 5.515625 14.109375 5.515625 27.296875 
Q 5.515625 40.671875 12.859375 48.328125 
Q 20.21875 56 33.015625 56 
Q 37.15625 56 41.109375 55.140625 
Q 45.0625 54.296875 48.78125 52.59375 
" id="BitstreamVeraSans-Roman-63"/>
      <path d="M 45.40625 27.984375 
Q 45.40625 37.75 41.375 43.109375 
Q 37.359375 48.484375 30.078125 48.484375 
Q 22.859375 48.484375 18.828125 43.109375 
Q 14.796875 37.75 14.796875 27.984375 
Q 14.796875 18.265625 18.828125 12.890625 
Q 22.859375 7.515625 30.078125 7.515625 
Q 37.359375 7.515625 41.375 12.890625 
Q 45.40625 18.265625 45.40625 27.984375 
M 54.390625 6.78125 
Q 54.390625 -7.171875 48.1875 -13.984375 
Q 42 -20.796875 29.203125 -20.796875 
Q 24.46875 -20.796875 20.265625 -20.09375 
Q 16.0625 -19.390625 12.109375 -17.921875 
L 12.109375 -9.1875 
Q 16.0625 -11.328125 19.921875 -12.34375 
Q 23.78125 -13.375 27.78125 -13.375 
Q 36.625 -13.375 41.015625 -8.765625 
Q 45.40625 -4.15625 45.40625 5.171875 
L 45.40625 9.625 
Q 42.625 4.78125 38.28125 2.390625 
Q 33.9375 0 27.875 0 
Q 17.828125 0 11.671875 7.65625 
Q 5.515625 15.328125 5.515625 27.984375 
Q 5.515625 40.671875 11.671875 48.328125 
Q 17.828125 56 27.875 56 
Q 33.9375 56 38.28125 53.609375 
Q 42.625 51.21875 45.40625 46.390625 
L 45.40625 54.6875 
L 54.390625 54.6875 
z
" id="BitstreamVeraSans-Roman-67"/>
      <path d="M 9.8125 72.90625 
L 19.671875 72.90625 
L 19.671875 43.015625 
L 55.515625 43.015625 
L 55.515625 72.90625 
L 65.375 72.90625 
L 65.375 0 
L 55.515625 0 
L 55.515625 34.71875 
L 19.671875 34.71875 
L 19.671875 0 
L 9.8125 0 
z
" id="BitstreamVeraSans-Roman-48"/>
      <path d="M 34.1875 63.1875 
L 20.796875 26.90625 
L 47.609375 26.90625 
z
M 28.609375 72.90625 
L 39.796875 72.90625 
L 67.578125 0 
L 57.328125 0 
L 50.6875 18.703125 
L 17.828125 18.703125 
L 11.1875 0 
L 0.78125 0 
z
" id="BitstreamVeraSans-Roman-41"/>
      <path id="BitstreamVeraSans-Roman-20"/>
      <path d="M 54.890625 33.015625 
L 54.890625 0 
L 45.90625 0 
L 45.90625 32.71875 
Q 45.90625 40.484375 42.875 44.328125 
Q 39.84375 48.1875 33.796875 48.1875 
Q 26.515625 48.1875 22.3125 43.546875 
Q 18.109375 38.921875 18.109375 30.90625 
L 18.109375 0 
L 9.078125 0 
L 9.078125 54.6875 
L 18.109375 54.6875 
L 18.109375 46.1875 
Q 21.34375 51.125 25.703125 53.5625 
Q 30.078125 56 35.796875 56 
Q 45.21875 56 50.046875 50.171875 
Q 54.890625 44.34375 54.890625 33.015625 
" id="BitstreamVeraSans-Roman-6e"/>
      <path d="M 11.71875 12.40625 
L 22.015625 12.40625 
L 22.015625 4 
L 14.015625 -11.625 
L 7.71875 -11.625 
L 11.71875 4 
z
" id="BitstreamVeraSans-Roman-2c"/>
     </defs>
     <g transform="translate(71.816875 195.544375)scale(0.12 -0.12)">
      <use xlink:href="#BitstreamVeraSans-Roman-48"/>
      <use x="75.1953125" xlink:href="#BitstreamVeraSans-Roman-6f"/>
      <use x="136.376953125" xlink:href="#BitstreamVeraSans-Roman-75"/>
      <use x="199.755859375" xlink:href="#BitstreamVeraSans-Roman-72"/>
      <use x="240.869140625" xlink:href="#BitstreamVeraSans-Roman-73"/>
      <use x="292.96875" xlink:href="#BitstreamVeraSans-Roman-20"/>
      <use x="324.755859375" xlink:href="#BitstreamVeraSans-Roman-73"/>
      <use x="376.85546875" xlink:href="#BitstreamVeraSans-Roman-69"/>
      <use x="404.638671875" xlink:href="#BitstreamVeraSans-Roman-6e"/>
      <use x="468.017578125" xlink:href="#BitstreamVeraSans-Roman-63"/>
      <use x="522.998046875" xlink:href="#BitstreamVeraSans-Roman-65"/>
      <use x="584.521484375" xlink:href="#BitstreamVeraSans-Roman-20"/>
      <use x="616.30859375" xlink:href="#BitstreamVeraSans-Roman-6d"/>
      <use x="713.720703125" xlink:href="#BitstreamVeraSans-Roman-69"/>
      <use x="741.50390625" xlink:href="#BitstreamVeraSans-Roman-64"/>
      <use x="804.98046875" xlink:href="#BitstreamVeraSans-Roman-6e"/>
      <use x="868.359375" xlink:href="#BitstreamVeraSans-Roman-69"/>
      <use x="896.142578125" xlink:href="#BitstreamVeraSans-Roman-67"/>
      <use x="959.619140625" xlink:href="#BitstreamVeraSans-Roman-68"/>
      <use x="1022.998046875" xlink:href="#BitstreamVeraSans-Roman-74"/>
      <use x="1062.20703125" xlink:href="#BitstreamVeraSans-Roman-20"/>
      <use x="1093.994140625" xlink:href="#BitstreamVeraSans-Roman-41"/>
      <use x="1162.40234375" xlink:href="#BitstreamVeraSans-Roman-75"/>
      <use x="1225.78125" xlink:href="#BitstreamVeraSans-Roman-67"/>
      <use x="1289.2578125" xlink:href="#BitstreamVeraSans-Roman-75"/>
      <use x="1352.63671875" xlink:href="#BitstreamVeraSans-Roman-73"/>
      <use x="1404.736328125" xlink:href="#BitstreamVeraSans-Roman-74"/>
      <use x="1443.9453125" xlink:href="#BitstreamVeraSans-Roman-20"/>
      <use x="1475.732421875" xlink:href="#BitstreamVeraSans-Roman-31"/>
      <use x="1539.35546875" xlink:href="#BitstreamVeraSans-Roman-2c"/>
      <use x="1571.142578125" xlink:href="#BitstreamVeraSans-Roman-20"/>
      <use x="1602.9296875" xlink:href="#BitstreamVeraSans-Roman-32"/>
      <use x="1666.552734375" xlink:href="#BitstreamVeraSans-Roman-30"/>
      <use x="1730.17578125" xlink:href="#BitstreamVeraSans-Roman-31"/>
      <use x="1793.798828125" xlink:href="#BitstreamVeraSans-Roman-30"/>
     </g>
    </g>
   </g>
   <g id="matplotlib.axis_2">
    <g id="ytick_1">
     <g id="line2d_18">
      <defs>
       <path d="M 0 0 
L 4 0 
" id="m5363d19bcf" style="stroke:#000000;stroke-width:0.5;"/>
      </defs>
      <g>
       <use style="stroke:#000000;stroke-width:0.5;" x="56.47875" xlink:href="#m5363d19bcf" y="165.8125"/>
      </g>
     </g>
     <g id="line2d_19">
      <defs>
       <path d="M 0 0 
L -4 0 
" id="m536225b19d" style="stroke:#000000;stroke-width:0.5;"/>
      </defs>
      <g>
       <use style="stroke:#000000;stroke-width:0.5;" x="310.04" xlink:href="#m536225b19d" y="165.8125"/>
      </g>
     </g>
     <g id="text_10">
      <!-- 70 -->
      <g transform="translate(37.20875 169.12375)scale(0.12 -0.12)">
       <use xlink:href="#BitstreamVeraSans-Roman-37"/>
       <use x="63.623046875" xlink:href="#BitstreamVeraSans-Roman-30"/>
      </g>
     </g>
    </g>
    <g id="ytick_2">
     <g id="line2d_20">
      <g>
       <use style="stroke:#000000;stroke-width:0.5;" x="56.47875" xlink:href="#m5363d19bcf" y="142.994041667"/>
      </g>
     </g>
     <g id="line2d_21">
      <g>
       <use style="stroke:#000000;stroke-width:0.5;" x="310.04" xlink:href="#m536225b19d" y="142.994041667"/>
      </g>
     </g>
     <g id="text_11">
      <!-- 75 -->
      <g transform="translate(37.20875 146.305291667)scale(0.12 -0.12)">
       <use xlink:href="#BitstreamVeraSans-Roman-37"/>
       <use x="63.623046875" xlink:href="#BitstreamVeraSans-Roman-35"/>
      </g>
     </g>
    </g>
    <g id="ytick_3">
     <g id="line2d_22">
      <g>
       <use style="stroke:#000000;stroke-width:0.5;" x="56.47875" xlink:href="#m5363d19bcf" y="120.175583333"/>
      </g>
     </g>
     <g id="line2d_23">
      <g>
       <use style="stroke:#000000;stroke-width:0.5;" x="310.04" xlink:href="#m536225b19d" y="120.175583333"/>
      </g>
     </g>
     <g id="text_12">
      <!-- 80 -->
      <defs>
       <path d="M 31.78125 34.625 
Q 24.75 34.625 20.71875 30.859375 
Q 16.703125 27.09375 16.703125 20.515625 
Q 16.703125 13.921875 20.71875 10.15625 
Q 24.75 6.390625 31.78125 6.390625 
Q 38.8125 6.390625 42.859375 10.171875 
Q 46.921875 13.96875 46.921875 20.515625 
Q 46.921875 27.09375 42.890625 30.859375 
Q 38.875 34.625 31.78125 34.625 
M 21.921875 38.8125 
Q 15.578125 40.375 12.03125 44.71875 
Q 8.5 49.078125 8.5 55.328125 
Q 8.5 64.0625 14.71875 69.140625 
Q 20.953125 74.21875 31.78125 74.21875 
Q 42.671875 74.21875 48.875 69.140625 
Q 55.078125 64.0625 55.078125 55.328125 
Q 55.078125 49.078125 51.53125 44.71875 
Q 48 40.375 41.703125 38.8125 
Q 48.828125 37.15625 52.796875 32.3125 
Q 56.78125 27.484375 56.78125 20.515625 
Q 56.78125 9.90625 50.3125 4.234375 
Q 43.84375 -1.421875 31.78125 -1.421875 
Q 19.734375 -1.421875 13.25 4.234375 
Q 6.78125 9.90625 6.78125 20.515625 
Q 6.78125 27.484375 10.78125 32.3125 
Q 14.796875 37.15625 21.921875 38.8125 
M 18.3125 54.390625 
Q 18.3125 48.734375 21.84375 45.5625 
Q 25.390625 42.390625 31.78125 42.390625 
Q 38.140625 42.390625 41.71875 45.5625 
Q 45.3125 48.734375 45.3125 54.390625 
Q 45.3125 60.0625 41.71875 63.234375 
Q 38.140625 66.40625 31.78125 66.40625 
Q 25.390625 66.40625 21.84375 63.234375 
Q 18.3125 60.0625 18.3125 54.390625 
" id="BitstreamVeraSans-Roman-38"/>
      </defs>
      <g transform="translate(37.20875 123.486833333)scale(0.12 -0.12)">
       <use xlink:href="#BitstreamVeraSans-Roman-38"/>
       <use x="63.623046875" xlink:href="#BitstreamVeraSans-Roman-30"/>
      </g>
     </g>
    </g>
    <g id="ytick_4">
     <g id="line2d_24">
      <g>
       <use style="stroke:#000000;stroke-width:0.5;" x="56.47875" xlink:href="#m5363d19bcf" y="97.357125"/>
      </g>
     </g>
     <g id="line2d_25">
      <g>
       <use style="stroke:#000000;stroke-width:0.5;" x="310.04" xlink:href="#m536225b19d" y="97.357125"/>
      </g>
     </g>
     <g id="text_13">
      <!-- 85 -->
      <g transform="translate(37.20875 100.668375)scale(0.12 -0.12)">
       <use xlink:href="#BitstreamVeraSans-Roman-38"/>
       <use x="63.623046875" xlink:href="#BitstreamVeraSans-Roman-35"/>
      </g>
     </g>
    </g>
    <g id="ytick_5">
     <g id="line2d_26">
      <g>
       <use style="stroke:#000000;stroke-width:0.5;" x="56.47875" xlink:href="#m5363d19bcf" y="74.5386666667"/>
      </g>
     </g>
     <g id="line2d_27">
      <g>
       <use style="stroke:#000000;stroke-width:0.5;" x="310.04" xlink:href="#m536225b19d" y="74.5386666667"/>
      </g>
     </g>
     <g id="text_14">
      <!-- 90 -->
      <defs>
       <path d="M 10.984375 1.515625 
L 10.984375 10.5 
Q 14.703125 8.734375 18.5 7.8125 
Q 22.3125 6.890625 25.984375 6.890625 
Q 35.75 6.890625 40.890625 13.453125 
Q 46.046875 20.015625 46.78125 33.40625 
Q 43.953125 29.203125 39.59375 26.953125 
Q 35.25 24.703125 29.984375 24.703125 
Q 19.046875 24.703125 12.671875 31.3125 
Q 6.296875 37.9375 6.296875 49.421875 
Q 6.296875 60.640625 12.9375 67.421875 
Q 19.578125 74.21875 30.609375 74.21875 
Q 43.265625 74.21875 49.921875 64.515625 
Q 56.59375 54.828125 56.59375 36.375 
Q 56.59375 19.140625 48.40625 8.859375 
Q 40.234375 -1.421875 26.421875 -1.421875 
Q 22.703125 -1.421875 18.890625 -0.6875 
Q 15.09375 0.046875 10.984375 1.515625 
M 30.609375 32.421875 
Q 37.25 32.421875 41.125 36.953125 
Q 45.015625 41.5 45.015625 49.421875 
Q 45.015625 57.28125 41.125 61.84375 
Q 37.25 66.40625 30.609375 66.40625 
Q 23.96875 66.40625 20.09375 61.84375 
Q 16.21875 57.28125 16.21875 49.421875 
Q 16.21875 41.5 20.09375 36.953125 
Q 23.96875 32.421875 30.609375 32.421875 
" id="BitstreamVeraSans-Roman-39"/>
      </defs>
      <g transform="translate(37.20875 77.8499166667)scale(0.12 -0.12)">
       <use xlink:href="#BitstreamVeraSans-Roman-39"/>
       <use x="63.623046875" xlink:href="#BitstreamVeraSans-Roman-30"/>
      </g>
     </g>
    </g>
    <g id="ytick_6">
     <g id="line2d_28">
      <g>
       <use style="stroke:#000000;stroke-width:0.5;" x="56.47875" xlink:href="#m5363d19bcf" y="51.7202083333"/>
      </g>
     </g>
     <g id="line2d_29">
      <g>
       <use style="stroke:#000000;stroke-width:0.5;" x="310.04" xlink:href="#m536225b19d" y="51.7202083333"/>
      </g>
     </g>
     <g id="text_15">
      <!-- 95 -->
      <g transform="translate(37.20875 55.0314583333)scale(0.12 -0.12)">
       <use xlink:href="#BitstreamVeraSans-Roman-39"/>
       <use x="63.623046875" xlink:href="#BitstreamVeraSans-Roman-35"/>
      </g>
     </g>
    </g>
    <g id="ytick_7">
     <g id="line2d_30">
      <g>
       <use style="stroke:#000000;stroke-width:0.5;" x="56.47875" xlink:href="#m5363d19bcf" y="28.90175"/>
      </g>
     </g>
     <g id="line2d_31">
      <g>
       <use style="stroke:#000000;stroke-width:0.5;" x="310.04" xlink:href="#m536225b19d" y="28.90175"/>
      </g>
     </g>
     <g id="text_16">
      <!-- 100 -->
      <g transform="translate(29.57375 32.213)scale(0.12 -0.12)">
       <use xlink:href="#BitstreamVeraSans-Roman-31"/>
       <use x="63.623046875" xlink:href="#BitstreamVeraSans-Roman-30"/>
       <use x="127.24609375" xlink:href="#BitstreamVeraSans-Roman-30"/>
      </g>
     </g>
    </g>
    <g id="text_17">
     <!-- Temperature (degrees F) -->
     <defs>
      <path d="M 8.015625 75.875 
L 15.828125 75.875 
Q 23.140625 64.359375 26.78125 53.3125 
Q 30.421875 42.28125 30.421875 31.390625 
Q 30.421875 20.453125 26.78125 9.375 
Q 23.140625 -1.703125 15.828125 -13.1875 
L 8.015625 -13.1875 
Q 14.5 -2 17.703125 9.0625 
Q 20.90625 20.125 20.90625 31.390625 
Q 20.90625 42.671875 17.703125 53.65625 
Q 14.5 64.65625 8.015625 75.875 
" id="BitstreamVeraSans-Roman-29"/>
      <path d="M -0.296875 72.90625 
L 61.375 72.90625 
L 61.375 64.59375 
L 35.5 64.59375 
L 35.5 0 
L 25.59375 0 
L 25.59375 64.59375 
L -0.296875 64.59375 
z
" id="BitstreamVeraSans-Roman-54"/>
      <path d="M 18.109375 8.203125 
L 18.109375 -20.796875 
L 9.078125 -20.796875 
L 9.078125 54.6875 
L 18.109375 54.6875 
L 18.109375 46.390625 
Q 20.953125 51.265625 25.265625 53.625 
Q 29.59375 56 35.59375 56 
Q 45.5625 56 51.78125 48.09375 
Q 58.015625 40.1875 58.015625 27.296875 
Q 58.015625 14.40625 51.78125 6.484375 
Q 45.5625 -1.421875 35.59375 -1.421875 
Q 29.59375 -1.421875 25.265625 0.953125 
Q 20.953125 3.328125 18.109375 8.203125 
M 48.6875 27.296875 
Q 48.6875 37.203125 44.609375 42.84375 
Q 40.53125 48.484375 33.40625 48.484375 
Q 26.265625 48.484375 22.1875 42.84375 
Q 18.109375 37.203125 18.109375 27.296875 
Q 18.109375 17.390625 22.1875 11.75 
Q 26.265625 6.109375 33.40625 6.109375 
Q 40.53125 6.109375 44.609375 11.75 
Q 48.6875 17.390625 48.6875 27.296875 
" id="BitstreamVeraSans-Roman-70"/>
      <path d="M 34.28125 27.484375 
Q 23.390625 27.484375 19.1875 25 
Q 14.984375 22.515625 14.984375 16.5 
Q 14.984375 11.71875 18.140625 8.90625 
Q 21.296875 6.109375 26.703125 6.109375 
Q 34.1875 6.109375 38.703125 11.40625 
Q 43.21875 16.703125 43.21875 25.484375 
L 43.21875 27.484375 
z
M 52.203125 31.203125 
L 52.203125 0 
L 43.21875 0 
L 43.21875 8.296875 
Q 40.140625 3.328125 35.546875 0.953125 
Q 30.953125 -1.421875 24.3125 -1.421875 
Q 15.921875 -1.421875 10.953125 3.296875 
Q 6 8.015625 6 15.921875 
Q 6 25.140625 12.171875 29.828125 
Q 18.359375 34.515625 30.609375 34.515625 
L 43.21875 34.515625 
L 43.21875 35.40625 
Q 43.21875 41.609375 39.140625 45 
Q 35.0625 48.390625 27.6875 48.390625 
Q 23 48.390625 18.546875 47.265625 
Q 14.109375 46.140625 10.015625 43.890625 
L 10.015625 52.203125 
Q 14.9375 54.109375 19.578125 55.046875 
Q 24.21875 56 28.609375 56 
Q 40.484375 56 46.34375 49.84375 
Q 52.203125 43.703125 52.203125 31.203125 
" id="BitstreamVeraSans-Roman-61"/>
      <path d="M 31 75.875 
Q 24.46875 64.65625 21.28125 53.65625 
Q 18.109375 42.671875 18.109375 31.390625 
Q 18.109375 20.125 21.3125 9.0625 
Q 24.515625 -2 31 -13.1875 
L 23.1875 -13.1875 
Q 15.875 -1.703125 12.234375 9.375 
Q 8.59375 20.453125 8.59375 31.390625 
Q 8.59375 42.28125 12.203125 53.3125 
Q 15.828125 64.359375 23.1875 75.875 
z
" id="BitstreamVeraSans-Roman-28"/>
      <path d="M 9.8125 72.90625 
L 51.703125 72.90625 
L 51.703125 64.59375 
L 19.671875 64.59375 
L 19.671875 43.109375 
L 48.578125 43.109375 
L 48.578125 34.8125 
L 19.671875 34.8125 
L 19.671875 0 
L 9.8125 0 
z
" id="BitstreamVeraSans-Roman-46"/>
     </defs>
     <g transform="translate(22.078125 172.728375)rotate(-90.0)scale(0.12 -0.12)">
      <use xlink:href="#BitstreamVeraSans-Roman-54"/>
      <use x="60.818359375" xlink:href="#BitstreamVeraSans-Roman-65"/>
      <use x="122.341796875" xlink:href="#BitstreamVeraSans-Roman-6d"/>
      <use x="219.75390625" xlink:href="#BitstreamVeraSans-Roman-70"/>
      <use x="283.23046875" xlink:href="#BitstreamVeraSans-Roman-65"/>
      <use x="344.75390625" xlink:href="#BitstreamVeraSans-Roman-72"/>
      <use x="385.8671875" xlink:href="#BitstreamVeraSans-Roman-61"/>
      <use x="447.146484375" xlink:href="#BitstreamVeraSans-Roman-74"/>
      <use x="486.35546875" xlink:href="#BitstreamVeraSans-Roman-75"/>
      <use x="549.734375" xlink:href="#BitstreamVeraSans-Roman-72"/>
      <use x="590.81640625" xlink:href="#BitstreamVeraSans-Roman-65"/>
      <use x="652.33984375" xlink:href="#BitstreamVeraSans-Roman-20"/>
      <use x="684.126953125" xlink:href="#BitstreamVeraSans-Roman-28"/>
      <use x="723.140625" xlink:href="#BitstreamVeraSans-Roman-64"/>
      <use x="786.6171875" xlink:href="#BitstreamVeraSans-Roman-65"/>
      <use x="848.140625" xlink:href="#BitstreamVeraSans-Roman-67"/>
      <use x="911.6171875" xlink:href="#BitstreamVeraSans-Roman-72"/>
      <use x="952.69921875" xlink:href="#BitstreamVeraSans-Roman-65"/>
      <use x="1014.22265625" xlink:href="#BitstreamVeraSans-Roman-65"/>
      <use x="1075.74609375" xlink:href="#BitstreamVeraSans-Roman-73"/>
      <use x="1127.845703125" xlink:href="#BitstreamVeraSans-Roman-20"/>
      <use x="1159.6328125" xlink:href="#BitstreamVeraSans-Roman-46"/>
      <use x="1217.15234375" xlink:href="#BitstreamVeraSans-Roman-29"/>
     </g>
    </g>
   </g>
   <g id="text_18">
    <!-- Temperature in Austin -->
    <g transform="translate(102.526 23.90175)scale(0.144 -0.144)">
     <use xlink:href="#BitstreamVeraSans-Roman-54"/>
     <use x="60.818359375" xlink:href="#BitstreamVeraSans-Roman-65"/>
     <use x="122.341796875" xlink:href="#BitstreamVeraSans-Roman-6d"/>
     <use x="219.75390625" xlink:href="#BitstreamVeraSans-Roman-70"/>
     <use x="283.23046875" xlink:href="#BitstreamVeraSans-Roman-65"/>
     <use x="344.75390625" xlink:href="#BitstreamVeraSans-Roman-72"/>
     <use x="385.8671875" xlink:href="#BitstreamVeraSans-Roman-61"/>
     <use x="447.146484375" xlink:href="#BitstreamVeraSans-Roman-74"/>
     <use x="486.35546875" xlink:href="#BitstreamVeraSans-Roman-75"/>
     <use x="549.734375" xlink:href="#BitstreamVeraSans-Roman-72"/>
     <use x="590.81640625" xlink:href="#BitstreamVeraSans-Roman-65"/>
     <use x="652.33984375" xlink:href="#BitstreamVeraSans-Roman-20"/>
     <use x="684.126953125" xlink:href="#BitstreamVeraSans-Roman-69"/>
     <use x="711.91015625" xlink:href="#BitstreamVeraSans-Roman-6e"/>
     <use x="775.2890625" xlink:href="#BitstreamVeraSans-Roman-20"/>
     <use x="807.076171875" xlink:href="#BitstreamVeraSans-Roman-41"/>
     <use x="875.484375" xlink:href="#BitstreamVeraSans-Roman-75"/>
     <use x="938.86328125" xlink:href="#BitstreamVeraSans-Roman-73"/>
     <use x="990.962890625" xlink:href="#BitstreamVeraSans-Roman-74"/>
     <use x="1030.171875" xlink:href="#BitstreamVeraSans-Roman-69"/>
     <use x="1057.955078125" xlink:href="#BitstreamVeraSans-Roman-6e"/>
    </g>
   </g>
   <g id="legend_1">
    <g id="patch_7">
     <path d="M 101.24675 110.085375 
L 302.84 110.085375 
L 302.84 84.628875 
L 101.24675 84.628875 
z
" style="fill:#ffffff;stroke:#000000;stroke-linejoin:miter;"/>
    </g>
    <g id="line2d_32">
     <path d="M 111.32675 96.290625 
L 131.48675 96.290625 
" style="fill:none;stroke:#ff0000;stroke-linecap:square;"/>
    </g>
    <g id="line2d_33"/>
    <g id="text_19">
     <!-- Temperature (deg F) -->
     <g transform="translate(147.32675 101.330625)scale(0.144 -0.144)">
      <use xlink:href="#BitstreamVeraSans-Roman-54"/>
      <use x="60.818359375" xlink:href="#BitstreamVeraSans-Roman-65"/>
      <use x="122.341796875" xlink:href="#BitstreamVeraSans-Roman-6d"/>
      <use x="219.75390625" xlink:href="#BitstreamVeraSans-Roman-70"/>
      <use x="283.23046875" xlink:href="#BitstreamVeraSans-Roman-65"/>
      <use x="344.75390625" xlink:href="#BitstreamVeraSans-Roman-72"/>
      <use x="385.8671875" xlink:href="#BitstreamVeraSans-Roman-61"/>
      <use x="447.146484375" xlink:href="#BitstreamVeraSans-Roman-74"/>
      <use x="486.35546875" xlink:href="#BitstreamVeraSans-Roman-75"/>
      <use x="549.734375" xlink:href="#BitstreamVeraSans-Roman-72"/>
      <use x="590.81640625" xlink:href="#BitstreamVeraSans-Roman-65"/>
      <use x="652.33984375" xlink:href="#BitstreamVeraSans-Roman-20"/>
      <use x="684.126953125" xlink:href="#BitstreamVeraSans-Roman-28"/>
      <use x="723.140625" xlink:href="#BitstreamVeraSans-Roman-64"/>
      <use x="786.6171875" xlink:href="#BitstreamVeraSans-Roman-65"/>
      <use x="848.140625" xlink:href="#BitstreamVeraSans-Roman-67"/>
      <use x="911.6171875" xlink:href="#BitstreamVeraSans-Roman-20"/>
      <use x="943.404296875" xlink:href="#BitstreamVeraSans-Roman-46"/>
      <use x="1000.923828125" xlink:href="#BitstreamVeraSans-Roman-29"/>
     </g>
    </g>
   </g>
  </g>
 </g>
 <defs>
  <clipPath id="p328daecccc">
   <rect height="136.91075" width="253.56125" x="56.47875" y="28.90175"/>
  </clipPath>
 </defs>
</svg>
