<?xml version="1.0" encoding="utf-8" standalone="no"?>
<!DOCTYPE svg PUBLIC "-//W3C//DTD SVG 1.1//EN"
  "http://www.w3.org/Graphics/SVG/1.1/DTD/svg11.dtd">
<!-- Created with matplotlib (http://matplotlib.org/) -->
<svg height="211pt" version="1.1" viewBox="0 0 323 211" width="323pt" xmlns="http://www.w3.org/2000/svg" xmlns:xlink="http://www.w3.org/1999/xlink">
 <defs>
  <style type="text/css">
*{stroke-linecap:butt;stroke-linejoin:round;stroke-miterlimit:100000;}
  </style>
 </defs>
 <g id="figure_1">
  <g id="patch_1">
   <path d="M 0 211 
L 323 211 
L 323 0 
L 0 0 
z
" style="fill:#ffffff;"/>
  </g>
  <g id="axes_1">
   <g id="patch_2">
    <path d="M 39.865 182.42625 
L 310.04 182.42625 
L 310.04 18.766875 
L 39.865 18.766875 
z
" style="fill:#ffffff;"/>
   </g>
   <g id="line2d_1">
    <path clip-path="url(#p791a00d838)" d="M 39.865 53.135344 
L 40.228627 55.753894 
L 40.955882 58.536103 
L 41.683136 60.336356 
L 42.046763 60.500016 
L 42.41039 58.045125 
L 43.501272 40.697231 
L 44.228526 32.514263 
L 44.955781 27.9318 
L 45.319408 26.949844 
L 45.683035 27.277163 
L 46.046662 28.750097 
L 46.410289 31.204987 
L 46.773917 35.296472 
L 47.137544 41.515528 
L 47.864798 48.552881 
L 48.228425 51.49875 
L 48.592052 52.971684 
L 48.95568 55.753894 
L 49.682934 58.372444 
L 50.410188 60.336356 
L 50.773816 60.336356 
L 51.137443 57.881466 
L 52.228324 40.860891 
L 52.955579 32.514263 
L 53.682833 27.9318 
L 54.04646 26.949844 
L 54.410087 27.277163 
L 54.773715 28.750097 
L 55.137342 31.204987 
L 55.500969 35.460131 
L 55.864596 41.515528 
L 56.591851 48.552881 
L 56.955478 51.335091 
L 57.319105 52.971684 
L 57.682732 55.590234 
L 58.409987 58.372444 
L 59.137241 60.336356 
L 59.500868 60.500016 
L 59.864495 58.045125 
L 60.955377 40.697231 
L 61.682631 32.350603 
L 62.409886 27.768141 
L 62.773513 26.786184 
L 63.13714 27.113503 
L 63.500767 28.422778 
L 63.864394 31.041328 
L 64.228022 35.460131 
L 64.591649 41.679187 
L 64.955276 45.770672 
L 65.68253 51.335091 
L 66.046157 52.808025 
L 66.409785 55.426575 
L 67.137039 58.208784 
L 67.864293 60.172697 
L 68.227921 60.336356 
L 68.591548 58.045125 
L 69.682429 40.533572 
L 70.409684 32.023284 
L 71.136938 27.604481 
L 71.500565 26.786184 
L 71.864192 26.949844 
L 72.22782 28.422778 
L 72.591447 31.041328 
L 72.955074 35.623791 
L 73.318701 41.679187 
L 73.682328 45.770672 
L 74.409583 51.171431 
L 74.77321 52.808025 
L 75.136837 55.426575 
L 75.864092 58.208784 
L 76.591346 60.172697 
L 76.954973 60.336356 
L 77.3186 57.881466 
L 78.409482 40.697231 
L 79.136736 32.023284 
L 79.863991 27.768141 
L 80.227618 26.786184 
L 80.591245 27.113503 
L 80.954872 28.422778 
L 81.318499 31.204987 
L 81.682127 35.78745 
L 82.045754 41.842847 
L 82.409381 45.934331 
L 83.136635 51.335091 
L 83.500262 52.808025 
L 83.86389 55.426575 
L 84.591144 58.208784 
L 85.318398 60.336356 
L 85.682026 60.336356 
L 86.045653 58.045125 
L 87.136534 40.697231 
L 87.863789 32.186944 
L 88.227416 29.568394 
L 88.591043 27.768141 
L 88.95467 26.622525 
L 89.318297 26.949844 
L 89.681925 28.422778 
L 90.045552 31.041328 
L 91.136433 45.934331 
L 91.863688 51.49875 
L 92.227315 52.808025 
L 92.590942 55.590234 
L 93.318197 58.372444 
L 94.045451 60.336356 
L 94.409078 60.336356 
L 94.772705 58.045125 
L 95.863587 40.860891 
L 96.590841 32.186944 
L 96.954468 29.568394 
L 97.681723 26.458866 
L 98.04535 26.949844 
L 98.408977 28.422778 
L 98.772604 31.204987 
L 99.863486 46.097991 
L 100.59074 51.49875 
L 100.954367 52.808025 
L 101.317995 55.590234 
L 102.045249 58.372444 
L 102.772503 60.336356 
L 103.136131 60.336356 
L 103.499758 58.208784 
L 104.590639 40.860891 
L 105.317894 32.350603 
L 106.045148 27.768141 
L 106.408775 26.622525 
L 106.772402 27.113503 
L 107.13603 28.422778 
L 107.499657 31.204987 
L 107.863284 35.951109 
L 108.226911 42.170166 
L 108.590538 46.097991 
L 109.317793 51.49875 
L 109.68142 52.808025 
L 110.045047 55.590234 
L 110.772301 58.372444 
L 111.499556 60.336356 
L 111.863183 60.336356 
L 112.22681 58.208784 
L 113.317692 41.02455 
L 114.044946 32.350603 
L 114.772201 27.768141 
L 115.135828 26.622525 
L 115.499455 27.113503 
L 115.863082 28.422778 
L 116.226709 31.532306 
L 117.317591 46.26165 
L 118.044845 51.662409 
L 118.408472 52.971684 
L 118.7721 55.753894 
L 119.135727 57.390487 
L 120.226608 60.336356 
L 120.590236 60.336356 
L 120.953863 58.208784 
L 122.044744 41.02455 
L 122.771999 32.350603 
L 123.499253 27.9318 
L 123.86288 26.786184 
L 124.226507 27.277163 
L 124.590135 28.422778 
L 124.953762 31.368647 
L 126.044643 46.26165 
L 126.771898 51.662409 
L 127.135525 52.971684 
L 127.499152 55.753894 
L 128.226406 58.372444 
L 128.953661 60.172697 
L 129.317288 60.336356 
L 129.680915 58.208784 
L 130.771797 41.02455 
L 131.499051 32.350603 
L 132.226306 27.9318 
L 132.589933 26.949844 
L 132.95356 27.440822 
L 133.317187 28.586437 
L 133.680814 31.695966 
L 134.771696 46.425309 
L 135.49895 51.49875 
L 135.862577 52.808025 
L 136.226205 55.590234 
L 136.953459 58.372444 
L 137.680713 60.009037 
L 138.044341 60.172697 
L 138.407968 58.208784 
L 139.498849 41.02455 
L 140.226104 32.514263 
L 140.953358 27.9318 
L 141.316985 27.113503 
L 141.680612 27.440822 
L 142.04424 28.586437 
L 142.407867 31.695966 
L 143.498748 46.26165 
L 144.226003 51.335091 
L 144.58963 52.808025 
L 144.953257 55.590234 
L 145.680511 58.208784 
L 146.407766 60.009037 
L 146.771393 60.172697 
L 147.13502 58.208784 
L 148.225902 41.02455 
L 148.953156 32.514263 
L 149.68041 27.9318 
L 150.044038 26.949844 
L 150.407665 27.277163 
L 150.771292 28.422778 
L 151.134919 31.368647 
L 152.225801 45.934331 
L 152.953055 51.171431 
L 153.316682 52.808025 
L 153.68031 55.590234 
L 154.043937 57.226828 
L 154.771191 59.027081 
L 155.134818 59.845378 
L 155.498445 60.172697 
L 155.862073 58.208784 
L 157.316581 36.442087 
L 158.043836 30.059372 
L 158.407463 28.095459 
L 158.77109 27.113503 
L 159.134717 27.440822 
L 159.498345 28.586437 
L 159.861972 31.695966 
L 160.952853 46.097991 
L 161.680108 51.335091 
L 162.043735 52.971684 
L 162.407362 55.753894 
L 162.770989 57.390487 
L 163.498244 59.190741 
L 163.861871 60.009037 
L 164.225498 60.172697 
L 164.589125 58.372444 
L 165.680007 41.351869 
L 166.407261 32.841581 
L 167.134515 28.259119 
L 167.498143 27.440822 
L 167.86177 27.604481 
L 168.225397 28.750097 
L 168.589024 32.023284 
L 169.679906 46.097991 
L 170.40716 51.49875 
L 170.770787 52.971684 
L 171.134415 55.753894 
L 171.498042 57.226828 
L 172.588923 60.009037 
L 172.95255 60.172697 
L 173.316178 58.372444 
L 174.407059 41.351869 
L 175.134314 32.841581 
L 175.861568 28.259119 
L 176.225195 27.440822 
L 176.588822 27.604481 
L 176.95245 28.586437 
L 177.316077 31.859625 
L 178.406958 45.934331 
L 179.134213 51.335091 
L 179.49784 52.808025 
L 179.861467 55.590234 
L 180.588721 58.208784 
L 181.315976 60.009037 
L 181.679603 60.009037 
L 182.04323 58.208784 
L 183.134112 41.188209 
L 183.861366 32.677922 
L 184.58862 28.095459 
L 184.952248 27.277163 
L 185.315875 27.604481 
L 185.679502 28.586437 
L 186.043129 31.859625 
L 187.134011 46.097991 
L 187.861265 51.335091 
L 188.224892 52.808025 
L 188.58852 55.590234 
L 189.315774 58.208784 
L 190.043028 59.845378 
L 190.406655 60.009037 
L 190.770283 58.208784 
L 191.861164 41.188209 
L 192.588419 32.677922 
L 193.315673 28.095459 
L 193.6793 27.277163 
L 194.042927 27.604481 
L 194.406555 28.750097 
L 194.770182 32.023284 
L 195.861063 45.934331 
L 196.588318 51.335091 
L 196.951945 52.808025 
L 197.315572 55.590234 
L 198.042826 58.208784 
L 198.406454 59.190741 
L 198.770081 59.845378 
L 199.133708 60.009037 
L 199.497335 58.372444 
L 200.588217 41.188209 
L 201.315471 32.677922 
L 202.042725 28.095459 
L 202.406353 27.277163 
L 202.76998 27.440822 
L 203.133607 28.586437 
L 203.497234 31.695966 
L 204.224489 42.170166 
L 204.951743 48.716541 
L 205.31537 51.171431 
L 205.678997 52.808025 
L 206.042624 55.426575 
L 206.769879 58.208784 
L 207.497133 60.009037 
L 207.86076 60.172697 
L 208.224388 58.372444 
L 209.315269 41.02455 
L 210.042524 32.677922 
L 210.769778 27.9318 
L 211.133405 27.277163 
L 211.497032 27.440822 
L 211.860659 28.422778 
L 212.224287 31.695966 
L 212.951541 42.170166 
L 213.678795 48.552881 
L 214.042423 51.171431 
L 214.40605 52.644366 
L 214.769677 55.426575 
L 215.496931 58.208784 
L 216.224186 60.009037 
L 216.587813 60.172697 
L 216.95144 58.536103 
L 218.042322 41.188209 
L 218.769576 32.841581 
L 219.49683 28.095459 
L 219.860458 27.440822 
L 220.224085 27.604481 
L 220.587712 28.586437 
L 220.951339 31.859625 
L 221.678594 42.497484 
L 222.405848 48.716541 
L 222.769475 51.335091 
L 223.133102 52.808025 
L 223.496729 55.590234 
L 224.223984 58.372444 
L 224.587611 59.3544 
L 224.951238 60.009037 
L 225.314865 60.172697 
L 225.678493 58.699763 
L 226.769374 41.188209 
L 227.496629 32.841581 
L 228.223883 28.259119 
L 228.58751 27.604481 
L 228.951137 27.604481 
L 229.314764 28.913756 
L 229.678392 32.350603 
L 230.405646 42.661144 
L 231.1329 48.8802 
L 231.496528 51.49875 
L 231.860155 52.971684 
L 232.223782 55.753894 
L 232.951036 58.536103 
L 233.678291 60.336356 
L 234.041918 60.500016 
L 234.405545 58.863422 
L 235.496427 41.351869 
L 236.223681 33.005241 
L 236.950935 28.586437 
L 237.314563 27.768141 
L 237.67819 27.768141 
L 238.041817 29.077416 
L 238.405444 32.514263 
L 239.132699 42.988462 
L 239.859953 49.207519 
L 240.22358 51.662409 
L 240.587207 53.299003 
L 240.950834 55.917553 
L 241.678089 58.536103 
L 242.405343 60.500016 
L 242.76897 60.663675 
L 243.132598 59.027081 
L 244.223479 41.351869 
L 244.950734 33.332559 
L 245.677988 28.750097 
L 246.041615 28.095459 
L 246.405242 28.095459 
L 246.768869 29.404734 
L 247.132497 32.677922 
L 247.859751 43.152122 
L 248.587005 49.371178 
L 248.950633 51.989728 
L 249.31426 53.299003 
L 249.677887 55.917553 
L 250.405141 58.699763 
L 250.768769 59.845378 
L 251.132396 60.500016 
L 251.496023 60.827334 
L 251.85965 59.190741 
L 252.950532 41.679187 
L 253.677786 33.496219 
L 254.40504 28.913756 
L 254.768668 28.422778 
L 255.132295 28.586437 
L 255.495922 29.895713 
L 255.859549 33.1689 
L 256.586803 43.479441 
L 257.314058 49.862156 
L 257.677685 52.153388 
L 258.041312 53.462662 
L 258.404939 56.081212 
L 259.132194 58.863422 
L 259.495821 60.009037 
L 259.859448 60.663675 
L 260.223075 60.990994 
L 260.586703 59.3544 
L 261.677584 41.842847 
L 262.404838 33.659878 
L 263.132093 29.241075 
L 263.49572 28.586437 
L 263.859347 28.750097 
L 264.222974 30.223031 
L 264.586602 33.496219 
L 265.313856 43.806759 
L 266.04111 49.862156 
L 266.404738 52.480706 
L 266.768365 53.789981 
L 267.131992 56.408531 
L 268.222873 60.172697 
L 268.586501 60.990994 
L 268.950128 61.154653 
L 269.313755 59.681719 
L 270.404637 42.006506 
L 271.131891 33.823537 
L 271.495518 31.368647 
L 271.859145 29.732053 
L 272.222773 29.077416 
L 272.5864 29.241075 
L 272.950027 30.714009 
L 273.313654 33.987197 
L 274.040908 44.297737 
L 274.404536 47.898244 
L 275.13179 52.808025 
L 275.495417 54.1173 
L 275.859044 56.572191 
L 276.586299 59.190741 
L 277.313553 61.154653 
L 277.67718 61.318312 
L 278.040808 59.845378 
L 279.131689 42.170166 
L 279.858943 34.150856 
L 280.222571 31.695966 
L 280.586198 30.059372 
L 280.949825 29.404734 
L 281.313452 29.732053 
L 281.677079 31.368647 
L 282.040707 34.641834 
L 282.767961 44.788716 
L 283.131588 48.389222 
L 283.858843 53.299003 
L 284.22247 54.444619 
L 284.586097 56.899509 
L 285.676978 60.500016 
L 286.040606 61.318312 
L 286.404233 61.645631 
L 286.76786 60.172697 
L 287.858742 42.497484 
L 288.585996 34.478175 
L 288.949623 32.023284 
L 289.31325 30.386691 
L 289.676878 29.732053 
L 290.040505 29.895713 
L 290.404132 31.532306 
L 290.767759 34.969153 
L 291.495013 45.116034 
L 292.222268 51.335091 
L 292.585895 53.626322 
L 292.949522 54.771937 
L 293.313149 57.226828 
L 294.404031 60.827334 
L 294.767658 61.809291 
L 295.131285 61.809291 
L 295.494913 60.500016 
L 296.585794 42.661144 
L 297.313048 34.478175 
L 298.040303 30.55035 
L 298.40393 29.732053 
L 298.767557 30.059372 
L 299.131184 31.695966 
L 299.494812 35.132812 
L 300.222066 45.443353 
L 300.94932 51.662409 
L 301.312948 54.1173 
L 301.676575 55.099256 
L 302.040202 57.554147 
L 303.131083 61.154653 
L 303.494711 62.136609 
L 303.858338 62.300269 
L 304.221965 60.827334 
L 305.312847 42.988462 
L 306.040101 34.969153 
L 306.403728 32.514263 
L 306.767355 30.877669 
L 307.130983 30.059372 
L 307.49461 30.223031 
L 307.858237 32.023284 
L 308.221864 35.460131 
L 308.949118 45.934331 
L 309.312746 49.534837 
L 310.04 54.444619 
L 310.04 54.444619 
" style="fill:none;stroke:#0000ff;stroke-linecap:square;"/>
   </g>
   <g id="line2d_2">
    <path clip-path="url(#p791a00d838)" d="M 39.865 66.555413 
L 40.228627 65.900775 
L 40.955882 65.573456 
L 41.319509 65.573456 
L 41.683136 65.737116 
L 42.046763 65.737116 
L 42.41039 64.100522 
L 42.774017 63.282225 
L 43.137645 64.427841 
L 44.592153 70.483237 
L 44.955781 71.792513 
L 45.319408 72.610809 
L 45.683035 73.101788 
L 46.046662 72.938128 
L 46.410289 73.265447 
L 47.501171 68.682984 
L 47.864798 67.373709 
L 48.228425 66.719072 
L 48.592052 66.555413 
L 48.95568 65.900775 
L 50.046561 65.409797 
L 50.773816 65.737116 
L 51.137443 64.100522 
L 51.50107 63.282225 
L 51.864697 64.427841 
L 53.319206 70.646897 
L 54.04646 72.774469 
L 54.410087 73.265447 
L 54.773715 73.101788 
L 55.137342 73.429106 
L 55.864596 70.319578 
L 56.591851 67.537369 
L 56.955478 66.719072 
L 57.319105 66.555413 
L 57.682732 65.900775 
L 58.409987 65.573456 
L 58.773614 65.573456 
L 59.137241 65.737116 
L 59.500868 65.737116 
L 59.864495 64.100522 
L 60.228122 63.282225 
L 60.59175 64.264181 
L 61.682631 69.337622 
L 62.409886 71.956172 
L 62.773513 72.774469 
L 63.13714 73.265447 
L 63.500767 73.101788 
L 63.864394 73.592766 
L 64.591649 70.155919 
L 65.318903 67.537369 
L 65.68253 66.882731 
L 66.046157 66.555413 
L 66.773412 65.737116 
L 67.137039 65.573456 
L 67.500666 65.573456 
L 68.227921 65.900775 
L 68.591548 64.100522 
L 68.955175 63.282225 
L 69.318802 64.427841 
L 70.409684 69.337622 
L 71.136938 71.956172 
L 71.500565 72.774469 
L 71.864192 73.265447 
L 72.22782 73.101788 
L 72.591447 73.429106 
L 73.318701 70.155919 
L 74.045956 67.701028 
L 74.409583 66.882731 
L 74.77321 66.719072 
L 75.136837 66.064434 
L 75.500464 65.737116 
L 75.864092 65.573456 
L 76.227719 65.573456 
L 76.954973 65.900775 
L 77.3186 64.264181 
L 77.682227 63.282225 
L 78.045855 64.264181 
L 79.136736 69.337622 
L 79.863991 71.792513 
L 80.227618 72.774469 
L 80.591245 73.265447 
L 80.954872 72.938128 
L 81.318499 73.429106 
L 82.045754 70.155919 
L 82.773008 67.864687 
L 83.136635 67.046391 
L 83.500262 66.719072 
L 83.86389 66.064434 
L 84.591144 65.737116 
L 84.954771 65.737116 
L 85.682026 66.064434 
L 86.045653 64.427841 
L 86.40928 63.445884 
L 86.772907 64.427841 
L 88.227416 70.646897 
L 88.95467 72.774469 
L 89.318297 73.265447 
L 89.681925 73.101788 
L 90.045552 73.429106 
L 91.136433 69.010303 
L 91.863688 67.046391 
L 92.227315 66.882731 
L 92.590942 66.228094 
L 92.954569 65.900775 
L 93.318197 65.737116 
L 93.681824 65.737116 
L 94.045451 66.064434 
L 94.409078 66.228094 
L 94.772705 64.427841 
L 95.136332 63.445884 
L 95.49996 64.264181 
L 96.590841 69.337622 
L 97.681723 72.774469 
L 98.04535 73.265447 
L 98.408977 72.938128 
L 98.772604 73.265447 
L 99.863486 68.846644 
L 100.59074 67.046391 
L 100.954367 66.882731 
L 101.317995 66.228094 
L 101.681622 65.900775 
L 102.045249 65.737116 
L 102.408876 65.737116 
L 102.772503 66.228094 
L 103.136131 66.228094 
L 103.499758 64.427841 
L 103.863385 63.445884 
L 104.227012 64.264181 
L 105.681521 70.319578 
L 106.045148 71.628853 
L 106.772402 73.101788 
L 107.13603 72.938128 
L 107.499657 73.265447 
L 108.226911 69.992259 
L 108.954166 68.028347 
L 109.317793 67.046391 
L 109.68142 66.882731 
L 110.045047 66.228094 
L 110.408674 65.900775 
L 110.772301 65.737116 
L 111.135929 65.900775 
L 111.499556 66.228094 
L 111.863183 66.228094 
L 112.22681 64.427841 
L 112.590437 63.445884 
L 112.954065 64.264181 
L 114.044946 69.173962 
L 114.408573 70.155919 
L 115.135828 72.44715 
L 115.499455 72.938128 
L 115.863082 72.774469 
L 116.226709 73.101788 
L 116.953964 69.992259 
L 117.681218 68.028347 
L 118.044845 67.21005 
L 118.408472 66.882731 
L 118.7721 66.228094 
L 119.135727 65.900775 
L 119.862981 65.900775 
L 120.226608 66.228094 
L 120.590236 66.228094 
L 121.31749 63.445884 
L 121.681117 64.264181 
L 123.135626 70.319578 
L 123.86288 72.44715 
L 124.226507 72.938128 
L 124.590135 72.774469 
L 124.953762 73.101788 
L 126.044643 68.682984 
L 126.408271 68.028347 
L 126.771898 67.046391 
L 127.135525 66.882731 
L 127.499152 66.228094 
L 127.862779 65.900775 
L 128.226406 65.737116 
L 128.590034 65.737116 
L 128.953661 66.064434 
L 129.317288 66.228094 
L 130.044542 63.445884 
L 130.40817 64.100522 
L 131.862678 70.155919 
L 132.226306 71.465194 
L 132.589933 72.283491 
L 132.95356 72.774469 
L 133.317187 72.774469 
L 133.680814 73.101788 
L 134.408069 69.8286 
L 135.135323 68.028347 
L 135.49895 67.21005 
L 135.862577 67.046391 
L 136.226205 66.228094 
L 136.589832 65.900775 
L 136.953459 65.737116 
L 138.044341 66.228094 
L 138.771595 63.445884 
L 139.135222 64.100522 
L 140.589731 70.155919 
L 140.953358 71.465194 
L 141.316985 72.283491 
L 141.680612 72.774469 
L 142.04424 72.774469 
L 142.407867 73.101788 
L 143.135121 69.992259 
L 143.862376 68.028347 
L 144.226003 67.373709 
L 144.58963 67.046391 
L 144.953257 66.228094 
L 145.316884 65.900775 
L 145.680511 65.737116 
L 146.407766 66.064434 
L 146.771393 66.391753 
L 147.13502 64.5915 
L 147.498647 63.445884 
L 147.862275 64.100522 
L 149.316783 70.319578 
L 150.044038 72.44715 
L 150.407665 72.938128 
L 150.771292 72.938128 
L 151.134919 73.265447 
L 152.225801 68.846644 
L 152.953055 67.21005 
L 153.316682 67.046391 
L 154.043937 65.900775 
L 154.407564 65.737116 
L 155.134818 66.064434 
L 155.498445 66.391753 
L 156.2257 63.445884 
L 156.589327 64.100522 
L 158.043836 70.319578 
L 158.77109 72.44715 
L 159.134717 72.938128 
L 159.498345 72.938128 
L 159.861972 73.101788 
L 160.589226 69.8286 
L 161.31648 68.028347 
L 161.680108 67.21005 
L 162.043735 67.046391 
L 162.407362 66.391753 
L 162.770989 66.064434 
L 163.134616 65.900775 
L 163.498244 65.900775 
L 163.861871 66.064434 
L 164.225498 66.391753 
L 164.952752 63.445884 
L 165.31638 64.100522 
L 166.770888 70.319578 
L 167.498143 72.44715 
L 167.86177 72.938128 
L 168.225397 72.774469 
L 168.589024 73.101788 
L 169.316279 69.664941 
L 170.043533 67.864687 
L 170.40716 67.21005 
L 170.770787 66.882731 
L 171.134415 66.228094 
L 171.498042 65.900775 
L 171.861669 65.737116 
L 172.588923 66.064434 
L 172.95255 66.391753 
L 173.679805 63.282225 
L 174.043432 63.936862 
L 175.497941 70.155919 
L 176.225195 72.44715 
L 176.588822 72.938128 
L 176.95245 72.774469 
L 177.316077 73.101788 
L 178.043331 69.664941 
L 178.770585 67.864687 
L 179.134213 67.21005 
L 179.49784 66.882731 
L 179.861467 66.228094 
L 180.225094 65.900775 
L 180.588721 65.737116 
L 181.679603 66.228094 
L 182.406857 63.282225 
L 182.770485 63.773203 
L 183.861366 69.010303 
L 184.952248 72.283491 
L 185.315875 72.774469 
L 186.043129 72.774469 
L 186.770384 69.501281 
L 187.497638 67.701028 
L 187.861265 67.046391 
L 188.224892 66.882731 
L 188.58852 66.228094 
L 188.952147 65.900775 
L 189.315774 65.737116 
L 189.679401 65.737116 
L 190.043028 66.064434 
L 190.406655 66.228094 
L 191.13391 63.118566 
L 191.497537 63.773203 
L 192.952046 69.992259 
L 193.6793 72.283491 
L 194.042927 72.610809 
L 194.770182 72.610809 
L 195.497436 69.664941 
L 196.22469 67.701028 
L 196.588318 67.046391 
L 196.951945 66.882731 
L 197.679199 66.064434 
L 198.042826 65.900775 
L 198.406454 65.900775 
L 198.770081 66.228094 
L 199.133708 66.391753 
L 199.860962 63.282225 
L 200.22459 63.773203 
L 201.679098 70.155919 
L 202.406353 72.283491 
L 202.76998 72.774469 
L 203.497234 72.774469 
L 204.224489 69.664941 
L 204.951743 67.701028 
L 205.31537 67.046391 
L 205.678997 66.882731 
L 206.042624 66.391753 
L 206.769879 66.064434 
L 207.133506 66.064434 
L 207.497133 66.228094 
L 207.86076 66.555413 
L 208.588015 63.282225 
L 208.951642 63.936862 
L 210.406151 70.155919 
L 211.133405 72.44715 
L 211.497032 72.938128 
L 211.860659 72.938128 
L 212.224287 72.774469 
L 212.951541 69.664941 
L 213.678795 67.701028 
L 214.042423 67.21005 
L 214.40605 67.046391 
L 215.133304 66.228094 
L 215.496931 66.064434 
L 215.860559 66.064434 
L 216.224186 66.228094 
L 216.587813 66.555413 
L 217.315067 63.445884 
L 217.678694 63.936862 
L 219.133203 70.155919 
L 219.49683 71.465194 
L 219.860458 72.283491 
L 220.224085 72.774469 
L 220.951339 72.774469 
L 221.678594 69.664941 
L 222.405848 67.701028 
L 222.769475 67.21005 
L 223.133102 67.21005 
L 223.496729 66.555413 
L 224.223984 66.228094 
L 224.587611 66.228094 
L 225.314865 66.555413 
L 226.04212 63.609544 
L 226.405747 64.100522 
L 227.860256 70.319578 
L 228.58751 72.44715 
L 228.951137 72.938128 
L 229.678392 72.938128 
L 230.405646 69.992259 
L 231.1329 67.864687 
L 231.496528 67.537369 
L 231.860155 67.373709 
L 232.223782 66.882731 
L 232.951036 66.555413 
L 233.314664 66.555413 
L 234.041918 66.882731 
L 234.769172 63.773203 
L 235.132799 64.427841 
L 235.860054 67.701028 
L 236.223681 69.501281 
L 236.587308 70.483237 
L 236.950935 71.792513 
L 237.314563 72.610809 
L 237.67819 73.101788 
L 238.405444 73.101788 
L 239.132699 70.155919 
L 239.859953 68.028347 
L 240.22358 67.701028 
L 240.587207 67.701028 
L 240.950834 67.046391 
L 241.678089 66.719072 
L 242.041716 66.719072 
L 242.76897 67.046391 
L 243.496225 63.936862 
L 243.859852 64.5915 
L 244.587106 67.537369 
L 244.950734 69.501281 
L 245.314361 70.483237 
L 245.677988 71.792513 
L 246.041615 72.610809 
L 246.405242 73.101788 
L 247.132497 73.101788 
L 247.496124 71.301534 
L 248.587005 68.028347 
L 248.950633 67.701028 
L 249.31426 67.701028 
L 249.677887 67.046391 
L 250.041514 67.046391 
L 250.405141 66.882731 
L 250.768769 66.882731 
L 251.496023 67.21005 
L 252.223277 64.264181 
L 252.586904 64.755159 
L 253.314159 67.701028 
L 253.677786 69.501281 
L 254.041413 70.483237 
L 254.40504 71.792513 
L 254.768668 72.610809 
L 255.132295 73.101788 
L 255.859549 73.101788 
L 256.586803 70.319578 
L 257.314058 68.192006 
L 257.677685 67.864687 
L 258.041312 67.864687 
L 258.404939 67.373709 
L 259.132194 67.046391 
L 259.495821 67.21005 
L 259.859448 67.21005 
L 260.223075 67.373709 
L 260.95033 64.427841 
L 261.313957 64.918819 
L 262.041211 67.701028 
L 262.404838 69.664941 
L 263.49572 72.610809 
L 263.859347 73.265447 
L 264.222974 73.101788 
L 264.586602 73.101788 
L 265.313856 70.319578 
L 266.04111 68.192006 
L 266.768365 67.864687 
L 267.131992 67.373709 
L 267.495619 67.373709 
L 267.859246 67.21005 
L 268.222873 67.373709 
L 268.586501 67.373709 
L 268.950128 67.701028 
L 269.677382 64.5915 
L 270.041009 65.082478 
L 270.404637 66.228094 
L 271.495518 70.646897 
L 272.222773 72.610809 
L 272.5864 73.265447 
L 272.950027 73.101788 
L 273.313654 73.101788 
L 274.040908 70.319578 
L 274.768163 68.355666 
L 275.13179 68.028347 
L 275.495417 68.028347 
L 275.859044 67.537369 
L 276.949926 67.537369 
L 277.67718 67.864687 
L 278.404435 65.082478 
L 278.768062 65.409797 
L 279.495316 68.028347 
L 279.858943 69.8286 
L 280.949825 72.774469 
L 281.313452 73.265447 
L 281.677079 73.265447 
L 282.040707 73.101788 
L 282.767961 70.483237 
L 283.495215 68.519325 
L 283.858843 68.192006 
L 284.22247 68.192006 
L 284.586097 67.701028 
L 285.676978 67.701028 
L 286.040606 68.028347 
L 286.404233 68.192006 
L 287.131487 65.246138 
L 287.495114 65.573456 
L 288.222369 68.192006 
L 288.585996 69.992259 
L 289.676878 72.774469 
L 290.040505 73.429106 
L 290.767759 73.429106 
L 291.495013 70.810556 
L 292.222268 69.010303 
L 292.585895 68.519325 
L 292.949522 68.519325 
L 293.313149 68.192006 
L 293.676777 68.028347 
L 294.040404 68.192006 
L 294.404031 68.192006 
L 295.131285 68.519325 
L 295.85854 65.737116 
L 296.222167 65.900775 
L 296.585794 66.882731 
L 296.949421 68.355666 
L 297.313048 70.319578 
L 297.676676 71.137875 
L 298.40393 73.101788 
L 298.767557 73.756425 
L 299.494812 73.756425 
L 299.858439 72.283491 
L 300.94932 69.337622 
L 301.312948 69.010303 
L 301.676575 69.010303 
L 302.040202 68.519325 
L 303.131083 68.519325 
L 303.494711 68.846644 
L 303.858338 69.010303 
L 304.585592 66.064434 
L 304.949219 66.228094 
L 305.312847 67.21005 
L 306.403728 71.301534 
L 307.130983 73.265447 
L 307.49461 74.083744 
L 307.858237 73.920084 
L 308.221864 73.920084 
L 308.585491 72.44715 
L 309.676373 69.664941 
L 310.04 69.173962 
L 310.04 69.173962 
" style="fill:none;stroke:#008000;stroke-linecap:square;"/>
   </g>
   <g id="line2d_3">
    <path clip-path="url(#p791a00d838)" d="M 39.865 180.789656 
L 310.04 180.789656 
L 310.04 180.789656 
" style="fill:none;stroke:#ff0000;stroke-linecap:square;"/>
   </g>
   <g id="patch_3">
    <path d="M 39.865 182.42625 
L 39.865 18.766875 
" style="fill:none;stroke:#000000;stroke-linecap:square;stroke-linejoin:miter;"/>
   </g>
   <g id="patch_4">
    <path d="M 39.865 182.42625 
L 310.04 182.42625 
" style="fill:none;stroke:#000000;stroke-linecap:square;stroke-linejoin:miter;"/>
   </g>
   <g id="patch_5">
    <path d="M 310.04 182.42625 
L 310.04 18.766875 
" style="fill:none;stroke:#000000;stroke-linecap:square;stroke-linejoin:miter;"/>
   </g>
   <g id="patch_6">
    <path d="M 39.865 18.766875 
L 310.04 18.766875 
" style="fill:none;stroke:#000000;stroke-linecap:square;stroke-linejoin:miter;"/>
   </g>
   <g id="matplotlib.axis_1">
    <g id="xtick_1">
     <g id="line2d_4">
      <defs>
       <path d="M 0 0 
L 0 -4 
" id="m455fc2b2ca" style="stroke:#000000;stroke-width:0.5;"/>
      </defs>
      <g>
       <use style="stroke:#000000;stroke-width:0.5;" x="39.865" xlink:href="#m455fc2b2ca" y="182.42625"/>
      </g>
     </g>
     <g id="line2d_5">
      <defs>
       <path d="M 0 0 
L 0 4 
" id="m9ab64dc253" style="stroke:#000000;stroke-width:0.5;"/>
      </defs>
      <g>
       <use style="stroke:#000000;stroke-width:0.5;" x="39.865" xlink:href="#m9ab64dc253" y="18.766875"/>
      </g>
     </g>
     <g id="text_1">
      <!-- 0 -->
      <defs>
       <path d="M 31.78125 66.40625 
Q 24.171875 66.40625 20.328125 58.90625 
Q 16.5 51.421875 16.5 36.375 
Q 16.5 21.390625 20.328125 13.890625 
Q 24.171875 6.390625 31.78125 6.390625 
Q 39.453125 6.390625 43.28125 13.890625 
Q 47.125 21.390625 47.125 36.375 
Q 47.125 51.421875 43.28125 58.90625 
Q 39.453125 66.40625 31.78125 66.40625 
M 31.78125 74.21875 
Q 44.046875 74.21875 50.515625 64.515625 
Q 56.984375 54.828125 56.984375 36.375 
Q 56.984375 17.96875 50.515625 8.265625 
Q 44.046875 -1.421875 31.78125 -1.421875 
Q 19.53125 -1.421875 13.0625 8.265625 
Q 6.59375 17.96875 6.59375 36.375 
Q 6.59375 54.828125 13.0625 64.515625 
Q 19.53125 74.21875 31.78125 74.21875 
" id="BitstreamVeraSans-Roman-30"/>
      </defs>
      <g transform="translate(36.0475 195.544375)scale(0.12 -0.12)">
       <use xlink:href="#BitstreamVeraSans-Roman-30"/>
      </g>
     </g>
    </g>
    <g id="xtick_2">
     <g id="line2d_6">
      <g>
       <use style="stroke:#000000;stroke-width:0.5;" x="76.2277187079" xlink:href="#m455fc2b2ca" y="182.42625"/>
      </g>
     </g>
     <g id="line2d_7">
      <g>
       <use style="stroke:#000000;stroke-width:0.5;" x="76.2277187079" xlink:href="#m9ab64dc253" y="18.766875"/>
      </g>
     </g>
     <g id="text_2">
      <!-- 100 -->
      <defs>
       <path d="M 12.40625 8.296875 
L 28.515625 8.296875 
L 28.515625 63.921875 
L 10.984375 60.40625 
L 10.984375 69.390625 
L 28.421875 72.90625 
L 38.28125 72.90625 
L 38.28125 8.296875 
L 54.390625 8.296875 
L 54.390625 0 
L 12.40625 0 
z
" id="BitstreamVeraSans-Roman-31"/>
      </defs>
      <g transform="translate(64.7752187079 195.544375)scale(0.12 -0.12)">
       <use xlink:href="#BitstreamVeraSans-Roman-31"/>
       <use x="63.623046875" xlink:href="#BitstreamVeraSans-Roman-30"/>
       <use x="127.24609375" xlink:href="#BitstreamVeraSans-Roman-30"/>
      </g>
     </g>
    </g>
    <g id="xtick_3">
     <g id="line2d_8">
      <g>
       <use style="stroke:#000000;stroke-width:0.5;" x="112.590437416" xlink:href="#m455fc2b2ca" y="182.42625"/>
      </g>
     </g>
     <g id="line2d_9">
      <g>
       <use style="stroke:#000000;stroke-width:0.5;" x="112.590437416" xlink:href="#m9ab64dc253" y="18.766875"/>
      </g>
     </g>
     <g id="text_3">
      <!-- 200 -->
      <defs>
       <path d="M 19.1875 8.296875 
L 53.609375 8.296875 
L 53.609375 0 
L 7.328125 0 
L 7.328125 8.296875 
Q 12.9375 14.109375 22.625 23.890625 
Q 32.328125 33.6875 34.8125 36.53125 
Q 39.546875 41.84375 41.421875 45.53125 
Q 43.3125 49.21875 43.3125 52.78125 
Q 43.3125 58.59375 39.234375 62.25 
Q 35.15625 65.921875 28.609375 65.921875 
Q 23.96875 65.921875 18.8125 64.3125 
Q 13.671875 62.703125 7.8125 59.421875 
L 7.8125 69.390625 
Q 13.765625 71.78125 18.9375 73 
Q 24.125 74.21875 28.421875 74.21875 
Q 39.75 74.21875 46.484375 68.546875 
Q 53.21875 62.890625 53.21875 53.421875 
Q 53.21875 48.921875 51.53125 44.890625 
Q 49.859375 40.875 45.40625 35.40625 
Q 44.1875 33.984375 37.640625 27.21875 
Q 31.109375 20.453125 19.1875 8.296875 
" id="BitstreamVeraSans-Roman-32"/>
      </defs>
      <g transform="translate(101.137937416 195.544375)scale(0.12 -0.12)">
       <use xlink:href="#BitstreamVeraSans-Roman-32"/>
       <use x="63.623046875" xlink:href="#BitstreamVeraSans-Roman-30"/>
       <use x="127.24609375" xlink:href="#BitstreamVeraSans-Roman-30"/>
      </g>
     </g>
    </g>
    <g id="xtick_4">
     <g id="line2d_10">
      <g>
       <use style="stroke:#000000;stroke-width:0.5;" x="148.953156124" xlink:href="#m455fc2b2ca" y="182.42625"/>
      </g>
     </g>
     <g id="line2d_11">
      <g>
       <use style="stroke:#000000;stroke-width:0.5;" x="148.953156124" xlink:href="#m9ab64dc253" y="18.766875"/>
      </g>
     </g>
     <g id="text_4">
      <!-- 300 -->
      <defs>
       <path d="M 40.578125 39.3125 
Q 47.65625 37.796875 51.625 33 
Q 55.609375 28.21875 55.609375 21.1875 
Q 55.609375 10.40625 48.1875 4.484375 
Q 40.765625 -1.421875 27.09375 -1.421875 
Q 22.515625 -1.421875 17.65625 -0.515625 
Q 12.796875 0.390625 7.625 2.203125 
L 7.625 11.71875 
Q 11.71875 9.328125 16.59375 8.109375 
Q 21.484375 6.890625 26.8125 6.890625 
Q 36.078125 6.890625 40.9375 10.546875 
Q 45.796875 14.203125 45.796875 21.1875 
Q 45.796875 27.640625 41.28125 31.265625 
Q 36.765625 34.90625 28.71875 34.90625 
L 20.21875 34.90625 
L 20.21875 43.015625 
L 29.109375 43.015625 
Q 36.375 43.015625 40.234375 45.921875 
Q 44.09375 48.828125 44.09375 54.296875 
Q 44.09375 59.90625 40.109375 62.90625 
Q 36.140625 65.921875 28.71875 65.921875 
Q 24.65625 65.921875 20.015625 65.03125 
Q 15.375 64.15625 9.8125 62.3125 
L 9.8125 71.09375 
Q 15.4375 72.65625 20.34375 73.4375 
Q 25.25 74.21875 29.59375 74.21875 
Q 40.828125 74.21875 47.359375 69.109375 
Q 53.90625 64.015625 53.90625 55.328125 
Q 53.90625 49.265625 50.4375 45.09375 
Q 46.96875 40.921875 40.578125 39.3125 
" id="BitstreamVeraSans-Roman-33"/>
      </defs>
      <g transform="translate(137.500656124 195.544375)scale(0.12 -0.12)">
       <use xlink:href="#BitstreamVeraSans-Roman-33"/>
       <use x="63.623046875" xlink:href="#BitstreamVeraSans-Roman-30"/>
       <use x="127.24609375" xlink:href="#BitstreamVeraSans-Roman-30"/>
      </g>
     </g>
    </g>
    <g id="xtick_5">
     <g id="line2d_12">
      <g>
       <use style="stroke:#000000;stroke-width:0.5;" x="185.315874832" xlink:href="#m455fc2b2ca" y="182.42625"/>
      </g>
     </g>
     <g id="line2d_13">
      <g>
       <use style="stroke:#000000;stroke-width:0.5;" x="185.315874832" xlink:href="#m9ab64dc253" y="18.766875"/>
      </g>
     </g>
     <g id="text_5">
      <!-- 400 -->
      <defs>
       <path d="M 37.796875 64.3125 
L 12.890625 25.390625 
L 37.796875 25.390625 
z
M 35.203125 72.90625 
L 47.609375 72.90625 
L 47.609375 25.390625 
L 58.015625 25.390625 
L 58.015625 17.1875 
L 47.609375 17.1875 
L 47.609375 0 
L 37.796875 0 
L 37.796875 17.1875 
L 4.890625 17.1875 
L 4.890625 26.703125 
z
" id="BitstreamVeraSans-Roman-34"/>
      </defs>
      <g transform="translate(173.863374832 195.544375)scale(0.12 -0.12)">
       <use xlink:href="#BitstreamVeraSans-Roman-34"/>
       <use x="63.623046875" xlink:href="#BitstreamVeraSans-Roman-30"/>
       <use x="127.24609375" xlink:href="#BitstreamVeraSans-Roman-30"/>
      </g>
     </g>
    </g>
    <g id="xtick_6">
     <g id="line2d_14">
      <g>
       <use style="stroke:#000000;stroke-width:0.5;" x="221.67859354" xlink:href="#m455fc2b2ca" y="182.42625"/>
      </g>
     </g>
     <g id="line2d_15">
      <g>
       <use style="stroke:#000000;stroke-width:0.5;" x="221.67859354" xlink:href="#m9ab64dc253" y="18.766875"/>
      </g>
     </g>
     <g id="text_6">
      <!-- 500 -->
      <defs>
       <path d="M 10.796875 72.90625 
L 49.515625 72.90625 
L 49.515625 64.59375 
L 19.828125 64.59375 
L 19.828125 46.734375 
Q 21.96875 47.46875 24.109375 47.828125 
Q 26.265625 48.1875 28.421875 48.1875 
Q 40.625 48.1875 47.75 41.5 
Q 54.890625 34.8125 54.890625 23.390625 
Q 54.890625 11.625 47.5625 5.09375 
Q 40.234375 -1.421875 26.90625 -1.421875 
Q 22.3125 -1.421875 17.546875 -0.640625 
Q 12.796875 0.140625 7.71875 1.703125 
L 7.71875 11.625 
Q 12.109375 9.234375 16.796875 8.0625 
Q 21.484375 6.890625 26.703125 6.890625 
Q 35.15625 6.890625 40.078125 11.328125 
Q 45.015625 15.765625 45.015625 23.390625 
Q 45.015625 31 40.078125 35.4375 
Q 35.15625 39.890625 26.703125 39.890625 
Q 22.75 39.890625 18.8125 39.015625 
Q 14.890625 38.140625 10.796875 36.28125 
z
" id="BitstreamVeraSans-Roman-35"/>
      </defs>
      <g transform="translate(210.22609354 195.544375)scale(0.12 -0.12)">
       <use xlink:href="#BitstreamVeraSans-Roman-35"/>
       <use x="63.623046875" xlink:href="#BitstreamVeraSans-Roman-30"/>
       <use x="127.24609375" xlink:href="#BitstreamVeraSans-Roman-30"/>
      </g>
     </g>
    </g>
    <g id="xtick_7">
     <g id="line2d_16">
      <g>
       <use style="stroke:#000000;stroke-width:0.5;" x="258.041312248" xlink:href="#m455fc2b2ca" y="182.42625"/>
      </g>
     </g>
     <g id="line2d_17">
      <g>
       <use style="stroke:#000000;stroke-width:0.5;" x="258.041312248" xlink:href="#m9ab64dc253" y="18.766875"/>
      </g>
     </g>
     <g id="text_7">
      <!-- 600 -->
      <defs>
       <path d="M 33.015625 40.375 
Q 26.375 40.375 22.484375 35.828125 
Q 18.609375 31.296875 18.609375 23.390625 
Q 18.609375 15.53125 22.484375 10.953125 
Q 26.375 6.390625 33.015625 6.390625 
Q 39.65625 6.390625 43.53125 10.953125 
Q 47.40625 15.53125 47.40625 23.390625 
Q 47.40625 31.296875 43.53125 35.828125 
Q 39.65625 40.375 33.015625 40.375 
M 52.59375 71.296875 
L 52.59375 62.3125 
Q 48.875 64.0625 45.09375 64.984375 
Q 41.3125 65.921875 37.59375 65.921875 
Q 27.828125 65.921875 22.671875 59.328125 
Q 17.53125 52.734375 16.796875 39.40625 
Q 19.671875 43.65625 24.015625 45.921875 
Q 28.375 48.1875 33.59375 48.1875 
Q 44.578125 48.1875 50.953125 41.515625 
Q 57.328125 34.859375 57.328125 23.390625 
Q 57.328125 12.15625 50.6875 5.359375 
Q 44.046875 -1.421875 33.015625 -1.421875 
Q 20.359375 -1.421875 13.671875 8.265625 
Q 6.984375 17.96875 6.984375 36.375 
Q 6.984375 53.65625 15.1875 63.9375 
Q 23.390625 74.21875 37.203125 74.21875 
Q 40.921875 74.21875 44.703125 73.484375 
Q 48.484375 72.75 52.59375 71.296875 
" id="BitstreamVeraSans-Roman-36"/>
      </defs>
      <g transform="translate(246.588812248 195.544375)scale(0.12 -0.12)">
       <use xlink:href="#BitstreamVeraSans-Roman-36"/>
       <use x="63.623046875" xlink:href="#BitstreamVeraSans-Roman-30"/>
       <use x="127.24609375" xlink:href="#BitstreamVeraSans-Roman-30"/>
      </g>
     </g>
    </g>
    <g id="xtick_8">
     <g id="line2d_18">
      <g>
       <use style="stroke:#000000;stroke-width:0.5;" x="294.404030956" xlink:href="#m455fc2b2ca" y="182.42625"/>
      </g>
     </g>
     <g id="line2d_19">
      <g>
       <use style="stroke:#000000;stroke-width:0.5;" x="294.404030956" xlink:href="#m9ab64dc253" y="18.766875"/>
      </g>
     </g>
     <g id="text_8">
      <!-- 700 -->
      <defs>
       <path d="M 8.203125 72.90625 
L 55.078125 72.90625 
L 55.078125 68.703125 
L 28.609375 0 
L 18.3125 0 
L 43.21875 64.59375 
L 8.203125 64.59375 
z
" id="BitstreamVeraSans-Roman-37"/>
      </defs>
      <g transform="translate(282.951530956 195.544375)scale(0.12 -0.12)">
       <use xlink:href="#BitstreamVeraSans-Roman-37"/>
       <use x="63.623046875" xlink:href="#BitstreamVeraSans-Roman-30"/>
       <use x="127.24609375" xlink:href="#BitstreamVeraSans-Roman-30"/>
      </g>
     </g>
    </g>
   </g>
   <g id="matplotlib.axis_2">
    <g id="ytick_1">
     <g id="line2d_20">
      <defs>
       <path d="M 0 0 
L 4 0 
" id="m5bb9023e5e" style="stroke:#000000;stroke-width:0.5;"/>
      </defs>
      <g>
       <use style="stroke:#000000;stroke-width:0.5;" x="39.865" xlink:href="#m5bb9023e5e" y="182.42625"/>
      </g>
     </g>
     <g id="line2d_21">
      <defs>
       <path d="M 0 0 
L -4 0 
" id="mbee254b230" style="stroke:#000000;stroke-width:0.5;"/>
      </defs>
      <g>
       <use style="stroke:#000000;stroke-width:0.5;" x="310.04" xlink:href="#mbee254b230" y="182.42625"/>
      </g>
     </g>
     <g id="text_9">
      <!-- 0 -->
      <g transform="translate(28.23 185.7375)scale(0.12 -0.12)">
       <use xlink:href="#BitstreamVeraSans-Roman-30"/>
      </g>
     </g>
    </g>
    <g id="ytick_2">
     <g id="line2d_22">
      <g>
       <use style="stroke:#000000;stroke-width:0.5;" x="39.865" xlink:href="#m5bb9023e5e" y="149.694375"/>
      </g>
     </g>
     <g id="line2d_23">
      <g>
       <use style="stroke:#000000;stroke-width:0.5;" x="310.04" xlink:href="#mbee254b230" y="149.694375"/>
      </g>
     </g>
     <g id="text_10">
      <!-- 20 -->
      <g transform="translate(20.595 153.005625)scale(0.12 -0.12)">
       <use xlink:href="#BitstreamVeraSans-Roman-32"/>
       <use x="63.623046875" xlink:href="#BitstreamVeraSans-Roman-30"/>
      </g>
     </g>
    </g>
    <g id="ytick_3">
     <g id="line2d_24">
      <g>
       <use style="stroke:#000000;stroke-width:0.5;" x="39.865" xlink:href="#m5bb9023e5e" y="116.9625"/>
      </g>
     </g>
     <g id="line2d_25">
      <g>
       <use style="stroke:#000000;stroke-width:0.5;" x="310.04" xlink:href="#mbee254b230" y="116.9625"/>
      </g>
     </g>
     <g id="text_11">
      <!-- 40 -->
      <g transform="translate(20.595 120.27375)scale(0.12 -0.12)">
       <use xlink:href="#BitstreamVeraSans-Roman-34"/>
       <use x="63.623046875" xlink:href="#BitstreamVeraSans-Roman-30"/>
      </g>
     </g>
    </g>
    <g id="ytick_4">
     <g id="line2d_26">
      <g>
       <use style="stroke:#000000;stroke-width:0.5;" x="39.865" xlink:href="#m5bb9023e5e" y="84.230625"/>
      </g>
     </g>
     <g id="line2d_27">
      <g>
       <use style="stroke:#000000;stroke-width:0.5;" x="310.04" xlink:href="#mbee254b230" y="84.230625"/>
      </g>
     </g>
     <g id="text_12">
      <!-- 60 -->
      <g transform="translate(20.595 87.541875)scale(0.12 -0.12)">
       <use xlink:href="#BitstreamVeraSans-Roman-36"/>
       <use x="63.623046875" xlink:href="#BitstreamVeraSans-Roman-30"/>
      </g>
     </g>
    </g>
    <g id="ytick_5">
     <g id="line2d_28">
      <g>
       <use style="stroke:#000000;stroke-width:0.5;" x="39.865" xlink:href="#m5bb9023e5e" y="51.49875"/>
      </g>
     </g>
     <g id="line2d_29">
      <g>
       <use style="stroke:#000000;stroke-width:0.5;" x="310.04" xlink:href="#mbee254b230" y="51.49875"/>
      </g>
     </g>
     <g id="text_13">
      <!-- 80 -->
      <defs>
       <path d="M 31.78125 34.625 
Q 24.75 34.625 20.71875 30.859375 
Q 16.703125 27.09375 16.703125 20.515625 
Q 16.703125 13.921875 20.71875 10.15625 
Q 24.75 6.390625 31.78125 6.390625 
Q 38.8125 6.390625 42.859375 10.171875 
Q 46.921875 13.96875 46.921875 20.515625 
Q 46.921875 27.09375 42.890625 30.859375 
Q 38.875 34.625 31.78125 34.625 
M 21.921875 38.8125 
Q 15.578125 40.375 12.03125 44.71875 
Q 8.5 49.078125 8.5 55.328125 
Q 8.5 64.0625 14.71875 69.140625 
Q 20.953125 74.21875 31.78125 74.21875 
Q 42.671875 74.21875 48.875 69.140625 
Q 55.078125 64.0625 55.078125 55.328125 
Q 55.078125 49.078125 51.53125 44.71875 
Q 48 40.375 41.703125 38.8125 
Q 48.828125 37.15625 52.796875 32.3125 
Q 56.78125 27.484375 56.78125 20.515625 
Q 56.78125 9.90625 50.3125 4.234375 
Q 43.84375 -1.421875 31.78125 -1.421875 
Q 19.734375 -1.421875 13.25 4.234375 
Q 6.78125 9.90625 6.78125 20.515625 
Q 6.78125 27.484375 10.78125 32.3125 
Q 14.796875 37.15625 21.921875 38.8125 
M 18.3125 54.390625 
Q 18.3125 48.734375 21.84375 45.5625 
Q 25.390625 42.390625 31.78125 42.390625 
Q 38.140625 42.390625 41.71875 45.5625 
Q 45.3125 48.734375 45.3125 54.390625 
Q 45.3125 60.0625 41.71875 63.234375 
Q 38.140625 66.40625 31.78125 66.40625 
Q 25.390625 66.40625 21.84375 63.234375 
Q 18.3125 60.0625 18.3125 54.390625 
" id="BitstreamVeraSans-Roman-38"/>
      </defs>
      <g transform="translate(20.595 54.81)scale(0.12 -0.12)">
       <use xlink:href="#BitstreamVeraSans-Roman-38"/>
       <use x="63.623046875" xlink:href="#BitstreamVeraSans-Roman-30"/>
      </g>
     </g>
    </g>
    <g id="ytick_6">
     <g id="line2d_30">
      <g>
       <use style="stroke:#000000;stroke-width:0.5;" x="39.865" xlink:href="#m5bb9023e5e" y="18.766875"/>
      </g>
     </g>
     <g id="line2d_31">
      <g>
       <use style="stroke:#000000;stroke-width:0.5;" x="310.04" xlink:href="#mbee254b230" y="18.766875"/>
      </g>
     </g>
     <g id="text_14">
      <!-- 100 -->
      <g transform="translate(12.96 22.078125)scale(0.12 -0.12)">
       <use xlink:href="#BitstreamVeraSans-Roman-31"/>
       <use x="63.623046875" xlink:href="#BitstreamVeraSans-Roman-30"/>
       <use x="127.24609375" xlink:href="#BitstreamVeraSans-Roman-30"/>
      </g>
     </g>
    </g>
   </g>
   <g id="legend_1">
    <g id="patch_7">
     <path d="M 47.065 175.22625 
L 248.65825 175.22625 
L 248.65825 107.49675 
L 47.065 107.49675 
z
" style="fill:#ffffff;stroke:#000000;stroke-linejoin:miter;"/>
    </g>
    <g id="line2d_32">
     <path d="M 57.145 119.1585 
L 77.305 119.1585 
" style="fill:none;stroke:#0000ff;stroke-linecap:square;"/>
    </g>
    <g id="line2d_33"/>
    <g id="text_15">
     <!-- Temperature (deg F) -->
     <defs>
      <path d="M 56.203125 29.59375 
L 56.203125 25.203125 
L 14.890625 25.203125 
Q 15.484375 15.921875 20.484375 11.0625 
Q 25.484375 6.203125 34.421875 6.203125 
Q 39.59375 6.203125 44.453125 7.46875 
Q 49.3125 8.734375 54.109375 11.28125 
L 54.109375 2.78125 
Q 49.265625 0.734375 44.1875 -0.34375 
Q 39.109375 -1.421875 33.890625 -1.421875 
Q 20.796875 -1.421875 13.15625 6.1875 
Q 5.515625 13.8125 5.515625 26.8125 
Q 5.515625 40.234375 12.765625 48.109375 
Q 20.015625 56 32.328125 56 
Q 43.359375 56 49.78125 48.890625 
Q 56.203125 41.796875 56.203125 29.59375 
M 47.21875 32.234375 
Q 47.125 39.59375 43.09375 43.984375 
Q 39.0625 48.390625 32.421875 48.390625 
Q 24.90625 48.390625 20.390625 44.140625 
Q 15.875 39.890625 15.1875 32.171875 
z
" id="BitstreamVeraSans-Roman-65"/>
      <path d="M 8.5 21.578125 
L 8.5 54.6875 
L 17.484375 54.6875 
L 17.484375 21.921875 
Q 17.484375 14.15625 20.5 10.265625 
Q 23.53125 6.390625 29.59375 6.390625 
Q 36.859375 6.390625 41.078125 11.03125 
Q 45.3125 15.671875 45.3125 23.6875 
L 45.3125 54.6875 
L 54.296875 54.6875 
L 54.296875 0 
L 45.3125 0 
L 45.3125 8.40625 
Q 42.046875 3.421875 37.71875 1 
Q 33.40625 -1.421875 27.6875 -1.421875 
Q 18.265625 -1.421875 13.375 4.4375 
Q 8.5 10.296875 8.5 21.578125 
" id="BitstreamVeraSans-Roman-75"/>
      <path d="M 52 44.1875 
Q 55.375 50.25 60.0625 53.125 
Q 64.75 56 71.09375 56 
Q 79.640625 56 84.28125 50.015625 
Q 88.921875 44.046875 88.921875 33.015625 
L 88.921875 0 
L 79.890625 0 
L 79.890625 32.71875 
Q 79.890625 40.578125 77.09375 44.375 
Q 74.3125 48.1875 68.609375 48.1875 
Q 61.625 48.1875 57.5625 43.546875 
Q 53.515625 38.921875 53.515625 30.90625 
L 53.515625 0 
L 44.484375 0 
L 44.484375 32.71875 
Q 44.484375 40.625 41.703125 44.40625 
Q 38.921875 48.1875 33.109375 48.1875 
Q 26.21875 48.1875 22.15625 43.53125 
Q 18.109375 38.875 18.109375 30.90625 
L 18.109375 0 
L 9.078125 0 
L 9.078125 54.6875 
L 18.109375 54.6875 
L 18.109375 46.1875 
Q 21.1875 51.21875 25.484375 53.609375 
Q 29.78125 56 35.6875 56 
Q 41.65625 56 45.828125 52.96875 
Q 50 49.953125 52 44.1875 
" id="BitstreamVeraSans-Roman-6d"/>
      <path d="M -0.296875 72.90625 
L 61.375 72.90625 
L 61.375 64.59375 
L 35.5 64.59375 
L 35.5 0 
L 25.59375 0 
L 25.59375 64.59375 
L -0.296875 64.59375 
z
" id="BitstreamVeraSans-Roman-54"/>
      <path d="M 41.109375 46.296875 
Q 39.59375 47.171875 37.8125 47.578125 
Q 36.03125 48 33.890625 48 
Q 26.265625 48 22.1875 43.046875 
Q 18.109375 38.09375 18.109375 28.8125 
L 18.109375 0 
L 9.078125 0 
L 9.078125 54.6875 
L 18.109375 54.6875 
L 18.109375 46.1875 
Q 20.953125 51.171875 25.484375 53.578125 
Q 30.03125 56 36.53125 56 
Q 37.453125 56 38.578125 55.875 
Q 39.703125 55.765625 41.0625 55.515625 
z
" id="BitstreamVeraSans-Roman-72"/>
      <path d="M 9.8125 72.90625 
L 51.703125 72.90625 
L 51.703125 64.59375 
L 19.671875 64.59375 
L 19.671875 43.109375 
L 48.578125 43.109375 
L 48.578125 34.8125 
L 19.671875 34.8125 
L 19.671875 0 
L 9.8125 0 
z
" id="BitstreamVeraSans-Roman-46"/>
      <path d="M 45.40625 46.390625 
L 45.40625 75.984375 
L 54.390625 75.984375 
L 54.390625 0 
L 45.40625 0 
L 45.40625 8.203125 
Q 42.578125 3.328125 38.25 0.953125 
Q 33.9375 -1.421875 27.875 -1.421875 
Q 17.96875 -1.421875 11.734375 6.484375 
Q 5.515625 14.40625 5.515625 27.296875 
Q 5.515625 40.1875 11.734375 48.09375 
Q 17.96875 56 27.875 56 
Q 33.9375 56 38.25 53.625 
Q 42.578125 51.265625 45.40625 46.390625 
M 14.796875 27.296875 
Q 14.796875 17.390625 18.875 11.75 
Q 22.953125 6.109375 30.078125 6.109375 
Q 37.203125 6.109375 41.296875 11.75 
Q 45.40625 17.390625 45.40625 27.296875 
Q 45.40625 37.203125 41.296875 42.84375 
Q 37.203125 48.484375 30.078125 48.484375 
Q 22.953125 48.484375 18.875 42.84375 
Q 14.796875 37.203125 14.796875 27.296875 
" id="BitstreamVeraSans-Roman-64"/>
      <path d="M 18.109375 8.203125 
L 18.109375 -20.796875 
L 9.078125 -20.796875 
L 9.078125 54.6875 
L 18.109375 54.6875 
L 18.109375 46.390625 
Q 20.953125 51.265625 25.265625 53.625 
Q 29.59375 56 35.59375 56 
Q 45.5625 56 51.78125 48.09375 
Q 58.015625 40.1875 58.015625 27.296875 
Q 58.015625 14.40625 51.78125 6.484375 
Q 45.5625 -1.421875 35.59375 -1.421875 
Q 29.59375 -1.421875 25.265625 0.953125 
Q 20.953125 3.328125 18.109375 8.203125 
M 48.6875 27.296875 
Q 48.6875 37.203125 44.609375 42.84375 
Q 40.53125 48.484375 33.40625 48.484375 
Q 26.265625 48.484375 22.1875 42.84375 
Q 18.109375 37.203125 18.109375 27.296875 
Q 18.109375 17.390625 22.1875 11.75 
Q 26.265625 6.109375 33.40625 6.109375 
Q 40.53125 6.109375 44.609375 11.75 
Q 48.6875 17.390625 48.6875 27.296875 
" id="BitstreamVeraSans-Roman-70"/>
      <path d="M 8.015625 75.875 
L 15.828125 75.875 
Q 23.140625 64.359375 26.78125 53.3125 
Q 30.421875 42.28125 30.421875 31.390625 
Q 30.421875 20.453125 26.78125 9.375 
Q 23.140625 -1.703125 15.828125 -13.1875 
L 8.015625 -13.1875 
Q 14.5 -2 17.703125 9.0625 
Q 20.90625 20.125 20.90625 31.390625 
Q 20.90625 42.671875 17.703125 53.65625 
Q 14.5 64.65625 8.015625 75.875 
" id="BitstreamVeraSans-Roman-29"/>
      <path d="M 18.3125 70.21875 
L 18.3125 54.6875 
L 36.8125 54.6875 
L 36.8125 47.703125 
L 18.3125 47.703125 
L 18.3125 18.015625 
Q 18.3125 11.328125 20.140625 9.421875 
Q 21.96875 7.515625 27.59375 7.515625 
L 36.8125 7.515625 
L 36.8125 0 
L 27.59375 0 
Q 17.1875 0 13.234375 3.875 
Q 9.28125 7.765625 9.28125 18.015625 
L 9.28125 47.703125 
L 2.6875 47.703125 
L 2.6875 54.6875 
L 9.28125 54.6875 
L 9.28125 70.21875 
z
" id="BitstreamVeraSans-Roman-74"/>
      <path d="M 45.40625 27.984375 
Q 45.40625 37.75 41.375 43.109375 
Q 37.359375 48.484375 30.078125 48.484375 
Q 22.859375 48.484375 18.828125 43.109375 
Q 14.796875 37.75 14.796875 27.984375 
Q 14.796875 18.265625 18.828125 12.890625 
Q 22.859375 7.515625 30.078125 7.515625 
Q 37.359375 7.515625 41.375 12.890625 
Q 45.40625 18.265625 45.40625 27.984375 
M 54.390625 6.78125 
Q 54.390625 -7.171875 48.1875 -13.984375 
Q 42 -20.796875 29.203125 -20.796875 
Q 24.46875 -20.796875 20.265625 -20.09375 
Q 16.0625 -19.390625 12.109375 -17.921875 
L 12.109375 -9.1875 
Q 16.0625 -11.328125 19.921875 -12.34375 
Q 23.78125 -13.375 27.78125 -13.375 
Q 36.625 -13.375 41.015625 -8.765625 
Q 45.40625 -4.15625 45.40625 5.171875 
L 45.40625 9.625 
Q 42.625 4.78125 38.28125 2.390625 
Q 33.9375 0 27.875 0 
Q 17.828125 0 11.671875 7.65625 
Q 5.515625 15.328125 5.515625 27.984375 
Q 5.515625 40.671875 11.671875 48.328125 
Q 17.828125 56 27.875 56 
Q 33.9375 56 38.28125 53.609375 
Q 42.625 51.21875 45.40625 46.390625 
L 45.40625 54.6875 
L 54.390625 54.6875 
z
" id="BitstreamVeraSans-Roman-67"/>
      <path id="BitstreamVeraSans-Roman-20"/>
      <path d="M 34.28125 27.484375 
Q 23.390625 27.484375 19.1875 25 
Q 14.984375 22.515625 14.984375 16.5 
Q 14.984375 11.71875 18.140625 8.90625 
Q 21.296875 6.109375 26.703125 6.109375 
Q 34.1875 6.109375 38.703125 11.40625 
Q 43.21875 16.703125 43.21875 25.484375 
L 43.21875 27.484375 
z
M 52.203125 31.203125 
L 52.203125 0 
L 43.21875 0 
L 43.21875 8.296875 
Q 40.140625 3.328125 35.546875 0.953125 
Q 30.953125 -1.421875 24.3125 -1.421875 
Q 15.921875 -1.421875 10.953125 3.296875 
Q 6 8.015625 6 15.921875 
Q 6 25.140625 12.171875 29.828125 
Q 18.359375 34.515625 30.609375 34.515625 
L 43.21875 34.515625 
L 43.21875 35.40625 
Q 43.21875 41.609375 39.140625 45 
Q 35.0625 48.390625 27.6875 48.390625 
Q 23 48.390625 18.546875 47.265625 
Q 14.109375 46.140625 10.015625 43.890625 
L 10.015625 52.203125 
Q 14.9375 54.109375 19.578125 55.046875 
Q 24.21875 56 28.609375 56 
Q 40.484375 56 46.34375 49.84375 
Q 52.203125 43.703125 52.203125 31.203125 
" id="BitstreamVeraSans-Roman-61"/>
      <path d="M 31 75.875 
Q 24.46875 64.65625 21.28125 53.65625 
Q 18.109375 42.671875 18.109375 31.390625 
Q 18.109375 20.125 21.3125 9.0625 
Q 24.515625 -2 31 -13.1875 
L 23.1875 -13.1875 
Q 15.875 -1.703125 12.234375 9.375 
Q 8.59375 20.453125 8.59375 31.390625 
Q 8.59375 42.28125 12.203125 53.3125 
Q 15.828125 64.359375 23.1875 75.875 
z
" id="BitstreamVeraSans-Roman-28"/>
     </defs>
     <g transform="translate(93.145 124.1985)scale(0.144 -0.144)">
      <use xlink:href="#BitstreamVeraSans-Roman-54"/>
      <use x="60.818359375" xlink:href="#BitstreamVeraSans-Roman-65"/>
      <use x="122.341796875" xlink:href="#BitstreamVeraSans-Roman-6d"/>
      <use x="219.75390625" xlink:href="#BitstreamVeraSans-Roman-70"/>
      <use x="283.23046875" xlink:href="#BitstreamVeraSans-Roman-65"/>
      <use x="344.75390625" xlink:href="#BitstreamVeraSans-Roman-72"/>
      <use x="385.8671875" xlink:href="#BitstreamVeraSans-Roman-61"/>
      <use x="447.146484375" xlink:href="#BitstreamVeraSans-Roman-74"/>
      <use x="486.35546875" xlink:href="#BitstreamVeraSans-Roman-75"/>
      <use x="549.734375" xlink:href="#BitstreamVeraSans-Roman-72"/>
      <use x="590.81640625" xlink:href="#BitstreamVeraSans-Roman-65"/>
      <use x="652.33984375" xlink:href="#BitstreamVeraSans-Roman-20"/>
      <use x="684.126953125" xlink:href="#BitstreamVeraSans-Roman-28"/>
      <use x="723.140625" xlink:href="#BitstreamVeraSans-Roman-64"/>
      <use x="786.6171875" xlink:href="#BitstreamVeraSans-Roman-65"/>
      <use x="848.140625" xlink:href="#BitstreamVeraSans-Roman-67"/>
      <use x="911.6171875" xlink:href="#BitstreamVeraSans-Roman-20"/>
      <use x="943.404296875" xlink:href="#BitstreamVeraSans-Roman-46"/>
      <use x="1000.923828125" xlink:href="#BitstreamVeraSans-Roman-29"/>
     </g>
    </g>
    <g id="line2d_34">
     <path d="M 57.145 140.295 
L 77.305 140.295 
" style="fill:none;stroke:#008000;stroke-linecap:square;"/>
    </g>
    <g id="line2d_35"/>
    <g id="text_16">
     <!-- Dew Point (deg F) -->
     <defs>
      <path d="M 4.203125 54.6875 
L 13.1875 54.6875 
L 24.421875 12.015625 
L 35.59375 54.6875 
L 46.1875 54.6875 
L 57.421875 12.015625 
L 68.609375 54.6875 
L 77.59375 54.6875 
L 63.28125 0 
L 52.6875 0 
L 40.921875 44.828125 
L 29.109375 0 
L 18.5 0 
z
" id="BitstreamVeraSans-Roman-77"/>
      <path d="M 9.421875 54.6875 
L 18.40625 54.6875 
L 18.40625 0 
L 9.421875 0 
z
M 9.421875 75.984375 
L 18.40625 75.984375 
L 18.40625 64.59375 
L 9.421875 64.59375 
z
" id="BitstreamVeraSans-Roman-69"/>
      <path d="M 30.609375 48.390625 
Q 23.390625 48.390625 19.1875 42.75 
Q 14.984375 37.109375 14.984375 27.296875 
Q 14.984375 17.484375 19.15625 11.84375 
Q 23.34375 6.203125 30.609375 6.203125 
Q 37.796875 6.203125 41.984375 11.859375 
Q 46.1875 17.53125 46.1875 27.296875 
Q 46.1875 37.015625 41.984375 42.703125 
Q 37.796875 48.390625 30.609375 48.390625 
M 30.609375 56 
Q 42.328125 56 49.015625 48.375 
Q 55.71875 40.765625 55.71875 27.296875 
Q 55.71875 13.875 49.015625 6.21875 
Q 42.328125 -1.421875 30.609375 -1.421875 
Q 18.84375 -1.421875 12.171875 6.21875 
Q 5.515625 13.875 5.515625 27.296875 
Q 5.515625 40.765625 12.171875 48.375 
Q 18.84375 56 30.609375 56 
" id="BitstreamVeraSans-Roman-6f"/>
      <path d="M 54.890625 33.015625 
L 54.890625 0 
L 45.90625 0 
L 45.90625 32.71875 
Q 45.90625 40.484375 42.875 44.328125 
Q 39.84375 48.1875 33.796875 48.1875 
Q 26.515625 48.1875 22.3125 43.546875 
Q 18.109375 38.921875 18.109375 30.90625 
L 18.109375 0 
L 9.078125 0 
L 9.078125 54.6875 
L 18.109375 54.6875 
L 18.109375 46.1875 
Q 21.34375 51.125 25.703125 53.5625 
Q 30.078125 56 35.796875 56 
Q 45.21875 56 50.046875 50.171875 
Q 54.890625 44.34375 54.890625 33.015625 
" id="BitstreamVeraSans-Roman-6e"/>
      <path d="M 19.671875 64.796875 
L 19.671875 8.109375 
L 31.59375 8.109375 
Q 46.6875 8.109375 53.6875 14.9375 
Q 60.6875 21.78125 60.6875 36.53125 
Q 60.6875 51.171875 53.6875 57.984375 
Q 46.6875 64.796875 31.59375 64.796875 
z
M 9.8125 72.90625 
L 30.078125 72.90625 
Q 51.265625 72.90625 61.171875 64.09375 
Q 71.09375 55.28125 71.09375 36.53125 
Q 71.09375 17.671875 61.125 8.828125 
Q 51.171875 0 30.078125 0 
L 9.8125 0 
z
" id="BitstreamVeraSans-Roman-44"/>
      <path d="M 19.671875 64.796875 
L 19.671875 37.40625 
L 32.078125 37.40625 
Q 38.96875 37.40625 42.71875 40.96875 
Q 46.484375 44.53125 46.484375 51.125 
Q 46.484375 57.671875 42.71875 61.234375 
Q 38.96875 64.796875 32.078125 64.796875 
z
M 9.8125 72.90625 
L 32.078125 72.90625 
Q 44.34375 72.90625 50.609375 67.359375 
Q 56.890625 61.8125 56.890625 51.125 
Q 56.890625 40.328125 50.609375 34.8125 
Q 44.34375 29.296875 32.078125 29.296875 
L 19.671875 29.296875 
L 19.671875 0 
L 9.8125 0 
z
" id="BitstreamVeraSans-Roman-50"/>
     </defs>
     <g transform="translate(93.145 145.335)scale(0.144 -0.144)">
      <use xlink:href="#BitstreamVeraSans-Roman-44"/>
      <use x="77.001953125" xlink:href="#BitstreamVeraSans-Roman-65"/>
      <use x="138.525390625" xlink:href="#BitstreamVeraSans-Roman-77"/>
      <use x="220.3125" xlink:href="#BitstreamVeraSans-Roman-20"/>
      <use x="252.099609375" xlink:href="#BitstreamVeraSans-Roman-50"/>
      <use x="312.35546875" xlink:href="#BitstreamVeraSans-Roman-6f"/>
      <use x="373.537109375" xlink:href="#BitstreamVeraSans-Roman-69"/>
      <use x="401.3203125" xlink:href="#BitstreamVeraSans-Roman-6e"/>
      <use x="464.69921875" xlink:href="#BitstreamVeraSans-Roman-74"/>
      <use x="503.908203125" xlink:href="#BitstreamVeraSans-Roman-20"/>
      <use x="535.6953125" xlink:href="#BitstreamVeraSans-Roman-28"/>
      <use x="574.708984375" xlink:href="#BitstreamVeraSans-Roman-64"/>
      <use x="638.185546875" xlink:href="#BitstreamVeraSans-Roman-65"/>
      <use x="699.708984375" xlink:href="#BitstreamVeraSans-Roman-67"/>
      <use x="763.185546875" xlink:href="#BitstreamVeraSans-Roman-20"/>
      <use x="794.97265625" xlink:href="#BitstreamVeraSans-Roman-46"/>
      <use x="852.4921875" xlink:href="#BitstreamVeraSans-Roman-29"/>
     </g>
    </g>
    <g id="line2d_36">
     <path d="M 57.145 161.4315 
L 77.305 161.4315 
" style="fill:none;stroke:#ff0000;stroke-linecap:square;"/>
    </g>
    <g id="line2d_37"/>
    <g id="text_17">
     <!-- Pressure (atm) -->
     <defs>
      <path d="M 44.28125 53.078125 
L 44.28125 44.578125 
Q 40.484375 46.53125 36.375 47.5 
Q 32.28125 48.484375 27.875 48.484375 
Q 21.1875 48.484375 17.84375 46.4375 
Q 14.5 44.390625 14.5 40.28125 
Q 14.5 37.15625 16.890625 35.375 
Q 19.28125 33.59375 26.515625 31.984375 
L 29.59375 31.296875 
Q 39.15625 29.25 43.1875 25.515625 
Q 47.21875 21.78125 47.21875 15.09375 
Q 47.21875 7.46875 41.1875 3.015625 
Q 35.15625 -1.421875 24.609375 -1.421875 
Q 20.21875 -1.421875 15.453125 -0.5625 
Q 10.6875 0.296875 5.421875 2 
L 5.421875 11.28125 
Q 10.40625 8.6875 15.234375 7.390625 
Q 20.0625 6.109375 24.8125 6.109375 
Q 31.15625 6.109375 34.5625 8.28125 
Q 37.984375 10.453125 37.984375 14.40625 
Q 37.984375 18.0625 35.515625 20.015625 
Q 33.0625 21.96875 24.703125 23.78125 
L 21.578125 24.515625 
Q 13.234375 26.265625 9.515625 29.90625 
Q 5.8125 33.546875 5.8125 39.890625 
Q 5.8125 47.609375 11.28125 51.796875 
Q 16.75 56 26.8125 56 
Q 31.78125 56 36.171875 55.265625 
Q 40.578125 54.546875 44.28125 53.078125 
" id="BitstreamVeraSans-Roman-73"/>
     </defs>
     <g transform="translate(93.145 166.4715)scale(0.144 -0.144)">
      <use xlink:href="#BitstreamVeraSans-Roman-50"/>
      <use x="60.287109375" xlink:href="#BitstreamVeraSans-Roman-72"/>
      <use x="101.369140625" xlink:href="#BitstreamVeraSans-Roman-65"/>
      <use x="162.892578125" xlink:href="#BitstreamVeraSans-Roman-73"/>
      <use x="214.9921875" xlink:href="#BitstreamVeraSans-Roman-73"/>
      <use x="267.091796875" xlink:href="#BitstreamVeraSans-Roman-75"/>
      <use x="330.470703125" xlink:href="#BitstreamVeraSans-Roman-72"/>
      <use x="371.552734375" xlink:href="#BitstreamVeraSans-Roman-65"/>
      <use x="433.076171875" xlink:href="#BitstreamVeraSans-Roman-20"/>
      <use x="464.86328125" xlink:href="#BitstreamVeraSans-Roman-28"/>
      <use x="503.876953125" xlink:href="#BitstreamVeraSans-Roman-61"/>
      <use x="565.15625" xlink:href="#BitstreamVeraSans-Roman-74"/>
      <use x="604.365234375" xlink:href="#BitstreamVeraSans-Roman-6d"/>
      <use x="701.77734375" xlink:href="#BitstreamVeraSans-Roman-29"/>
     </g>
    </g>
   </g>
  </g>
 </g>
 <defs>
  <clipPath id="p791a00d838">
   <rect height="163.659375" width="270.175" x="39.865" y="18.766875"/>
  </clipPath>
 </defs>
</svg>
