<?xml version="1.0" encoding="utf-8" standalone="no"?>
<!DOCTYPE svg PUBLIC "-//W3C//DTD SVG 1.1//EN"
  "http://www.w3.org/Graphics/SVG/1.1/DTD/svg11.dtd">
<!-- Created with matplotlib (http://matplotlib.org/) -->
<svg height="211pt" version="1.1" viewBox="0 0 320 211" width="320pt" xmlns="http://www.w3.org/2000/svg" xmlns:xlink="http://www.w3.org/1999/xlink">
 <defs>
  <style type="text/css">
*{stroke-linecap:butt;stroke-linejoin:round;stroke-miterlimit:100000;}
  </style>
 </defs>
 <g id="figure_1">
  <g id="patch_1">
   <path d="M 0 211 
L 320 211 
L 320 0 
L 0 0 
z
" style="fill:#ffffff;"/>
  </g>
  <g id="axes_1">
   <g id="patch_2">
    <path d="M 43.67875 53.638649 
L 307.04 53.638649 
L 307.04 18.766875 
L 43.67875 18.766875 
z
" style="fill:#ffffff;"/>
   </g>
   <g id="line2d_1">
    <path clip-path="url(#p450d0921ef)" d="M 43.67875 43.177117 
L 44.033207 45.036945 
L 44.74212 47.013012 
L 45.451033 48.291644 
L 45.80549 48.407883 
L 46.159946 46.664294 
L 47.223316 34.342934 
L 47.932229 28.530972 
L 48.641142 25.276273 
L 48.995599 24.578837 
L 49.350056 24.811316 
L 49.704512 25.857469 
L 50.058969 27.601058 
L 50.413425 30.507039 
L 50.767882 34.92413 
L 51.476795 39.922418 
L 51.831252 42.014724 
L 52.185708 43.060878 
L 52.540165 45.036945 
L 53.249078 46.896773 
L 53.957991 48.291644 
L 54.312448 48.291644 
L 54.666904 46.548055 
L 55.730274 34.459173 
L 56.439187 28.530972 
L 57.148101 25.276273 
L 57.502557 24.578837 
L 57.857014 24.811316 
L 58.21147 25.857469 
L 58.565927 27.601058 
L 58.920384 30.623278 
L 59.27484 34.92413 
L 59.983753 39.922418 
L 60.33821 41.898485 
L 60.692667 43.060878 
L 61.047123 44.920706 
L 61.756036 46.896773 
L 62.46495 48.291644 
L 62.819406 48.407883 
L 63.173863 46.664294 
L 64.237233 34.342934 
L 64.946146 28.414733 
L 65.655059 25.160034 
L 66.009515 24.462598 
L 66.363972 24.695077 
L 66.718429 25.624991 
L 67.072885 27.484819 
L 67.427342 30.623278 
L 67.781798 35.04037 
L 68.136255 37.946351 
L 69.554081 44.804466 
L 70.262995 46.780534 
L 70.971908 48.175405 
L 71.326364 48.291644 
L 71.680821 46.664294 
L 72.744191 34.226695 
L 73.453104 28.182254 
L 74.162017 25.043794 
L 74.516474 24.462598 
L 74.87093 24.578837 
L 75.225387 25.624991 
L 75.579844 27.484819 
L 75.9343 30.739517 
L 76.288757 35.04037 
L 76.643213 37.946351 
L 78.06104 44.804466 
L 78.769953 46.780534 
L 79.478866 48.175405 
L 79.833323 48.291644 
L 80.187779 46.548055 
L 81.251149 34.342934 
L 81.960062 28.182254 
L 82.668975 25.160034 
L 83.023432 24.462598 
L 83.377889 24.695077 
L 83.732345 25.624991 
L 84.086802 27.601058 
L 84.441258 30.855757 
L 84.795715 35.156609 
L 85.150172 38.06259 
L 85.859085 41.898485 
L 86.213541 42.944638 
L 86.567998 44.804466 
L 87.276911 46.780534 
L 87.985824 48.291644 
L 88.340281 48.291644 
L 88.694738 46.664294 
L 89.758107 34.342934 
L 90.467021 28.298493 
L 91.175934 25.160034 
L 91.53039 24.346359 
L 91.884847 24.578837 
L 92.239303 25.624991 
L 92.59376 27.484819 
L 94.011586 39.922418 
L 94.366043 42.014724 
L 94.7205 42.944638 
L 95.074956 44.920706 
L 95.783869 46.896773 
L 96.492783 48.291644 
L 96.847239 48.291644 
L 97.201696 46.664294 
L 98.265066 34.459173 
L 98.973979 28.298493 
L 99.682892 25.160034 
L 100.037349 24.23012 
L 100.391805 24.578837 
L 100.746262 25.624991 
L 101.100718 27.601058 
L 102.518545 40.038657 
L 102.873001 42.014724 
L 103.227458 42.944638 
L 103.581915 44.920706 
L 104.290828 46.896773 
L 104.999741 48.291644 
L 105.354198 48.291644 
L 105.708654 46.780534 
L 106.772024 34.459173 
L 107.480937 28.414733 
L 108.18985 25.160034 
L 108.544307 24.346359 
L 108.898763 24.695077 
L 109.25322 25.624991 
L 109.607677 27.601058 
L 111.025503 40.038657 
L 111.37996 42.014724 
L 111.734416 42.944638 
L 112.088873 44.920706 
L 112.797786 46.896773 
L 113.506699 48.291644 
L 113.861156 48.291644 
L 114.215612 46.780534 
L 115.278982 34.575413 
L 115.987895 28.414733 
L 116.696809 25.160034 
L 117.051265 24.346359 
L 117.405722 24.695077 
L 117.760178 25.624991 
L 118.114635 27.833536 
L 119.178005 38.295069 
L 119.886918 42.130964 
L 120.241374 43.060878 
L 120.595831 45.036945 
L 120.950288 46.199337 
L 122.013657 48.291644 
L 122.368114 48.291644 
L 122.722571 46.780534 
L 123.78594 34.575413 
L 124.494854 28.414733 
L 125.203767 25.276273 
L 125.558223 24.462598 
L 125.91268 24.811316 
L 126.267137 25.624991 
L 126.621593 27.717297 
L 127.684963 38.295069 
L 128.393876 42.130964 
L 128.748333 43.060878 
L 129.102789 45.036945 
L 129.811703 46.896773 
L 130.520616 48.175405 
L 130.875072 48.291644 
L 131.229529 46.780534 
L 132.292899 34.575413 
L 133.001812 28.414733 
L 133.710725 25.276273 
L 134.065182 24.578837 
L 134.419638 24.927555 
L 134.774095 25.74123 
L 135.128551 27.949776 
L 136.191921 38.411308 
L 136.900834 42.014724 
L 137.255291 42.944638 
L 137.609748 44.920706 
L 138.318661 46.896773 
L 139.027574 48.059165 
L 139.382031 48.175405 
L 139.736487 46.780534 
L 140.799857 34.575413 
L 141.50877 28.530972 
L 142.217683 25.276273 
L 142.57214 24.695077 
L 142.926597 24.927555 
L 143.281053 25.74123 
L 143.63551 27.949776 
L 144.69888 38.295069 
L 145.407793 41.898485 
L 145.762249 42.944638 
L 146.116706 44.920706 
L 146.825619 46.780534 
L 147.534532 48.059165 
L 147.888989 48.175405 
L 148.243445 46.780534 
L 149.306815 34.575413 
L 150.015728 28.530972 
L 150.724642 25.276273 
L 151.079098 24.578837 
L 151.433555 24.811316 
L 151.788011 25.624991 
L 152.142468 27.717297 
L 153.205838 38.06259 
L 153.914751 41.782246 
L 154.269208 42.944638 
L 154.623664 44.920706 
L 154.978121 46.083098 
L 156.041491 47.942926 
L 156.395947 48.175405 
L 156.750404 46.780534 
L 158.16823 31.320714 
L 158.877143 26.787383 
L 159.2316 25.392512 
L 159.586057 24.695077 
L 159.940513 24.927555 
L 160.29497 25.74123 
L 160.649426 27.949776 
L 161.712796 38.178829 
L 162.421709 41.898485 
L 162.776166 43.060878 
L 163.130622 45.036945 
L 163.485079 46.199337 
L 164.548449 48.059165 
L 164.902905 48.175405 
L 165.257362 46.896773 
L 166.320732 34.807891 
L 167.029645 28.76345 
L 167.738558 25.508751 
L 168.093015 24.927555 
L 168.447471 25.043794 
L 168.801928 25.857469 
L 169.156385 28.182254 
L 170.219754 38.178829 
L 170.928668 42.014724 
L 171.283124 43.060878 
L 171.637581 45.036945 
L 171.992037 46.083098 
L 173.055407 48.059165 
L 173.409864 48.175405 
L 173.76432 46.896773 
L 174.82769 34.807891 
L 175.536603 28.76345 
L 176.245516 25.508751 
L 176.599973 24.927555 
L 176.95443 25.043794 
L 177.308886 25.74123 
L 177.663343 28.066015 
L 178.726713 38.06259 
L 179.435626 41.898485 
L 179.790082 42.944638 
L 180.144539 44.920706 
L 180.853452 46.780534 
L 181.562365 48.059165 
L 181.916822 48.059165 
L 182.271279 46.780534 
L 183.334648 34.691652 
L 184.043562 28.647211 
L 184.752475 25.392512 
L 185.106931 24.811316 
L 185.461388 25.043794 
L 185.815845 25.74123 
L 186.170301 28.066015 
L 187.233671 38.178829 
L 187.942584 41.898485 
L 188.297041 42.944638 
L 188.651497 44.920706 
L 189.36041 46.780534 
L 190.069324 47.942926 
L 190.42378 48.059165 
L 190.778237 46.780534 
L 191.841607 34.691652 
L 192.55052 28.647211 
L 193.259433 25.392512 
L 193.61389 24.811316 
L 193.968346 25.043794 
L 194.322803 25.857469 
L 194.677259 28.182254 
L 195.740629 38.06259 
L 196.449542 41.898485 
L 196.803999 42.944638 
L 197.158456 44.920706 
L 197.867369 46.780534 
L 198.576282 47.942926 
L 198.930739 48.059165 
L 199.285195 46.896773 
L 200.348565 34.691652 
L 201.057478 28.647211 
L 201.766391 25.392512 
L 202.120848 24.811316 
L 202.475305 24.927555 
L 202.829761 25.74123 
L 203.184218 27.949776 
L 204.247587 37.946351 
L 204.956501 41.782246 
L 205.310957 42.944638 
L 205.665414 44.804466 
L 206.374327 46.780534 
L 207.08324 48.059165 
L 207.437697 48.175405 
L 207.792153 46.896773 
L 208.855523 34.575413 
L 209.564436 28.647211 
L 210.27335 25.276273 
L 210.627806 24.811316 
L 210.982263 24.927555 
L 211.336719 25.624991 
L 211.691176 27.949776 
L 212.754546 37.946351 
L 213.463459 41.782246 
L 213.817916 42.828399 
L 214.172372 44.804466 
L 214.881285 46.780534 
L 215.590199 48.059165 
L 215.944655 48.175405 
L 216.299112 47.013012 
L 217.362481 34.691652 
L 218.071395 28.76345 
L 218.780308 25.392512 
L 219.134764 24.927555 
L 219.489221 25.043794 
L 219.843678 25.74123 
L 220.198134 28.066015 
L 220.907047 35.621566 
L 221.615961 40.038657 
L 221.970417 41.898485 
L 222.324874 42.944638 
L 222.67933 44.920706 
L 223.388244 46.896773 
L 224.097157 48.059165 
L 224.451613 48.175405 
L 224.80607 47.129251 
L 225.86944 34.691652 
L 226.578353 28.76345 
L 227.287266 25.508751 
L 227.641723 25.043794 
L 227.996179 25.043794 
L 228.350636 25.973708 
L 228.705093 28.414733 
L 229.414006 35.737805 
L 230.122919 40.154896 
L 230.477376 42.014724 
L 230.831832 43.060878 
L 231.186289 45.036945 
L 231.895202 47.013012 
L 232.604115 48.291644 
L 232.958572 48.407883 
L 233.313028 47.245491 
L 234.376398 34.807891 
L 235.085311 28.87969 
L 235.794224 25.74123 
L 236.148681 25.160034 
L 236.503138 25.160034 
L 236.857594 26.089948 
L 237.212051 28.530972 
L 237.920964 35.970284 
L 238.629877 40.387375 
L 238.984334 42.130964 
L 239.33879 43.293356 
L 239.693247 45.153184 
L 240.40216 47.013012 
L 241.111073 48.407883 
L 241.46553 48.524122 
L 241.819987 47.36173 
L 242.883356 34.807891 
L 243.59227 29.112168 
L 244.301183 25.857469 
L 244.655639 25.392512 
L 245.010096 25.392512 
L 245.364552 26.322426 
L 245.719009 28.647211 
L 246.427922 36.086523 
L 247.136835 40.503614 
L 247.491292 42.363442 
L 247.845749 43.293356 
L 248.200205 45.153184 
L 248.909118 47.129251 
L 249.263575 47.942926 
L 249.618032 48.407883 
L 249.972488 48.640362 
L 250.326945 47.477969 
L 251.390315 35.04037 
L 252.099228 29.228407 
L 252.808141 25.973708 
L 253.162598 25.624991 
L 253.517054 25.74123 
L 253.871511 26.671144 
L 254.225967 28.995929 
L 254.934881 36.319001 
L 255.643794 40.852332 
L 255.99825 42.479681 
L 256.352707 43.409595 
L 256.707164 45.269423 
L 257.416077 47.245491 
L 257.770533 48.059165 
L 258.12499 48.524122 
L 258.479447 48.756601 
L 258.833903 47.594208 
L 259.897273 35.156609 
L 260.606186 29.344646 
L 261.315099 26.206187 
L 261.669556 25.74123 
L 262.024012 25.857469 
L 262.378469 26.903622 
L 262.732926 29.228407 
L 263.441839 36.55148 
L 264.150752 40.852332 
L 264.505209 42.71216 
L 264.859665 43.642074 
L 265.214122 45.501902 
L 266.277492 48.175405 
L 266.631948 48.756601 
L 266.986405 48.87284 
L 267.340861 47.826687 
L 268.404231 35.272848 
L 269.113144 29.460886 
L 269.467601 27.717297 
L 269.822058 26.554905 
L 270.176514 26.089948 
L 270.530971 26.206187 
L 270.885427 27.25234 
L 271.239884 29.577125 
L 271.948797 36.900198 
L 272.303254 39.457461 
L 273.012167 42.944638 
L 273.366623 43.874552 
L 273.72108 45.618141 
L 274.429993 47.477969 
L 275.138906 48.87284 
L 275.493363 48.989079 
L 275.84782 47.942926 
L 276.911189 35.389087 
L 277.620103 29.693364 
L 277.974559 27.949776 
L 278.329016 26.787383 
L 278.683472 26.322426 
L 279.037929 26.554905 
L 279.392386 27.717297 
L 279.746842 30.042082 
L 280.455755 37.248915 
L 280.810212 39.806179 
L 281.519125 43.293356 
L 281.873582 44.107031 
L 282.228038 45.85062 
L 283.291408 48.407883 
L 283.645865 48.989079 
L 284.000321 49.221558 
L 284.354778 48.175405 
L 285.418148 35.621566 
L 286.127061 29.925843 
L 286.481517 28.182254 
L 286.835974 27.019862 
L 287.190431 26.554905 
L 287.544887 26.671144 
L 287.899344 27.833536 
L 288.2538 30.27456 
L 288.962714 37.481394 
L 289.671627 41.898485 
L 290.026083 43.525835 
L 290.38054 44.339509 
L 290.734997 46.083098 
L 291.798366 48.640362 
L 292.152823 49.337797 
L 292.50728 49.337797 
L 292.861736 48.407883 
L 293.925106 35.737805 
L 294.634019 29.925843 
L 295.342932 27.136101 
L 295.697389 26.554905 
L 296.051846 26.787383 
L 296.406302 27.949776 
L 296.760759 30.3908 
L 297.469672 37.713872 
L 298.178585 42.130964 
L 298.533042 43.874552 
L 298.887498 44.571988 
L 299.241955 46.315577 
L 300.305325 48.87284 
L 300.659781 49.570276 
L 301.014238 49.686515 
L 301.368694 48.640362 
L 302.432064 35.970284 
L 303.140977 30.27456 
L 303.495434 28.530972 
L 303.849891 27.368579 
L 304.204347 26.787383 
L 304.558804 26.903622 
L 304.91326 28.182254 
L 305.267717 30.623278 
L 306.331087 40.619853 
L 307.04 44.107031 
L 307.04 44.107031 
" style="fill:none;stroke:#0000ff;stroke-linecap:square;"/>
   </g>
   <g id="patch_3">
    <path d="M 43.67875 53.638649 
L 43.67875 18.766875 
" style="fill:none;stroke:#000000;stroke-linecap:square;stroke-linejoin:miter;"/>
   </g>
   <g id="patch_4">
    <path d="M 43.67875 53.638649 
L 307.04 53.638649 
" style="fill:none;stroke:#000000;stroke-linecap:square;stroke-linejoin:miter;"/>
   </g>
   <g id="patch_5">
    <path d="M 307.04 53.638649 
L 307.04 18.766875 
" style="fill:none;stroke:#000000;stroke-linecap:square;stroke-linejoin:miter;"/>
   </g>
   <g id="patch_6">
    <path d="M 43.67875 18.766875 
L 307.04 18.766875 
" style="fill:none;stroke:#000000;stroke-linecap:square;stroke-linejoin:miter;"/>
   </g>
   <g id="matplotlib.axis_1">
    <g id="xtick_1">
     <g id="line2d_2">
      <defs>
       <path d="M 0 0 
L 0 -4 
" id="md577ffd1fc" style="stroke:#000000;stroke-width:0.5;"/>
      </defs>
      <g>
       <use style="stroke:#000000;stroke-width:0.5;" x="43.67875" xlink:href="#md577ffd1fc" y="53.6386491556"/>
      </g>
     </g>
     <g id="line2d_3">
      <defs>
       <path d="M 0 0 
L 0 4 
" id="me8f6d5f907" style="stroke:#000000;stroke-width:0.5;"/>
      </defs>
      <g>
       <use style="stroke:#000000;stroke-width:0.5;" x="43.67875" xlink:href="#me8f6d5f907" y="18.766875"/>
      </g>
     </g>
    </g>
    <g id="xtick_2">
     <g id="line2d_4">
      <g>
       <use style="stroke:#000000;stroke-width:0.5;" x="79.1244094886" xlink:href="#md577ffd1fc" y="53.6386491556"/>
      </g>
     </g>
     <g id="line2d_5">
      <g>
       <use style="stroke:#000000;stroke-width:0.5;" x="79.1244094886" xlink:href="#me8f6d5f907" y="18.766875"/>
      </g>
     </g>
    </g>
    <g id="xtick_3">
     <g id="line2d_6">
      <g>
       <use style="stroke:#000000;stroke-width:0.5;" x="114.570068977" xlink:href="#md577ffd1fc" y="53.6386491556"/>
      </g>
     </g>
     <g id="line2d_7">
      <g>
       <use style="stroke:#000000;stroke-width:0.5;" x="114.570068977" xlink:href="#me8f6d5f907" y="18.766875"/>
      </g>
     </g>
    </g>
    <g id="xtick_4">
     <g id="line2d_8">
      <g>
       <use style="stroke:#000000;stroke-width:0.5;" x="150.015728466" xlink:href="#md577ffd1fc" y="53.6386491556"/>
      </g>
     </g>
     <g id="line2d_9">
      <g>
       <use style="stroke:#000000;stroke-width:0.5;" x="150.015728466" xlink:href="#me8f6d5f907" y="18.766875"/>
      </g>
     </g>
    </g>
    <g id="xtick_5">
     <g id="line2d_10">
      <g>
       <use style="stroke:#000000;stroke-width:0.5;" x="185.461387954" xlink:href="#md577ffd1fc" y="53.6386491556"/>
      </g>
     </g>
     <g id="line2d_11">
      <g>
       <use style="stroke:#000000;stroke-width:0.5;" x="185.461387954" xlink:href="#me8f6d5f907" y="18.766875"/>
      </g>
     </g>
    </g>
    <g id="xtick_6">
     <g id="line2d_12">
      <g>
       <use style="stroke:#000000;stroke-width:0.5;" x="220.907047443" xlink:href="#md577ffd1fc" y="53.6386491556"/>
      </g>
     </g>
     <g id="line2d_13">
      <g>
       <use style="stroke:#000000;stroke-width:0.5;" x="220.907047443" xlink:href="#me8f6d5f907" y="18.766875"/>
      </g>
     </g>
    </g>
    <g id="xtick_7">
     <g id="line2d_14">
      <g>
       <use style="stroke:#000000;stroke-width:0.5;" x="256.352706931" xlink:href="#md577ffd1fc" y="53.6386491556"/>
      </g>
     </g>
     <g id="line2d_15">
      <g>
       <use style="stroke:#000000;stroke-width:0.5;" x="256.352706931" xlink:href="#me8f6d5f907" y="18.766875"/>
      </g>
     </g>
    </g>
    <g id="xtick_8">
     <g id="line2d_16">
      <g>
       <use style="stroke:#000000;stroke-width:0.5;" x="291.79836642" xlink:href="#md577ffd1fc" y="53.6386491556"/>
      </g>
     </g>
     <g id="line2d_17">
      <g>
       <use style="stroke:#000000;stroke-width:0.5;" x="291.79836642" xlink:href="#me8f6d5f907" y="18.766875"/>
      </g>
     </g>
    </g>
    <g id="xtick_9">
     <g id="line2d_18">
      <defs>
       <path d="M 0 0 
L 0 -2 
" id="m72a9e8fd1a" style="stroke:#000000;stroke-width:0.5;"/>
      </defs>
      <g>
       <use style="stroke:#000000;stroke-width:0.5;" x="43.67875" xlink:href="#m72a9e8fd1a" y="53.6386491556"/>
      </g>
     </g>
     <g id="line2d_19">
      <defs>
       <path d="M 0 0 
L 0 2 
" id="m812a584163" style="stroke:#000000;stroke-width:0.5;"/>
      </defs>
      <g>
       <use style="stroke:#000000;stroke-width:0.5;" x="43.67875" xlink:href="#m812a584163" y="18.766875"/>
      </g>
     </g>
    </g>
    <g id="xtick_10">
     <g id="line2d_20">
      <g>
       <use style="stroke:#000000;stroke-width:0.5;" x="79.1244094886" xlink:href="#m72a9e8fd1a" y="53.6386491556"/>
      </g>
     </g>
     <g id="line2d_21">
      <g>
       <use style="stroke:#000000;stroke-width:0.5;" x="79.1244094886" xlink:href="#m812a584163" y="18.766875"/>
      </g>
     </g>
    </g>
    <g id="xtick_11">
     <g id="line2d_22">
      <g>
       <use style="stroke:#000000;stroke-width:0.5;" x="114.570068977" xlink:href="#m72a9e8fd1a" y="53.6386491556"/>
      </g>
     </g>
     <g id="line2d_23">
      <g>
       <use style="stroke:#000000;stroke-width:0.5;" x="114.570068977" xlink:href="#m812a584163" y="18.766875"/>
      </g>
     </g>
    </g>
    <g id="xtick_12">
     <g id="line2d_24">
      <g>
       <use style="stroke:#000000;stroke-width:0.5;" x="150.015728466" xlink:href="#m72a9e8fd1a" y="53.6386491556"/>
      </g>
     </g>
     <g id="line2d_25">
      <g>
       <use style="stroke:#000000;stroke-width:0.5;" x="150.015728466" xlink:href="#m812a584163" y="18.766875"/>
      </g>
     </g>
    </g>
    <g id="xtick_13">
     <g id="line2d_26">
      <g>
       <use style="stroke:#000000;stroke-width:0.5;" x="185.461387954" xlink:href="#m72a9e8fd1a" y="53.6386491556"/>
      </g>
     </g>
     <g id="line2d_27">
      <g>
       <use style="stroke:#000000;stroke-width:0.5;" x="185.461387954" xlink:href="#m812a584163" y="18.766875"/>
      </g>
     </g>
    </g>
    <g id="xtick_14">
     <g id="line2d_28">
      <g>
       <use style="stroke:#000000;stroke-width:0.5;" x="220.907047443" xlink:href="#m72a9e8fd1a" y="53.6386491556"/>
      </g>
     </g>
     <g id="line2d_29">
      <g>
       <use style="stroke:#000000;stroke-width:0.5;" x="220.907047443" xlink:href="#m812a584163" y="18.766875"/>
      </g>
     </g>
    </g>
    <g id="xtick_15">
     <g id="line2d_30">
      <g>
       <use style="stroke:#000000;stroke-width:0.5;" x="256.352706931" xlink:href="#m72a9e8fd1a" y="53.6386491556"/>
      </g>
     </g>
     <g id="line2d_31">
      <g>
       <use style="stroke:#000000;stroke-width:0.5;" x="256.352706931" xlink:href="#m812a584163" y="18.766875"/>
      </g>
     </g>
    </g>
    <g id="xtick_16">
     <g id="line2d_32">
      <g>
       <use style="stroke:#000000;stroke-width:0.5;" x="291.79836642" xlink:href="#m72a9e8fd1a" y="53.6386491556"/>
      </g>
     </g>
     <g id="line2d_33">
      <g>
       <use style="stroke:#000000;stroke-width:0.5;" x="291.79836642" xlink:href="#m812a584163" y="18.766875"/>
      </g>
     </g>
    </g>
   </g>
   <g id="matplotlib.axis_2">
    <g id="ytick_1">
     <g id="line2d_34">
      <defs>
       <path d="M 0 0 
L 4 0 
" id="mdff5b91c01" style="stroke:#000000;stroke-width:0.5;"/>
      </defs>
      <g>
       <use style="stroke:#000000;stroke-width:0.5;" x="43.67875" xlink:href="#mdff5b91c01" y="53.6386491556"/>
      </g>
     </g>
     <g id="line2d_35">
      <defs>
       <path d="M 0 0 
L -4 0 
" id="m2effe063bf" style="stroke:#000000;stroke-width:0.5;"/>
      </defs>
      <g>
       <use style="stroke:#000000;stroke-width:0.5;" x="307.04" xlink:href="#m2effe063bf" y="53.6386491556"/>
      </g>
     </g>
     <g id="text_1">
      <!-- 70 -->
      <defs>
       <path d="M 8.203125 72.90625 
L 55.078125 72.90625 
L 55.078125 68.703125 
L 28.609375 0 
L 18.3125 0 
L 43.21875 64.59375 
L 8.203125 64.59375 
z
" id="BitstreamVeraSans-Roman-37"/>
       <path d="M 31.78125 66.40625 
Q 24.171875 66.40625 20.328125 58.90625 
Q 16.5 51.421875 16.5 36.375 
Q 16.5 21.390625 20.328125 13.890625 
Q 24.171875 6.390625 31.78125 6.390625 
Q 39.453125 6.390625 43.28125 13.890625 
Q 47.125 21.390625 47.125 36.375 
Q 47.125 51.421875 43.28125 58.90625 
Q 39.453125 66.40625 31.78125 66.40625 
M 31.78125 74.21875 
Q 44.046875 74.21875 50.515625 64.515625 
Q 56.984375 54.828125 56.984375 36.375 
Q 56.984375 17.96875 50.515625 8.265625 
Q 44.046875 -1.421875 31.78125 -1.421875 
Q 19.53125 -1.421875 13.0625 8.265625 
Q 6.59375 17.96875 6.59375 36.375 
Q 6.59375 54.828125 13.0625 64.515625 
Q 19.53125 74.21875 31.78125 74.21875 
" id="BitstreamVeraSans-Roman-30"/>
      </defs>
      <g transform="translate(24.40875 56.9498991556)scale(0.12 -0.12)">
       <use xlink:href="#BitstreamVeraSans-Roman-37"/>
       <use x="63.623046875" xlink:href="#BitstreamVeraSans-Roman-30"/>
      </g>
     </g>
    </g>
    <g id="ytick_2">
     <g id="line2d_36">
      <g>
       <use style="stroke:#000000;stroke-width:0.5;" x="43.67875" xlink:href="#mdff5b91c01" y="47.8266867963"/>
      </g>
     </g>
     <g id="line2d_37">
      <g>
       <use style="stroke:#000000;stroke-width:0.5;" x="307.04" xlink:href="#m2effe063bf" y="47.8266867963"/>
      </g>
     </g>
     <g id="text_2">
      <!-- 75 -->
      <defs>
       <path d="M 10.796875 72.90625 
L 49.515625 72.90625 
L 49.515625 64.59375 
L 19.828125 64.59375 
L 19.828125 46.734375 
Q 21.96875 47.46875 24.109375 47.828125 
Q 26.265625 48.1875 28.421875 48.1875 
Q 40.625 48.1875 47.75 41.5 
Q 54.890625 34.8125 54.890625 23.390625 
Q 54.890625 11.625 47.5625 5.09375 
Q 40.234375 -1.421875 26.90625 -1.421875 
Q 22.3125 -1.421875 17.546875 -0.640625 
Q 12.796875 0.140625 7.71875 1.703125 
L 7.71875 11.625 
Q 12.109375 9.234375 16.796875 8.0625 
Q 21.484375 6.890625 26.703125 6.890625 
Q 35.15625 6.890625 40.078125 11.328125 
Q 45.015625 15.765625 45.015625 23.390625 
Q 45.015625 31 40.078125 35.4375 
Q 35.15625 39.890625 26.703125 39.890625 
Q 22.75 39.890625 18.8125 39.015625 
Q 14.890625 38.140625 10.796875 36.28125 
z
" id="BitstreamVeraSans-Roman-35"/>
      </defs>
      <g transform="translate(24.40875 51.1379367963)scale(0.12 -0.12)">
       <use xlink:href="#BitstreamVeraSans-Roman-37"/>
       <use x="63.623046875" xlink:href="#BitstreamVeraSans-Roman-35"/>
      </g>
     </g>
    </g>
    <g id="ytick_3">
     <g id="line2d_38">
      <g>
       <use style="stroke:#000000;stroke-width:0.5;" x="43.67875" xlink:href="#mdff5b91c01" y="42.0147244371"/>
      </g>
     </g>
     <g id="line2d_39">
      <g>
       <use style="stroke:#000000;stroke-width:0.5;" x="307.04" xlink:href="#m2effe063bf" y="42.0147244371"/>
      </g>
     </g>
     <g id="text_3">
      <!-- 80 -->
      <defs>
       <path d="M 31.78125 34.625 
Q 24.75 34.625 20.71875 30.859375 
Q 16.703125 27.09375 16.703125 20.515625 
Q 16.703125 13.921875 20.71875 10.15625 
Q 24.75 6.390625 31.78125 6.390625 
Q 38.8125 6.390625 42.859375 10.171875 
Q 46.921875 13.96875 46.921875 20.515625 
Q 46.921875 27.09375 42.890625 30.859375 
Q 38.875 34.625 31.78125 34.625 
M 21.921875 38.8125 
Q 15.578125 40.375 12.03125 44.71875 
Q 8.5 49.078125 8.5 55.328125 
Q 8.5 64.0625 14.71875 69.140625 
Q 20.953125 74.21875 31.78125 74.21875 
Q 42.671875 74.21875 48.875 69.140625 
Q 55.078125 64.0625 55.078125 55.328125 
Q 55.078125 49.078125 51.53125 44.71875 
Q 48 40.375 41.703125 38.8125 
Q 48.828125 37.15625 52.796875 32.3125 
Q 56.78125 27.484375 56.78125 20.515625 
Q 56.78125 9.90625 50.3125 4.234375 
Q 43.84375 -1.421875 31.78125 -1.421875 
Q 19.734375 -1.421875 13.25 4.234375 
Q 6.78125 9.90625 6.78125 20.515625 
Q 6.78125 27.484375 10.78125 32.3125 
Q 14.796875 37.15625 21.921875 38.8125 
M 18.3125 54.390625 
Q 18.3125 48.734375 21.84375 45.5625 
Q 25.390625 42.390625 31.78125 42.390625 
Q 38.140625 42.390625 41.71875 45.5625 
Q 45.3125 48.734375 45.3125 54.390625 
Q 45.3125 60.0625 41.71875 63.234375 
Q 38.140625 66.40625 31.78125 66.40625 
Q 25.390625 66.40625 21.84375 63.234375 
Q 18.3125 60.0625 18.3125 54.390625 
" id="BitstreamVeraSans-Roman-38"/>
      </defs>
      <g transform="translate(24.40875 45.3259744371)scale(0.12 -0.12)">
       <use xlink:href="#BitstreamVeraSans-Roman-38"/>
       <use x="63.623046875" xlink:href="#BitstreamVeraSans-Roman-30"/>
      </g>
     </g>
    </g>
    <g id="ytick_4">
     <g id="line2d_40">
      <g>
       <use style="stroke:#000000;stroke-width:0.5;" x="43.67875" xlink:href="#mdff5b91c01" y="36.2027620778"/>
      </g>
     </g>
     <g id="line2d_41">
      <g>
       <use style="stroke:#000000;stroke-width:0.5;" x="307.04" xlink:href="#m2effe063bf" y="36.2027620778"/>
      </g>
     </g>
     <g id="text_4">
      <!-- 85 -->
      <g transform="translate(24.40875 39.5140120778)scale(0.12 -0.12)">
       <use xlink:href="#BitstreamVeraSans-Roman-38"/>
       <use x="63.623046875" xlink:href="#BitstreamVeraSans-Roman-35"/>
      </g>
     </g>
    </g>
    <g id="ytick_5">
     <g id="line2d_42">
      <g>
       <use style="stroke:#000000;stroke-width:0.5;" x="43.67875" xlink:href="#mdff5b91c01" y="30.3907997185"/>
      </g>
     </g>
     <g id="line2d_43">
      <g>
       <use style="stroke:#000000;stroke-width:0.5;" x="307.04" xlink:href="#m2effe063bf" y="30.3907997185"/>
      </g>
     </g>
     <g id="text_5">
      <!-- 90 -->
      <defs>
       <path d="M 10.984375 1.515625 
L 10.984375 10.5 
Q 14.703125 8.734375 18.5 7.8125 
Q 22.3125 6.890625 25.984375 6.890625 
Q 35.75 6.890625 40.890625 13.453125 
Q 46.046875 20.015625 46.78125 33.40625 
Q 43.953125 29.203125 39.59375 26.953125 
Q 35.25 24.703125 29.984375 24.703125 
Q 19.046875 24.703125 12.671875 31.3125 
Q 6.296875 37.9375 6.296875 49.421875 
Q 6.296875 60.640625 12.9375 67.421875 
Q 19.578125 74.21875 30.609375 74.21875 
Q 43.265625 74.21875 49.921875 64.515625 
Q 56.59375 54.828125 56.59375 36.375 
Q 56.59375 19.140625 48.40625 8.859375 
Q 40.234375 -1.421875 26.421875 -1.421875 
Q 22.703125 -1.421875 18.890625 -0.6875 
Q 15.09375 0.046875 10.984375 1.515625 
M 30.609375 32.421875 
Q 37.25 32.421875 41.125 36.953125 
Q 45.015625 41.5 45.015625 49.421875 
Q 45.015625 57.28125 41.125 61.84375 
Q 37.25 66.40625 30.609375 66.40625 
Q 23.96875 66.40625 20.09375 61.84375 
Q 16.21875 57.28125 16.21875 49.421875 
Q 16.21875 41.5 20.09375 36.953125 
Q 23.96875 32.421875 30.609375 32.421875 
" id="BitstreamVeraSans-Roman-39"/>
      </defs>
      <g transform="translate(24.40875 33.7020497185)scale(0.12 -0.12)">
       <use xlink:href="#BitstreamVeraSans-Roman-39"/>
       <use x="63.623046875" xlink:href="#BitstreamVeraSans-Roman-30"/>
      </g>
     </g>
    </g>
    <g id="ytick_6">
     <g id="line2d_44">
      <g>
       <use style="stroke:#000000;stroke-width:0.5;" x="43.67875" xlink:href="#mdff5b91c01" y="24.5788373593"/>
      </g>
     </g>
     <g id="line2d_45">
      <g>
       <use style="stroke:#000000;stroke-width:0.5;" x="307.04" xlink:href="#m2effe063bf" y="24.5788373593"/>
      </g>
     </g>
     <g id="text_6">
      <!-- 95 -->
      <g transform="translate(24.40875 27.8900873593)scale(0.12 -0.12)">
       <use xlink:href="#BitstreamVeraSans-Roman-39"/>
       <use x="63.623046875" xlink:href="#BitstreamVeraSans-Roman-35"/>
      </g>
     </g>
    </g>
    <g id="ytick_7">
     <g id="line2d_46">
      <g>
       <use style="stroke:#000000;stroke-width:0.5;" x="43.67875" xlink:href="#mdff5b91c01" y="18.766875"/>
      </g>
     </g>
     <g id="line2d_47">
      <g>
       <use style="stroke:#000000;stroke-width:0.5;" x="307.04" xlink:href="#m2effe063bf" y="18.766875"/>
      </g>
     </g>
     <g id="text_7">
      <!-- 100 -->
      <defs>
       <path d="M 12.40625 8.296875 
L 28.515625 8.296875 
L 28.515625 63.921875 
L 10.984375 60.40625 
L 10.984375 69.390625 
L 28.421875 72.90625 
L 38.28125 72.90625 
L 38.28125 8.296875 
L 54.390625 8.296875 
L 54.390625 0 
L 12.40625 0 
z
" id="BitstreamVeraSans-Roman-31"/>
      </defs>
      <g transform="translate(16.77375 22.078125)scale(0.12 -0.12)">
       <use xlink:href="#BitstreamVeraSans-Roman-31"/>
       <use x="63.623046875" xlink:href="#BitstreamVeraSans-Roman-30"/>
       <use x="127.24609375" xlink:href="#BitstreamVeraSans-Roman-30"/>
      </g>
     </g>
    </g>
   </g>
   <g id="legend_1">
    <g id="patch_7">
     <path d="M 74.56275 46.438649 
L 276.156 46.438649 
L 276.156 20.982149 
L 74.56275 20.982149 
z
" style="fill:#ffffff;stroke:#000000;stroke-linejoin:miter;"/>
    </g>
    <g id="line2d_48">
     <path d="M 84.64275 32.643899 
L 104.80275 32.643899 
" style="fill:none;stroke:#0000ff;stroke-linecap:square;"/>
    </g>
    <g id="line2d_49"/>
    <g id="text_8">
     <!-- Temperature (deg F) -->
     <defs>
      <path d="M 56.203125 29.59375 
L 56.203125 25.203125 
L 14.890625 25.203125 
Q 15.484375 15.921875 20.484375 11.0625 
Q 25.484375 6.203125 34.421875 6.203125 
Q 39.59375 6.203125 44.453125 7.46875 
Q 49.3125 8.734375 54.109375 11.28125 
L 54.109375 2.78125 
Q 49.265625 0.734375 44.1875 -0.34375 
Q 39.109375 -1.421875 33.890625 -1.421875 
Q 20.796875 -1.421875 13.15625 6.1875 
Q 5.515625 13.8125 5.515625 26.8125 
Q 5.515625 40.234375 12.765625 48.109375 
Q 20.015625 56 32.328125 56 
Q 43.359375 56 49.78125 48.890625 
Q 56.203125 41.796875 56.203125 29.59375 
M 47.21875 32.234375 
Q 47.125 39.59375 43.09375 43.984375 
Q 39.0625 48.390625 32.421875 48.390625 
Q 24.90625 48.390625 20.390625 44.140625 
Q 15.875 39.890625 15.1875 32.171875 
z
" id="BitstreamVeraSans-Roman-65"/>
      <path d="M 8.5 21.578125 
L 8.5 54.6875 
L 17.484375 54.6875 
L 17.484375 21.921875 
Q 17.484375 14.15625 20.5 10.265625 
Q 23.53125 6.390625 29.59375 6.390625 
Q 36.859375 6.390625 41.078125 11.03125 
Q 45.3125 15.671875 45.3125 23.6875 
L 45.3125 54.6875 
L 54.296875 54.6875 
L 54.296875 0 
L 45.3125 0 
L 45.3125 8.40625 
Q 42.046875 3.421875 37.71875 1 
Q 33.40625 -1.421875 27.6875 -1.421875 
Q 18.265625 -1.421875 13.375 4.4375 
Q 8.5 10.296875 8.5 21.578125 
" id="BitstreamVeraSans-Roman-75"/>
      <path d="M 52 44.1875 
Q 55.375 50.25 60.0625 53.125 
Q 64.75 56 71.09375 56 
Q 79.640625 56 84.28125 50.015625 
Q 88.921875 44.046875 88.921875 33.015625 
L 88.921875 0 
L 79.890625 0 
L 79.890625 32.71875 
Q 79.890625 40.578125 77.09375 44.375 
Q 74.3125 48.1875 68.609375 48.1875 
Q 61.625 48.1875 57.5625 43.546875 
Q 53.515625 38.921875 53.515625 30.90625 
L 53.515625 0 
L 44.484375 0 
L 44.484375 32.71875 
Q 44.484375 40.625 41.703125 44.40625 
Q 38.921875 48.1875 33.109375 48.1875 
Q 26.21875 48.1875 22.15625 43.53125 
Q 18.109375 38.875 18.109375 30.90625 
L 18.109375 0 
L 9.078125 0 
L 9.078125 54.6875 
L 18.109375 54.6875 
L 18.109375 46.1875 
Q 21.1875 51.21875 25.484375 53.609375 
Q 29.78125 56 35.6875 56 
Q 41.65625 56 45.828125 52.96875 
Q 50 49.953125 52 44.1875 
" id="BitstreamVeraSans-Roman-6d"/>
      <path d="M -0.296875 72.90625 
L 61.375 72.90625 
L 61.375 64.59375 
L 35.5 64.59375 
L 35.5 0 
L 25.59375 0 
L 25.59375 64.59375 
L -0.296875 64.59375 
z
" id="BitstreamVeraSans-Roman-54"/>
      <path d="M 41.109375 46.296875 
Q 39.59375 47.171875 37.8125 47.578125 
Q 36.03125 48 33.890625 48 
Q 26.265625 48 22.1875 43.046875 
Q 18.109375 38.09375 18.109375 28.8125 
L 18.109375 0 
L 9.078125 0 
L 9.078125 54.6875 
L 18.109375 54.6875 
L 18.109375 46.1875 
Q 20.953125 51.171875 25.484375 53.578125 
Q 30.03125 56 36.53125 56 
Q 37.453125 56 38.578125 55.875 
Q 39.703125 55.765625 41.0625 55.515625 
z
" id="BitstreamVeraSans-Roman-72"/>
      <path d="M 9.8125 72.90625 
L 51.703125 72.90625 
L 51.703125 64.59375 
L 19.671875 64.59375 
L 19.671875 43.109375 
L 48.578125 43.109375 
L 48.578125 34.8125 
L 19.671875 34.8125 
L 19.671875 0 
L 9.8125 0 
z
" id="BitstreamVeraSans-Roman-46"/>
      <path d="M 45.40625 46.390625 
L 45.40625 75.984375 
L 54.390625 75.984375 
L 54.390625 0 
L 45.40625 0 
L 45.40625 8.203125 
Q 42.578125 3.328125 38.25 0.953125 
Q 33.9375 -1.421875 27.875 -1.421875 
Q 17.96875 -1.421875 11.734375 6.484375 
Q 5.515625 14.40625 5.515625 27.296875 
Q 5.515625 40.1875 11.734375 48.09375 
Q 17.96875 56 27.875 56 
Q 33.9375 56 38.25 53.625 
Q 42.578125 51.265625 45.40625 46.390625 
M 14.796875 27.296875 
Q 14.796875 17.390625 18.875 11.75 
Q 22.953125 6.109375 30.078125 6.109375 
Q 37.203125 6.109375 41.296875 11.75 
Q 45.40625 17.390625 45.40625 27.296875 
Q 45.40625 37.203125 41.296875 42.84375 
Q 37.203125 48.484375 30.078125 48.484375 
Q 22.953125 48.484375 18.875 42.84375 
Q 14.796875 37.203125 14.796875 27.296875 
" id="BitstreamVeraSans-Roman-64"/>
      <path d="M 18.109375 8.203125 
L 18.109375 -20.796875 
L 9.078125 -20.796875 
L 9.078125 54.6875 
L 18.109375 54.6875 
L 18.109375 46.390625 
Q 20.953125 51.265625 25.265625 53.625 
Q 29.59375 56 35.59375 56 
Q 45.5625 56 51.78125 48.09375 
Q 58.015625 40.1875 58.015625 27.296875 
Q 58.015625 14.40625 51.78125 6.484375 
Q 45.5625 -1.421875 35.59375 -1.421875 
Q 29.59375 -1.421875 25.265625 0.953125 
Q 20.953125 3.328125 18.109375 8.203125 
M 48.6875 27.296875 
Q 48.6875 37.203125 44.609375 42.84375 
Q 40.53125 48.484375 33.40625 48.484375 
Q 26.265625 48.484375 22.1875 42.84375 
Q 18.109375 37.203125 18.109375 27.296875 
Q 18.109375 17.390625 22.1875 11.75 
Q 26.265625 6.109375 33.40625 6.109375 
Q 40.53125 6.109375 44.609375 11.75 
Q 48.6875 17.390625 48.6875 27.296875 
" id="BitstreamVeraSans-Roman-70"/>
      <path d="M 8.015625 75.875 
L 15.828125 75.875 
Q 23.140625 64.359375 26.78125 53.3125 
Q 30.421875 42.28125 30.421875 31.390625 
Q 30.421875 20.453125 26.78125 9.375 
Q 23.140625 -1.703125 15.828125 -13.1875 
L 8.015625 -13.1875 
Q 14.5 -2 17.703125 9.0625 
Q 20.90625 20.125 20.90625 31.390625 
Q 20.90625 42.671875 17.703125 53.65625 
Q 14.5 64.65625 8.015625 75.875 
" id="BitstreamVeraSans-Roman-29"/>
      <path d="M 18.3125 70.21875 
L 18.3125 54.6875 
L 36.8125 54.6875 
L 36.8125 47.703125 
L 18.3125 47.703125 
L 18.3125 18.015625 
Q 18.3125 11.328125 20.140625 9.421875 
Q 21.96875 7.515625 27.59375 7.515625 
L 36.8125 7.515625 
L 36.8125 0 
L 27.59375 0 
Q 17.1875 0 13.234375 3.875 
Q 9.28125 7.765625 9.28125 18.015625 
L 9.28125 47.703125 
L 2.6875 47.703125 
L 2.6875 54.6875 
L 9.28125 54.6875 
L 9.28125 70.21875 
z
" id="BitstreamVeraSans-Roman-74"/>
      <path d="M 45.40625 27.984375 
Q 45.40625 37.75 41.375 43.109375 
Q 37.359375 48.484375 30.078125 48.484375 
Q 22.859375 48.484375 18.828125 43.109375 
Q 14.796875 37.75 14.796875 27.984375 
Q 14.796875 18.265625 18.828125 12.890625 
Q 22.859375 7.515625 30.078125 7.515625 
Q 37.359375 7.515625 41.375 12.890625 
Q 45.40625 18.265625 45.40625 27.984375 
M 54.390625 6.78125 
Q 54.390625 -7.171875 48.1875 -13.984375 
Q 42 -20.796875 29.203125 -20.796875 
Q 24.46875 -20.796875 20.265625 -20.09375 
Q 16.0625 -19.390625 12.109375 -17.921875 
L 12.109375 -9.1875 
Q 16.0625 -11.328125 19.921875 -12.34375 
Q 23.78125 -13.375 27.78125 -13.375 
Q 36.625 -13.375 41.015625 -8.765625 
Q 45.40625 -4.15625 45.40625 5.171875 
L 45.40625 9.625 
Q 42.625 4.78125 38.28125 2.390625 
Q 33.9375 0 27.875 0 
Q 17.828125 0 11.671875 7.65625 
Q 5.515625 15.328125 5.515625 27.984375 
Q 5.515625 40.671875 11.671875 48.328125 
Q 17.828125 56 27.875 56 
Q 33.9375 56 38.28125 53.609375 
Q 42.625 51.21875 45.40625 46.390625 
L 45.40625 54.6875 
L 54.390625 54.6875 
z
" id="BitstreamVeraSans-Roman-67"/>
      <path id="BitstreamVeraSans-Roman-20"/>
      <path d="M 34.28125 27.484375 
Q 23.390625 27.484375 19.1875 25 
Q 14.984375 22.515625 14.984375 16.5 
Q 14.984375 11.71875 18.140625 8.90625 
Q 21.296875 6.109375 26.703125 6.109375 
Q 34.1875 6.109375 38.703125 11.40625 
Q 43.21875 16.703125 43.21875 25.484375 
L 43.21875 27.484375 
z
M 52.203125 31.203125 
L 52.203125 0 
L 43.21875 0 
L 43.21875 8.296875 
Q 40.140625 3.328125 35.546875 0.953125 
Q 30.953125 -1.421875 24.3125 -1.421875 
Q 15.921875 -1.421875 10.953125 3.296875 
Q 6 8.015625 6 15.921875 
Q 6 25.140625 12.171875 29.828125 
Q 18.359375 34.515625 30.609375 34.515625 
L 43.21875 34.515625 
L 43.21875 35.40625 
Q 43.21875 41.609375 39.140625 45 
Q 35.0625 48.390625 27.6875 48.390625 
Q 23 48.390625 18.546875 47.265625 
Q 14.109375 46.140625 10.015625 43.890625 
L 10.015625 52.203125 
Q 14.9375 54.109375 19.578125 55.046875 
Q 24.21875 56 28.609375 56 
Q 40.484375 56 46.34375 49.84375 
Q 52.203125 43.703125 52.203125 31.203125 
" id="BitstreamVeraSans-Roman-61"/>
      <path d="M 31 75.875 
Q 24.46875 64.65625 21.28125 53.65625 
Q 18.109375 42.671875 18.109375 31.390625 
Q 18.109375 20.125 21.3125 9.0625 
Q 24.515625 -2 31 -13.1875 
L 23.1875 -13.1875 
Q 15.875 -1.703125 12.234375 9.375 
Q 8.59375 20.453125 8.59375 31.390625 
Q 8.59375 42.28125 12.203125 53.3125 
Q 15.828125 64.359375 23.1875 75.875 
z
" id="BitstreamVeraSans-Roman-28"/>
     </defs>
     <g transform="translate(120.64275 37.6838991556)scale(0.144 -0.144)">
      <use xlink:href="#BitstreamVeraSans-Roman-54"/>
      <use x="60.818359375" xlink:href="#BitstreamVeraSans-Roman-65"/>
      <use x="122.341796875" xlink:href="#BitstreamVeraSans-Roman-6d"/>
      <use x="219.75390625" xlink:href="#BitstreamVeraSans-Roman-70"/>
      <use x="283.23046875" xlink:href="#BitstreamVeraSans-Roman-65"/>
      <use x="344.75390625" xlink:href="#BitstreamVeraSans-Roman-72"/>
      <use x="385.8671875" xlink:href="#BitstreamVeraSans-Roman-61"/>
      <use x="447.146484375" xlink:href="#BitstreamVeraSans-Roman-74"/>
      <use x="486.35546875" xlink:href="#BitstreamVeraSans-Roman-75"/>
      <use x="549.734375" xlink:href="#BitstreamVeraSans-Roman-72"/>
      <use x="590.81640625" xlink:href="#BitstreamVeraSans-Roman-65"/>
      <use x="652.33984375" xlink:href="#BitstreamVeraSans-Roman-20"/>
      <use x="684.126953125" xlink:href="#BitstreamVeraSans-Roman-28"/>
      <use x="723.140625" xlink:href="#BitstreamVeraSans-Roman-64"/>
      <use x="786.6171875" xlink:href="#BitstreamVeraSans-Roman-65"/>
      <use x="848.140625" xlink:href="#BitstreamVeraSans-Roman-67"/>
      <use x="911.6171875" xlink:href="#BitstreamVeraSans-Roman-20"/>
      <use x="943.404296875" xlink:href="#BitstreamVeraSans-Roman-46"/>
      <use x="1000.923828125" xlink:href="#BitstreamVeraSans-Roman-29"/>
     </g>
    </g>
   </g>
  </g>
  <g id="axes_2">
   <g id="patch_8">
    <path d="M 43.67875 113.084173 
L 307.04 113.084173 
L 307.04 78.212399 
L 43.67875 78.212399 
z
" style="fill:#ffffff;"/>
   </g>
   <g id="line2d_50">
    <path clip-path="url(#p9e65e339e1)" d="M 43.67875 89.1721 
L 44.033207 87.179427 
L 44.74212 86.18309 
L 45.096576 86.18309 
L 45.451033 86.681259 
L 45.80549 86.681259 
L 46.159946 81.699577 
L 46.514403 79.208736 
L 46.868859 82.695913 
L 48.286686 101.128136 
L 48.641142 105.113482 
L 48.995599 107.604323 
L 49.350056 109.098828 
L 49.704512 108.600659 
L 50.058969 109.596996 
L 51.122338 95.648286 
L 51.476795 91.662941 
L 51.831252 89.670268 
L 52.185708 89.1721 
L 52.540165 87.179427 
L 53.603535 85.684922 
L 54.312448 86.681259 
L 54.666904 81.699577 
L 55.021361 79.208736 
L 55.375818 82.695913 
L 56.793644 101.626305 
L 57.502557 108.102491 
L 57.857014 109.596996 
L 58.21147 109.098828 
L 58.565927 110.095164 
L 59.27484 100.629968 
L 59.983753 92.161109 
L 60.33821 89.670268 
L 60.692667 89.1721 
L 61.047123 87.179427 
L 61.756036 86.18309 
L 62.110493 86.18309 
L 62.46495 86.681259 
L 62.819406 86.681259 
L 63.173863 81.699577 
L 63.528319 79.208736 
L 63.882776 82.197745 
L 64.946146 97.640959 
L 65.655059 105.61165 
L 66.009515 108.102491 
L 66.363972 109.596996 
L 66.718429 109.098828 
L 67.072885 110.593332 
L 67.781798 100.1318 
L 68.490712 92.161109 
L 68.845168 90.168436 
L 69.199625 89.1721 
L 69.554081 87.677595 
L 69.908538 86.681259 
L 70.262995 86.18309 
L 70.617451 86.18309 
L 71.326364 87.179427 
L 71.680821 81.699577 
L 72.035278 79.208736 
L 72.389734 82.695913 
L 73.453104 97.640959 
L 74.162017 105.61165 
L 74.516474 108.102491 
L 74.87093 109.596996 
L 75.225387 109.098828 
L 75.579844 110.095164 
L 76.288757 100.1318 
L 76.99767 92.659277 
L 77.352127 90.168436 
L 77.706583 89.670268 
L 78.06104 87.677595 
L 78.415496 86.681259 
L 78.769953 86.18309 
L 79.124409 86.18309 
L 79.833323 87.179427 
L 80.187779 82.197745 
L 80.542236 79.208736 
L 80.896692 82.197745 
L 81.960062 97.640959 
L 82.668975 105.113482 
L 83.023432 108.102491 
L 83.377889 109.596996 
L 83.732345 108.600659 
L 84.086802 110.095164 
L 84.795715 100.1318 
L 85.504628 93.157445 
L 85.859085 90.666604 
L 86.213541 89.670268 
L 86.567998 87.677595 
L 87.276911 86.681259 
L 87.631368 86.681259 
L 88.340281 87.677595 
L 88.694738 82.695913 
L 89.049194 79.706904 
L 89.403651 82.695913 
L 90.821477 101.626305 
L 91.53039 108.102491 
L 91.884847 109.596996 
L 92.239303 109.098828 
L 92.59376 110.095164 
L 93.65713 96.644623 
L 94.366043 90.666604 
L 94.7205 90.168436 
L 95.074956 88.175763 
L 95.429413 87.179427 
L 95.783869 86.681259 
L 96.138326 86.681259 
L 96.492783 87.677595 
L 96.847239 88.175763 
L 97.201696 82.695913 
L 97.556152 79.706904 
L 97.910609 82.197745 
L 98.973979 97.640959 
L 100.037349 108.102491 
L 100.391805 109.596996 
L 100.746262 108.600659 
L 101.100718 109.596996 
L 102.164088 96.146454 
L 102.873001 90.666604 
L 103.227458 90.168436 
L 103.581915 88.175763 
L 103.936371 87.179427 
L 104.290828 86.681259 
L 104.645284 86.681259 
L 104.999741 88.175763 
L 105.354198 88.175763 
L 105.708654 82.695913 
L 106.063111 79.706904 
L 106.417567 82.197745 
L 107.835394 100.629968 
L 108.18985 104.615314 
L 108.898763 109.098828 
L 109.25322 108.600659 
L 109.607677 109.596996 
L 110.31659 99.633632 
L 111.025503 93.655613 
L 111.37996 90.666604 
L 111.734416 90.168436 
L 112.088873 88.175763 
L 112.443329 87.179427 
L 112.797786 86.681259 
L 113.152243 87.179427 
L 113.506699 88.175763 
L 113.861156 88.175763 
L 114.215612 82.695913 
L 114.570069 79.706904 
L 114.924526 82.197745 
L 115.987895 97.142791 
L 116.342352 100.1318 
L 117.051265 107.106155 
L 117.405722 108.600659 
L 117.760178 108.102491 
L 118.114635 109.098828 
L 118.823548 99.633632 
L 119.532461 93.655613 
L 119.886918 91.164772 
L 120.241374 90.168436 
L 120.595831 88.175763 
L 120.950288 87.179427 
L 121.659201 87.179427 
L 122.013657 88.175763 
L 122.368114 88.175763 
L 123.077027 79.706904 
L 123.431484 82.197745 
L 124.84931 100.629968 
L 125.558223 107.106155 
L 125.91268 108.600659 
L 126.267137 108.102491 
L 126.621593 109.098828 
L 127.684963 95.648286 
L 128.03942 93.655613 
L 128.393876 90.666604 
L 128.748333 90.168436 
L 129.102789 88.175763 
L 129.457246 87.179427 
L 129.811703 86.681259 
L 130.166159 86.681259 
L 130.520616 87.677595 
L 130.875072 88.175763 
L 131.583986 79.706904 
L 131.938442 81.699577 
L 133.356269 100.1318 
L 133.710725 104.117146 
L 134.065182 106.607987 
L 134.419638 108.102491 
L 134.774095 108.102491 
L 135.128551 109.098828 
L 135.837465 99.135464 
L 136.546378 93.655613 
L 136.900834 91.164772 
L 137.255291 90.666604 
L 137.609748 88.175763 
L 137.964204 87.179427 
L 138.318661 86.681259 
L 139.382031 88.175763 
L 140.090944 79.706904 
L 140.4454 81.699577 
L 141.863227 100.1318 
L 142.217683 104.117146 
L 142.57214 106.607987 
L 142.926597 108.102491 
L 143.281053 108.102491 
L 143.63551 109.098828 
L 144.344423 99.633632 
L 145.053336 93.655613 
L 145.407793 91.662941 
L 145.762249 90.666604 
L 146.116706 88.175763 
L 146.471163 87.179427 
L 146.825619 86.681259 
L 147.534532 87.677595 
L 147.888989 88.673931 
L 148.243445 83.194081 
L 148.597902 79.706904 
L 148.952359 81.699577 
L 150.370185 100.629968 
L 151.079098 107.106155 
L 151.433555 108.600659 
L 151.788011 108.600659 
L 152.142468 109.596996 
L 153.205838 96.146454 
L 153.914751 91.164772 
L 154.269208 90.666604 
L 154.978121 87.179427 
L 155.332577 86.681259 
L 156.041491 87.677595 
L 156.395947 88.673931 
L 157.10486 79.706904 
L 157.459317 81.699577 
L 158.877143 100.629968 
L 159.586057 107.106155 
L 159.940513 108.600659 
L 160.29497 108.600659 
L 160.649426 109.098828 
L 161.35834 99.135464 
L 162.067253 93.655613 
L 162.421709 91.164772 
L 162.776166 90.666604 
L 163.130622 88.673931 
L 163.485079 87.677595 
L 163.839536 87.179427 
L 164.193992 87.179427 
L 164.548449 87.677595 
L 164.902905 88.673931 
L 165.611819 79.706904 
L 165.966275 81.699577 
L 167.384102 100.629968 
L 168.093015 107.106155 
L 168.447471 108.600659 
L 168.801928 108.102491 
L 169.156385 109.098828 
L 169.865298 98.637295 
L 170.574211 93.157445 
L 170.928668 91.164772 
L 171.283124 90.168436 
L 171.637581 88.175763 
L 171.992037 87.179427 
L 172.346494 86.681259 
L 173.055407 87.677595 
L 173.409864 88.673931 
L 174.118777 79.208736 
L 174.473234 81.201408 
L 175.89106 100.1318 
L 176.599973 107.106155 
L 176.95443 108.600659 
L 177.308886 108.102491 
L 177.663343 109.098828 
L 178.372256 98.637295 
L 179.081169 93.157445 
L 179.435626 91.164772 
L 179.790082 90.168436 
L 180.144539 88.175763 
L 180.498996 87.179427 
L 180.853452 86.681259 
L 181.916822 88.175763 
L 182.625735 79.208736 
L 182.980192 80.70324 
L 184.043562 96.644623 
L 185.106931 106.607987 
L 185.461388 108.102491 
L 186.170301 108.102491 
L 186.879214 98.139127 
L 187.588128 92.659277 
L 187.942584 90.666604 
L 188.297041 90.168436 
L 188.651497 88.175763 
L 189.005954 87.179427 
L 189.36041 86.681259 
L 189.714867 86.681259 
L 190.069324 87.677595 
L 190.42378 88.175763 
L 191.132693 78.710567 
L 191.48715 80.70324 
L 192.904976 99.633632 
L 193.61389 106.607987 
L 193.968346 107.604323 
L 194.677259 107.604323 
L 195.386173 98.637295 
L 196.095086 92.659277 
L 196.449542 90.666604 
L 196.803999 90.168436 
L 197.158456 88.673931 
L 197.512912 87.677595 
L 197.867369 87.179427 
L 198.221825 87.179427 
L 198.576282 88.175763 
L 198.930739 88.673931 
L 199.639652 79.208736 
L 199.994108 80.70324 
L 201.411935 100.1318 
L 202.120848 106.607987 
L 202.475305 108.102491 
L 203.184218 108.102491 
L 203.893131 98.637295 
L 204.602044 92.659277 
L 204.956501 90.666604 
L 205.310957 90.168436 
L 205.665414 88.673931 
L 206.374327 87.677595 
L 206.728784 87.677595 
L 207.08324 88.175763 
L 207.437697 89.1721 
L 208.14661 79.208736 
L 208.501067 81.201408 
L 209.918893 100.1318 
L 210.627806 107.106155 
L 210.982263 108.600659 
L 211.336719 108.600659 
L 211.691176 108.102491 
L 212.400089 98.637295 
L 213.109002 92.659277 
L 213.463459 91.164772 
L 213.817916 90.666604 
L 214.172372 89.1721 
L 214.526829 88.175763 
L 214.881285 87.677595 
L 215.235742 87.677595 
L 215.590199 88.175763 
L 215.944655 89.1721 
L 216.653568 79.706904 
L 217.008025 81.201408 
L 218.425851 100.1318 
L 218.780308 104.117146 
L 219.134764 106.607987 
L 219.489221 108.102491 
L 220.198134 108.102491 
L 220.907047 98.637295 
L 221.615961 92.659277 
L 221.970417 91.164772 
L 222.324874 91.164772 
L 222.67933 89.1721 
L 223.388244 88.175763 
L 223.7427 88.175763 
L 224.451613 89.1721 
L 225.160527 80.205072 
L 225.514983 81.699577 
L 226.93281 100.629968 
L 227.641723 107.106155 
L 227.996179 108.600659 
L 228.705093 108.600659 
L 229.414006 99.633632 
L 230.122919 93.157445 
L 230.477376 92.161109 
L 230.831832 91.662941 
L 231.186289 90.168436 
L 231.895202 89.1721 
L 232.249658 89.1721 
L 232.958572 90.168436 
L 233.667485 80.70324 
L 234.021941 82.695913 
L 234.730855 92.659277 
L 235.085311 98.139127 
L 235.439768 101.128136 
L 235.794224 105.113482 
L 236.148681 107.604323 
L 236.503138 109.098828 
L 237.212051 109.098828 
L 237.920964 100.1318 
L 238.629877 93.655613 
L 238.984334 92.659277 
L 239.33879 92.659277 
L 239.693247 90.666604 
L 240.40216 89.670268 
L 240.756617 89.670268 
L 241.46553 90.666604 
L 242.174443 81.201408 
L 242.5289 83.194081 
L 243.237813 92.161109 
L 243.59227 98.139127 
L 243.946726 101.128136 
L 244.301183 105.113482 
L 244.655639 107.604323 
L 245.010096 109.098828 
L 245.719009 109.098828 
L 246.073466 103.618977 
L 247.136835 93.655613 
L 247.491292 92.659277 
L 247.845749 92.659277 
L 248.200205 90.666604 
L 248.554662 90.666604 
L 248.909118 90.168436 
L 249.263575 90.168436 
L 249.972488 91.164772 
L 250.681401 82.197745 
L 251.035858 83.692249 
L 251.744771 92.659277 
L 252.099228 98.139127 
L 252.453684 101.128136 
L 252.808141 105.113482 
L 253.162598 107.604323 
L 253.517054 109.098828 
L 254.225967 109.098828 
L 254.934881 100.629968 
L 255.643794 94.153782 
L 255.99825 93.157445 
L 256.352707 93.157445 
L 256.707164 91.662941 
L 257.416077 90.666604 
L 257.770533 91.164772 
L 258.12499 91.164772 
L 258.479447 91.662941 
L 259.18836 82.695913 
L 259.542816 84.190418 
L 260.251729 92.659277 
L 260.606186 98.637295 
L 261.669556 107.604323 
L 262.024012 109.596996 
L 262.378469 109.098828 
L 262.732926 109.098828 
L 263.441839 100.629968 
L 264.150752 94.153782 
L 264.859665 93.157445 
L 265.214122 91.662941 
L 265.568578 91.662941 
L 265.923035 91.164772 
L 266.277492 91.662941 
L 266.631948 91.662941 
L 266.986405 92.659277 
L 267.695318 83.194081 
L 268.049775 84.688586 
L 268.404231 88.175763 
L 269.467601 101.626305 
L 270.176514 107.604323 
L 270.530971 109.596996 
L 270.885427 109.098828 
L 271.239884 109.098828 
L 271.948797 100.629968 
L 272.65771 94.65195 
L 273.012167 93.655613 
L 273.366623 93.655613 
L 273.72108 92.161109 
L 274.78445 92.161109 
L 275.493363 93.157445 
L 276.202276 84.688586 
L 276.556733 85.684922 
L 277.265646 93.655613 
L 277.620103 99.135464 
L 278.683472 108.102491 
L 279.037929 109.596996 
L 279.392386 109.596996 
L 279.746842 109.098828 
L 280.455755 101.128136 
L 281.164669 95.150118 
L 281.519125 94.153782 
L 281.873582 94.153782 
L 282.228038 92.659277 
L 283.291408 92.659277 
L 283.645865 93.655613 
L 284.000321 94.153782 
L 284.709235 85.186754 
L 285.063691 86.18309 
L 285.772604 94.153782 
L 286.127061 99.633632 
L 287.190431 108.102491 
L 287.544887 110.095164 
L 288.2538 110.095164 
L 288.962714 102.124473 
L 289.671627 96.644623 
L 290.026083 95.150118 
L 290.38054 95.150118 
L 290.734997 94.153782 
L 291.089453 93.655613 
L 291.44391 94.153782 
L 291.798366 94.153782 
L 292.50728 95.150118 
L 293.216193 86.681259 
L 293.570649 87.179427 
L 293.925106 90.168436 
L 294.279563 94.65195 
L 294.634019 100.629968 
L 294.988476 103.120809 
L 295.697389 109.098828 
L 296.051846 111.091501 
L 296.760759 111.091501 
L 297.115215 106.607987 
L 298.178585 97.640959 
L 298.533042 96.644623 
L 298.887498 96.644623 
L 299.241955 95.150118 
L 300.305325 95.150118 
L 300.659781 96.146454 
L 301.014238 96.644623 
L 301.723151 87.677595 
L 302.077608 88.175763 
L 302.432064 91.164772 
L 303.495434 103.618977 
L 304.204347 109.596996 
L 304.558804 112.087837 
L 304.91326 111.589669 
L 305.267717 111.589669 
L 305.622174 107.106155 
L 306.685543 98.637295 
L 307.04 97.142791 
L 307.04 97.142791 
" style="fill:none;stroke:#008000;stroke-linecap:square;"/>
   </g>
   <g id="patch_9">
    <path d="M 43.67875 113.084173 
L 43.67875 78.212399 
" style="fill:none;stroke:#000000;stroke-linecap:square;stroke-linejoin:miter;"/>
   </g>
   <g id="patch_10">
    <path d="M 43.67875 113.084173 
L 307.04 113.084173 
" style="fill:none;stroke:#000000;stroke-linecap:square;stroke-linejoin:miter;"/>
   </g>
   <g id="patch_11">
    <path d="M 307.04 113.084173 
L 307.04 78.212399 
" style="fill:none;stroke:#000000;stroke-linecap:square;stroke-linejoin:miter;"/>
   </g>
   <g id="patch_12">
    <path d="M 43.67875 78.212399 
L 307.04 78.212399 
" style="fill:none;stroke:#000000;stroke-linecap:square;stroke-linejoin:miter;"/>
   </g>
   <g id="matplotlib.axis_3">
    <g id="xtick_17">
     <g id="line2d_51">
      <g>
       <use style="stroke:#000000;stroke-width:0.5;" x="43.67875" xlink:href="#md577ffd1fc" y="113.084173311"/>
      </g>
     </g>
     <g id="line2d_52">
      <g>
       <use style="stroke:#000000;stroke-width:0.5;" x="43.67875" xlink:href="#me8f6d5f907" y="78.2123991556"/>
      </g>
     </g>
    </g>
    <g id="xtick_18">
     <g id="line2d_53">
      <g>
       <use style="stroke:#000000;stroke-width:0.5;" x="79.1244094886" xlink:href="#md577ffd1fc" y="113.084173311"/>
      </g>
     </g>
     <g id="line2d_54">
      <g>
       <use style="stroke:#000000;stroke-width:0.5;" x="79.1244094886" xlink:href="#me8f6d5f907" y="78.2123991556"/>
      </g>
     </g>
    </g>
    <g id="xtick_19">
     <g id="line2d_55">
      <g>
       <use style="stroke:#000000;stroke-width:0.5;" x="114.570068977" xlink:href="#md577ffd1fc" y="113.084173311"/>
      </g>
     </g>
     <g id="line2d_56">
      <g>
       <use style="stroke:#000000;stroke-width:0.5;" x="114.570068977" xlink:href="#me8f6d5f907" y="78.2123991556"/>
      </g>
     </g>
    </g>
    <g id="xtick_20">
     <g id="line2d_57">
      <g>
       <use style="stroke:#000000;stroke-width:0.5;" x="150.015728466" xlink:href="#md577ffd1fc" y="113.084173311"/>
      </g>
     </g>
     <g id="line2d_58">
      <g>
       <use style="stroke:#000000;stroke-width:0.5;" x="150.015728466" xlink:href="#me8f6d5f907" y="78.2123991556"/>
      </g>
     </g>
    </g>
    <g id="xtick_21">
     <g id="line2d_59">
      <g>
       <use style="stroke:#000000;stroke-width:0.5;" x="185.461387954" xlink:href="#md577ffd1fc" y="113.084173311"/>
      </g>
     </g>
     <g id="line2d_60">
      <g>
       <use style="stroke:#000000;stroke-width:0.5;" x="185.461387954" xlink:href="#me8f6d5f907" y="78.2123991556"/>
      </g>
     </g>
    </g>
    <g id="xtick_22">
     <g id="line2d_61">
      <g>
       <use style="stroke:#000000;stroke-width:0.5;" x="220.907047443" xlink:href="#md577ffd1fc" y="113.084173311"/>
      </g>
     </g>
     <g id="line2d_62">
      <g>
       <use style="stroke:#000000;stroke-width:0.5;" x="220.907047443" xlink:href="#me8f6d5f907" y="78.2123991556"/>
      </g>
     </g>
    </g>
    <g id="xtick_23">
     <g id="line2d_63">
      <g>
       <use style="stroke:#000000;stroke-width:0.5;" x="256.352706931" xlink:href="#md577ffd1fc" y="113.084173311"/>
      </g>
     </g>
     <g id="line2d_64">
      <g>
       <use style="stroke:#000000;stroke-width:0.5;" x="256.352706931" xlink:href="#me8f6d5f907" y="78.2123991556"/>
      </g>
     </g>
    </g>
    <g id="xtick_24">
     <g id="line2d_65">
      <g>
       <use style="stroke:#000000;stroke-width:0.5;" x="291.79836642" xlink:href="#md577ffd1fc" y="113.084173311"/>
      </g>
     </g>
     <g id="line2d_66">
      <g>
       <use style="stroke:#000000;stroke-width:0.5;" x="291.79836642" xlink:href="#me8f6d5f907" y="78.2123991556"/>
      </g>
     </g>
    </g>
    <g id="xtick_25">
     <g id="line2d_67">
      <g>
       <use style="stroke:#000000;stroke-width:0.5;" x="43.67875" xlink:href="#m72a9e8fd1a" y="113.084173311"/>
      </g>
     </g>
     <g id="line2d_68">
      <g>
       <use style="stroke:#000000;stroke-width:0.5;" x="43.67875" xlink:href="#m812a584163" y="78.2123991556"/>
      </g>
     </g>
    </g>
    <g id="xtick_26">
     <g id="line2d_69">
      <g>
       <use style="stroke:#000000;stroke-width:0.5;" x="79.1244094886" xlink:href="#m72a9e8fd1a" y="113.084173311"/>
      </g>
     </g>
     <g id="line2d_70">
      <g>
       <use style="stroke:#000000;stroke-width:0.5;" x="79.1244094886" xlink:href="#m812a584163" y="78.2123991556"/>
      </g>
     </g>
    </g>
    <g id="xtick_27">
     <g id="line2d_71">
      <g>
       <use style="stroke:#000000;stroke-width:0.5;" x="114.570068977" xlink:href="#m72a9e8fd1a" y="113.084173311"/>
      </g>
     </g>
     <g id="line2d_72">
      <g>
       <use style="stroke:#000000;stroke-width:0.5;" x="114.570068977" xlink:href="#m812a584163" y="78.2123991556"/>
      </g>
     </g>
    </g>
    <g id="xtick_28">
     <g id="line2d_73">
      <g>
       <use style="stroke:#000000;stroke-width:0.5;" x="150.015728466" xlink:href="#m72a9e8fd1a" y="113.084173311"/>
      </g>
     </g>
     <g id="line2d_74">
      <g>
       <use style="stroke:#000000;stroke-width:0.5;" x="150.015728466" xlink:href="#m812a584163" y="78.2123991556"/>
      </g>
     </g>
    </g>
    <g id="xtick_29">
     <g id="line2d_75">
      <g>
       <use style="stroke:#000000;stroke-width:0.5;" x="185.461387954" xlink:href="#m72a9e8fd1a" y="113.084173311"/>
      </g>
     </g>
     <g id="line2d_76">
      <g>
       <use style="stroke:#000000;stroke-width:0.5;" x="185.461387954" xlink:href="#m812a584163" y="78.2123991556"/>
      </g>
     </g>
    </g>
    <g id="xtick_30">
     <g id="line2d_77">
      <g>
       <use style="stroke:#000000;stroke-width:0.5;" x="220.907047443" xlink:href="#m72a9e8fd1a" y="113.084173311"/>
      </g>
     </g>
     <g id="line2d_78">
      <g>
       <use style="stroke:#000000;stroke-width:0.5;" x="220.907047443" xlink:href="#m812a584163" y="78.2123991556"/>
      </g>
     </g>
    </g>
    <g id="xtick_31">
     <g id="line2d_79">
      <g>
       <use style="stroke:#000000;stroke-width:0.5;" x="256.352706931" xlink:href="#m72a9e8fd1a" y="113.084173311"/>
      </g>
     </g>
     <g id="line2d_80">
      <g>
       <use style="stroke:#000000;stroke-width:0.5;" x="256.352706931" xlink:href="#m812a584163" y="78.2123991556"/>
      </g>
     </g>
    </g>
    <g id="xtick_32">
     <g id="line2d_81">
      <g>
       <use style="stroke:#000000;stroke-width:0.5;" x="291.79836642" xlink:href="#m72a9e8fd1a" y="113.084173311"/>
      </g>
     </g>
     <g id="line2d_82">
      <g>
       <use style="stroke:#000000;stroke-width:0.5;" x="291.79836642" xlink:href="#m812a584163" y="78.2123991556"/>
      </g>
     </g>
    </g>
   </g>
   <g id="matplotlib.axis_4">
    <g id="ytick_8">
     <g id="line2d_83">
      <g>
       <use style="stroke:#000000;stroke-width:0.5;" x="43.67875" xlink:href="#mdff5b91c01" y="113.084173311"/>
      </g>
     </g>
     <g id="line2d_84">
      <g>
       <use style="stroke:#000000;stroke-width:0.5;" x="307.04" xlink:href="#m2effe063bf" y="113.084173311"/>
      </g>
     </g>
     <g id="text_9">
      <!-- 66 -->
      <defs>
       <path d="M 33.015625 40.375 
Q 26.375 40.375 22.484375 35.828125 
Q 18.609375 31.296875 18.609375 23.390625 
Q 18.609375 15.53125 22.484375 10.953125 
Q 26.375 6.390625 33.015625 6.390625 
Q 39.65625 6.390625 43.53125 10.953125 
Q 47.40625 15.53125 47.40625 23.390625 
Q 47.40625 31.296875 43.53125 35.828125 
Q 39.65625 40.375 33.015625 40.375 
M 52.59375 71.296875 
L 52.59375 62.3125 
Q 48.875 64.0625 45.09375 64.984375 
Q 41.3125 65.921875 37.59375 65.921875 
Q 27.828125 65.921875 22.671875 59.328125 
Q 17.53125 52.734375 16.796875 39.40625 
Q 19.671875 43.65625 24.015625 45.921875 
Q 28.375 48.1875 33.59375 48.1875 
Q 44.578125 48.1875 50.953125 41.515625 
Q 57.328125 34.859375 57.328125 23.390625 
Q 57.328125 12.15625 50.6875 5.359375 
Q 44.046875 -1.421875 33.015625 -1.421875 
Q 20.359375 -1.421875 13.671875 8.265625 
Q 6.984375 17.96875 6.984375 36.375 
Q 6.984375 53.65625 15.1875 63.9375 
Q 23.390625 74.21875 37.203125 74.21875 
Q 40.921875 74.21875 44.703125 73.484375 
Q 48.484375 72.75 52.59375 71.296875 
" id="BitstreamVeraSans-Roman-36"/>
      </defs>
      <g transform="translate(24.40875 116.395423311)scale(0.12 -0.12)">
       <use xlink:href="#BitstreamVeraSans-Roman-36"/>
       <use x="63.623046875" xlink:href="#BitstreamVeraSans-Roman-36"/>
      </g>
     </g>
    </g>
    <g id="ytick_9">
     <g id="line2d_85">
      <g>
       <use style="stroke:#000000;stroke-width:0.5;" x="43.67875" xlink:href="#mdff5b91c01" y="108.102491289"/>
      </g>
     </g>
     <g id="line2d_86">
      <g>
       <use style="stroke:#000000;stroke-width:0.5;" x="307.04" xlink:href="#m2effe063bf" y="108.102491289"/>
      </g>
     </g>
     <g id="text_10">
      <!-- 67 -->
      <g transform="translate(24.40875 111.413741289)scale(0.12 -0.12)">
       <use xlink:href="#BitstreamVeraSans-Roman-36"/>
       <use x="63.623046875" xlink:href="#BitstreamVeraSans-Roman-37"/>
      </g>
     </g>
    </g>
    <g id="ytick_10">
     <g id="line2d_87">
      <g>
       <use style="stroke:#000000;stroke-width:0.5;" x="43.67875" xlink:href="#mdff5b91c01" y="103.120809267"/>
      </g>
     </g>
     <g id="line2d_88">
      <g>
       <use style="stroke:#000000;stroke-width:0.5;" x="307.04" xlink:href="#m2effe063bf" y="103.120809267"/>
      </g>
     </g>
     <g id="text_11">
      <!-- 68 -->
      <g transform="translate(24.40875 106.432059267)scale(0.12 -0.12)">
       <use xlink:href="#BitstreamVeraSans-Roman-36"/>
       <use x="63.623046875" xlink:href="#BitstreamVeraSans-Roman-38"/>
      </g>
     </g>
    </g>
    <g id="ytick_11">
     <g id="line2d_89">
      <g>
       <use style="stroke:#000000;stroke-width:0.5;" x="43.67875" xlink:href="#mdff5b91c01" y="98.1391272445"/>
      </g>
     </g>
     <g id="line2d_90">
      <g>
       <use style="stroke:#000000;stroke-width:0.5;" x="307.04" xlink:href="#m2effe063bf" y="98.1391272445"/>
      </g>
     </g>
     <g id="text_12">
      <!-- 69 -->
      <g transform="translate(24.40875 101.450377245)scale(0.12 -0.12)">
       <use xlink:href="#BitstreamVeraSans-Roman-36"/>
       <use x="63.623046875" xlink:href="#BitstreamVeraSans-Roman-39"/>
      </g>
     </g>
    </g>
    <g id="ytick_12">
     <g id="line2d_91">
      <g>
       <use style="stroke:#000000;stroke-width:0.5;" x="43.67875" xlink:href="#mdff5b91c01" y="93.1574452223"/>
      </g>
     </g>
     <g id="line2d_92">
      <g>
       <use style="stroke:#000000;stroke-width:0.5;" x="307.04" xlink:href="#m2effe063bf" y="93.1574452223"/>
      </g>
     </g>
     <g id="text_13">
      <!-- 70 -->
      <g transform="translate(24.40875 96.4686952223)scale(0.12 -0.12)">
       <use xlink:href="#BitstreamVeraSans-Roman-37"/>
       <use x="63.623046875" xlink:href="#BitstreamVeraSans-Roman-30"/>
      </g>
     </g>
    </g>
    <g id="ytick_13">
     <g id="line2d_93">
      <g>
       <use style="stroke:#000000;stroke-width:0.5;" x="43.67875" xlink:href="#mdff5b91c01" y="88.1757632001"/>
      </g>
     </g>
     <g id="line2d_94">
      <g>
       <use style="stroke:#000000;stroke-width:0.5;" x="307.04" xlink:href="#m2effe063bf" y="88.1757632001"/>
      </g>
     </g>
     <g id="text_14">
      <!-- 71 -->
      <g transform="translate(24.40875 91.4870132001)scale(0.12 -0.12)">
       <use xlink:href="#BitstreamVeraSans-Roman-37"/>
       <use x="63.623046875" xlink:href="#BitstreamVeraSans-Roman-31"/>
      </g>
     </g>
    </g>
    <g id="ytick_14">
     <g id="line2d_95">
      <g>
       <use style="stroke:#000000;stroke-width:0.5;" x="43.67875" xlink:href="#mdff5b91c01" y="83.1940811778"/>
      </g>
     </g>
     <g id="line2d_96">
      <g>
       <use style="stroke:#000000;stroke-width:0.5;" x="307.04" xlink:href="#m2effe063bf" y="83.1940811778"/>
      </g>
     </g>
     <g id="text_15">
      <!-- 72 -->
      <defs>
       <path d="M 19.1875 8.296875 
L 53.609375 8.296875 
L 53.609375 0 
L 7.328125 0 
L 7.328125 8.296875 
Q 12.9375 14.109375 22.625 23.890625 
Q 32.328125 33.6875 34.8125 36.53125 
Q 39.546875 41.84375 41.421875 45.53125 
Q 43.3125 49.21875 43.3125 52.78125 
Q 43.3125 58.59375 39.234375 62.25 
Q 35.15625 65.921875 28.609375 65.921875 
Q 23.96875 65.921875 18.8125 64.3125 
Q 13.671875 62.703125 7.8125 59.421875 
L 7.8125 69.390625 
Q 13.765625 71.78125 18.9375 73 
Q 24.125 74.21875 28.421875 74.21875 
Q 39.75 74.21875 46.484375 68.546875 
Q 53.21875 62.890625 53.21875 53.421875 
Q 53.21875 48.921875 51.53125 44.890625 
Q 49.859375 40.875 45.40625 35.40625 
Q 44.1875 33.984375 37.640625 27.21875 
Q 31.109375 20.453125 19.1875 8.296875 
" id="BitstreamVeraSans-Roman-32"/>
      </defs>
      <g transform="translate(24.40875 86.5053311778)scale(0.12 -0.12)">
       <use xlink:href="#BitstreamVeraSans-Roman-37"/>
       <use x="63.623046875" xlink:href="#BitstreamVeraSans-Roman-32"/>
      </g>
     </g>
    </g>
    <g id="ytick_15">
     <g id="line2d_97">
      <g>
       <use style="stroke:#000000;stroke-width:0.5;" x="43.67875" xlink:href="#mdff5b91c01" y="78.2123991556"/>
      </g>
     </g>
     <g id="line2d_98">
      <g>
       <use style="stroke:#000000;stroke-width:0.5;" x="307.04" xlink:href="#m2effe063bf" y="78.2123991556"/>
      </g>
     </g>
     <g id="text_16">
      <!-- 73 -->
      <defs>
       <path d="M 40.578125 39.3125 
Q 47.65625 37.796875 51.625 33 
Q 55.609375 28.21875 55.609375 21.1875 
Q 55.609375 10.40625 48.1875 4.484375 
Q 40.765625 -1.421875 27.09375 -1.421875 
Q 22.515625 -1.421875 17.65625 -0.515625 
Q 12.796875 0.390625 7.625 2.203125 
L 7.625 11.71875 
Q 11.71875 9.328125 16.59375 8.109375 
Q 21.484375 6.890625 26.8125 6.890625 
Q 36.078125 6.890625 40.9375 10.546875 
Q 45.796875 14.203125 45.796875 21.1875 
Q 45.796875 27.640625 41.28125 31.265625 
Q 36.765625 34.90625 28.71875 34.90625 
L 20.21875 34.90625 
L 20.21875 43.015625 
L 29.109375 43.015625 
Q 36.375 43.015625 40.234375 45.921875 
Q 44.09375 48.828125 44.09375 54.296875 
Q 44.09375 59.90625 40.109375 62.90625 
Q 36.140625 65.921875 28.71875 65.921875 
Q 24.65625 65.921875 20.015625 65.03125 
Q 15.375 64.15625 9.8125 62.3125 
L 9.8125 71.09375 
Q 15.4375 72.65625 20.34375 73.4375 
Q 25.25 74.21875 29.59375 74.21875 
Q 40.828125 74.21875 47.359375 69.109375 
Q 53.90625 64.015625 53.90625 55.328125 
Q 53.90625 49.265625 50.4375 45.09375 
Q 46.96875 40.921875 40.578125 39.3125 
" id="BitstreamVeraSans-Roman-33"/>
      </defs>
      <g transform="translate(24.40875 81.5236491556)scale(0.12 -0.12)">
       <use xlink:href="#BitstreamVeraSans-Roman-37"/>
       <use x="63.623046875" xlink:href="#BitstreamVeraSans-Roman-33"/>
      </g>
     </g>
    </g>
   </g>
   <g id="legend_2">
    <g id="patch_13">
     <path d="M 50.87875 105.884173 
L 231.09475 105.884173 
L 231.09475 80.427673 
L 50.87875 80.427673 
z
" style="fill:#ffffff;stroke:#000000;stroke-linejoin:miter;"/>
    </g>
    <g id="line2d_99">
     <path d="M 60.95875 92.089423 
L 81.11875 92.089423 
" style="fill:none;stroke:#008000;stroke-linecap:square;"/>
    </g>
    <g id="line2d_100"/>
    <g id="text_17">
     <!-- Dew Point (deg F) -->
     <defs>
      <path d="M 4.203125 54.6875 
L 13.1875 54.6875 
L 24.421875 12.015625 
L 35.59375 54.6875 
L 46.1875 54.6875 
L 57.421875 12.015625 
L 68.609375 54.6875 
L 77.59375 54.6875 
L 63.28125 0 
L 52.6875 0 
L 40.921875 44.828125 
L 29.109375 0 
L 18.5 0 
z
" id="BitstreamVeraSans-Roman-77"/>
      <path d="M 9.421875 54.6875 
L 18.40625 54.6875 
L 18.40625 0 
L 9.421875 0 
z
M 9.421875 75.984375 
L 18.40625 75.984375 
L 18.40625 64.59375 
L 9.421875 64.59375 
z
" id="BitstreamVeraSans-Roman-69"/>
      <path d="M 30.609375 48.390625 
Q 23.390625 48.390625 19.1875 42.75 
Q 14.984375 37.109375 14.984375 27.296875 
Q 14.984375 17.484375 19.15625 11.84375 
Q 23.34375 6.203125 30.609375 6.203125 
Q 37.796875 6.203125 41.984375 11.859375 
Q 46.1875 17.53125 46.1875 27.296875 
Q 46.1875 37.015625 41.984375 42.703125 
Q 37.796875 48.390625 30.609375 48.390625 
M 30.609375 56 
Q 42.328125 56 49.015625 48.375 
Q 55.71875 40.765625 55.71875 27.296875 
Q 55.71875 13.875 49.015625 6.21875 
Q 42.328125 -1.421875 30.609375 -1.421875 
Q 18.84375 -1.421875 12.171875 6.21875 
Q 5.515625 13.875 5.515625 27.296875 
Q 5.515625 40.765625 12.171875 48.375 
Q 18.84375 56 30.609375 56 
" id="BitstreamVeraSans-Roman-6f"/>
      <path d="M 54.890625 33.015625 
L 54.890625 0 
L 45.90625 0 
L 45.90625 32.71875 
Q 45.90625 40.484375 42.875 44.328125 
Q 39.84375 48.1875 33.796875 48.1875 
Q 26.515625 48.1875 22.3125 43.546875 
Q 18.109375 38.921875 18.109375 30.90625 
L 18.109375 0 
L 9.078125 0 
L 9.078125 54.6875 
L 18.109375 54.6875 
L 18.109375 46.1875 
Q 21.34375 51.125 25.703125 53.5625 
Q 30.078125 56 35.796875 56 
Q 45.21875 56 50.046875 50.171875 
Q 54.890625 44.34375 54.890625 33.015625 
" id="BitstreamVeraSans-Roman-6e"/>
      <path d="M 19.671875 64.796875 
L 19.671875 8.109375 
L 31.59375 8.109375 
Q 46.6875 8.109375 53.6875 14.9375 
Q 60.6875 21.78125 60.6875 36.53125 
Q 60.6875 51.171875 53.6875 57.984375 
Q 46.6875 64.796875 31.59375 64.796875 
z
M 9.8125 72.90625 
L 30.078125 72.90625 
Q 51.265625 72.90625 61.171875 64.09375 
Q 71.09375 55.28125 71.09375 36.53125 
Q 71.09375 17.671875 61.125 8.828125 
Q 51.171875 0 30.078125 0 
L 9.8125 0 
z
" id="BitstreamVeraSans-Roman-44"/>
      <path d="M 19.671875 64.796875 
L 19.671875 37.40625 
L 32.078125 37.40625 
Q 38.96875 37.40625 42.71875 40.96875 
Q 46.484375 44.53125 46.484375 51.125 
Q 46.484375 57.671875 42.71875 61.234375 
Q 38.96875 64.796875 32.078125 64.796875 
z
M 9.8125 72.90625 
L 32.078125 72.90625 
Q 44.34375 72.90625 50.609375 67.359375 
Q 56.890625 61.8125 56.890625 51.125 
Q 56.890625 40.328125 50.609375 34.8125 
Q 44.34375 29.296875 32.078125 29.296875 
L 19.671875 29.296875 
L 19.671875 0 
L 9.8125 0 
z
" id="BitstreamVeraSans-Roman-50"/>
     </defs>
     <g transform="translate(96.95875 97.1294233112)scale(0.144 -0.144)">
      <use xlink:href="#BitstreamVeraSans-Roman-44"/>
      <use x="77.001953125" xlink:href="#BitstreamVeraSans-Roman-65"/>
      <use x="138.525390625" xlink:href="#BitstreamVeraSans-Roman-77"/>
      <use x="220.3125" xlink:href="#BitstreamVeraSans-Roman-20"/>
      <use x="252.099609375" xlink:href="#BitstreamVeraSans-Roman-50"/>
      <use x="312.35546875" xlink:href="#BitstreamVeraSans-Roman-6f"/>
      <use x="373.537109375" xlink:href="#BitstreamVeraSans-Roman-69"/>
      <use x="401.3203125" xlink:href="#BitstreamVeraSans-Roman-6e"/>
      <use x="464.69921875" xlink:href="#BitstreamVeraSans-Roman-74"/>
      <use x="503.908203125" xlink:href="#BitstreamVeraSans-Roman-20"/>
      <use x="535.6953125" xlink:href="#BitstreamVeraSans-Roman-28"/>
      <use x="574.708984375" xlink:href="#BitstreamVeraSans-Roman-64"/>
      <use x="638.185546875" xlink:href="#BitstreamVeraSans-Roman-65"/>
      <use x="699.708984375" xlink:href="#BitstreamVeraSans-Roman-67"/>
      <use x="763.185546875" xlink:href="#BitstreamVeraSans-Roman-20"/>
      <use x="794.97265625" xlink:href="#BitstreamVeraSans-Roman-46"/>
      <use x="852.4921875" xlink:href="#BitstreamVeraSans-Roman-29"/>
     </g>
    </g>
   </g>
  </g>
  <g id="axes_3">
   <g id="patch_14">
    <path d="M 43.67875 172.529697 
L 307.04 172.529697 
L 307.04 137.657923 
L 43.67875 137.657923 
z
" style="fill:#ffffff;"/>
   </g>
   <g id="line2d_101">
    <path clip-path="url(#pba2760c370)" d="M 43.67875 155.09381 
L 307.04 155.09381 
L 307.04 155.09381 
" style="fill:none;stroke:#ff0000;stroke-linecap:square;"/>
   </g>
   <g id="patch_15">
    <path d="M 43.67875 172.529697 
L 43.67875 137.657923 
" style="fill:none;stroke:#000000;stroke-linecap:square;stroke-linejoin:miter;"/>
   </g>
   <g id="patch_16">
    <path d="M 43.67875 172.529697 
L 307.04 172.529697 
" style="fill:none;stroke:#000000;stroke-linecap:square;stroke-linejoin:miter;"/>
   </g>
   <g id="patch_17">
    <path d="M 307.04 172.529697 
L 307.04 137.657923 
" style="fill:none;stroke:#000000;stroke-linecap:square;stroke-linejoin:miter;"/>
   </g>
   <g id="patch_18">
    <path d="M 43.67875 137.657923 
L 307.04 137.657923 
" style="fill:none;stroke:#000000;stroke-linecap:square;stroke-linejoin:miter;"/>
   </g>
   <g id="matplotlib.axis_5">
    <g id="xtick_33">
     <g id="line2d_102">
      <g>
       <use style="stroke:#000000;stroke-width:0.5;" x="43.67875" xlink:href="#md577ffd1fc" y="172.529697467"/>
      </g>
     </g>
     <g id="line2d_103">
      <g>
       <use style="stroke:#000000;stroke-width:0.5;" x="43.67875" xlink:href="#me8f6d5f907" y="137.657923311"/>
      </g>
     </g>
     <g id="text_18">
      <!-- 0 -->
      <g transform="translate(35.8188335421 188.243725352)rotate(-30.0)scale(0.12 -0.12)">
       <use xlink:href="#BitstreamVeraSans-Roman-30"/>
      </g>
     </g>
    </g>
    <g id="xtick_34">
     <g id="line2d_104">
      <g>
       <use style="stroke:#000000;stroke-width:0.5;" x="79.1244094886" xlink:href="#md577ffd1fc" y="172.529697467"/>
      </g>
     </g>
     <g id="line2d_105">
      <g>
       <use style="stroke:#000000;stroke-width:0.5;" x="79.1244094886" xlink:href="#me8f6d5f907" y="137.657923311"/>
      </g>
     </g>
     <g id="text_19">
      <!-- 100 -->
      <g transform="translate(58.0402851149 195.878725352)rotate(-30.0)scale(0.12 -0.12)">
       <use xlink:href="#BitstreamVeraSans-Roman-31"/>
       <use x="63.623046875" xlink:href="#BitstreamVeraSans-Roman-30"/>
       <use x="127.24609375" xlink:href="#BitstreamVeraSans-Roman-30"/>
      </g>
     </g>
    </g>
    <g id="xtick_35">
     <g id="line2d_106">
      <g>
       <use style="stroke:#000000;stroke-width:0.5;" x="114.570068977" xlink:href="#md577ffd1fc" y="172.529697467"/>
      </g>
     </g>
     <g id="line2d_107">
      <g>
       <use style="stroke:#000000;stroke-width:0.5;" x="114.570068977" xlink:href="#me8f6d5f907" y="137.657923311"/>
      </g>
     </g>
     <g id="text_20">
      <!-- 200 -->
      <g transform="translate(93.4859446034 195.878725352)rotate(-30.0)scale(0.12 -0.12)">
       <use xlink:href="#BitstreamVeraSans-Roman-32"/>
       <use x="63.623046875" xlink:href="#BitstreamVeraSans-Roman-30"/>
       <use x="127.24609375" xlink:href="#BitstreamVeraSans-Roman-30"/>
      </g>
     </g>
    </g>
    <g id="xtick_36">
     <g id="line2d_108">
      <g>
       <use style="stroke:#000000;stroke-width:0.5;" x="150.015728466" xlink:href="#md577ffd1fc" y="172.529697467"/>
      </g>
     </g>
     <g id="line2d_109">
      <g>
       <use style="stroke:#000000;stroke-width:0.5;" x="150.015728466" xlink:href="#me8f6d5f907" y="137.657923311"/>
      </g>
     </g>
     <g id="text_21">
      <!-- 300 -->
      <g transform="translate(128.931604092 195.878725352)rotate(-30.0)scale(0.12 -0.12)">
       <use xlink:href="#BitstreamVeraSans-Roman-33"/>
       <use x="63.623046875" xlink:href="#BitstreamVeraSans-Roman-30"/>
       <use x="127.24609375" xlink:href="#BitstreamVeraSans-Roman-30"/>
      </g>
     </g>
    </g>
    <g id="xtick_37">
     <g id="line2d_110">
      <g>
       <use style="stroke:#000000;stroke-width:0.5;" x="185.461387954" xlink:href="#md577ffd1fc" y="172.529697467"/>
      </g>
     </g>
     <g id="line2d_111">
      <g>
       <use style="stroke:#000000;stroke-width:0.5;" x="185.461387954" xlink:href="#me8f6d5f907" y="137.657923311"/>
      </g>
     </g>
     <g id="text_22">
      <!-- 400 -->
      <defs>
       <path d="M 37.796875 64.3125 
L 12.890625 25.390625 
L 37.796875 25.390625 
z
M 35.203125 72.90625 
L 47.609375 72.90625 
L 47.609375 25.390625 
L 58.015625 25.390625 
L 58.015625 17.1875 
L 47.609375 17.1875 
L 47.609375 0 
L 37.796875 0 
L 37.796875 17.1875 
L 4.890625 17.1875 
L 4.890625 26.703125 
z
" id="BitstreamVeraSans-Roman-34"/>
      </defs>
      <g transform="translate(164.377263581 195.878725352)rotate(-30.0)scale(0.12 -0.12)">
       <use xlink:href="#BitstreamVeraSans-Roman-34"/>
       <use x="63.623046875" xlink:href="#BitstreamVeraSans-Roman-30"/>
       <use x="127.24609375" xlink:href="#BitstreamVeraSans-Roman-30"/>
      </g>
     </g>
    </g>
    <g id="xtick_38">
     <g id="line2d_112">
      <g>
       <use style="stroke:#000000;stroke-width:0.5;" x="220.907047443" xlink:href="#md577ffd1fc" y="172.529697467"/>
      </g>
     </g>
     <g id="line2d_113">
      <g>
       <use style="stroke:#000000;stroke-width:0.5;" x="220.907047443" xlink:href="#me8f6d5f907" y="137.657923311"/>
      </g>
     </g>
     <g id="text_23">
      <!-- 500 -->
      <g transform="translate(199.822923069 195.878725352)rotate(-30.0)scale(0.12 -0.12)">
       <use xlink:href="#BitstreamVeraSans-Roman-35"/>
       <use x="63.623046875" xlink:href="#BitstreamVeraSans-Roman-30"/>
       <use x="127.24609375" xlink:href="#BitstreamVeraSans-Roman-30"/>
      </g>
     </g>
    </g>
    <g id="xtick_39">
     <g id="line2d_114">
      <g>
       <use style="stroke:#000000;stroke-width:0.5;" x="256.352706931" xlink:href="#md577ffd1fc" y="172.529697467"/>
      </g>
     </g>
     <g id="line2d_115">
      <g>
       <use style="stroke:#000000;stroke-width:0.5;" x="256.352706931" xlink:href="#me8f6d5f907" y="137.657923311"/>
      </g>
     </g>
     <g id="text_24">
      <!-- 600 -->
      <g transform="translate(235.268582558 195.878725352)rotate(-30.0)scale(0.12 -0.12)">
       <use xlink:href="#BitstreamVeraSans-Roman-36"/>
       <use x="63.623046875" xlink:href="#BitstreamVeraSans-Roman-30"/>
       <use x="127.24609375" xlink:href="#BitstreamVeraSans-Roman-30"/>
      </g>
     </g>
    </g>
    <g id="xtick_40">
     <g id="line2d_116">
      <g>
       <use style="stroke:#000000;stroke-width:0.5;" x="291.79836642" xlink:href="#md577ffd1fc" y="172.529697467"/>
      </g>
     </g>
     <g id="line2d_117">
      <g>
       <use style="stroke:#000000;stroke-width:0.5;" x="291.79836642" xlink:href="#me8f6d5f907" y="137.657923311"/>
      </g>
     </g>
     <g id="text_25">
      <!-- 700 -->
      <g transform="translate(270.714242046 195.878725352)rotate(-30.0)scale(0.12 -0.12)">
       <use xlink:href="#BitstreamVeraSans-Roman-37"/>
       <use x="63.623046875" xlink:href="#BitstreamVeraSans-Roman-30"/>
       <use x="127.24609375" xlink:href="#BitstreamVeraSans-Roman-30"/>
      </g>
     </g>
    </g>
    <g id="xtick_41">
     <g id="line2d_118">
      <g>
       <use style="stroke:#000000;stroke-width:0.5;" x="43.67875" xlink:href="#m72a9e8fd1a" y="172.529697467"/>
      </g>
     </g>
     <g id="line2d_119">
      <g>
       <use style="stroke:#000000;stroke-width:0.5;" x="43.67875" xlink:href="#m812a584163" y="137.657923311"/>
      </g>
     </g>
    </g>
    <g id="xtick_42">
     <g id="line2d_120">
      <g>
       <use style="stroke:#000000;stroke-width:0.5;" x="79.1244094886" xlink:href="#m72a9e8fd1a" y="172.529697467"/>
      </g>
     </g>
     <g id="line2d_121">
      <g>
       <use style="stroke:#000000;stroke-width:0.5;" x="79.1244094886" xlink:href="#m812a584163" y="137.657923311"/>
      </g>
     </g>
    </g>
    <g id="xtick_43">
     <g id="line2d_122">
      <g>
       <use style="stroke:#000000;stroke-width:0.5;" x="114.570068977" xlink:href="#m72a9e8fd1a" y="172.529697467"/>
      </g>
     </g>
     <g id="line2d_123">
      <g>
       <use style="stroke:#000000;stroke-width:0.5;" x="114.570068977" xlink:href="#m812a584163" y="137.657923311"/>
      </g>
     </g>
    </g>
    <g id="xtick_44">
     <g id="line2d_124">
      <g>
       <use style="stroke:#000000;stroke-width:0.5;" x="150.015728466" xlink:href="#m72a9e8fd1a" y="172.529697467"/>
      </g>
     </g>
     <g id="line2d_125">
      <g>
       <use style="stroke:#000000;stroke-width:0.5;" x="150.015728466" xlink:href="#m812a584163" y="137.657923311"/>
      </g>
     </g>
    </g>
    <g id="xtick_45">
     <g id="line2d_126">
      <g>
       <use style="stroke:#000000;stroke-width:0.5;" x="185.461387954" xlink:href="#m72a9e8fd1a" y="172.529697467"/>
      </g>
     </g>
     <g id="line2d_127">
      <g>
       <use style="stroke:#000000;stroke-width:0.5;" x="185.461387954" xlink:href="#m812a584163" y="137.657923311"/>
      </g>
     </g>
    </g>
    <g id="xtick_46">
     <g id="line2d_128">
      <g>
       <use style="stroke:#000000;stroke-width:0.5;" x="220.907047443" xlink:href="#m72a9e8fd1a" y="172.529697467"/>
      </g>
     </g>
     <g id="line2d_129">
      <g>
       <use style="stroke:#000000;stroke-width:0.5;" x="220.907047443" xlink:href="#m812a584163" y="137.657923311"/>
      </g>
     </g>
    </g>
    <g id="xtick_47">
     <g id="line2d_130">
      <g>
       <use style="stroke:#000000;stroke-width:0.5;" x="256.352706931" xlink:href="#m72a9e8fd1a" y="172.529697467"/>
      </g>
     </g>
     <g id="line2d_131">
      <g>
       <use style="stroke:#000000;stroke-width:0.5;" x="256.352706931" xlink:href="#m812a584163" y="137.657923311"/>
      </g>
     </g>
    </g>
    <g id="xtick_48">
     <g id="line2d_132">
      <g>
       <use style="stroke:#000000;stroke-width:0.5;" x="291.79836642" xlink:href="#m72a9e8fd1a" y="172.529697467"/>
      </g>
     </g>
     <g id="line2d_133">
      <g>
       <use style="stroke:#000000;stroke-width:0.5;" x="291.79836642" xlink:href="#m812a584163" y="137.657923311"/>
      </g>
     </g>
    </g>
   </g>
   <g id="matplotlib.axis_6">
    <g id="ytick_16">
     <g id="line2d_134">
      <g>
       <use style="stroke:#000000;stroke-width:0.5;" x="43.67875" xlink:href="#mdff5b91c01" y="172.529697467"/>
      </g>
     </g>
     <g id="line2d_135">
      <g>
       <use style="stroke:#000000;stroke-width:0.5;" x="307.04" xlink:href="#m2effe063bf" y="172.529697467"/>
      </g>
     </g>
     <g id="text_26">
      <!-- 0.94 -->
      <defs>
       <path d="M 10.6875 12.40625 
L 21 12.40625 
L 21 0 
L 10.6875 0 
z
" id="BitstreamVeraSans-Roman-2e"/>
      </defs>
      <g transform="translate(12.96 175.840947467)scale(0.12 -0.12)">
       <use xlink:href="#BitstreamVeraSans-Roman-30"/>
       <use x="63.623046875" xlink:href="#BitstreamVeraSans-Roman-2e"/>
       <use x="95.41015625" xlink:href="#BitstreamVeraSans-Roman-39"/>
       <use x="159.033203125" xlink:href="#BitstreamVeraSans-Roman-34"/>
      </g>
     </g>
    </g>
    <g id="ytick_17">
     <g id="line2d_136">
      <g>
       <use style="stroke:#000000;stroke-width:0.5;" x="43.67875" xlink:href="#mdff5b91c01" y="166.717735108"/>
      </g>
     </g>
     <g id="line2d_137">
      <g>
       <use style="stroke:#000000;stroke-width:0.5;" x="307.04" xlink:href="#m2effe063bf" y="166.717735108"/>
      </g>
     </g>
     <g id="text_27">
      <!-- 0.96 -->
      <g transform="translate(12.96 170.028985108)scale(0.12 -0.12)">
       <use xlink:href="#BitstreamVeraSans-Roman-30"/>
       <use x="63.623046875" xlink:href="#BitstreamVeraSans-Roman-2e"/>
       <use x="95.41015625" xlink:href="#BitstreamVeraSans-Roman-39"/>
       <use x="159.033203125" xlink:href="#BitstreamVeraSans-Roman-36"/>
      </g>
     </g>
    </g>
    <g id="ytick_18">
     <g id="line2d_138">
      <g>
       <use style="stroke:#000000;stroke-width:0.5;" x="43.67875" xlink:href="#mdff5b91c01" y="160.905772748"/>
      </g>
     </g>
     <g id="line2d_139">
      <g>
       <use style="stroke:#000000;stroke-width:0.5;" x="307.04" xlink:href="#m2effe063bf" y="160.905772748"/>
      </g>
     </g>
     <g id="text_28">
      <!-- 0.98 -->
      <g transform="translate(12.96 164.217022748)scale(0.12 -0.12)">
       <use xlink:href="#BitstreamVeraSans-Roman-30"/>
       <use x="63.623046875" xlink:href="#BitstreamVeraSans-Roman-2e"/>
       <use x="95.41015625" xlink:href="#BitstreamVeraSans-Roman-39"/>
       <use x="159.033203125" xlink:href="#BitstreamVeraSans-Roman-38"/>
      </g>
     </g>
    </g>
    <g id="ytick_19">
     <g id="line2d_140">
      <g>
       <use style="stroke:#000000;stroke-width:0.5;" x="43.67875" xlink:href="#mdff5b91c01" y="155.093810389"/>
      </g>
     </g>
     <g id="line2d_141">
      <g>
       <use style="stroke:#000000;stroke-width:0.5;" x="307.04" xlink:href="#m2effe063bf" y="155.093810389"/>
      </g>
     </g>
     <g id="text_29">
      <!-- 1.00 -->
      <g transform="translate(12.96 158.405060389)scale(0.12 -0.12)">
       <use xlink:href="#BitstreamVeraSans-Roman-31"/>
       <use x="63.623046875" xlink:href="#BitstreamVeraSans-Roman-2e"/>
       <use x="95.41015625" xlink:href="#BitstreamVeraSans-Roman-30"/>
       <use x="159.033203125" xlink:href="#BitstreamVeraSans-Roman-30"/>
      </g>
     </g>
    </g>
    <g id="ytick_20">
     <g id="line2d_142">
      <g>
       <use style="stroke:#000000;stroke-width:0.5;" x="43.67875" xlink:href="#mdff5b91c01" y="149.28184803"/>
      </g>
     </g>
     <g id="line2d_143">
      <g>
       <use style="stroke:#000000;stroke-width:0.5;" x="307.04" xlink:href="#m2effe063bf" y="149.28184803"/>
      </g>
     </g>
     <g id="text_30">
      <!-- 1.02 -->
      <g transform="translate(12.96 152.59309803)scale(0.12 -0.12)">
       <use xlink:href="#BitstreamVeraSans-Roman-31"/>
       <use x="63.623046875" xlink:href="#BitstreamVeraSans-Roman-2e"/>
       <use x="95.41015625" xlink:href="#BitstreamVeraSans-Roman-30"/>
       <use x="159.033203125" xlink:href="#BitstreamVeraSans-Roman-32"/>
      </g>
     </g>
    </g>
    <g id="ytick_21">
     <g id="line2d_144">
      <g>
       <use style="stroke:#000000;stroke-width:0.5;" x="43.67875" xlink:href="#mdff5b91c01" y="143.46988567"/>
      </g>
     </g>
     <g id="line2d_145">
      <g>
       <use style="stroke:#000000;stroke-width:0.5;" x="307.04" xlink:href="#m2effe063bf" y="143.46988567"/>
      </g>
     </g>
     <g id="text_31">
      <!-- 1.04 -->
      <g transform="translate(12.96 146.78113567)scale(0.12 -0.12)">
       <use xlink:href="#BitstreamVeraSans-Roman-31"/>
       <use x="63.623046875" xlink:href="#BitstreamVeraSans-Roman-2e"/>
       <use x="95.41015625" xlink:href="#BitstreamVeraSans-Roman-30"/>
       <use x="159.033203125" xlink:href="#BitstreamVeraSans-Roman-34"/>
      </g>
     </g>
    </g>
    <g id="ytick_22">
     <g id="line2d_146">
      <g>
       <use style="stroke:#000000;stroke-width:0.5;" x="43.67875" xlink:href="#mdff5b91c01" y="137.657923311"/>
      </g>
     </g>
     <g id="line2d_147">
      <g>
       <use style="stroke:#000000;stroke-width:0.5;" x="307.04" xlink:href="#m2effe063bf" y="137.657923311"/>
      </g>
     </g>
     <g id="text_32">
      <!-- 1.06 -->
      <g transform="translate(12.96 140.969173311)scale(0.12 -0.12)">
       <use xlink:href="#BitstreamVeraSans-Roman-31"/>
       <use x="63.623046875" xlink:href="#BitstreamVeraSans-Roman-2e"/>
       <use x="95.41015625" xlink:href="#BitstreamVeraSans-Roman-30"/>
       <use x="159.033203125" xlink:href="#BitstreamVeraSans-Roman-36"/>
      </g>
     </g>
    </g>
   </g>
   <g id="legend_3">
    <g id="patch_19">
     <path d="M 141.32975 170.314423 
L 299.84 170.314423 
L 299.84 144.857923 
L 141.32975 144.857923 
z
" style="fill:#ffffff;stroke:#000000;stroke-linejoin:miter;"/>
    </g>
    <g id="line2d_148">
     <path d="M 151.40975 156.519673 
L 171.56975 156.519673 
" style="fill:none;stroke:#ff0000;stroke-linecap:square;"/>
    </g>
    <g id="line2d_149"/>
    <g id="text_33">
     <!-- Pressure (atm) -->
     <defs>
      <path d="M 44.28125 53.078125 
L 44.28125 44.578125 
Q 40.484375 46.53125 36.375 47.5 
Q 32.28125 48.484375 27.875 48.484375 
Q 21.1875 48.484375 17.84375 46.4375 
Q 14.5 44.390625 14.5 40.28125 
Q 14.5 37.15625 16.890625 35.375 
Q 19.28125 33.59375 26.515625 31.984375 
L 29.59375 31.296875 
Q 39.15625 29.25 43.1875 25.515625 
Q 47.21875 21.78125 47.21875 15.09375 
Q 47.21875 7.46875 41.1875 3.015625 
Q 35.15625 -1.421875 24.609375 -1.421875 
Q 20.21875 -1.421875 15.453125 -0.5625 
Q 10.6875 0.296875 5.421875 2 
L 5.421875 11.28125 
Q 10.40625 8.6875 15.234375 7.390625 
Q 20.0625 6.109375 24.8125 6.109375 
Q 31.15625 6.109375 34.5625 8.28125 
Q 37.984375 10.453125 37.984375 14.40625 
Q 37.984375 18.0625 35.515625 20.015625 
Q 33.0625 21.96875 24.703125 23.78125 
L 21.578125 24.515625 
Q 13.234375 26.265625 9.515625 29.90625 
Q 5.8125 33.546875 5.8125 39.890625 
Q 5.8125 47.609375 11.28125 51.796875 
Q 16.75 56 26.8125 56 
Q 31.78125 56 36.171875 55.265625 
Q 40.578125 54.546875 44.28125 53.078125 
" id="BitstreamVeraSans-Roman-73"/>
     </defs>
     <g transform="translate(187.40975 161.559673311)scale(0.144 -0.144)">
      <use xlink:href="#BitstreamVeraSans-Roman-50"/>
      <use x="60.287109375" xlink:href="#BitstreamVeraSans-Roman-72"/>
      <use x="101.369140625" xlink:href="#BitstreamVeraSans-Roman-65"/>
      <use x="162.892578125" xlink:href="#BitstreamVeraSans-Roman-73"/>
      <use x="214.9921875" xlink:href="#BitstreamVeraSans-Roman-73"/>
      <use x="267.091796875" xlink:href="#BitstreamVeraSans-Roman-75"/>
      <use x="330.470703125" xlink:href="#BitstreamVeraSans-Roman-72"/>
      <use x="371.552734375" xlink:href="#BitstreamVeraSans-Roman-65"/>
      <use x="433.076171875" xlink:href="#BitstreamVeraSans-Roman-20"/>
      <use x="464.86328125" xlink:href="#BitstreamVeraSans-Roman-28"/>
      <use x="503.876953125" xlink:href="#BitstreamVeraSans-Roman-61"/>
      <use x="565.15625" xlink:href="#BitstreamVeraSans-Roman-74"/>
      <use x="604.365234375" xlink:href="#BitstreamVeraSans-Roman-6d"/>
      <use x="701.77734375" xlink:href="#BitstreamVeraSans-Roman-29"/>
     </g>
    </g>
   </g>
  </g>
 </g>
 <defs>
  <clipPath id="p9e65e339e1">
   <rect height="34.8717741556" width="263.36125" x="43.67875" y="78.2123991556"/>
  </clipPath>
  <clipPath id="pba2760c370">
   <rect height="34.8717741556" width="263.36125" x="43.67875" y="137.657923311"/>
  </clipPath>
  <clipPath id="p450d0921ef">
   <rect height="34.8717741556" width="263.36125" x="43.67875" y="18.766875"/>
  </clipPath>
 </defs>
</svg>
