<?xml version="1.0" encoding="utf-8" standalone="no"?>
<!DOCTYPE svg PUBLIC "-//W3C//DTD SVG 1.1//EN"
  "http://www.w3.org/Graphics/SVG/1.1/DTD/svg11.dtd">
<!-- Created with matplotlib (http://matplotlib.org/) -->
<svg height="211pt" version="1.1" viewBox="0 0 320 211" width="320pt" xmlns="http://www.w3.org/2000/svg" xmlns:xlink="http://www.w3.org/1999/xlink">
 <defs>
  <style type="text/css">
*{stroke-linecap:butt;stroke-linejoin:round;stroke-miterlimit:100000;}
  </style>
 </defs>
 <g id="figure_1">
  <g id="patch_1">
   <path d="M 0 211 
L 320 211 
L 320 0 
L 0 0 
z
" style="fill:#ffffff;"/>
  </g>
  <g id="axes_1">
   <g id="patch_2">
    <path d="M 32.23 182.42625 
L 307.04 182.42625 
L 307.04 18.766875 
L 32.23 18.766875 
z
" style="fill:#ffffff;"/>
   </g>
   <g id="line2d_1">
    <path clip-path="url(#p40e0199c6d)" d="M 32.23 70.202679 
L 32.599865 60.850714 
L 33.339596 56.174732 
L 33.709462 56.174732 
L 34.079327 58.512723 
L 34.449192 58.512723 
L 34.819058 35.132812 
L 35.188923 23.442857 
L 35.558789 39.808795 
L 37.03825 126.314464 
L 37.408116 145.018393 
L 37.777981 156.708348 
L 38.147847 163.722321 
L 38.517712 161.38433 
L 38.887577 166.060313 
L 39.997174 100.596562 
L 40.367039 81.892634 
L 40.736904 72.54067 
L 41.10677 70.202679 
L 41.476635 60.850714 
L 42.586231 53.836741 
L 43.325962 58.512723 
L 43.695828 35.132812 
L 44.065693 23.442857 
L 44.435559 39.808795 
L 45.91502 128.652455 
L 46.654751 159.046339 
L 47.024616 166.060313 
L 47.394482 163.722321 
L 47.764347 168.398304 
L 48.504078 123.976473 
L 49.243809 84.230625 
L 49.613674 72.54067 
L 49.98354 70.202679 
L 50.353405 60.850714 
L 51.093136 56.174732 
L 51.463001 56.174732 
L 51.832867 58.512723 
L 52.202732 58.512723 
L 52.572598 35.132812 
L 52.942463 23.442857 
L 53.312328 37.470804 
L 54.421925 109.948527 
L 55.161655 147.356384 
L 55.531521 159.046339 
L 55.901386 166.060313 
L 56.271252 163.722321 
L 56.641117 170.736295 
L 57.380848 121.638482 
L 58.120579 84.230625 
L 58.490444 74.878661 
L 58.86031 70.202679 
L 59.230175 63.188705 
L 59.60004 58.512723 
L 59.969906 56.174732 
L 60.339771 56.174732 
L 61.079502 60.850714 
L 61.449367 35.132812 
L 61.819233 23.442857 
L 62.189098 39.808795 
L 63.298694 109.948527 
L 64.038425 147.356384 
L 64.408291 159.046339 
L 64.778156 166.060313 
L 65.148022 163.722321 
L 65.517887 168.398304 
L 66.257618 121.638482 
L 66.997349 86.568616 
L 67.367214 74.878661 
L 67.737079 72.54067 
L 68.106945 63.188705 
L 68.47681 58.512723 
L 68.846676 56.174732 
L 69.216541 56.174732 
L 69.956272 60.850714 
L 70.326137 37.470804 
L 70.696003 23.442857 
L 71.065868 37.470804 
L 72.175464 109.948527 
L 72.915195 145.018393 
L 73.285061 159.046339 
L 73.654926 166.060313 
L 74.024791 161.38433 
L 74.394657 168.398304 
L 75.134388 121.638482 
L 75.874118 88.906607 
L 76.243984 77.216652 
L 76.613849 72.54067 
L 76.983715 63.188705 
L 77.723445 58.512723 
L 78.093311 58.512723 
L 78.833042 63.188705 
L 79.202907 39.808795 
L 79.572773 25.780848 
L 79.942638 39.808795 
L 81.4221 128.652455 
L 82.16183 159.046339 
L 82.531696 166.060313 
L 82.901561 163.722321 
L 83.271427 168.398304 
L 84.381023 105.272545 
L 85.120754 77.216652 
L 85.490619 74.878661 
L 85.860485 65.526696 
L 86.23035 60.850714 
L 86.600215 58.512723 
L 86.970081 58.512723 
L 87.339946 63.188705 
L 87.709812 65.526696 
L 88.079677 39.808795 
L 88.449542 25.780848 
L 88.819408 37.470804 
L 89.929004 109.948527 
L 91.0386 159.046339 
L 91.408466 166.060313 
L 91.778331 161.38433 
L 92.148197 166.060313 
L 93.257793 102.934554 
L 93.997524 77.216652 
L 94.367389 74.878661 
L 94.737254 65.526696 
L 95.10712 60.850714 
L 95.476985 58.512723 
L 95.846851 58.512723 
L 96.216716 65.526696 
L 96.586581 65.526696 
L 96.956447 39.808795 
L 97.326312 25.780848 
L 97.696178 37.470804 
L 99.175639 123.976473 
L 99.545505 142.680402 
L 100.285236 163.722321 
L 100.655101 161.38433 
L 101.024966 166.060313 
L 101.764697 119.300491 
L 102.504428 91.244598 
L 102.874293 77.216652 
L 103.244159 74.878661 
L 103.614024 65.526696 
L 103.98389 60.850714 
L 104.353755 58.512723 
L 104.72362 60.850714 
L 105.093486 65.526696 
L 105.463351 65.526696 
L 105.833217 39.808795 
L 106.203082 25.780848 
L 106.572948 37.470804 
L 107.682544 107.610536 
L 108.052409 121.638482 
L 108.79214 154.370357 
L 109.162005 161.38433 
L 109.531871 159.046339 
L 109.901736 163.722321 
L 110.641467 119.300491 
L 111.381198 91.244598 
L 111.751063 79.554643 
L 112.120929 74.878661 
L 112.490794 65.526696 
L 112.860659 60.850714 
L 113.60039 60.850714 
L 113.970256 65.526696 
L 114.340121 65.526696 
L 115.079852 25.780848 
L 115.449717 37.470804 
L 116.929179 123.976473 
L 117.66891 154.370357 
L 118.038775 161.38433 
L 118.408641 159.046339 
L 118.778506 163.722321 
L 119.888102 100.596562 
L 120.257968 91.244598 
L 120.627833 77.216652 
L 120.997699 74.878661 
L 121.367564 65.526696 
L 121.737429 60.850714 
L 122.107295 58.512723 
L 122.47716 58.512723 
L 122.847026 63.188705 
L 123.216891 65.526696 
L 123.956622 25.780848 
L 124.326487 35.132812 
L 125.805949 121.638482 
L 126.175814 140.342411 
L 126.54568 152.032366 
L 126.915545 159.046339 
L 127.28541 159.046339 
L 127.655276 163.722321 
L 128.395007 116.9625 
L 129.134738 91.244598 
L 129.504603 79.554643 
L 129.874468 77.216652 
L 130.244334 65.526696 
L 130.614199 60.850714 
L 130.984065 58.512723 
L 132.093661 65.526696 
L 132.833392 25.780848 
L 133.203257 35.132812 
L 134.682719 121.638482 
L 135.052584 140.342411 
L 135.42245 152.032366 
L 135.792315 159.046339 
L 136.16218 159.046339 
L 136.532046 163.722321 
L 137.271777 119.300491 
L 138.011507 91.244598 
L 138.381373 81.892634 
L 138.751238 77.216652 
L 139.121104 65.526696 
L 139.490969 60.850714 
L 139.860834 58.512723 
L 140.600565 63.188705 
L 140.970431 67.864687 
L 141.340296 42.146786 
L 141.710162 25.780848 
L 142.080027 35.132812 
L 143.559489 123.976473 
L 144.299219 154.370357 
L 144.669085 161.38433 
L 145.03895 161.38433 
L 145.408816 166.060313 
L 146.518412 102.934554 
L 147.258143 79.554643 
L 147.628008 77.216652 
L 148.367739 60.850714 
L 148.737604 58.512723 
L 149.477335 63.188705 
L 149.847201 67.864687 
L 150.586931 25.780848 
L 150.956797 35.132812 
L 152.436258 123.976473 
L 153.175989 154.370357 
L 153.545855 161.38433 
L 153.91572 161.38433 
L 154.285585 163.722321 
L 155.025316 116.9625 
L 155.765047 91.244598 
L 156.134913 79.554643 
L 156.504778 77.216652 
L 156.874643 67.864687 
L 157.244509 63.188705 
L 157.614374 60.850714 
L 157.98424 60.850714 
L 158.354105 63.188705 
L 158.72397 67.864687 
L 159.463701 25.780848 
L 159.833567 35.132812 
L 161.313028 123.976473 
L 162.052759 154.370357 
L 162.422624 161.38433 
L 162.79249 159.046339 
L 163.162355 163.722321 
L 163.902086 114.624509 
L 164.641817 88.906607 
L 165.011682 79.554643 
L 165.381548 74.878661 
L 165.751413 65.526696 
L 166.121279 60.850714 
L 166.491144 58.512723 
L 167.230875 63.188705 
L 167.60074 67.864687 
L 168.340471 23.442857 
L 168.710336 32.794821 
L 170.189798 121.638482 
L 170.929529 154.370357 
L 171.299394 161.38433 
L 171.66926 159.046339 
L 172.039125 163.722321 
L 172.778856 114.624509 
L 173.518587 88.906607 
L 173.888452 79.554643 
L 174.258318 74.878661 
L 174.628183 65.526696 
L 174.998048 60.850714 
L 175.367914 58.512723 
L 176.47751 65.526696 
L 177.217241 23.442857 
L 177.587106 30.45683 
L 178.696703 105.272545 
L 179.806299 152.032366 
L 180.176164 159.046339 
L 180.915895 159.046339 
L 181.655626 112.286518 
L 182.395357 86.568616 
L 182.765222 77.216652 
L 183.135087 74.878661 
L 183.504953 65.526696 
L 183.874818 60.850714 
L 184.244684 58.512723 
L 184.614549 58.512723 
L 184.984415 63.188705 
L 185.35428 65.526696 
L 186.094011 21.104866 
L 186.463876 30.45683 
L 187.943338 119.300491 
L 188.683069 152.032366 
L 189.052934 156.708348 
L 189.792665 156.708348 
L 190.532396 114.624509 
L 191.272127 86.568616 
L 191.641992 77.216652 
L 192.011857 74.878661 
L 192.381723 67.864687 
L 192.751588 63.188705 
L 193.121454 60.850714 
L 193.491319 60.850714 
L 193.861184 65.526696 
L 194.23105 67.864687 
L 194.970781 23.442857 
L 195.340646 30.45683 
L 196.820108 121.638482 
L 197.559838 152.032366 
L 197.929704 159.046339 
L 198.669435 159.046339 
L 199.409166 114.624509 
L 200.148896 86.568616 
L 200.518762 77.216652 
L 200.888627 74.878661 
L 201.258493 67.864687 
L 201.998223 63.188705 
L 202.368089 63.188705 
L 202.737954 65.526696 
L 203.10782 70.202679 
L 203.84755 23.442857 
L 204.217416 32.794821 
L 205.696878 121.638482 
L 206.436608 154.370357 
L 206.806474 161.38433 
L 207.176339 161.38433 
L 207.546205 159.046339 
L 208.285935 114.624509 
L 209.025666 86.568616 
L 209.395532 79.554643 
L 209.765397 77.216652 
L 210.135262 70.202679 
L 210.505128 65.526696 
L 210.874993 63.188705 
L 211.244859 63.188705 
L 211.614724 65.526696 
L 211.98459 70.202679 
L 212.72432 25.780848 
L 213.094186 32.794821 
L 214.573647 121.638482 
L 214.943513 140.342411 
L 215.313378 152.032366 
L 215.683244 159.046339 
L 216.422974 159.046339 
L 217.162705 114.624509 
L 217.902436 86.568616 
L 218.272301 79.554643 
L 218.642167 79.554643 
L 219.012032 70.202679 
L 219.751763 65.526696 
L 220.121629 65.526696 
L 220.861359 70.202679 
L 221.60109 28.118839 
L 221.970956 35.132812 
L 223.450417 123.976473 
L 224.190148 154.370357 
L 224.560013 161.38433 
L 225.299744 161.38433 
L 226.039475 119.300491 
L 226.779206 88.906607 
L 227.149071 84.230625 
L 227.518937 81.892634 
L 227.888802 74.878661 
L 228.628533 70.202679 
L 228.998398 70.202679 
L 229.738129 74.878661 
L 230.47786 30.45683 
L 230.847725 39.808795 
L 231.587456 86.568616 
L 231.957322 112.286518 
L 232.327187 126.314464 
L 232.697052 145.018393 
L 233.066918 156.708348 
L 233.436783 163.722321 
L 234.176514 163.722321 
L 234.916245 121.638482 
L 235.655976 91.244598 
L 236.025841 86.568616 
L 236.395707 86.568616 
L 236.765572 77.216652 
L 237.505303 72.54067 
L 237.875168 72.54067 
L 238.614899 77.216652 
L 239.35463 32.794821 
L 239.724495 42.146786 
L 240.464226 84.230625 
L 240.834092 112.286518 
L 241.203957 126.314464 
L 241.573822 145.018393 
L 241.943688 156.708348 
L 242.313553 163.722321 
L 243.053284 163.722321 
L 243.423149 138.00442 
L 244.532746 91.244598 
L 244.902611 86.568616 
L 245.272476 86.568616 
L 245.642342 77.216652 
L 246.012207 77.216652 
L 246.382073 74.878661 
L 246.751938 74.878661 
L 247.491669 79.554643 
L 248.2314 37.470804 
L 248.601265 44.484777 
L 249.340996 86.568616 
L 249.710861 112.286518 
L 250.080727 126.314464 
L 250.450592 145.018393 
L 250.820458 156.708348 
L 251.190323 163.722321 
L 251.930054 163.722321 
L 252.669785 123.976473 
L 253.409515 93.582589 
L 253.779381 88.906607 
L 254.149246 88.906607 
L 254.519112 81.892634 
L 255.258843 77.216652 
L 255.628708 79.554643 
L 255.998573 79.554643 
L 256.368439 81.892634 
L 257.10817 39.808795 
L 257.478035 46.822768 
L 258.217766 86.568616 
L 258.587631 114.624509 
L 259.697227 156.708348 
L 260.067093 166.060313 
L 260.436958 163.722321 
L 260.806824 163.722321 
L 261.546555 123.976473 
L 262.286285 93.582589 
L 263.026016 88.906607 
L 263.395882 81.892634 
L 263.765747 81.892634 
L 264.135612 79.554643 
L 264.505478 81.892634 
L 264.875343 81.892634 
L 265.245209 86.568616 
L 265.984939 42.146786 
L 266.354805 49.160759 
L 266.72467 65.526696 
L 267.834266 128.652455 
L 268.573997 156.708348 
L 268.943863 166.060313 
L 269.313728 163.722321 
L 269.683594 163.722321 
L 270.423324 123.976473 
L 271.163055 95.92058 
L 271.532921 91.244598 
L 271.902786 91.244598 
L 272.272651 84.230625 
L 273.382248 84.230625 
L 274.121978 88.906607 
L 274.861709 49.160759 
L 275.231575 53.836741 
L 275.971306 91.244598 
L 276.341171 116.9625 
L 277.450767 159.046339 
L 277.820633 166.060313 
L 278.190498 166.060313 
L 278.560363 163.722321 
L 279.300094 126.314464 
L 280.039825 98.258571 
L 280.40969 93.582589 
L 280.779556 93.582589 
L 281.149421 86.568616 
L 282.259017 86.568616 
L 282.628883 91.244598 
L 282.998748 93.582589 
L 283.738479 51.49875 
L 284.108345 56.174732 
L 284.848075 93.582589 
L 285.217941 119.300491 
L 286.327537 159.046339 
L 286.697402 168.398304 
L 287.437133 168.398304 
L 288.176864 130.990446 
L 288.916595 105.272545 
L 289.28646 98.258571 
L 289.656326 98.258571 
L 290.026191 93.582589 
L 290.396057 91.244598 
L 290.765922 93.582589 
L 291.135787 93.582589 
L 291.875518 98.258571 
L 292.615249 58.512723 
L 292.985114 60.850714 
L 293.35498 74.878661 
L 293.724845 95.92058 
L 294.094711 123.976473 
L 294.464576 135.666429 
L 295.204307 163.722321 
L 295.574172 173.074286 
L 296.313903 173.074286 
L 296.683769 152.032366 
L 297.793365 109.948527 
L 298.16323 105.272545 
L 298.533096 105.272545 
L 298.902961 98.258571 
L 300.012557 98.258571 
L 300.382423 102.934554 
L 300.752288 105.272545 
L 301.492019 63.188705 
L 301.861884 65.526696 
L 302.23175 79.554643 
L 303.341346 138.00442 
L 304.081077 166.060313 
L 304.450942 177.750268 
L 304.820808 175.412277 
L 305.190673 175.412277 
L 305.560538 154.370357 
L 306.670135 114.624509 
L 307.04 107.610536 
L 307.04 107.610536 
" style="fill:none;stroke:#0000ff;stroke-linecap:square;"/>
   </g>
   <g id="patch_3">
    <path d="M 32.23 182.42625 
L 32.23 18.766875 
" style="fill:none;stroke:#000000;stroke-linecap:square;stroke-linejoin:miter;"/>
   </g>
   <g id="patch_4">
    <path d="M 32.23 182.42625 
L 307.04 182.42625 
" style="fill:none;stroke:#000000;stroke-linecap:square;stroke-linejoin:miter;"/>
   </g>
   <g id="patch_5">
    <path d="M 307.04 182.42625 
L 307.04 18.766875 
" style="fill:none;stroke:#000000;stroke-linecap:square;stroke-linejoin:miter;"/>
   </g>
   <g id="patch_6">
    <path d="M 32.23 18.766875 
L 307.04 18.766875 
" style="fill:none;stroke:#000000;stroke-linecap:square;stroke-linejoin:miter;"/>
   </g>
   <g id="matplotlib.axis_1">
    <g id="xtick_1">
     <g id="line2d_2">
      <defs>
       <path d="M 0 0 
L 0 -4 
" id="mf6c034a43c" style="stroke:#000000;stroke-width:0.5;"/>
      </defs>
      <g>
       <use style="stroke:#000000;stroke-width:0.5;" x="32.23" xlink:href="#mf6c034a43c" y="182.42625"/>
      </g>
     </g>
     <g id="line2d_3">
      <defs>
       <path d="M 0 0 
L 0 4 
" id="m515459537a" style="stroke:#000000;stroke-width:0.5;"/>
      </defs>
      <g>
       <use style="stroke:#000000;stroke-width:0.5;" x="32.23" xlink:href="#m515459537a" y="18.766875"/>
      </g>
     </g>
     <g id="text_1">
      <!-- 0 -->
      <defs>
       <path d="M 31.78125 66.40625 
Q 24.171875 66.40625 20.328125 58.90625 
Q 16.5 51.421875 16.5 36.375 
Q 16.5 21.390625 20.328125 13.890625 
Q 24.171875 6.390625 31.78125 6.390625 
Q 39.453125 6.390625 43.28125 13.890625 
Q 47.125 21.390625 47.125 36.375 
Q 47.125 51.421875 43.28125 58.90625 
Q 39.453125 66.40625 31.78125 66.40625 
M 31.78125 74.21875 
Q 44.046875 74.21875 50.515625 64.515625 
Q 56.984375 54.828125 56.984375 36.375 
Q 56.984375 17.96875 50.515625 8.265625 
Q 44.046875 -1.421875 31.78125 -1.421875 
Q 19.53125 -1.421875 13.0625 8.265625 
Q 6.59375 17.96875 6.59375 36.375 
Q 6.59375 54.828125 13.0625 64.515625 
Q 19.53125 74.21875 31.78125 74.21875 
" id="BitstreamVeraSans-Roman-30"/>
      </defs>
      <g transform="translate(28.4125 195.544375)scale(0.12 -0.12)">
       <use xlink:href="#BitstreamVeraSans-Roman-30"/>
      </g>
     </g>
    </g>
    <g id="xtick_2">
     <g id="line2d_4">
      <g>
       <use style="stroke:#000000;stroke-width:0.5;" x="69.2165410498" xlink:href="#mf6c034a43c" y="182.42625"/>
      </g>
     </g>
     <g id="line2d_5">
      <g>
       <use style="stroke:#000000;stroke-width:0.5;" x="69.2165410498" xlink:href="#m515459537a" y="18.766875"/>
      </g>
     </g>
     <g id="text_2">
      <!-- 100 -->
      <defs>
       <path d="M 12.40625 8.296875 
L 28.515625 8.296875 
L 28.515625 63.921875 
L 10.984375 60.40625 
L 10.984375 69.390625 
L 28.421875 72.90625 
L 38.28125 72.90625 
L 38.28125 8.296875 
L 54.390625 8.296875 
L 54.390625 0 
L 12.40625 0 
z
" id="BitstreamVeraSans-Roman-31"/>
      </defs>
      <g transform="translate(57.7640410498 195.544375)scale(0.12 -0.12)">
       <use xlink:href="#BitstreamVeraSans-Roman-31"/>
       <use x="63.623046875" xlink:href="#BitstreamVeraSans-Roman-30"/>
       <use x="127.24609375" xlink:href="#BitstreamVeraSans-Roman-30"/>
      </g>
     </g>
    </g>
    <g id="xtick_3">
     <g id="line2d_6">
      <g>
       <use style="stroke:#000000;stroke-width:0.5;" x="106.2030821" xlink:href="#mf6c034a43c" y="182.42625"/>
      </g>
     </g>
     <g id="line2d_7">
      <g>
       <use style="stroke:#000000;stroke-width:0.5;" x="106.2030821" xlink:href="#m515459537a" y="18.766875"/>
      </g>
     </g>
     <g id="text_3">
      <!-- 200 -->
      <defs>
       <path d="M 19.1875 8.296875 
L 53.609375 8.296875 
L 53.609375 0 
L 7.328125 0 
L 7.328125 8.296875 
Q 12.9375 14.109375 22.625 23.890625 
Q 32.328125 33.6875 34.8125 36.53125 
Q 39.546875 41.84375 41.421875 45.53125 
Q 43.3125 49.21875 43.3125 52.78125 
Q 43.3125 58.59375 39.234375 62.25 
Q 35.15625 65.921875 28.609375 65.921875 
Q 23.96875 65.921875 18.8125 64.3125 
Q 13.671875 62.703125 7.8125 59.421875 
L 7.8125 69.390625 
Q 13.765625 71.78125 18.9375 73 
Q 24.125 74.21875 28.421875 74.21875 
Q 39.75 74.21875 46.484375 68.546875 
Q 53.21875 62.890625 53.21875 53.421875 
Q 53.21875 48.921875 51.53125 44.890625 
Q 49.859375 40.875 45.40625 35.40625 
Q 44.1875 33.984375 37.640625 27.21875 
Q 31.109375 20.453125 19.1875 8.296875 
" id="BitstreamVeraSans-Roman-32"/>
      </defs>
      <g transform="translate(94.7505820996 195.544375)scale(0.12 -0.12)">
       <use xlink:href="#BitstreamVeraSans-Roman-32"/>
       <use x="63.623046875" xlink:href="#BitstreamVeraSans-Roman-30"/>
       <use x="127.24609375" xlink:href="#BitstreamVeraSans-Roman-30"/>
      </g>
     </g>
    </g>
    <g id="xtick_4">
     <g id="line2d_8">
      <g>
       <use style="stroke:#000000;stroke-width:0.5;" x="143.189623149" xlink:href="#mf6c034a43c" y="182.42625"/>
      </g>
     </g>
     <g id="line2d_9">
      <g>
       <use style="stroke:#000000;stroke-width:0.5;" x="143.189623149" xlink:href="#m515459537a" y="18.766875"/>
      </g>
     </g>
     <g id="text_4">
      <!-- 300 -->
      <defs>
       <path d="M 40.578125 39.3125 
Q 47.65625 37.796875 51.625 33 
Q 55.609375 28.21875 55.609375 21.1875 
Q 55.609375 10.40625 48.1875 4.484375 
Q 40.765625 -1.421875 27.09375 -1.421875 
Q 22.515625 -1.421875 17.65625 -0.515625 
Q 12.796875 0.390625 7.625 2.203125 
L 7.625 11.71875 
Q 11.71875 9.328125 16.59375 8.109375 
Q 21.484375 6.890625 26.8125 6.890625 
Q 36.078125 6.890625 40.9375 10.546875 
Q 45.796875 14.203125 45.796875 21.1875 
Q 45.796875 27.640625 41.28125 31.265625 
Q 36.765625 34.90625 28.71875 34.90625 
L 20.21875 34.90625 
L 20.21875 43.015625 
L 29.109375 43.015625 
Q 36.375 43.015625 40.234375 45.921875 
Q 44.09375 48.828125 44.09375 54.296875 
Q 44.09375 59.90625 40.109375 62.90625 
Q 36.140625 65.921875 28.71875 65.921875 
Q 24.65625 65.921875 20.015625 65.03125 
Q 15.375 64.15625 9.8125 62.3125 
L 9.8125 71.09375 
Q 15.4375 72.65625 20.34375 73.4375 
Q 25.25 74.21875 29.59375 74.21875 
Q 40.828125 74.21875 47.359375 69.109375 
Q 53.90625 64.015625 53.90625 55.328125 
Q 53.90625 49.265625 50.4375 45.09375 
Q 46.96875 40.921875 40.578125 39.3125 
" id="BitstreamVeraSans-Roman-33"/>
      </defs>
      <g transform="translate(131.737123149 195.544375)scale(0.12 -0.12)">
       <use xlink:href="#BitstreamVeraSans-Roman-33"/>
       <use x="63.623046875" xlink:href="#BitstreamVeraSans-Roman-30"/>
       <use x="127.24609375" xlink:href="#BitstreamVeraSans-Roman-30"/>
      </g>
     </g>
    </g>
    <g id="xtick_5">
     <g id="line2d_10">
      <g>
       <use style="stroke:#000000;stroke-width:0.5;" x="180.176164199" xlink:href="#mf6c034a43c" y="182.42625"/>
      </g>
     </g>
     <g id="line2d_11">
      <g>
       <use style="stroke:#000000;stroke-width:0.5;" x="180.176164199" xlink:href="#m515459537a" y="18.766875"/>
      </g>
     </g>
     <g id="text_5">
      <!-- 400 -->
      <defs>
       <path d="M 37.796875 64.3125 
L 12.890625 25.390625 
L 37.796875 25.390625 
z
M 35.203125 72.90625 
L 47.609375 72.90625 
L 47.609375 25.390625 
L 58.015625 25.390625 
L 58.015625 17.1875 
L 47.609375 17.1875 
L 47.609375 0 
L 37.796875 0 
L 37.796875 17.1875 
L 4.890625 17.1875 
L 4.890625 26.703125 
z
" id="BitstreamVeraSans-Roman-34"/>
      </defs>
      <g transform="translate(168.723664199 195.544375)scale(0.12 -0.12)">
       <use xlink:href="#BitstreamVeraSans-Roman-34"/>
       <use x="63.623046875" xlink:href="#BitstreamVeraSans-Roman-30"/>
       <use x="127.24609375" xlink:href="#BitstreamVeraSans-Roman-30"/>
      </g>
     </g>
    </g>
    <g id="xtick_6">
     <g id="line2d_12">
      <g>
       <use style="stroke:#000000;stroke-width:0.5;" x="217.162705249" xlink:href="#mf6c034a43c" y="182.42625"/>
      </g>
     </g>
     <g id="line2d_13">
      <g>
       <use style="stroke:#000000;stroke-width:0.5;" x="217.162705249" xlink:href="#m515459537a" y="18.766875"/>
      </g>
     </g>
     <g id="text_6">
      <!-- 500 -->
      <defs>
       <path d="M 10.796875 72.90625 
L 49.515625 72.90625 
L 49.515625 64.59375 
L 19.828125 64.59375 
L 19.828125 46.734375 
Q 21.96875 47.46875 24.109375 47.828125 
Q 26.265625 48.1875 28.421875 48.1875 
Q 40.625 48.1875 47.75 41.5 
Q 54.890625 34.8125 54.890625 23.390625 
Q 54.890625 11.625 47.5625 5.09375 
Q 40.234375 -1.421875 26.90625 -1.421875 
Q 22.3125 -1.421875 17.546875 -0.640625 
Q 12.796875 0.140625 7.71875 1.703125 
L 7.71875 11.625 
Q 12.109375 9.234375 16.796875 8.0625 
Q 21.484375 6.890625 26.703125 6.890625 
Q 35.15625 6.890625 40.078125 11.328125 
Q 45.015625 15.765625 45.015625 23.390625 
Q 45.015625 31 40.078125 35.4375 
Q 35.15625 39.890625 26.703125 39.890625 
Q 22.75 39.890625 18.8125 39.015625 
Q 14.890625 38.140625 10.796875 36.28125 
z
" id="BitstreamVeraSans-Roman-35"/>
      </defs>
      <g transform="translate(205.710205249 195.544375)scale(0.12 -0.12)">
       <use xlink:href="#BitstreamVeraSans-Roman-35"/>
       <use x="63.623046875" xlink:href="#BitstreamVeraSans-Roman-30"/>
       <use x="127.24609375" xlink:href="#BitstreamVeraSans-Roman-30"/>
      </g>
     </g>
    </g>
    <g id="xtick_7">
     <g id="line2d_14">
      <g>
       <use style="stroke:#000000;stroke-width:0.5;" x="254.149246299" xlink:href="#mf6c034a43c" y="182.42625"/>
      </g>
     </g>
     <g id="line2d_15">
      <g>
       <use style="stroke:#000000;stroke-width:0.5;" x="254.149246299" xlink:href="#m515459537a" y="18.766875"/>
      </g>
     </g>
     <g id="text_7">
      <!-- 600 -->
      <defs>
       <path d="M 33.015625 40.375 
Q 26.375 40.375 22.484375 35.828125 
Q 18.609375 31.296875 18.609375 23.390625 
Q 18.609375 15.53125 22.484375 10.953125 
Q 26.375 6.390625 33.015625 6.390625 
Q 39.65625 6.390625 43.53125 10.953125 
Q 47.40625 15.53125 47.40625 23.390625 
Q 47.40625 31.296875 43.53125 35.828125 
Q 39.65625 40.375 33.015625 40.375 
M 52.59375 71.296875 
L 52.59375 62.3125 
Q 48.875 64.0625 45.09375 64.984375 
Q 41.3125 65.921875 37.59375 65.921875 
Q 27.828125 65.921875 22.671875 59.328125 
Q 17.53125 52.734375 16.796875 39.40625 
Q 19.671875 43.65625 24.015625 45.921875 
Q 28.375 48.1875 33.59375 48.1875 
Q 44.578125 48.1875 50.953125 41.515625 
Q 57.328125 34.859375 57.328125 23.390625 
Q 57.328125 12.15625 50.6875 5.359375 
Q 44.046875 -1.421875 33.015625 -1.421875 
Q 20.359375 -1.421875 13.671875 8.265625 
Q 6.984375 17.96875 6.984375 36.375 
Q 6.984375 53.65625 15.1875 63.9375 
Q 23.390625 74.21875 37.203125 74.21875 
Q 40.921875 74.21875 44.703125 73.484375 
Q 48.484375 72.75 52.59375 71.296875 
" id="BitstreamVeraSans-Roman-36"/>
      </defs>
      <g transform="translate(242.696746299 195.544375)scale(0.12 -0.12)">
       <use xlink:href="#BitstreamVeraSans-Roman-36"/>
       <use x="63.623046875" xlink:href="#BitstreamVeraSans-Roman-30"/>
       <use x="127.24609375" xlink:href="#BitstreamVeraSans-Roman-30"/>
      </g>
     </g>
    </g>
    <g id="xtick_8">
     <g id="line2d_16">
      <g>
       <use style="stroke:#000000;stroke-width:0.5;" x="291.135787349" xlink:href="#mf6c034a43c" y="182.42625"/>
      </g>
     </g>
     <g id="line2d_17">
      <g>
       <use style="stroke:#000000;stroke-width:0.5;" x="291.135787349" xlink:href="#m515459537a" y="18.766875"/>
      </g>
     </g>
     <g id="text_8">
      <!-- 700 -->
      <defs>
       <path d="M 8.203125 72.90625 
L 55.078125 72.90625 
L 55.078125 68.703125 
L 28.609375 0 
L 18.3125 0 
L 43.21875 64.59375 
L 8.203125 64.59375 
z
" id="BitstreamVeraSans-Roman-37"/>
      </defs>
      <g transform="translate(279.683287349 195.544375)scale(0.12 -0.12)">
       <use xlink:href="#BitstreamVeraSans-Roman-37"/>
       <use x="63.623046875" xlink:href="#BitstreamVeraSans-Roman-30"/>
       <use x="127.24609375" xlink:href="#BitstreamVeraSans-Roman-30"/>
      </g>
     </g>
    </g>
   </g>
   <g id="matplotlib.axis_2">
    <g id="ytick_1">
     <g id="line2d_18">
      <defs>
       <path d="M 0 0 
L 4 0 
" id="m5f11eebc49" style="stroke:#000000;stroke-width:0.5;"/>
      </defs>
      <g>
       <use style="stroke:#000000;stroke-width:0.5;" x="32.23" xlink:href="#m5f11eebc49" y="182.42625"/>
      </g>
     </g>
     <g id="line2d_19">
      <defs>
       <path d="M 0 0 
L -4 0 
" id="me96953f25b" style="stroke:#000000;stroke-width:0.5;"/>
      </defs>
      <g>
       <use style="stroke:#000000;stroke-width:0.5;" x="307.04" xlink:href="#me96953f25b" y="182.42625"/>
      </g>
     </g>
     <g id="text_9">
      <!-- 66 -->
      <g transform="translate(12.96 185.7375)scale(0.12 -0.12)">
       <use xlink:href="#BitstreamVeraSans-Roman-36"/>
       <use x="63.623046875" xlink:href="#BitstreamVeraSans-Roman-36"/>
      </g>
     </g>
    </g>
    <g id="ytick_2">
     <g id="line2d_20">
      <g>
       <use style="stroke:#000000;stroke-width:0.5;" x="32.23" xlink:href="#m5f11eebc49" y="159.046339286"/>
      </g>
     </g>
     <g id="line2d_21">
      <g>
       <use style="stroke:#000000;stroke-width:0.5;" x="307.04" xlink:href="#me96953f25b" y="159.046339286"/>
      </g>
     </g>
     <g id="text_10">
      <!-- 67 -->
      <g transform="translate(12.96 162.357589286)scale(0.12 -0.12)">
       <use xlink:href="#BitstreamVeraSans-Roman-36"/>
       <use x="63.623046875" xlink:href="#BitstreamVeraSans-Roman-37"/>
      </g>
     </g>
    </g>
    <g id="ytick_3">
     <g id="line2d_22">
      <g>
       <use style="stroke:#000000;stroke-width:0.5;" x="32.23" xlink:href="#m5f11eebc49" y="135.666428571"/>
      </g>
     </g>
     <g id="line2d_23">
      <g>
       <use style="stroke:#000000;stroke-width:0.5;" x="307.04" xlink:href="#me96953f25b" y="135.666428571"/>
      </g>
     </g>
     <g id="text_11">
      <!-- 68 -->
      <defs>
       <path d="M 31.78125 34.625 
Q 24.75 34.625 20.71875 30.859375 
Q 16.703125 27.09375 16.703125 20.515625 
Q 16.703125 13.921875 20.71875 10.15625 
Q 24.75 6.390625 31.78125 6.390625 
Q 38.8125 6.390625 42.859375 10.171875 
Q 46.921875 13.96875 46.921875 20.515625 
Q 46.921875 27.09375 42.890625 30.859375 
Q 38.875 34.625 31.78125 34.625 
M 21.921875 38.8125 
Q 15.578125 40.375 12.03125 44.71875 
Q 8.5 49.078125 8.5 55.328125 
Q 8.5 64.0625 14.71875 69.140625 
Q 20.953125 74.21875 31.78125 74.21875 
Q 42.671875 74.21875 48.875 69.140625 
Q 55.078125 64.0625 55.078125 55.328125 
Q 55.078125 49.078125 51.53125 44.71875 
Q 48 40.375 41.703125 38.8125 
Q 48.828125 37.15625 52.796875 32.3125 
Q 56.78125 27.484375 56.78125 20.515625 
Q 56.78125 9.90625 50.3125 4.234375 
Q 43.84375 -1.421875 31.78125 -1.421875 
Q 19.734375 -1.421875 13.25 4.234375 
Q 6.78125 9.90625 6.78125 20.515625 
Q 6.78125 27.484375 10.78125 32.3125 
Q 14.796875 37.15625 21.921875 38.8125 
M 18.3125 54.390625 
Q 18.3125 48.734375 21.84375 45.5625 
Q 25.390625 42.390625 31.78125 42.390625 
Q 38.140625 42.390625 41.71875 45.5625 
Q 45.3125 48.734375 45.3125 54.390625 
Q 45.3125 60.0625 41.71875 63.234375 
Q 38.140625 66.40625 31.78125 66.40625 
Q 25.390625 66.40625 21.84375 63.234375 
Q 18.3125 60.0625 18.3125 54.390625 
" id="BitstreamVeraSans-Roman-38"/>
      </defs>
      <g transform="translate(12.96 138.977678571)scale(0.12 -0.12)">
       <use xlink:href="#BitstreamVeraSans-Roman-36"/>
       <use x="63.623046875" xlink:href="#BitstreamVeraSans-Roman-38"/>
      </g>
     </g>
    </g>
    <g id="ytick_4">
     <g id="line2d_24">
      <g>
       <use style="stroke:#000000;stroke-width:0.5;" x="32.23" xlink:href="#m5f11eebc49" y="112.286517857"/>
      </g>
     </g>
     <g id="line2d_25">
      <g>
       <use style="stroke:#000000;stroke-width:0.5;" x="307.04" xlink:href="#me96953f25b" y="112.286517857"/>
      </g>
     </g>
     <g id="text_12">
      <!-- 69 -->
      <defs>
       <path d="M 10.984375 1.515625 
L 10.984375 10.5 
Q 14.703125 8.734375 18.5 7.8125 
Q 22.3125 6.890625 25.984375 6.890625 
Q 35.75 6.890625 40.890625 13.453125 
Q 46.046875 20.015625 46.78125 33.40625 
Q 43.953125 29.203125 39.59375 26.953125 
Q 35.25 24.703125 29.984375 24.703125 
Q 19.046875 24.703125 12.671875 31.3125 
Q 6.296875 37.9375 6.296875 49.421875 
Q 6.296875 60.640625 12.9375 67.421875 
Q 19.578125 74.21875 30.609375 74.21875 
Q 43.265625 74.21875 49.921875 64.515625 
Q 56.59375 54.828125 56.59375 36.375 
Q 56.59375 19.140625 48.40625 8.859375 
Q 40.234375 -1.421875 26.421875 -1.421875 
Q 22.703125 -1.421875 18.890625 -0.6875 
Q 15.09375 0.046875 10.984375 1.515625 
M 30.609375 32.421875 
Q 37.25 32.421875 41.125 36.953125 
Q 45.015625 41.5 45.015625 49.421875 
Q 45.015625 57.28125 41.125 61.84375 
Q 37.25 66.40625 30.609375 66.40625 
Q 23.96875 66.40625 20.09375 61.84375 
Q 16.21875 57.28125 16.21875 49.421875 
Q 16.21875 41.5 20.09375 36.953125 
Q 23.96875 32.421875 30.609375 32.421875 
" id="BitstreamVeraSans-Roman-39"/>
      </defs>
      <g transform="translate(12.96 115.597767857)scale(0.12 -0.12)">
       <use xlink:href="#BitstreamVeraSans-Roman-36"/>
       <use x="63.623046875" xlink:href="#BitstreamVeraSans-Roman-39"/>
      </g>
     </g>
    </g>
    <g id="ytick_5">
     <g id="line2d_26">
      <g>
       <use style="stroke:#000000;stroke-width:0.5;" x="32.23" xlink:href="#m5f11eebc49" y="88.9066071429"/>
      </g>
     </g>
     <g id="line2d_27">
      <g>
       <use style="stroke:#000000;stroke-width:0.5;" x="307.04" xlink:href="#me96953f25b" y="88.9066071429"/>
      </g>
     </g>
     <g id="text_13">
      <!-- 70 -->
      <g transform="translate(12.96 92.2178571429)scale(0.12 -0.12)">
       <use xlink:href="#BitstreamVeraSans-Roman-37"/>
       <use x="63.623046875" xlink:href="#BitstreamVeraSans-Roman-30"/>
      </g>
     </g>
    </g>
    <g id="ytick_6">
     <g id="line2d_28">
      <g>
       <use style="stroke:#000000;stroke-width:0.5;" x="32.23" xlink:href="#m5f11eebc49" y="65.5266964286"/>
      </g>
     </g>
     <g id="line2d_29">
      <g>
       <use style="stroke:#000000;stroke-width:0.5;" x="307.04" xlink:href="#me96953f25b" y="65.5266964286"/>
      </g>
     </g>
     <g id="text_14">
      <!-- 71 -->
      <g transform="translate(12.96 68.8379464286)scale(0.12 -0.12)">
       <use xlink:href="#BitstreamVeraSans-Roman-37"/>
       <use x="63.623046875" xlink:href="#BitstreamVeraSans-Roman-31"/>
      </g>
     </g>
    </g>
    <g id="ytick_7">
     <g id="line2d_30">
      <g>
       <use style="stroke:#000000;stroke-width:0.5;" x="32.23" xlink:href="#m5f11eebc49" y="42.1467857143"/>
      </g>
     </g>
     <g id="line2d_31">
      <g>
       <use style="stroke:#000000;stroke-width:0.5;" x="307.04" xlink:href="#me96953f25b" y="42.1467857143"/>
      </g>
     </g>
     <g id="text_15">
      <!-- 72 -->
      <g transform="translate(12.96 45.4580357143)scale(0.12 -0.12)">
       <use xlink:href="#BitstreamVeraSans-Roman-37"/>
       <use x="63.623046875" xlink:href="#BitstreamVeraSans-Roman-32"/>
      </g>
     </g>
    </g>
    <g id="ytick_8">
     <g id="line2d_32">
      <g>
       <use style="stroke:#000000;stroke-width:0.5;" x="32.23" xlink:href="#m5f11eebc49" y="18.766875"/>
      </g>
     </g>
     <g id="line2d_33">
      <g>
       <use style="stroke:#000000;stroke-width:0.5;" x="307.04" xlink:href="#me96953f25b" y="18.766875"/>
      </g>
     </g>
     <g id="text_16">
      <!-- 73 -->
      <g transform="translate(12.96 22.078125)scale(0.12 -0.12)">
       <use xlink:href="#BitstreamVeraSans-Roman-37"/>
       <use x="63.623046875" xlink:href="#BitstreamVeraSans-Roman-33"/>
      </g>
     </g>
    </g>
   </g>
   <g id="legend_1">
    <g id="patch_7">
     <path d="M 119.624 51.423375 
L 299.84 51.423375 
L 299.84 25.966875 
L 119.624 25.966875 
z
" style="fill:#ffffff;stroke:#000000;stroke-linejoin:miter;"/>
    </g>
    <g id="line2d_34">
     <path d="M 129.704 37.628625 
L 149.864 37.628625 
" style="fill:none;stroke:#0000ff;stroke-linecap:square;"/>
    </g>
    <g id="line2d_35"/>
    <g id="text_17">
     <!-- Dew Point (deg F) -->
     <defs>
      <path d="M 56.203125 29.59375 
L 56.203125 25.203125 
L 14.890625 25.203125 
Q 15.484375 15.921875 20.484375 11.0625 
Q 25.484375 6.203125 34.421875 6.203125 
Q 39.59375 6.203125 44.453125 7.46875 
Q 49.3125 8.734375 54.109375 11.28125 
L 54.109375 2.78125 
Q 49.265625 0.734375 44.1875 -0.34375 
Q 39.109375 -1.421875 33.890625 -1.421875 
Q 20.796875 -1.421875 13.15625 6.1875 
Q 5.515625 13.8125 5.515625 26.8125 
Q 5.515625 40.234375 12.765625 48.109375 
Q 20.015625 56 32.328125 56 
Q 43.359375 56 49.78125 48.890625 
Q 56.203125 41.796875 56.203125 29.59375 
M 47.21875 32.234375 
Q 47.125 39.59375 43.09375 43.984375 
Q 39.0625 48.390625 32.421875 48.390625 
Q 24.90625 48.390625 20.390625 44.140625 
Q 15.875 39.890625 15.1875 32.171875 
z
" id="BitstreamVeraSans-Roman-65"/>
      <path d="M 30.609375 48.390625 
Q 23.390625 48.390625 19.1875 42.75 
Q 14.984375 37.109375 14.984375 27.296875 
Q 14.984375 17.484375 19.15625 11.84375 
Q 23.34375 6.203125 30.609375 6.203125 
Q 37.796875 6.203125 41.984375 11.859375 
Q 46.1875 17.53125 46.1875 27.296875 
Q 46.1875 37.015625 41.984375 42.703125 
Q 37.796875 48.390625 30.609375 48.390625 
M 30.609375 56 
Q 42.328125 56 49.015625 48.375 
Q 55.71875 40.765625 55.71875 27.296875 
Q 55.71875 13.875 49.015625 6.21875 
Q 42.328125 -1.421875 30.609375 -1.421875 
Q 18.84375 -1.421875 12.171875 6.21875 
Q 5.515625 13.875 5.515625 27.296875 
Q 5.515625 40.765625 12.171875 48.375 
Q 18.84375 56 30.609375 56 
" id="BitstreamVeraSans-Roman-6f"/>
      <path d="M 45.40625 46.390625 
L 45.40625 75.984375 
L 54.390625 75.984375 
L 54.390625 0 
L 45.40625 0 
L 45.40625 8.203125 
Q 42.578125 3.328125 38.25 0.953125 
Q 33.9375 -1.421875 27.875 -1.421875 
Q 17.96875 -1.421875 11.734375 6.484375 
Q 5.515625 14.40625 5.515625 27.296875 
Q 5.515625 40.1875 11.734375 48.09375 
Q 17.96875 56 27.875 56 
Q 33.9375 56 38.25 53.625 
Q 42.578125 51.265625 45.40625 46.390625 
M 14.796875 27.296875 
Q 14.796875 17.390625 18.875 11.75 
Q 22.953125 6.109375 30.078125 6.109375 
Q 37.203125 6.109375 41.296875 11.75 
Q 45.40625 17.390625 45.40625 27.296875 
Q 45.40625 37.203125 41.296875 42.84375 
Q 37.203125 48.484375 30.078125 48.484375 
Q 22.953125 48.484375 18.875 42.84375 
Q 14.796875 37.203125 14.796875 27.296875 
" id="BitstreamVeraSans-Roman-64"/>
      <path d="M 9.421875 54.6875 
L 18.40625 54.6875 
L 18.40625 0 
L 9.421875 0 
z
M 9.421875 75.984375 
L 18.40625 75.984375 
L 18.40625 64.59375 
L 9.421875 64.59375 
z
" id="BitstreamVeraSans-Roman-69"/>
      <path d="M 19.671875 64.796875 
L 19.671875 37.40625 
L 32.078125 37.40625 
Q 38.96875 37.40625 42.71875 40.96875 
Q 46.484375 44.53125 46.484375 51.125 
Q 46.484375 57.671875 42.71875 61.234375 
Q 38.96875 64.796875 32.078125 64.796875 
z
M 9.8125 72.90625 
L 32.078125 72.90625 
Q 44.34375 72.90625 50.609375 67.359375 
Q 56.890625 61.8125 56.890625 51.125 
Q 56.890625 40.328125 50.609375 34.8125 
Q 44.34375 29.296875 32.078125 29.296875 
L 19.671875 29.296875 
L 19.671875 0 
L 9.8125 0 
z
" id="BitstreamVeraSans-Roman-50"/>
      <path d="M 19.671875 64.796875 
L 19.671875 8.109375 
L 31.59375 8.109375 
Q 46.6875 8.109375 53.6875 14.9375 
Q 60.6875 21.78125 60.6875 36.53125 
Q 60.6875 51.171875 53.6875 57.984375 
Q 46.6875 64.796875 31.59375 64.796875 
z
M 9.8125 72.90625 
L 30.078125 72.90625 
Q 51.265625 72.90625 61.171875 64.09375 
Q 71.09375 55.28125 71.09375 36.53125 
Q 71.09375 17.671875 61.125 8.828125 
Q 51.171875 0 30.078125 0 
L 9.8125 0 
z
" id="BitstreamVeraSans-Roman-44"/>
      <path d="M 8.015625 75.875 
L 15.828125 75.875 
Q 23.140625 64.359375 26.78125 53.3125 
Q 30.421875 42.28125 30.421875 31.390625 
Q 30.421875 20.453125 26.78125 9.375 
Q 23.140625 -1.703125 15.828125 -13.1875 
L 8.015625 -13.1875 
Q 14.5 -2 17.703125 9.0625 
Q 20.90625 20.125 20.90625 31.390625 
Q 20.90625 42.671875 17.703125 53.65625 
Q 14.5 64.65625 8.015625 75.875 
" id="BitstreamVeraSans-Roman-29"/>
      <path d="M 4.203125 54.6875 
L 13.1875 54.6875 
L 24.421875 12.015625 
L 35.59375 54.6875 
L 46.1875 54.6875 
L 57.421875 12.015625 
L 68.609375 54.6875 
L 77.59375 54.6875 
L 63.28125 0 
L 52.6875 0 
L 40.921875 44.828125 
L 29.109375 0 
L 18.5 0 
z
" id="BitstreamVeraSans-Roman-77"/>
      <path d="M 18.3125 70.21875 
L 18.3125 54.6875 
L 36.8125 54.6875 
L 36.8125 47.703125 
L 18.3125 47.703125 
L 18.3125 18.015625 
Q 18.3125 11.328125 20.140625 9.421875 
Q 21.96875 7.515625 27.59375 7.515625 
L 36.8125 7.515625 
L 36.8125 0 
L 27.59375 0 
Q 17.1875 0 13.234375 3.875 
Q 9.28125 7.765625 9.28125 18.015625 
L 9.28125 47.703125 
L 2.6875 47.703125 
L 2.6875 54.6875 
L 9.28125 54.6875 
L 9.28125 70.21875 
z
" id="BitstreamVeraSans-Roman-74"/>
      <path d="M 45.40625 27.984375 
Q 45.40625 37.75 41.375 43.109375 
Q 37.359375 48.484375 30.078125 48.484375 
Q 22.859375 48.484375 18.828125 43.109375 
Q 14.796875 37.75 14.796875 27.984375 
Q 14.796875 18.265625 18.828125 12.890625 
Q 22.859375 7.515625 30.078125 7.515625 
Q 37.359375 7.515625 41.375 12.890625 
Q 45.40625 18.265625 45.40625 27.984375 
M 54.390625 6.78125 
Q 54.390625 -7.171875 48.1875 -13.984375 
Q 42 -20.796875 29.203125 -20.796875 
Q 24.46875 -20.796875 20.265625 -20.09375 
Q 16.0625 -19.390625 12.109375 -17.921875 
L 12.109375 -9.1875 
Q 16.0625 -11.328125 19.921875 -12.34375 
Q 23.78125 -13.375 27.78125 -13.375 
Q 36.625 -13.375 41.015625 -8.765625 
Q 45.40625 -4.15625 45.40625 5.171875 
L 45.40625 9.625 
Q 42.625 4.78125 38.28125 2.390625 
Q 33.9375 0 27.875 0 
Q 17.828125 0 11.671875 7.65625 
Q 5.515625 15.328125 5.515625 27.984375 
Q 5.515625 40.671875 11.671875 48.328125 
Q 17.828125 56 27.875 56 
Q 33.9375 56 38.28125 53.609375 
Q 42.625 51.21875 45.40625 46.390625 
L 45.40625 54.6875 
L 54.390625 54.6875 
z
" id="BitstreamVeraSans-Roman-67"/>
      <path id="BitstreamVeraSans-Roman-20"/>
      <path d="M 54.890625 33.015625 
L 54.890625 0 
L 45.90625 0 
L 45.90625 32.71875 
Q 45.90625 40.484375 42.875 44.328125 
Q 39.84375 48.1875 33.796875 48.1875 
Q 26.515625 48.1875 22.3125 43.546875 
Q 18.109375 38.921875 18.109375 30.90625 
L 18.109375 0 
L 9.078125 0 
L 9.078125 54.6875 
L 18.109375 54.6875 
L 18.109375 46.1875 
Q 21.34375 51.125 25.703125 53.5625 
Q 30.078125 56 35.796875 56 
Q 45.21875 56 50.046875 50.171875 
Q 54.890625 44.34375 54.890625 33.015625 
" id="BitstreamVeraSans-Roman-6e"/>
      <path d="M 31 75.875 
Q 24.46875 64.65625 21.28125 53.65625 
Q 18.109375 42.671875 18.109375 31.390625 
Q 18.109375 20.125 21.3125 9.0625 
Q 24.515625 -2 31 -13.1875 
L 23.1875 -13.1875 
Q 15.875 -1.703125 12.234375 9.375 
Q 8.59375 20.453125 8.59375 31.390625 
Q 8.59375 42.28125 12.203125 53.3125 
Q 15.828125 64.359375 23.1875 75.875 
z
" id="BitstreamVeraSans-Roman-28"/>
      <path d="M 9.8125 72.90625 
L 51.703125 72.90625 
L 51.703125 64.59375 
L 19.671875 64.59375 
L 19.671875 43.109375 
L 48.578125 43.109375 
L 48.578125 34.8125 
L 19.671875 34.8125 
L 19.671875 0 
L 9.8125 0 
z
" id="BitstreamVeraSans-Roman-46"/>
     </defs>
     <g transform="translate(165.704 42.668625)scale(0.144 -0.144)">
      <use xlink:href="#BitstreamVeraSans-Roman-44"/>
      <use x="77.001953125" xlink:href="#BitstreamVeraSans-Roman-65"/>
      <use x="138.525390625" xlink:href="#BitstreamVeraSans-Roman-77"/>
      <use x="220.3125" xlink:href="#BitstreamVeraSans-Roman-20"/>
      <use x="252.099609375" xlink:href="#BitstreamVeraSans-Roman-50"/>
      <use x="312.35546875" xlink:href="#BitstreamVeraSans-Roman-6f"/>
      <use x="373.537109375" xlink:href="#BitstreamVeraSans-Roman-69"/>
      <use x="401.3203125" xlink:href="#BitstreamVeraSans-Roman-6e"/>
      <use x="464.69921875" xlink:href="#BitstreamVeraSans-Roman-74"/>
      <use x="503.908203125" xlink:href="#BitstreamVeraSans-Roman-20"/>
      <use x="535.6953125" xlink:href="#BitstreamVeraSans-Roman-28"/>
      <use x="574.708984375" xlink:href="#BitstreamVeraSans-Roman-64"/>
      <use x="638.185546875" xlink:href="#BitstreamVeraSans-Roman-65"/>
      <use x="699.708984375" xlink:href="#BitstreamVeraSans-Roman-67"/>
      <use x="763.185546875" xlink:href="#BitstreamVeraSans-Roman-20"/>
      <use x="794.97265625" xlink:href="#BitstreamVeraSans-Roman-46"/>
      <use x="852.4921875" xlink:href="#BitstreamVeraSans-Roman-29"/>
     </g>
    </g>
   </g>
  </g>
 </g>
 <defs>
  <clipPath id="p40e0199c6d">
   <rect height="163.659375" width="274.81" x="32.23" y="18.766875"/>
  </clipPath>
 </defs>
</svg>
