<?xml version="1.0" encoding="utf-8" standalone="no"?>
<!DOCTYPE svg PUBLIC "-//W3C//DTD SVG 1.1//EN"
  "http://www.w3.org/Graphics/SVG/1.1/DTD/svg11.dtd">
<!-- Created with matplotlib (http://matplotlib.org/) -->
<svg height="211pt" version="1.1" viewBox="0 0 320 211" width="320pt" xmlns="http://www.w3.org/2000/svg" xmlns:xlink="http://www.w3.org/1999/xlink">
 <defs>
  <style type="text/css">
*{stroke-linecap:butt;stroke-linejoin:round;stroke-miterlimit:100000;}
  </style>
 </defs>
 <g id="figure_1">
  <g id="patch_1">
   <path d="M 0 211 
L 320 211 
L 320 0 
L 0 0 
z
" style="fill:#ffffff;"/>
  </g>
  <g id="axes_1">
   <g id="patch_2">
    <path d="M 39.865 182.42625 
L 307.04 182.42625 
L 307.04 18.766875 
L 39.865 18.766875 
z
" style="fill:#ffffff;"/>
   </g>
   <g id="line2d_1">
    <path clip-path="url(#p22c0845367)" d="M 39.865 116.9625 
L 40.22459 124.444071 
L 40.943769 132.393241 
L 41.662948 137.536821 
L 42.022537 138.00442 
L 42.382127 130.990446 
L 43.460895 81.425036 
L 44.180074 58.045125 
L 44.899253 44.952375 
L 45.258843 42.146786 
L 45.618432 43.081982 
L 45.978022 47.290366 
L 46.337611 54.304339 
L 46.697201 65.994295 
L 47.05679 83.763027 
L 47.775969 103.86975 
L 48.135559 112.286518 
L 48.495148 116.494902 
L 48.854738 124.444071 
L 49.573917 131.925643 
L 50.293096 137.536821 
L 50.652685 137.536821 
L 51.012275 130.522848 
L 52.091043 81.892634 
L 52.810222 58.045125 
L 53.529401 44.952375 
L 53.888991 42.146786 
L 54.24858 43.081982 
L 54.60817 47.290366 
L 54.967759 54.304339 
L 55.327349 66.461893 
L 55.686938 83.763027 
L 56.406117 103.86975 
L 56.765707 111.81892 
L 57.125296 116.494902 
L 57.484886 123.976473 
L 58.204065 131.925643 
L 58.923244 137.536821 
L 59.282833 138.00442 
L 59.642423 130.990446 
L 60.721191 81.425036 
L 61.44037 57.577527 
L 62.159549 44.484777 
L 62.519139 41.679188 
L 62.878728 42.614384 
L 63.238318 46.35517 
L 63.597907 53.836741 
L 63.957497 66.461893 
L 64.317086 84.230625 
L 64.676676 95.92058 
L 65.395855 111.81892 
L 65.755444 116.027304 
L 66.115034 123.508875 
L 66.834213 131.458045 
L 67.553392 137.069223 
L 67.912981 137.536821 
L 68.272571 130.990446 
L 69.351339 80.957437 
L 70.070518 56.64233 
L 70.789697 44.017179 
L 71.149287 41.679188 
L 71.508876 42.146786 
L 71.868466 46.35517 
L 72.228055 53.836741 
L 72.587645 66.929491 
L 72.947234 84.230625 
L 73.306824 95.92058 
L 74.026003 111.351321 
L 74.385592 116.027304 
L 74.745182 123.508875 
L 75.464361 131.458045 
L 76.18354 137.069223 
L 76.543129 137.536821 
L 76.902719 130.522848 
L 77.981487 81.425036 
L 78.700666 56.64233 
L 79.419845 44.484777 
L 79.779435 41.679188 
L 80.139024 42.614384 
L 80.498614 46.35517 
L 80.858203 54.304339 
L 81.217793 67.397089 
L 81.577382 84.698223 
L 81.936972 96.388179 
L 82.656151 111.81892 
L 83.01574 116.027304 
L 83.37533 123.508875 
L 84.094509 131.458045 
L 84.813688 137.536821 
L 85.173277 137.536821 
L 85.532867 130.990446 
L 86.611635 81.425036 
L 87.330814 57.109929 
L 87.690404 49.628357 
L 88.049993 44.484777 
L 88.409583 41.211589 
L 88.769172 42.146786 
L 89.128762 46.35517 
L 89.488351 53.836741 
L 90.56712 96.388179 
L 91.286299 112.286518 
L 91.645888 116.027304 
L 92.005478 123.976473 
L 92.724657 131.925643 
L 93.443836 137.536821 
L 93.803425 137.536821 
L 94.163015 130.990446 
L 95.241783 81.892634 
L 95.960962 57.109929 
L 96.320552 49.628357 
L 97.039731 40.743991 
L 97.39932 42.146786 
L 97.75891 46.35517 
L 98.118499 54.304339 
L 99.197268 96.855777 
L 99.916447 112.286518 
L 100.276036 116.027304 
L 100.635626 123.976473 
L 101.354805 131.925643 
L 102.073984 137.536821 
L 102.433573 137.536821 
L 102.793163 131.458045 
L 103.871931 81.892634 
L 104.59111 57.577527 
L 105.310289 44.484777 
L 105.669879 41.211589 
L 106.029468 42.614384 
L 106.389058 46.35517 
L 106.748647 54.304339 
L 107.108237 67.864687 
L 107.467826 85.63342 
L 107.827416 96.855777 
L 108.546595 112.286518 
L 108.906184 116.027304 
L 109.265774 123.976473 
L 109.984953 131.925643 
L 110.704132 137.536821 
L 111.063721 137.536821 
L 111.423311 131.458045 
L 112.502079 82.360232 
L 113.221258 57.577527 
L 113.940437 44.484777 
L 114.300027 41.211589 
L 114.659616 42.614384 
L 115.019206 46.35517 
L 115.378795 55.239536 
L 116.457564 97.323375 
L 117.176743 112.754116 
L 117.536332 116.494902 
L 117.895922 124.444071 
L 118.255511 129.120054 
L 119.33428 137.536821 
L 119.693869 137.536821 
L 120.053459 131.458045 
L 121.132227 82.360232 
L 121.851406 57.577527 
L 122.570585 44.952375 
L 122.930175 41.679188 
L 123.289764 43.081982 
L 123.649354 46.35517 
L 124.008943 54.771937 
L 125.087712 97.323375 
L 125.806891 112.754116 
L 126.16648 116.494902 
L 126.52607 124.444071 
L 127.245249 131.925643 
L 127.964428 137.069223 
L 128.324017 137.536821 
L 128.683607 131.458045 
L 129.762376 82.360232 
L 130.481555 57.577527 
L 131.200734 44.952375 
L 131.560323 42.146786 
L 131.919913 43.54958 
L 132.279502 46.822768 
L 132.639092 55.707134 
L 133.71786 97.790973 
L 134.437039 112.286518 
L 134.796629 116.027304 
L 135.156218 123.976473 
L 135.875397 131.925643 
L 136.594576 136.601625 
L 136.954166 137.069223 
L 137.313755 131.458045 
L 138.392524 82.360232 
L 139.111703 58.045125 
L 139.830882 44.952375 
L 140.190471 42.614384 
L 140.550061 43.54958 
L 140.90965 46.822768 
L 141.26924 55.707134 
L 142.348008 97.323375 
L 143.067187 111.81892 
L 143.426777 116.027304 
L 143.786366 123.976473 
L 144.505545 131.458045 
L 145.224724 136.601625 
L 145.584314 137.069223 
L 145.943903 131.458045 
L 147.022672 82.360232 
L 147.741851 58.045125 
L 148.46103 44.952375 
L 148.820619 42.146786 
L 149.180209 43.081982 
L 149.539798 46.35517 
L 149.899388 54.771937 
L 150.978156 96.388179 
L 151.697335 111.351321 
L 152.056925 116.027304 
L 152.416514 123.976473 
L 152.776104 128.652455 
L 153.495283 133.796036 
L 153.854872 136.134027 
L 154.214462 137.069223 
L 154.574051 131.458045 
L 156.012409 69.267482 
L 156.731588 51.031152 
L 157.091178 45.419973 
L 157.450767 42.614384 
L 157.810357 43.54958 
L 158.169946 46.822768 
L 158.529536 55.707134 
L 159.608304 96.855777 
L 160.327483 111.81892 
L 160.687073 116.494902 
L 161.046662 124.444071 
L 161.406252 129.120054 
L 162.125431 134.263634 
L 162.48502 136.601625 
L 162.84461 137.069223 
L 163.204199 131.925643 
L 164.282968 83.295429 
L 165.002147 58.980321 
L 165.721326 45.887571 
L 166.080915 43.54958 
L 166.440505 44.017179 
L 166.800094 47.290366 
L 167.159684 56.64233 
L 168.238452 96.855777 
L 168.957631 112.286518 
L 169.317221 116.494902 
L 169.67681 124.444071 
L 170.0364 128.652455 
L 171.115168 136.601625 
L 171.474758 137.069223 
L 171.834347 131.925643 
L 172.913116 83.295429 
L 173.632295 58.980321 
L 174.351474 45.887571 
L 174.711063 43.54958 
L 175.070653 44.017179 
L 175.430242 46.822768 
L 175.789832 56.174732 
L 176.8686 96.388179 
L 177.587779 111.81892 
L 177.947369 116.027304 
L 178.306958 123.976473 
L 179.026137 131.458045 
L 179.745316 136.601625 
L 180.104906 136.601625 
L 180.464495 131.458045 
L 181.543264 82.82783 
L 182.262443 58.512723 
L 182.981622 45.419973 
L 183.341211 43.081982 
L 183.700801 44.017179 
L 184.06039 46.822768 
L 184.41998 56.174732 
L 185.498748 96.855777 
L 186.217927 111.81892 
L 186.577517 116.027304 
L 186.937106 123.976473 
L 187.656285 131.458045 
L 188.375464 136.134027 
L 188.735054 136.601625 
L 189.094643 131.458045 
L 190.173412 82.82783 
L 190.892591 58.512723 
L 191.61177 45.419973 
L 191.971359 43.081982 
L 192.330949 44.017179 
L 192.690538 47.290366 
L 193.050128 56.64233 
L 194.128896 96.388179 
L 194.848075 111.81892 
L 195.207665 116.027304 
L 195.567254 123.976473 
L 196.286433 131.458045 
L 196.646023 134.263634 
L 197.005612 136.134027 
L 197.365202 136.601625 
L 197.724791 131.925643 
L 198.80356 82.82783 
L 199.522739 58.512723 
L 200.241918 45.419973 
L 200.601507 43.081982 
L 200.961097 43.54958 
L 201.320686 46.822768 
L 201.680276 55.707134 
L 202.399455 85.63342 
L 203.118634 104.337348 
L 203.478223 111.351321 
L 203.837813 116.027304 
L 204.197402 123.508875 
L 204.916581 131.458045 
L 205.63576 136.601625 
L 205.99535 137.069223 
L 206.354939 131.925643 
L 207.433708 82.360232 
L 208.152887 58.512723 
L 208.872066 44.952375 
L 209.231655 43.081982 
L 209.591245 43.54958 
L 209.950834 46.35517 
L 210.310424 55.707134 
L 211.029603 85.63342 
L 211.748782 103.86975 
L 212.108371 111.351321 
L 212.467961 115.559705 
L 212.82755 123.508875 
L 213.546729 131.458045 
L 214.265908 136.601625 
L 214.625498 137.069223 
L 214.985087 132.393241 
L 216.063856 82.82783 
L 216.783035 58.980321 
L 217.502214 45.419973 
L 217.861803 43.54958 
L 218.221393 44.017179 
L 218.580983 46.822768 
L 218.940572 56.174732 
L 219.659751 86.568616 
L 220.37893 104.337348 
L 220.73852 111.81892 
L 221.098109 116.027304 
L 221.457699 123.976473 
L 222.176878 131.925643 
L 222.536467 134.731232 
L 222.896057 136.601625 
L 223.255646 137.069223 
L 223.615236 132.860839 
L 224.694004 82.82783 
L 225.413183 58.980321 
L 226.132362 45.887571 
L 226.491952 44.017179 
L 226.851541 44.017179 
L 227.211131 47.757964 
L 227.57072 57.577527 
L 228.289899 87.036214 
L 229.009078 104.804946 
L 229.368668 112.286518 
L 229.728257 116.494902 
L 230.087847 124.444071 
L 230.807026 132.393241 
L 231.526205 137.536821 
L 231.885794 138.00442 
L 232.245384 133.328437 
L 233.324152 83.295429 
L 234.043331 59.44792 
L 234.76251 46.822768 
L 235.1221 44.484777 
L 235.481689 44.484777 
L 235.841279 48.225562 
L 236.200868 58.045125 
L 236.920047 87.971411 
L 237.639226 105.740143 
L 237.998816 112.754116 
L 238.358405 117.430098 
L 238.717995 124.91167 
L 239.437174 132.393241 
L 240.156353 138.00442 
L 240.515942 138.472018 
L 240.875532 133.796036 
L 241.9543 83.295429 
L 242.673479 60.383116 
L 243.392658 47.290366 
L 243.752248 45.419973 
L 244.111837 45.419973 
L 244.471427 49.160759 
L 244.831016 58.512723 
L 245.550195 88.439009 
L 246.269374 106.207741 
L 246.628964 113.689312 
L 246.988553 117.430098 
L 247.348143 124.91167 
L 248.067322 132.860839 
L 248.426911 136.134027 
L 248.786501 138.00442 
L 249.14609 138.939616 
L 249.50568 134.263634 
L 250.584448 84.230625 
L 251.303627 60.850714 
L 252.022806 47.757964 
L 252.382396 46.35517 
L 252.741985 46.822768 
L 253.101575 50.563554 
L 253.461164 59.915518 
L 254.180343 89.374205 
L 254.899522 107.610536 
L 255.259112 114.156911 
L 255.618701 117.897696 
L 255.978291 125.379268 
L 256.69747 133.328437 
L 257.057059 136.601625 
L 257.416649 138.472018 
L 257.776238 139.407214 
L 258.135828 134.731232 
L 259.214596 84.698223 
L 259.933775 61.318312 
L 260.652954 48.693161 
L 261.012544 46.822768 
L 261.372133 47.290366 
L 261.731723 51.49875 
L 262.091312 60.850714 
L 262.810491 90.309402 
L 263.52967 107.610536 
L 263.88926 115.092107 
L 264.248849 118.832893 
L 264.608439 126.314464 
L 265.687207 137.069223 
L 266.046797 139.407214 
L 266.406386 139.874812 
L 266.765976 135.666429 
L 267.844744 85.165821 
L 268.563923 61.785911 
L 268.923513 54.771937 
L 269.283102 50.095955 
L 269.642692 48.225562 
L 270.002281 48.693161 
L 270.361871 52.901545 
L 270.72146 62.253509 
L 271.440639 91.712196 
L 271.800229 101.999357 
L 272.519408 116.027304 
L 272.878997 119.768089 
L 273.238587 126.782062 
L 273.957766 134.263634 
L 274.676945 139.874812 
L 275.036534 140.342411 
L 275.396124 136.134027 
L 276.474892 85.63342 
L 277.194071 62.721107 
L 277.553661 55.707134 
L 277.91325 51.031152 
L 278.27284 49.160759 
L 278.632429 50.095955 
L 278.992019 54.771937 
L 279.351608 64.123902 
L 280.070787 93.114991 
L 280.430377 103.402152 
L 281.149556 117.430098 
L 281.509145 120.703286 
L 281.868735 127.717259 
L 282.947503 138.00442 
L 283.307093 140.342411 
L 283.666682 141.277607 
L 284.026272 137.069223 
L 285.10504 86.568616 
L 285.824219 63.656304 
L 286.183809 56.64233 
L 286.543398 51.966348 
L 286.902988 50.095955 
L 287.262577 50.563554 
L 287.622167 55.239536 
L 287.981756 65.059098 
L 288.700935 94.050187 
L 289.420114 111.81892 
L 289.779704 118.365295 
L 290.139293 121.638482 
L 290.498883 128.652455 
L 291.577651 138.939616 
L 291.937241 141.745205 
L 292.29683 141.745205 
L 292.65642 138.00442 
L 293.735188 87.036214 
L 294.454367 63.656304 
L 295.173546 52.433946 
L 295.533136 50.095955 
L 295.892725 51.031152 
L 296.252315 55.707134 
L 296.611904 65.526696 
L 297.331083 94.985384 
L 298.050262 112.754116 
L 298.409852 119.768089 
L 298.769441 122.573679 
L 299.129031 129.587652 
L 300.207799 139.874812 
L 300.567389 142.680402 
L 300.926978 143.148 
L 301.286568 138.939616 
L 302.365336 87.971411 
L 303.084515 65.059098 
L 303.444105 58.045125 
L 303.803694 53.369143 
L 304.163284 51.031152 
L 304.522873 51.49875 
L 304.882463 56.64233 
L 305.242052 66.461893 
L 305.961231 96.388179 
L 306.320821 106.675339 
L 307.04 120.703286 
L 307.04 120.703286 
" style="fill:none;stroke:#0000ff;stroke-linecap:square;"/>
   </g>
   <g id="line2d_2">
    <path clip-path="url(#p22c0845367)" d="M 39.865 155.305554 
L 40.22459 153.435161 
L 40.943769 152.499964 
L 41.303358 152.499964 
L 41.662948 152.967562 
L 42.022537 152.967562 
L 42.382127 148.29158 
L 42.741716 145.953589 
L 43.101306 149.226777 
L 44.539664 166.527911 
L 44.899253 170.268696 
L 45.258843 172.606687 
L 45.618432 174.009482 
L 45.978022 173.541884 
L 46.337611 174.47708 
L 47.41638 161.38433 
L 47.775969 157.643545 
L 48.135559 155.773152 
L 48.495148 155.305554 
L 48.854738 153.435161 
L 49.933506 152.032366 
L 50.652685 152.967562 
L 51.012275 148.29158 
L 51.371864 145.953589 
L 51.731454 149.226777 
L 53.169812 166.995509 
L 53.888991 173.074286 
L 54.24858 174.47708 
L 54.60817 174.009482 
L 54.967759 174.944679 
L 55.686938 166.060312 
L 56.406117 158.111143 
L 56.765707 155.773152 
L 57.125296 155.305554 
L 57.484886 153.435161 
L 58.204065 152.499964 
L 58.563654 152.499964 
L 58.923244 152.967562 
L 59.282833 152.967562 
L 59.642423 148.29158 
L 60.002012 145.953589 
L 60.361602 148.759179 
L 61.44037 163.254723 
L 62.159549 170.736295 
L 62.519139 173.074286 
L 62.878728 174.47708 
L 63.238318 174.009482 
L 63.597907 175.412277 
L 64.317086 165.592714 
L 65.036265 158.111143 
L 65.395855 156.24075 
L 65.755444 155.305554 
L 66.115034 153.902759 
L 66.474623 152.967562 
L 66.834213 152.499964 
L 67.193802 152.499964 
L 67.912981 153.435161 
L 68.272571 148.29158 
L 68.63216 145.953589 
L 68.99175 149.226777 
L 70.070518 163.254723 
L 70.789697 170.736295 
L 71.149287 173.074286 
L 71.508876 174.47708 
L 71.868466 174.009482 
L 72.228055 174.944679 
L 72.947234 165.592714 
L 73.666413 158.578741 
L 74.026003 156.24075 
L 74.385592 155.773152 
L 74.745182 153.902759 
L 75.104771 152.967562 
L 75.464361 152.499964 
L 75.82395 152.499964 
L 76.543129 153.435161 
L 76.902719 148.759179 
L 77.262308 145.953589 
L 77.621898 148.759179 
L 78.700666 163.254723 
L 79.419845 170.268696 
L 79.779435 173.074286 
L 80.139024 174.47708 
L 80.498614 173.541884 
L 80.858203 174.944679 
L 81.577382 165.592714 
L 82.296561 159.046339 
L 82.656151 156.708348 
L 83.01574 155.773152 
L 83.37533 153.902759 
L 84.094509 152.967562 
L 84.454098 152.967562 
L 85.173277 153.902759 
L 85.532867 149.226777 
L 85.892456 146.421187 
L 86.252046 149.226777 
L 87.690404 166.995509 
L 88.409583 173.074286 
L 88.769172 174.47708 
L 89.128762 174.009482 
L 89.488351 174.944679 
L 90.56712 162.319527 
L 91.286299 156.708348 
L 91.645888 156.24075 
L 92.005478 154.370357 
L 92.365067 153.435161 
L 92.724657 152.967562 
L 93.084246 152.967562 
L 93.443836 153.902759 
L 93.803425 154.370357 
L 94.163015 149.226777 
L 94.522604 146.421187 
L 94.882194 148.759179 
L 95.960962 163.254723 
L 97.039731 173.074286 
L 97.39932 174.47708 
L 97.75891 173.541884 
L 98.118499 174.47708 
L 99.197268 161.851929 
L 99.916447 156.708348 
L 100.276036 156.24075 
L 100.635626 154.370357 
L 100.995215 153.435161 
L 101.354805 152.967562 
L 101.714394 152.967562 
L 102.073984 154.370357 
L 102.433573 154.370357 
L 102.793163 149.226777 
L 103.152752 146.421187 
L 103.512342 148.759179 
L 104.9507 166.060312 
L 105.310289 169.801098 
L 106.029468 174.009482 
L 106.389058 173.541884 
L 106.748647 174.47708 
L 107.467826 165.125116 
L 108.187005 159.513937 
L 108.546595 156.708348 
L 108.906184 156.24075 
L 109.265774 154.370357 
L 109.625363 153.435161 
L 109.984953 152.967562 
L 110.344542 153.435161 
L 110.704132 154.370357 
L 111.063721 154.370357 
L 111.423311 149.226777 
L 111.7829 146.421187 
L 112.14249 148.759179 
L 113.221258 162.787125 
L 113.580848 165.592714 
L 114.300027 172.139089 
L 114.659616 173.541884 
L 115.019206 173.074286 
L 115.378795 174.009482 
L 116.097974 165.125116 
L 116.817153 159.513937 
L 117.176743 157.175946 
L 117.536332 156.24075 
L 117.895922 154.370357 
L 118.255511 153.435161 
L 118.97469 153.435161 
L 119.33428 154.370357 
L 119.693869 154.370357 
L 120.413048 146.421187 
L 120.772638 148.759179 
L 122.210996 166.060312 
L 122.930175 172.139089 
L 123.289764 173.541884 
L 123.649354 173.074286 
L 124.008943 174.009482 
L 125.087712 161.38433 
L 125.447301 159.513937 
L 125.806891 156.708348 
L 126.16648 156.24075 
L 126.52607 154.370357 
L 126.885659 153.435161 
L 127.245249 152.967562 
L 127.604838 152.967562 
L 127.964428 153.902759 
L 128.324017 154.370357 
L 129.043197 146.421187 
L 129.402786 148.29158 
L 130.841144 165.592714 
L 131.200734 169.3335 
L 131.560323 171.671491 
L 131.919913 173.074286 
L 132.279502 173.074286 
L 132.639092 174.009482 
L 133.358271 164.657518 
L 134.07745 159.513937 
L 134.437039 157.175946 
L 134.796629 156.708348 
L 135.156218 154.370357 
L 135.515808 153.435161 
L 135.875397 152.967562 
L 136.954166 154.370357 
L 137.673345 146.421187 
L 138.032934 148.29158 
L 139.471292 165.592714 
L 139.830882 169.3335 
L 140.190471 171.671491 
L 140.550061 173.074286 
L 140.90965 173.074286 
L 141.26924 174.009482 
L 141.988419 165.125116 
L 142.707598 159.513937 
L 143.067187 157.643545 
L 143.426777 156.708348 
L 143.786366 154.370357 
L 144.145956 153.435161 
L 144.505545 152.967562 
L 145.224724 153.902759 
L 145.584314 154.837955 
L 145.943903 149.694375 
L 146.303493 146.421187 
L 146.663082 148.29158 
L 148.10144 166.060312 
L 148.820619 172.139089 
L 149.180209 173.541884 
L 149.539798 173.541884 
L 149.899388 174.47708 
L 150.978156 161.851929 
L 151.697335 157.175946 
L 152.056925 156.708348 
L 152.776104 153.435161 
L 153.135693 152.967562 
L 153.854872 153.902759 
L 154.214462 154.837955 
L 154.933641 146.421187 
L 155.29323 148.29158 
L 156.731588 166.060312 
L 157.450767 172.139089 
L 157.810357 173.541884 
L 158.169946 173.541884 
L 158.529536 174.009482 
L 159.248715 164.657518 
L 159.967894 159.513937 
L 160.327483 157.175946 
L 160.687073 156.708348 
L 161.046662 154.837955 
L 161.406252 153.902759 
L 161.765841 153.435161 
L 162.125431 153.435161 
L 162.48502 153.902759 
L 162.84461 154.837955 
L 163.563789 146.421187 
L 163.923378 148.29158 
L 165.361736 166.060312 
L 166.080915 172.139089 
L 166.440505 173.541884 
L 166.800094 173.074286 
L 167.159684 174.009482 
L 167.878863 164.18992 
L 168.598042 159.046339 
L 168.957631 157.175946 
L 169.317221 156.24075 
L 169.67681 154.370357 
L 170.0364 153.435161 
L 170.395989 152.967562 
L 171.115168 153.902759 
L 171.474758 154.837955 
L 172.193937 145.953589 
L 172.553526 147.823982 
L 173.991884 165.592714 
L 174.711063 172.139089 
L 175.070653 173.541884 
L 175.430242 173.074286 
L 175.789832 174.009482 
L 176.509011 164.18992 
L 177.22819 159.046339 
L 177.587779 157.175946 
L 177.947369 156.24075 
L 178.306958 154.370357 
L 178.666548 153.435161 
L 179.026137 152.967562 
L 180.104906 154.370357 
L 180.824085 145.953589 
L 181.183674 147.356384 
L 182.262443 162.319527 
L 183.341211 171.671491 
L 183.700801 173.074286 
L 184.41998 173.074286 
L 185.139159 163.722321 
L 185.858338 158.578741 
L 186.217927 156.708348 
L 186.577517 156.24075 
L 186.937106 154.370357 
L 187.296696 153.435161 
L 187.656285 152.967562 
L 188.015875 152.967562 
L 188.375464 153.902759 
L 188.735054 154.370357 
L 189.454233 145.485991 
L 189.813822 147.356384 
L 191.25218 165.125116 
L 191.971359 171.671491 
L 192.330949 172.606687 
L 193.050128 172.606687 
L 193.769307 164.18992 
L 194.488486 158.578741 
L 194.848075 156.708348 
L 195.207665 156.24075 
L 195.567254 154.837955 
L 195.926844 153.902759 
L 196.286433 153.435161 
L 196.646023 153.435161 
L 197.005612 154.370357 
L 197.365202 154.837955 
L 198.084381 145.953589 
L 198.44397 147.356384 
L 199.882328 165.592714 
L 200.601507 171.671491 
L 200.961097 173.074286 
L 201.680276 173.074286 
L 202.399455 164.18992 
L 203.118634 158.578741 
L 203.478223 156.708348 
L 203.837813 156.24075 
L 204.197402 154.837955 
L 204.916581 153.902759 
L 205.276171 153.902759 
L 205.63576 154.370357 
L 205.99535 155.305554 
L 206.714529 145.953589 
L 207.074118 147.823982 
L 208.512476 165.592714 
L 209.231655 172.139089 
L 209.591245 173.541884 
L 209.950834 173.541884 
L 210.310424 173.074286 
L 211.029603 164.18992 
L 211.748782 158.578741 
L 212.108371 157.175946 
L 212.467961 156.708348 
L 212.82755 155.305554 
L 213.18714 154.370357 
L 213.546729 153.902759 
L 213.906319 153.902759 
L 214.265908 154.370357 
L 214.625498 155.305554 
L 215.344677 146.421187 
L 215.704266 147.823982 
L 217.142624 165.592714 
L 217.502214 169.3335 
L 217.861803 171.671491 
L 218.221393 173.074286 
L 218.940572 173.074286 
L 219.659751 164.18992 
L 220.37893 158.578741 
L 220.73852 157.175946 
L 221.098109 157.175946 
L 221.457699 155.305554 
L 222.176878 154.370357 
L 222.536467 154.370357 
L 223.255646 155.305554 
L 223.974825 146.888786 
L 224.334415 148.29158 
L 225.772773 166.060312 
L 226.491952 172.139089 
L 226.851541 173.541884 
L 227.57072 173.541884 
L 228.289899 165.125116 
L 229.009078 159.046339 
L 229.368668 158.111143 
L 229.728257 157.643545 
L 230.087847 156.24075 
L 230.807026 155.305554 
L 231.166615 155.305554 
L 231.885794 156.24075 
L 232.604973 147.356384 
L 232.964563 149.226777 
L 233.683742 158.578741 
L 234.043331 163.722321 
L 234.402921 166.527911 
L 234.76251 170.268696 
L 235.1221 172.606687 
L 235.481689 174.009482 
L 236.200868 174.009482 
L 236.920047 165.592714 
L 237.639226 159.513937 
L 237.998816 158.578741 
L 238.358405 158.578741 
L 238.717995 156.708348 
L 239.437174 155.773152 
L 239.796763 155.773152 
L 240.515942 156.708348 
L 241.235121 147.823982 
L 241.594711 149.694375 
L 242.31389 158.111143 
L 242.673479 163.722321 
L 243.033069 166.527911 
L 243.392658 170.268696 
L 243.752248 172.606687 
L 244.111837 174.009482 
L 244.831016 174.009482 
L 245.190606 168.865902 
L 246.269374 159.513937 
L 246.628964 158.578741 
L 246.988553 158.578741 
L 247.348143 156.708348 
L 247.707732 156.708348 
L 248.067322 156.24075 
L 248.426911 156.24075 
L 249.14609 157.175946 
L 249.865269 148.759179 
L 250.224859 150.161973 
L 250.944038 158.578741 
L 251.303627 163.722321 
L 251.663217 166.527911 
L 252.022806 170.268696 
L 252.382396 172.606687 
L 252.741985 174.009482 
L 253.461164 174.009482 
L 254.180343 166.060312 
L 254.899522 159.981536 
L 255.259112 159.046339 
L 255.618701 159.046339 
L 255.978291 157.643545 
L 256.69747 156.708348 
L 257.057059 157.175946 
L 257.416649 157.175946 
L 257.776238 157.643545 
L 258.495417 149.226777 
L 258.855007 150.629571 
L 259.574186 158.578741 
L 259.933775 164.18992 
L 261.012544 172.606687 
L 261.372133 174.47708 
L 261.731723 174.009482 
L 262.091312 174.009482 
L 262.810491 166.060312 
L 263.52967 159.981536 
L 264.248849 159.046339 
L 264.608439 157.643545 
L 264.968028 157.643545 
L 265.327618 157.175946 
L 265.687207 157.643545 
L 266.046797 157.643545 
L 266.406386 158.578741 
L 267.125565 149.694375 
L 267.485155 151.09717 
L 267.844744 154.370357 
L 268.923513 166.995509 
L 269.642692 172.606687 
L 270.002281 174.47708 
L 270.361871 174.009482 
L 270.72146 174.009482 
L 271.440639 166.060312 
L 272.159818 160.449134 
L 272.519408 159.513937 
L 272.878997 159.513937 
L 273.238587 158.111143 
L 274.317355 158.111143 
L 275.036534 159.046339 
L 275.755713 151.09717 
L 276.115303 152.032366 
L 276.834482 159.513937 
L 277.194071 164.657518 
L 278.27284 173.074286 
L 278.632429 174.47708 
L 278.992019 174.47708 
L 279.351608 174.009482 
L 280.070787 166.527911 
L 280.789966 160.916732 
L 281.149556 159.981536 
L 281.509145 159.981536 
L 281.868735 158.578741 
L 282.947503 158.578741 
L 283.307093 159.513937 
L 283.666682 159.981536 
L 284.385861 151.564768 
L 284.745451 152.499964 
L 285.46463 159.981536 
L 285.824219 165.125116 
L 286.902988 173.074286 
L 287.262577 174.944679 
L 287.981756 174.944679 
L 288.700935 167.463107 
L 289.420114 162.319527 
L 289.779704 160.916732 
L 290.139293 160.916732 
L 290.498883 159.981536 
L 290.858472 159.513937 
L 291.218062 159.981536 
L 291.577651 159.981536 
L 292.29683 160.916732 
L 293.016009 152.967562 
L 293.375599 153.435161 
L 293.735188 156.24075 
L 294.094778 160.449134 
L 294.454367 166.060312 
L 294.813957 168.398304 
L 295.533136 174.009482 
L 295.892725 175.879875 
L 296.611904 175.879875 
L 296.971494 171.671491 
L 298.050262 163.254723 
L 298.409852 162.319527 
L 298.769441 162.319527 
L 299.129031 160.916732 
L 300.207799 160.916732 
L 300.567389 161.851929 
L 300.926978 162.319527 
L 301.646157 153.902759 
L 302.005747 154.370357 
L 302.365336 157.175946 
L 303.444105 168.865902 
L 304.163284 174.47708 
L 304.522873 176.815071 
L 304.882463 176.347473 
L 305.242052 176.347473 
L 305.601642 172.139089 
L 306.68041 164.18992 
L 307.04 162.787125 
L 307.04 162.787125 
" style="fill:none;stroke:#008000;stroke-linecap:square;"/>
   </g>
   <g id="patch_3">
    <path d="M 39.865 182.42625 
L 39.865 18.766875 
" style="fill:none;stroke:#000000;stroke-linecap:square;stroke-linejoin:miter;"/>
   </g>
   <g id="patch_4">
    <path d="M 39.865 182.42625 
L 307.04 182.42625 
" style="fill:none;stroke:#000000;stroke-linecap:square;stroke-linejoin:miter;"/>
   </g>
   <g id="patch_5">
    <path d="M 307.04 182.42625 
L 307.04 18.766875 
" style="fill:none;stroke:#000000;stroke-linecap:square;stroke-linejoin:miter;"/>
   </g>
   <g id="patch_6">
    <path d="M 39.865 18.766875 
L 307.04 18.766875 
" style="fill:none;stroke:#000000;stroke-linecap:square;stroke-linejoin:miter;"/>
   </g>
   <g id="matplotlib.axis_1">
    <g id="xtick_1">
     <g id="line2d_3">
      <defs>
       <path d="M 0 0 
L 0 -4 
" id="m2abb60ab44" style="stroke:#000000;stroke-width:0.5;"/>
      </defs>
      <g>
       <use style="stroke:#000000;stroke-width:0.5;" x="39.865" xlink:href="#m2abb60ab44" y="182.42625"/>
      </g>
     </g>
     <g id="line2d_4">
      <defs>
       <path d="M 0 0 
L 0 4 
" id="m344a01db47" style="stroke:#000000;stroke-width:0.5;"/>
      </defs>
      <g>
       <use style="stroke:#000000;stroke-width:0.5;" x="39.865" xlink:href="#m344a01db47" y="18.766875"/>
      </g>
     </g>
     <g id="text_1">
      <!-- 0 -->
      <defs>
       <path d="M 31.78125 66.40625 
Q 24.171875 66.40625 20.328125 58.90625 
Q 16.5 51.421875 16.5 36.375 
Q 16.5 21.390625 20.328125 13.890625 
Q 24.171875 6.390625 31.78125 6.390625 
Q 39.453125 6.390625 43.28125 13.890625 
Q 47.125 21.390625 47.125 36.375 
Q 47.125 51.421875 43.28125 58.90625 
Q 39.453125 66.40625 31.78125 66.40625 
M 31.78125 74.21875 
Q 44.046875 74.21875 50.515625 64.515625 
Q 56.984375 54.828125 56.984375 36.375 
Q 56.984375 17.96875 50.515625 8.265625 
Q 44.046875 -1.421875 31.78125 -1.421875 
Q 19.53125 -1.421875 13.0625 8.265625 
Q 6.59375 17.96875 6.59375 36.375 
Q 6.59375 54.828125 13.0625 64.515625 
Q 19.53125 74.21875 31.78125 74.21875 
" id="BitstreamVeraSans-Roman-30"/>
      </defs>
      <g transform="translate(36.0475 195.544375)scale(0.12 -0.12)">
       <use xlink:href="#BitstreamVeraSans-Roman-30"/>
      </g>
     </g>
    </g>
    <g id="xtick_2">
     <g id="line2d_5">
      <g>
       <use style="stroke:#000000;stroke-width:0.5;" x="75.8239502019" xlink:href="#m2abb60ab44" y="182.42625"/>
      </g>
     </g>
     <g id="line2d_6">
      <g>
       <use style="stroke:#000000;stroke-width:0.5;" x="75.8239502019" xlink:href="#m344a01db47" y="18.766875"/>
      </g>
     </g>
     <g id="text_2">
      <!-- 100 -->
      <defs>
       <path d="M 12.40625 8.296875 
L 28.515625 8.296875 
L 28.515625 63.921875 
L 10.984375 60.40625 
L 10.984375 69.390625 
L 28.421875 72.90625 
L 38.28125 72.90625 
L 38.28125 8.296875 
L 54.390625 8.296875 
L 54.390625 0 
L 12.40625 0 
z
" id="BitstreamVeraSans-Roman-31"/>
      </defs>
      <g transform="translate(64.3714502019 195.544375)scale(0.12 -0.12)">
       <use xlink:href="#BitstreamVeraSans-Roman-31"/>
       <use x="63.623046875" xlink:href="#BitstreamVeraSans-Roman-30"/>
       <use x="127.24609375" xlink:href="#BitstreamVeraSans-Roman-30"/>
      </g>
     </g>
    </g>
    <g id="xtick_3">
     <g id="line2d_7">
      <g>
       <use style="stroke:#000000;stroke-width:0.5;" x="111.782900404" xlink:href="#m2abb60ab44" y="182.42625"/>
      </g>
     </g>
     <g id="line2d_8">
      <g>
       <use style="stroke:#000000;stroke-width:0.5;" x="111.782900404" xlink:href="#m344a01db47" y="18.766875"/>
      </g>
     </g>
     <g id="text_3">
      <!-- 200 -->
      <defs>
       <path d="M 19.1875 8.296875 
L 53.609375 8.296875 
L 53.609375 0 
L 7.328125 0 
L 7.328125 8.296875 
Q 12.9375 14.109375 22.625 23.890625 
Q 32.328125 33.6875 34.8125 36.53125 
Q 39.546875 41.84375 41.421875 45.53125 
Q 43.3125 49.21875 43.3125 52.78125 
Q 43.3125 58.59375 39.234375 62.25 
Q 35.15625 65.921875 28.609375 65.921875 
Q 23.96875 65.921875 18.8125 64.3125 
Q 13.671875 62.703125 7.8125 59.421875 
L 7.8125 69.390625 
Q 13.765625 71.78125 18.9375 73 
Q 24.125 74.21875 28.421875 74.21875 
Q 39.75 74.21875 46.484375 68.546875 
Q 53.21875 62.890625 53.21875 53.421875 
Q 53.21875 48.921875 51.53125 44.890625 
Q 49.859375 40.875 45.40625 35.40625 
Q 44.1875 33.984375 37.640625 27.21875 
Q 31.109375 20.453125 19.1875 8.296875 
" id="BitstreamVeraSans-Roman-32"/>
      </defs>
      <g transform="translate(100.330400404 195.544375)scale(0.12 -0.12)">
       <use xlink:href="#BitstreamVeraSans-Roman-32"/>
       <use x="63.623046875" xlink:href="#BitstreamVeraSans-Roman-30"/>
       <use x="127.24609375" xlink:href="#BitstreamVeraSans-Roman-30"/>
      </g>
     </g>
    </g>
    <g id="xtick_4">
     <g id="line2d_9">
      <g>
       <use style="stroke:#000000;stroke-width:0.5;" x="147.741850606" xlink:href="#m2abb60ab44" y="182.42625"/>
      </g>
     </g>
     <g id="line2d_10">
      <g>
       <use style="stroke:#000000;stroke-width:0.5;" x="147.741850606" xlink:href="#m344a01db47" y="18.766875"/>
      </g>
     </g>
     <g id="text_4">
      <!-- 300 -->
      <defs>
       <path d="M 40.578125 39.3125 
Q 47.65625 37.796875 51.625 33 
Q 55.609375 28.21875 55.609375 21.1875 
Q 55.609375 10.40625 48.1875 4.484375 
Q 40.765625 -1.421875 27.09375 -1.421875 
Q 22.515625 -1.421875 17.65625 -0.515625 
Q 12.796875 0.390625 7.625 2.203125 
L 7.625 11.71875 
Q 11.71875 9.328125 16.59375 8.109375 
Q 21.484375 6.890625 26.8125 6.890625 
Q 36.078125 6.890625 40.9375 10.546875 
Q 45.796875 14.203125 45.796875 21.1875 
Q 45.796875 27.640625 41.28125 31.265625 
Q 36.765625 34.90625 28.71875 34.90625 
L 20.21875 34.90625 
L 20.21875 43.015625 
L 29.109375 43.015625 
Q 36.375 43.015625 40.234375 45.921875 
Q 44.09375 48.828125 44.09375 54.296875 
Q 44.09375 59.90625 40.109375 62.90625 
Q 36.140625 65.921875 28.71875 65.921875 
Q 24.65625 65.921875 20.015625 65.03125 
Q 15.375 64.15625 9.8125 62.3125 
L 9.8125 71.09375 
Q 15.4375 72.65625 20.34375 73.4375 
Q 25.25 74.21875 29.59375 74.21875 
Q 40.828125 74.21875 47.359375 69.109375 
Q 53.90625 64.015625 53.90625 55.328125 
Q 53.90625 49.265625 50.4375 45.09375 
Q 46.96875 40.921875 40.578125 39.3125 
" id="BitstreamVeraSans-Roman-33"/>
      </defs>
      <g transform="translate(136.289350606 195.544375)scale(0.12 -0.12)">
       <use xlink:href="#BitstreamVeraSans-Roman-33"/>
       <use x="63.623046875" xlink:href="#BitstreamVeraSans-Roman-30"/>
       <use x="127.24609375" xlink:href="#BitstreamVeraSans-Roman-30"/>
      </g>
     </g>
    </g>
    <g id="xtick_5">
     <g id="line2d_11">
      <g>
       <use style="stroke:#000000;stroke-width:0.5;" x="183.700800808" xlink:href="#m2abb60ab44" y="182.42625"/>
      </g>
     </g>
     <g id="line2d_12">
      <g>
       <use style="stroke:#000000;stroke-width:0.5;" x="183.700800808" xlink:href="#m344a01db47" y="18.766875"/>
      </g>
     </g>
     <g id="text_5">
      <!-- 400 -->
      <defs>
       <path d="M 37.796875 64.3125 
L 12.890625 25.390625 
L 37.796875 25.390625 
z
M 35.203125 72.90625 
L 47.609375 72.90625 
L 47.609375 25.390625 
L 58.015625 25.390625 
L 58.015625 17.1875 
L 47.609375 17.1875 
L 47.609375 0 
L 37.796875 0 
L 37.796875 17.1875 
L 4.890625 17.1875 
L 4.890625 26.703125 
z
" id="BitstreamVeraSans-Roman-34"/>
      </defs>
      <g transform="translate(172.248300808 195.544375)scale(0.12 -0.12)">
       <use xlink:href="#BitstreamVeraSans-Roman-34"/>
       <use x="63.623046875" xlink:href="#BitstreamVeraSans-Roman-30"/>
       <use x="127.24609375" xlink:href="#BitstreamVeraSans-Roman-30"/>
      </g>
     </g>
    </g>
    <g id="xtick_6">
     <g id="line2d_13">
      <g>
       <use style="stroke:#000000;stroke-width:0.5;" x="219.659751009" xlink:href="#m2abb60ab44" y="182.42625"/>
      </g>
     </g>
     <g id="line2d_14">
      <g>
       <use style="stroke:#000000;stroke-width:0.5;" x="219.659751009" xlink:href="#m344a01db47" y="18.766875"/>
      </g>
     </g>
     <g id="text_6">
      <!-- 500 -->
      <defs>
       <path d="M 10.796875 72.90625 
L 49.515625 72.90625 
L 49.515625 64.59375 
L 19.828125 64.59375 
L 19.828125 46.734375 
Q 21.96875 47.46875 24.109375 47.828125 
Q 26.265625 48.1875 28.421875 48.1875 
Q 40.625 48.1875 47.75 41.5 
Q 54.890625 34.8125 54.890625 23.390625 
Q 54.890625 11.625 47.5625 5.09375 
Q 40.234375 -1.421875 26.90625 -1.421875 
Q 22.3125 -1.421875 17.546875 -0.640625 
Q 12.796875 0.140625 7.71875 1.703125 
L 7.71875 11.625 
Q 12.109375 9.234375 16.796875 8.0625 
Q 21.484375 6.890625 26.703125 6.890625 
Q 35.15625 6.890625 40.078125 11.328125 
Q 45.015625 15.765625 45.015625 23.390625 
Q 45.015625 31 40.078125 35.4375 
Q 35.15625 39.890625 26.703125 39.890625 
Q 22.75 39.890625 18.8125 39.015625 
Q 14.890625 38.140625 10.796875 36.28125 
z
" id="BitstreamVeraSans-Roman-35"/>
      </defs>
      <g transform="translate(208.207251009 195.544375)scale(0.12 -0.12)">
       <use xlink:href="#BitstreamVeraSans-Roman-35"/>
       <use x="63.623046875" xlink:href="#BitstreamVeraSans-Roman-30"/>
       <use x="127.24609375" xlink:href="#BitstreamVeraSans-Roman-30"/>
      </g>
     </g>
    </g>
    <g id="xtick_7">
     <g id="line2d_15">
      <g>
       <use style="stroke:#000000;stroke-width:0.5;" x="255.618701211" xlink:href="#m2abb60ab44" y="182.42625"/>
      </g>
     </g>
     <g id="line2d_16">
      <g>
       <use style="stroke:#000000;stroke-width:0.5;" x="255.618701211" xlink:href="#m344a01db47" y="18.766875"/>
      </g>
     </g>
     <g id="text_7">
      <!-- 600 -->
      <defs>
       <path d="M 33.015625 40.375 
Q 26.375 40.375 22.484375 35.828125 
Q 18.609375 31.296875 18.609375 23.390625 
Q 18.609375 15.53125 22.484375 10.953125 
Q 26.375 6.390625 33.015625 6.390625 
Q 39.65625 6.390625 43.53125 10.953125 
Q 47.40625 15.53125 47.40625 23.390625 
Q 47.40625 31.296875 43.53125 35.828125 
Q 39.65625 40.375 33.015625 40.375 
M 52.59375 71.296875 
L 52.59375 62.3125 
Q 48.875 64.0625 45.09375 64.984375 
Q 41.3125 65.921875 37.59375 65.921875 
Q 27.828125 65.921875 22.671875 59.328125 
Q 17.53125 52.734375 16.796875 39.40625 
Q 19.671875 43.65625 24.015625 45.921875 
Q 28.375 48.1875 33.59375 48.1875 
Q 44.578125 48.1875 50.953125 41.515625 
Q 57.328125 34.859375 57.328125 23.390625 
Q 57.328125 12.15625 50.6875 5.359375 
Q 44.046875 -1.421875 33.015625 -1.421875 
Q 20.359375 -1.421875 13.671875 8.265625 
Q 6.984375 17.96875 6.984375 36.375 
Q 6.984375 53.65625 15.1875 63.9375 
Q 23.390625 74.21875 37.203125 74.21875 
Q 40.921875 74.21875 44.703125 73.484375 
Q 48.484375 72.75 52.59375 71.296875 
" id="BitstreamVeraSans-Roman-36"/>
      </defs>
      <g transform="translate(244.166201211 195.544375)scale(0.12 -0.12)">
       <use xlink:href="#BitstreamVeraSans-Roman-36"/>
       <use x="63.623046875" xlink:href="#BitstreamVeraSans-Roman-30"/>
       <use x="127.24609375" xlink:href="#BitstreamVeraSans-Roman-30"/>
      </g>
     </g>
    </g>
    <g id="xtick_8">
     <g id="line2d_17">
      <g>
       <use style="stroke:#000000;stroke-width:0.5;" x="291.577651413" xlink:href="#m2abb60ab44" y="182.42625"/>
      </g>
     </g>
     <g id="line2d_18">
      <g>
       <use style="stroke:#000000;stroke-width:0.5;" x="291.577651413" xlink:href="#m344a01db47" y="18.766875"/>
      </g>
     </g>
     <g id="text_8">
      <!-- 700 -->
      <defs>
       <path d="M 8.203125 72.90625 
L 55.078125 72.90625 
L 55.078125 68.703125 
L 28.609375 0 
L 18.3125 0 
L 43.21875 64.59375 
L 8.203125 64.59375 
z
" id="BitstreamVeraSans-Roman-37"/>
      </defs>
      <g transform="translate(280.125151413 195.544375)scale(0.12 -0.12)">
       <use xlink:href="#BitstreamVeraSans-Roman-37"/>
       <use x="63.623046875" xlink:href="#BitstreamVeraSans-Roman-30"/>
       <use x="127.24609375" xlink:href="#BitstreamVeraSans-Roman-30"/>
      </g>
     </g>
    </g>
   </g>
   <g id="matplotlib.axis_2">
    <g id="ytick_1">
     <g id="line2d_19">
      <defs>
       <path d="M 0 0 
L 4 0 
" id="m1f5ffdc515" style="stroke:#000000;stroke-width:0.5;"/>
      </defs>
      <g>
       <use style="stroke:#000000;stroke-width:0.5;" x="39.865" xlink:href="#m1f5ffdc515" y="182.42625"/>
      </g>
     </g>
     <g id="line2d_20">
      <defs>
       <path d="M 0 0 
L -4 0 
" id="mb6be2b8f59" style="stroke:#000000;stroke-width:0.5;"/>
      </defs>
      <g>
       <use style="stroke:#000000;stroke-width:0.5;" x="307.04" xlink:href="#mb6be2b8f59" y="182.42625"/>
      </g>
     </g>
     <g id="text_9">
      <!-- 65 -->
      <g transform="translate(20.595 185.7375)scale(0.12 -0.12)">
       <use xlink:href="#BitstreamVeraSans-Roman-36"/>
       <use x="63.623046875" xlink:href="#BitstreamVeraSans-Roman-35"/>
      </g>
     </g>
    </g>
    <g id="ytick_2">
     <g id="line2d_21">
      <g>
       <use style="stroke:#000000;stroke-width:0.5;" x="39.865" xlink:href="#m1f5ffdc515" y="159.046339286"/>
      </g>
     </g>
     <g id="line2d_22">
      <g>
       <use style="stroke:#000000;stroke-width:0.5;" x="307.04" xlink:href="#mb6be2b8f59" y="159.046339286"/>
      </g>
     </g>
     <g id="text_10">
      <!-- 70 -->
      <g transform="translate(20.595 162.357589286)scale(0.12 -0.12)">
       <use xlink:href="#BitstreamVeraSans-Roman-37"/>
       <use x="63.623046875" xlink:href="#BitstreamVeraSans-Roman-30"/>
      </g>
     </g>
    </g>
    <g id="ytick_3">
     <g id="line2d_23">
      <g>
       <use style="stroke:#000000;stroke-width:0.5;" x="39.865" xlink:href="#m1f5ffdc515" y="135.666428571"/>
      </g>
     </g>
     <g id="line2d_24">
      <g>
       <use style="stroke:#000000;stroke-width:0.5;" x="307.04" xlink:href="#mb6be2b8f59" y="135.666428571"/>
      </g>
     </g>
     <g id="text_11">
      <!-- 75 -->
      <g transform="translate(20.595 138.977678571)scale(0.12 -0.12)">
       <use xlink:href="#BitstreamVeraSans-Roman-37"/>
       <use x="63.623046875" xlink:href="#BitstreamVeraSans-Roman-35"/>
      </g>
     </g>
    </g>
    <g id="ytick_4">
     <g id="line2d_25">
      <g>
       <use style="stroke:#000000;stroke-width:0.5;" x="39.865" xlink:href="#m1f5ffdc515" y="112.286517857"/>
      </g>
     </g>
     <g id="line2d_26">
      <g>
       <use style="stroke:#000000;stroke-width:0.5;" x="307.04" xlink:href="#mb6be2b8f59" y="112.286517857"/>
      </g>
     </g>
     <g id="text_12">
      <!-- 80 -->
      <defs>
       <path d="M 31.78125 34.625 
Q 24.75 34.625 20.71875 30.859375 
Q 16.703125 27.09375 16.703125 20.515625 
Q 16.703125 13.921875 20.71875 10.15625 
Q 24.75 6.390625 31.78125 6.390625 
Q 38.8125 6.390625 42.859375 10.171875 
Q 46.921875 13.96875 46.921875 20.515625 
Q 46.921875 27.09375 42.890625 30.859375 
Q 38.875 34.625 31.78125 34.625 
M 21.921875 38.8125 
Q 15.578125 40.375 12.03125 44.71875 
Q 8.5 49.078125 8.5 55.328125 
Q 8.5 64.0625 14.71875 69.140625 
Q 20.953125 74.21875 31.78125 74.21875 
Q 42.671875 74.21875 48.875 69.140625 
Q 55.078125 64.0625 55.078125 55.328125 
Q 55.078125 49.078125 51.53125 44.71875 
Q 48 40.375 41.703125 38.8125 
Q 48.828125 37.15625 52.796875 32.3125 
Q 56.78125 27.484375 56.78125 20.515625 
Q 56.78125 9.90625 50.3125 4.234375 
Q 43.84375 -1.421875 31.78125 -1.421875 
Q 19.734375 -1.421875 13.25 4.234375 
Q 6.78125 9.90625 6.78125 20.515625 
Q 6.78125 27.484375 10.78125 32.3125 
Q 14.796875 37.15625 21.921875 38.8125 
M 18.3125 54.390625 
Q 18.3125 48.734375 21.84375 45.5625 
Q 25.390625 42.390625 31.78125 42.390625 
Q 38.140625 42.390625 41.71875 45.5625 
Q 45.3125 48.734375 45.3125 54.390625 
Q 45.3125 60.0625 41.71875 63.234375 
Q 38.140625 66.40625 31.78125 66.40625 
Q 25.390625 66.40625 21.84375 63.234375 
Q 18.3125 60.0625 18.3125 54.390625 
" id="BitstreamVeraSans-Roman-38"/>
      </defs>
      <g transform="translate(20.595 115.597767857)scale(0.12 -0.12)">
       <use xlink:href="#BitstreamVeraSans-Roman-38"/>
       <use x="63.623046875" xlink:href="#BitstreamVeraSans-Roman-30"/>
      </g>
     </g>
    </g>
    <g id="ytick_5">
     <g id="line2d_27">
      <g>
       <use style="stroke:#000000;stroke-width:0.5;" x="39.865" xlink:href="#m1f5ffdc515" y="88.9066071429"/>
      </g>
     </g>
     <g id="line2d_28">
      <g>
       <use style="stroke:#000000;stroke-width:0.5;" x="307.04" xlink:href="#mb6be2b8f59" y="88.9066071429"/>
      </g>
     </g>
     <g id="text_13">
      <!-- 85 -->
      <g transform="translate(20.595 92.2178571429)scale(0.12 -0.12)">
       <use xlink:href="#BitstreamVeraSans-Roman-38"/>
       <use x="63.623046875" xlink:href="#BitstreamVeraSans-Roman-35"/>
      </g>
     </g>
    </g>
    <g id="ytick_6">
     <g id="line2d_29">
      <g>
       <use style="stroke:#000000;stroke-width:0.5;" x="39.865" xlink:href="#m1f5ffdc515" y="65.5266964286"/>
      </g>
     </g>
     <g id="line2d_30">
      <g>
       <use style="stroke:#000000;stroke-width:0.5;" x="307.04" xlink:href="#mb6be2b8f59" y="65.5266964286"/>
      </g>
     </g>
     <g id="text_14">
      <!-- 90 -->
      <defs>
       <path d="M 10.984375 1.515625 
L 10.984375 10.5 
Q 14.703125 8.734375 18.5 7.8125 
Q 22.3125 6.890625 25.984375 6.890625 
Q 35.75 6.890625 40.890625 13.453125 
Q 46.046875 20.015625 46.78125 33.40625 
Q 43.953125 29.203125 39.59375 26.953125 
Q 35.25 24.703125 29.984375 24.703125 
Q 19.046875 24.703125 12.671875 31.3125 
Q 6.296875 37.9375 6.296875 49.421875 
Q 6.296875 60.640625 12.9375 67.421875 
Q 19.578125 74.21875 30.609375 74.21875 
Q 43.265625 74.21875 49.921875 64.515625 
Q 56.59375 54.828125 56.59375 36.375 
Q 56.59375 19.140625 48.40625 8.859375 
Q 40.234375 -1.421875 26.421875 -1.421875 
Q 22.703125 -1.421875 18.890625 -0.6875 
Q 15.09375 0.046875 10.984375 1.515625 
M 30.609375 32.421875 
Q 37.25 32.421875 41.125 36.953125 
Q 45.015625 41.5 45.015625 49.421875 
Q 45.015625 57.28125 41.125 61.84375 
Q 37.25 66.40625 30.609375 66.40625 
Q 23.96875 66.40625 20.09375 61.84375 
Q 16.21875 57.28125 16.21875 49.421875 
Q 16.21875 41.5 20.09375 36.953125 
Q 23.96875 32.421875 30.609375 32.421875 
" id="BitstreamVeraSans-Roman-39"/>
      </defs>
      <g transform="translate(20.595 68.8379464286)scale(0.12 -0.12)">
       <use xlink:href="#BitstreamVeraSans-Roman-39"/>
       <use x="63.623046875" xlink:href="#BitstreamVeraSans-Roman-30"/>
      </g>
     </g>
    </g>
    <g id="ytick_7">
     <g id="line2d_31">
      <g>
       <use style="stroke:#000000;stroke-width:0.5;" x="39.865" xlink:href="#m1f5ffdc515" y="42.1467857143"/>
      </g>
     </g>
     <g id="line2d_32">
      <g>
       <use style="stroke:#000000;stroke-width:0.5;" x="307.04" xlink:href="#mb6be2b8f59" y="42.1467857143"/>
      </g>
     </g>
     <g id="text_15">
      <!-- 95 -->
      <g transform="translate(20.595 45.4580357143)scale(0.12 -0.12)">
       <use xlink:href="#BitstreamVeraSans-Roman-39"/>
       <use x="63.623046875" xlink:href="#BitstreamVeraSans-Roman-35"/>
      </g>
     </g>
    </g>
    <g id="ytick_8">
     <g id="line2d_33">
      <g>
       <use style="stroke:#000000;stroke-width:0.5;" x="39.865" xlink:href="#m1f5ffdc515" y="18.766875"/>
      </g>
     </g>
     <g id="line2d_34">
      <g>
       <use style="stroke:#000000;stroke-width:0.5;" x="307.04" xlink:href="#mb6be2b8f59" y="18.766875"/>
      </g>
     </g>
     <g id="text_16">
      <!-- 100 -->
      <g transform="translate(12.96 22.078125)scale(0.12 -0.12)">
       <use xlink:href="#BitstreamVeraSans-Roman-31"/>
       <use x="63.623046875" xlink:href="#BitstreamVeraSans-Roman-30"/>
       <use x="127.24609375" xlink:href="#BitstreamVeraSans-Roman-30"/>
      </g>
     </g>
    </g>
   </g>
   <g id="legend_1">
    <g id="patch_7">
     <path d="M 47.065 123.893062 
L 248.65825 123.893062 
L 248.65825 77.300062 
L 47.065 77.300062 
z
" style="fill:#ffffff;stroke:#000000;stroke-linejoin:miter;"/>
    </g>
    <g id="line2d_35">
     <path d="M 57.145 88.961813 
L 77.305 88.961813 
" style="fill:none;stroke:#0000ff;stroke-linecap:square;"/>
    </g>
    <g id="line2d_36"/>
    <g id="text_17">
     <!-- Temperature (deg F) -->
     <defs>
      <path d="M 56.203125 29.59375 
L 56.203125 25.203125 
L 14.890625 25.203125 
Q 15.484375 15.921875 20.484375 11.0625 
Q 25.484375 6.203125 34.421875 6.203125 
Q 39.59375 6.203125 44.453125 7.46875 
Q 49.3125 8.734375 54.109375 11.28125 
L 54.109375 2.78125 
Q 49.265625 0.734375 44.1875 -0.34375 
Q 39.109375 -1.421875 33.890625 -1.421875 
Q 20.796875 -1.421875 13.15625 6.1875 
Q 5.515625 13.8125 5.515625 26.8125 
Q 5.515625 40.234375 12.765625 48.109375 
Q 20.015625 56 32.328125 56 
Q 43.359375 56 49.78125 48.890625 
Q 56.203125 41.796875 56.203125 29.59375 
M 47.21875 32.234375 
Q 47.125 39.59375 43.09375 43.984375 
Q 39.0625 48.390625 32.421875 48.390625 
Q 24.90625 48.390625 20.390625 44.140625 
Q 15.875 39.890625 15.1875 32.171875 
z
" id="BitstreamVeraSans-Roman-65"/>
      <path d="M 8.5 21.578125 
L 8.5 54.6875 
L 17.484375 54.6875 
L 17.484375 21.921875 
Q 17.484375 14.15625 20.5 10.265625 
Q 23.53125 6.390625 29.59375 6.390625 
Q 36.859375 6.390625 41.078125 11.03125 
Q 45.3125 15.671875 45.3125 23.6875 
L 45.3125 54.6875 
L 54.296875 54.6875 
L 54.296875 0 
L 45.3125 0 
L 45.3125 8.40625 
Q 42.046875 3.421875 37.71875 1 
Q 33.40625 -1.421875 27.6875 -1.421875 
Q 18.265625 -1.421875 13.375 4.4375 
Q 8.5 10.296875 8.5 21.578125 
" id="BitstreamVeraSans-Roman-75"/>
      <path d="M 52 44.1875 
Q 55.375 50.25 60.0625 53.125 
Q 64.75 56 71.09375 56 
Q 79.640625 56 84.28125 50.015625 
Q 88.921875 44.046875 88.921875 33.015625 
L 88.921875 0 
L 79.890625 0 
L 79.890625 32.71875 
Q 79.890625 40.578125 77.09375 44.375 
Q 74.3125 48.1875 68.609375 48.1875 
Q 61.625 48.1875 57.5625 43.546875 
Q 53.515625 38.921875 53.515625 30.90625 
L 53.515625 0 
L 44.484375 0 
L 44.484375 32.71875 
Q 44.484375 40.625 41.703125 44.40625 
Q 38.921875 48.1875 33.109375 48.1875 
Q 26.21875 48.1875 22.15625 43.53125 
Q 18.109375 38.875 18.109375 30.90625 
L 18.109375 0 
L 9.078125 0 
L 9.078125 54.6875 
L 18.109375 54.6875 
L 18.109375 46.1875 
Q 21.1875 51.21875 25.484375 53.609375 
Q 29.78125 56 35.6875 56 
Q 41.65625 56 45.828125 52.96875 
Q 50 49.953125 52 44.1875 
" id="BitstreamVeraSans-Roman-6d"/>
      <path d="M -0.296875 72.90625 
L 61.375 72.90625 
L 61.375 64.59375 
L 35.5 64.59375 
L 35.5 0 
L 25.59375 0 
L 25.59375 64.59375 
L -0.296875 64.59375 
z
" id="BitstreamVeraSans-Roman-54"/>
      <path d="M 41.109375 46.296875 
Q 39.59375 47.171875 37.8125 47.578125 
Q 36.03125 48 33.890625 48 
Q 26.265625 48 22.1875 43.046875 
Q 18.109375 38.09375 18.109375 28.8125 
L 18.109375 0 
L 9.078125 0 
L 9.078125 54.6875 
L 18.109375 54.6875 
L 18.109375 46.1875 
Q 20.953125 51.171875 25.484375 53.578125 
Q 30.03125 56 36.53125 56 
Q 37.453125 56 38.578125 55.875 
Q 39.703125 55.765625 41.0625 55.515625 
z
" id="BitstreamVeraSans-Roman-72"/>
      <path d="M 9.8125 72.90625 
L 51.703125 72.90625 
L 51.703125 64.59375 
L 19.671875 64.59375 
L 19.671875 43.109375 
L 48.578125 43.109375 
L 48.578125 34.8125 
L 19.671875 34.8125 
L 19.671875 0 
L 9.8125 0 
z
" id="BitstreamVeraSans-Roman-46"/>
      <path d="M 45.40625 46.390625 
L 45.40625 75.984375 
L 54.390625 75.984375 
L 54.390625 0 
L 45.40625 0 
L 45.40625 8.203125 
Q 42.578125 3.328125 38.25 0.953125 
Q 33.9375 -1.421875 27.875 -1.421875 
Q 17.96875 -1.421875 11.734375 6.484375 
Q 5.515625 14.40625 5.515625 27.296875 
Q 5.515625 40.1875 11.734375 48.09375 
Q 17.96875 56 27.875 56 
Q 33.9375 56 38.25 53.625 
Q 42.578125 51.265625 45.40625 46.390625 
M 14.796875 27.296875 
Q 14.796875 17.390625 18.875 11.75 
Q 22.953125 6.109375 30.078125 6.109375 
Q 37.203125 6.109375 41.296875 11.75 
Q 45.40625 17.390625 45.40625 27.296875 
Q 45.40625 37.203125 41.296875 42.84375 
Q 37.203125 48.484375 30.078125 48.484375 
Q 22.953125 48.484375 18.875 42.84375 
Q 14.796875 37.203125 14.796875 27.296875 
" id="BitstreamVeraSans-Roman-64"/>
      <path d="M 18.109375 8.203125 
L 18.109375 -20.796875 
L 9.078125 -20.796875 
L 9.078125 54.6875 
L 18.109375 54.6875 
L 18.109375 46.390625 
Q 20.953125 51.265625 25.265625 53.625 
Q 29.59375 56 35.59375 56 
Q 45.5625 56 51.78125 48.09375 
Q 58.015625 40.1875 58.015625 27.296875 
Q 58.015625 14.40625 51.78125 6.484375 
Q 45.5625 -1.421875 35.59375 -1.421875 
Q 29.59375 -1.421875 25.265625 0.953125 
Q 20.953125 3.328125 18.109375 8.203125 
M 48.6875 27.296875 
Q 48.6875 37.203125 44.609375 42.84375 
Q 40.53125 48.484375 33.40625 48.484375 
Q 26.265625 48.484375 22.1875 42.84375 
Q 18.109375 37.203125 18.109375 27.296875 
Q 18.109375 17.390625 22.1875 11.75 
Q 26.265625 6.109375 33.40625 6.109375 
Q 40.53125 6.109375 44.609375 11.75 
Q 48.6875 17.390625 48.6875 27.296875 
" id="BitstreamVeraSans-Roman-70"/>
      <path d="M 8.015625 75.875 
L 15.828125 75.875 
Q 23.140625 64.359375 26.78125 53.3125 
Q 30.421875 42.28125 30.421875 31.390625 
Q 30.421875 20.453125 26.78125 9.375 
Q 23.140625 -1.703125 15.828125 -13.1875 
L 8.015625 -13.1875 
Q 14.5 -2 17.703125 9.0625 
Q 20.90625 20.125 20.90625 31.390625 
Q 20.90625 42.671875 17.703125 53.65625 
Q 14.5 64.65625 8.015625 75.875 
" id="BitstreamVeraSans-Roman-29"/>
      <path d="M 18.3125 70.21875 
L 18.3125 54.6875 
L 36.8125 54.6875 
L 36.8125 47.703125 
L 18.3125 47.703125 
L 18.3125 18.015625 
Q 18.3125 11.328125 20.140625 9.421875 
Q 21.96875 7.515625 27.59375 7.515625 
L 36.8125 7.515625 
L 36.8125 0 
L 27.59375 0 
Q 17.1875 0 13.234375 3.875 
Q 9.28125 7.765625 9.28125 18.015625 
L 9.28125 47.703125 
L 2.6875 47.703125 
L 2.6875 54.6875 
L 9.28125 54.6875 
L 9.28125 70.21875 
z
" id="BitstreamVeraSans-Roman-74"/>
      <path d="M 45.40625 27.984375 
Q 45.40625 37.75 41.375 43.109375 
Q 37.359375 48.484375 30.078125 48.484375 
Q 22.859375 48.484375 18.828125 43.109375 
Q 14.796875 37.75 14.796875 27.984375 
Q 14.796875 18.265625 18.828125 12.890625 
Q 22.859375 7.515625 30.078125 7.515625 
Q 37.359375 7.515625 41.375 12.890625 
Q 45.40625 18.265625 45.40625 27.984375 
M 54.390625 6.78125 
Q 54.390625 -7.171875 48.1875 -13.984375 
Q 42 -20.796875 29.203125 -20.796875 
Q 24.46875 -20.796875 20.265625 -20.09375 
Q 16.0625 -19.390625 12.109375 -17.921875 
L 12.109375 -9.1875 
Q 16.0625 -11.328125 19.921875 -12.34375 
Q 23.78125 -13.375 27.78125 -13.375 
Q 36.625 -13.375 41.015625 -8.765625 
Q 45.40625 -4.15625 45.40625 5.171875 
L 45.40625 9.625 
Q 42.625 4.78125 38.28125 2.390625 
Q 33.9375 0 27.875 0 
Q 17.828125 0 11.671875 7.65625 
Q 5.515625 15.328125 5.515625 27.984375 
Q 5.515625 40.671875 11.671875 48.328125 
Q 17.828125 56 27.875 56 
Q 33.9375 56 38.28125 53.609375 
Q 42.625 51.21875 45.40625 46.390625 
L 45.40625 54.6875 
L 54.390625 54.6875 
z
" id="BitstreamVeraSans-Roman-67"/>
      <path id="BitstreamVeraSans-Roman-20"/>
      <path d="M 34.28125 27.484375 
Q 23.390625 27.484375 19.1875 25 
Q 14.984375 22.515625 14.984375 16.5 
Q 14.984375 11.71875 18.140625 8.90625 
Q 21.296875 6.109375 26.703125 6.109375 
Q 34.1875 6.109375 38.703125 11.40625 
Q 43.21875 16.703125 43.21875 25.484375 
L 43.21875 27.484375 
z
M 52.203125 31.203125 
L 52.203125 0 
L 43.21875 0 
L 43.21875 8.296875 
Q 40.140625 3.328125 35.546875 0.953125 
Q 30.953125 -1.421875 24.3125 -1.421875 
Q 15.921875 -1.421875 10.953125 3.296875 
Q 6 8.015625 6 15.921875 
Q 6 25.140625 12.171875 29.828125 
Q 18.359375 34.515625 30.609375 34.515625 
L 43.21875 34.515625 
L 43.21875 35.40625 
Q 43.21875 41.609375 39.140625 45 
Q 35.0625 48.390625 27.6875 48.390625 
Q 23 48.390625 18.546875 47.265625 
Q 14.109375 46.140625 10.015625 43.890625 
L 10.015625 52.203125 
Q 14.9375 54.109375 19.578125 55.046875 
Q 24.21875 56 28.609375 56 
Q 40.484375 56 46.34375 49.84375 
Q 52.203125 43.703125 52.203125 31.203125 
" id="BitstreamVeraSans-Roman-61"/>
      <path d="M 31 75.875 
Q 24.46875 64.65625 21.28125 53.65625 
Q 18.109375 42.671875 18.109375 31.390625 
Q 18.109375 20.125 21.3125 9.0625 
Q 24.515625 -2 31 -13.1875 
L 23.1875 -13.1875 
Q 15.875 -1.703125 12.234375 9.375 
Q 8.59375 20.453125 8.59375 31.390625 
Q 8.59375 42.28125 12.203125 53.3125 
Q 15.828125 64.359375 23.1875 75.875 
z
" id="BitstreamVeraSans-Roman-28"/>
     </defs>
     <g transform="translate(93.145 94.0018125)scale(0.144 -0.144)">
      <use xlink:href="#BitstreamVeraSans-Roman-54"/>
      <use x="60.818359375" xlink:href="#BitstreamVeraSans-Roman-65"/>
      <use x="122.341796875" xlink:href="#BitstreamVeraSans-Roman-6d"/>
      <use x="219.75390625" xlink:href="#BitstreamVeraSans-Roman-70"/>
      <use x="283.23046875" xlink:href="#BitstreamVeraSans-Roman-65"/>
      <use x="344.75390625" xlink:href="#BitstreamVeraSans-Roman-72"/>
      <use x="385.8671875" xlink:href="#BitstreamVeraSans-Roman-61"/>
      <use x="447.146484375" xlink:href="#BitstreamVeraSans-Roman-74"/>
      <use x="486.35546875" xlink:href="#BitstreamVeraSans-Roman-75"/>
      <use x="549.734375" xlink:href="#BitstreamVeraSans-Roman-72"/>
      <use x="590.81640625" xlink:href="#BitstreamVeraSans-Roman-65"/>
      <use x="652.33984375" xlink:href="#BitstreamVeraSans-Roman-20"/>
      <use x="684.126953125" xlink:href="#BitstreamVeraSans-Roman-28"/>
      <use x="723.140625" xlink:href="#BitstreamVeraSans-Roman-64"/>
      <use x="786.6171875" xlink:href="#BitstreamVeraSans-Roman-65"/>
      <use x="848.140625" xlink:href="#BitstreamVeraSans-Roman-67"/>
      <use x="911.6171875" xlink:href="#BitstreamVeraSans-Roman-20"/>
      <use x="943.404296875" xlink:href="#BitstreamVeraSans-Roman-46"/>
      <use x="1000.923828125" xlink:href="#BitstreamVeraSans-Roman-29"/>
     </g>
    </g>
    <g id="line2d_37">
     <path d="M 57.145 110.098312 
L 77.305 110.098312 
" style="fill:none;stroke:#008000;stroke-linecap:square;"/>
    </g>
    <g id="line2d_38"/>
    <g id="text_18">
     <!-- Dew Point (deg F) -->
     <defs>
      <path d="M 4.203125 54.6875 
L 13.1875 54.6875 
L 24.421875 12.015625 
L 35.59375 54.6875 
L 46.1875 54.6875 
L 57.421875 12.015625 
L 68.609375 54.6875 
L 77.59375 54.6875 
L 63.28125 0 
L 52.6875 0 
L 40.921875 44.828125 
L 29.109375 0 
L 18.5 0 
z
" id="BitstreamVeraSans-Roman-77"/>
      <path d="M 9.421875 54.6875 
L 18.40625 54.6875 
L 18.40625 0 
L 9.421875 0 
z
M 9.421875 75.984375 
L 18.40625 75.984375 
L 18.40625 64.59375 
L 9.421875 64.59375 
z
" id="BitstreamVeraSans-Roman-69"/>
      <path d="M 30.609375 48.390625 
Q 23.390625 48.390625 19.1875 42.75 
Q 14.984375 37.109375 14.984375 27.296875 
Q 14.984375 17.484375 19.15625 11.84375 
Q 23.34375 6.203125 30.609375 6.203125 
Q 37.796875 6.203125 41.984375 11.859375 
Q 46.1875 17.53125 46.1875 27.296875 
Q 46.1875 37.015625 41.984375 42.703125 
Q 37.796875 48.390625 30.609375 48.390625 
M 30.609375 56 
Q 42.328125 56 49.015625 48.375 
Q 55.71875 40.765625 55.71875 27.296875 
Q 55.71875 13.875 49.015625 6.21875 
Q 42.328125 -1.421875 30.609375 -1.421875 
Q 18.84375 -1.421875 12.171875 6.21875 
Q 5.515625 13.875 5.515625 27.296875 
Q 5.515625 40.765625 12.171875 48.375 
Q 18.84375 56 30.609375 56 
" id="BitstreamVeraSans-Roman-6f"/>
      <path d="M 54.890625 33.015625 
L 54.890625 0 
L 45.90625 0 
L 45.90625 32.71875 
Q 45.90625 40.484375 42.875 44.328125 
Q 39.84375 48.1875 33.796875 48.1875 
Q 26.515625 48.1875 22.3125 43.546875 
Q 18.109375 38.921875 18.109375 30.90625 
L 18.109375 0 
L 9.078125 0 
L 9.078125 54.6875 
L 18.109375 54.6875 
L 18.109375 46.1875 
Q 21.34375 51.125 25.703125 53.5625 
Q 30.078125 56 35.796875 56 
Q 45.21875 56 50.046875 50.171875 
Q 54.890625 44.34375 54.890625 33.015625 
" id="BitstreamVeraSans-Roman-6e"/>
      <path d="M 19.671875 64.796875 
L 19.671875 8.109375 
L 31.59375 8.109375 
Q 46.6875 8.109375 53.6875 14.9375 
Q 60.6875 21.78125 60.6875 36.53125 
Q 60.6875 51.171875 53.6875 57.984375 
Q 46.6875 64.796875 31.59375 64.796875 
z
M 9.8125 72.90625 
L 30.078125 72.90625 
Q 51.265625 72.90625 61.171875 64.09375 
Q 71.09375 55.28125 71.09375 36.53125 
Q 71.09375 17.671875 61.125 8.828125 
Q 51.171875 0 30.078125 0 
L 9.8125 0 
z
" id="BitstreamVeraSans-Roman-44"/>
      <path d="M 19.671875 64.796875 
L 19.671875 37.40625 
L 32.078125 37.40625 
Q 38.96875 37.40625 42.71875 40.96875 
Q 46.484375 44.53125 46.484375 51.125 
Q 46.484375 57.671875 42.71875 61.234375 
Q 38.96875 64.796875 32.078125 64.796875 
z
M 9.8125 72.90625 
L 32.078125 72.90625 
Q 44.34375 72.90625 50.609375 67.359375 
Q 56.890625 61.8125 56.890625 51.125 
Q 56.890625 40.328125 50.609375 34.8125 
Q 44.34375 29.296875 32.078125 29.296875 
L 19.671875 29.296875 
L 19.671875 0 
L 9.8125 0 
z
" id="BitstreamVeraSans-Roman-50"/>
     </defs>
     <g transform="translate(93.145 115.1383125)scale(0.144 -0.144)">
      <use xlink:href="#BitstreamVeraSans-Roman-44"/>
      <use x="77.001953125" xlink:href="#BitstreamVeraSans-Roman-65"/>
      <use x="138.525390625" xlink:href="#BitstreamVeraSans-Roman-77"/>
      <use x="220.3125" xlink:href="#BitstreamVeraSans-Roman-20"/>
      <use x="252.099609375" xlink:href="#BitstreamVeraSans-Roman-50"/>
      <use x="312.35546875" xlink:href="#BitstreamVeraSans-Roman-6f"/>
      <use x="373.537109375" xlink:href="#BitstreamVeraSans-Roman-69"/>
      <use x="401.3203125" xlink:href="#BitstreamVeraSans-Roman-6e"/>
      <use x="464.69921875" xlink:href="#BitstreamVeraSans-Roman-74"/>
      <use x="503.908203125" xlink:href="#BitstreamVeraSans-Roman-20"/>
      <use x="535.6953125" xlink:href="#BitstreamVeraSans-Roman-28"/>
      <use x="574.708984375" xlink:href="#BitstreamVeraSans-Roman-64"/>
      <use x="638.185546875" xlink:href="#BitstreamVeraSans-Roman-65"/>
      <use x="699.708984375" xlink:href="#BitstreamVeraSans-Roman-67"/>
      <use x="763.185546875" xlink:href="#BitstreamVeraSans-Roman-20"/>
      <use x="794.97265625" xlink:href="#BitstreamVeraSans-Roman-46"/>
      <use x="852.4921875" xlink:href="#BitstreamVeraSans-Roman-29"/>
     </g>
    </g>
   </g>
  </g>
 </g>
 <defs>
  <clipPath id="p22c0845367">
   <rect height="163.659375" width="267.175" x="39.865" y="18.766875"/>
  </clipPath>
 </defs>
</svg>
